<?xml version="1.0" encoding="UTF-8" standalone="no"?>
<!-- Created with Inkscape (http://www.inkscape.org/) -->

<svg
   xmlns:dc="http://purl.org/dc/elements/1.1/"
   xmlns:cc="http://creativecommons.org/ns#"
   xmlns:rdf="http://www.w3.org/1999/02/22-rdf-syntax-ns#"
   xmlns:svg="http://www.w3.org/2000/svg"
   xmlns="http://www.w3.org/2000/svg"
   xmlns:xlink="http://www.w3.org/1999/xlink"
   xmlns:sodipodi="http://sodipodi.sourceforge.net/DTD/sodipodi-0.dtd"
   xmlns:inkscape="http://www.inkscape.org/namespaces/inkscape"
   width="600"
   height="602.66998"
   id="svg3106"
   version="1.1"
   inkscape:version="0.48.4 r9939"
   sodipodi:docname="B2004 - Theros - Mythic Rare.svg">
  <defs
     id="defs3108">
    <linearGradient
       gradientTransform="translate(1081.8323,137.79797)"
       inkscape:collect="always"
       xlink:href="#linearGradient4128-1"
       id="linearGradient3818"
       x1="-940.20911"
       y1="604.56421"
       x2="-433.45911"
       y2="218.84993"
       gradientUnits="userSpaceOnUse" />
    <linearGradient
       spreadMethod="pad"
       gradientTransform="matrix(286.38379,0,0,-286.38379,6.8085937,143.83398)"
       gradientUnits="userSpaceOnUse"
       id="linearGradient4128-1"
       y2="0"
       x2="1"
       y1="0"
       x1="0">
      <stop
         offset="0"
         style="stop-color:#bf331c;stop-opacity:1"
         id="stop4130-7" />
      <stop
         offset="0.51718265"
         style="stop-color:#f6971d;stop-opacity:1"
         id="stop4132-4" />
      <stop
         offset="1"
         style="stop-color:#bf331c;stop-opacity:1"
         id="stop4134-0" />
    </linearGradient>
    <linearGradient
       inkscape:collect="always"
       xlink:href="#linearGradient4128-1"
       id="linearGradient3929"
       gradientUnits="userSpaceOnUse"
       gradientTransform="translate(1081.8314,137.79797)"
       x1="-940.20911"
       y1="604.56421"
       x2="-433.45911"
       y2="218.84993" />
  </defs>
  <sodipodi:namedview
     id="base"
     pagecolor="#ffffff"
     bordercolor="#666666"
     borderopacity="1.0"
     inkscape:pageopacity="0.0"
     inkscape:pageshadow="2"
     inkscape:zoom="0.7"
     inkscape:cx="-85.909168"
     inkscape:cy="296.88002"
     inkscape:document-units="px"
     inkscape:current-layer="layer1"
     showgrid="false"
     fit-margin-top="0"
     fit-margin-left="0"
     fit-margin-right="0"
     fit-margin-bottom="0"
     inkscape:window-width="1170"
     inkscape:window-height="686"
     inkscape:window-x="6"
     inkscape:window-y="45"
     inkscape:window-maximized="1" />
  <metadata
     id="metadata3111">
    <rdf:RDF>
      <cc:Work
         rdf:about="">
        <dc:format>image/svg+xml</dc:format>
        <dc:type
           rdf:resource="http://purl.org/dc/dcmitype/StillImage" />
        <dc:title />
      </cc:Work>
    </rdf:RDF>
  </metadata>
  <g
     inkscape:label="Layer 1"
     inkscape:groupmode="layer"
     id="layer1"
     transform="translate(-105.71401,-193.88433)">
    <path
       id="path3773_3_"
       sodipodi:nodetypes="ccccccccccccccsccccccccsccccccccccccccccc"
       inkscape:connector-curvature="0"
       d="m 279.93448,193.88433 v 21.635 25.788 6.788 l 3.874,5.548 59.60394,85.67 v 235.439 h -38.89896 c -73.86494,-45.317 -74.86093,-156.865 -6.447,-204.63 l 17.54299,-12.243 -12.02599,-17.636 -48.59996,-71.413 -12.49099,-18.349 -18.00798,12.956 c -68.60494,49.345 -114.24589,120.941 -118.46289,198.369 -3.943,72.399 29.89497,147.93 108.6379,209.186 l -61.02994,91.963 -22.28498,33.59896 h 40.29296 468.15058 40.29396 l -22.28498,-33.59896 -61.02995,-91.963 c 78.72693,-61.213 112.5849,-136.528 108.63891,-208.721 -4.221,-77.208 -49.88796,-148.519 -118.4639,-197.842 l -17.88399,-12.894 -12.52199,18.164 -48.60095,70.421 -12.21199,17.698 17.63698,12.305 c 68.41394,47.765 67.41694,159.312 -6.44699,204.63 h -38.89796 v -235.44 l 59.60394,-85.67 3.874,-5.548 v -6.788 -25.788 -21.635 H 509.85627 301.56946 279.93448 z"
       style="fill:#ffffff" />
    <path
       sodipodi:nodetypes="ccccccccccccccccccc"
       inkscape:connector-curvature="0"
       d="m 301.56946,215.51933 v 25.788 l 63.47794,91.25 v 263.831 h -66.45394 c -92.29991,-51.131 -95.86291,-186.067 -12.89399,-243.994 l -48.60095,-71.413 c -128.48488,92.414 -165.766881,264.61 6.94299,384.836 l -72.40493,109.10296 c 415.87761,0 109.1889,0 468.15058,0 L 567.38321,665.81733 c 172.70885,-120.226 135.42789,-291.431 6.942,-383.844 l -48.60096,70.421 c 82.96993,57.926 79.40693,192.863 -12.89399,243.994 h -66.45293 v -263.832 l 63.47794,-91.25 v -25.788 c -169.28685,0.001 -59.56895,0.001 -208.28581,0.001 z"
       style="fill:url(#linearGradient3929);fill-opacity:1"
       id="path2984_3_" />
  </g>
</svg>
