<?xml version="1.0" encoding="UTF-8" standalone="no"?>
<!-- Created with Inkscape (http://www.inkscape.org/) -->

<svg
   xmlns:dc="http://purl.org/dc/elements/1.1/"
   xmlns:cc="http://creativecommons.org/ns#"
   xmlns:rdf="http://www.w3.org/1999/02/22-rdf-syntax-ns#"
   xmlns:svg="http://www.w3.org/2000/svg"
   xmlns="http://www.w3.org/2000/svg"
   xmlns:xlink="http://www.w3.org/1999/xlink"
   xmlns:sodipodi="http://sodipodi.sourceforge.net/DTD/sodipodi-0.dtd"
   xmlns:inkscape="http://www.inkscape.org/namespaces/inkscape"
   width="600"
   height="602.66998"
   id="svg3119"
   version="1.1"
   inkscape:version="0.48.4 r9939"
   sodipodi:docname="B2002 - Theros - Uncommon.svg">
  <defs
     id="defs3121">
    <linearGradient
       inkscape:collect="always"
       xlink:href="#linearGradient4128-1"
       id="linearGradient3929"
       gradientUnits="userSpaceOnUse"
       gradientTransform="translate(1081.8323,137.79797)"
       x1="-940.20911"
       y1="604.56421"
       x2="-433.45911"
       y2="218.84993" />
    <linearGradient
       spreadMethod="pad"
       gradientTransform="matrix(286.38379,0,0,-286.38379,6.8085937,143.83398)"
       gradientUnits="userSpaceOnUse"
       id="linearGradient4128-1"
       y2="0"
       x2="1"
       y1="0"
       x1="0">
      <stop
         offset="0"
         style="stop-color:#bf331c;stop-opacity:1"
         id="stop4130-7" />
      <stop
         offset="0.51718265"
         style="stop-color:#f6971d;stop-opacity:1"
         id="stop4132-4" />
      <stop
         offset="1"
         style="stop-color:#bf331c;stop-opacity:1"
         id="stop4134-0" />
    </linearGradient>
    <linearGradient
       y2="218.84993"
       x2="-433.45911"
       y1="604.56421"
       x1="-940.20911"
       gradientTransform="translate(1070.4047,160.65513)"
       gradientUnits="userSpaceOnUse"
       id="linearGradient3007"
       xlink:href="#SVGID_2_-1"
       inkscape:collect="always" />
    <linearGradient
       gradientTransform="translate(0.13280035,-0.0395)"
       y2="25.039101"
       x2="45.693401"
       y1="25.039101"
       x1="1.9229"
       gradientUnits="userSpaceOnUse"
       id="linearGradient3007-1"
       xlink:href="#SVGID_2_-1"
       inkscape:collect="always" />
    <linearGradient
       id="SVGID_2_-1"
       gradientUnits="userSpaceOnUse"
       x1="1.9229"
       y1="25.039101"
       x2="45.693401"
       y2="25.039101">
      <stop
         offset="0"
         style="stop-color:#626E77"
         id="stop8-7" />
      <stop
         offset="0.4"
         style="stop-color:#A0B6C2"
         id="stop10-4" />
      <stop
         offset="0.5"
         style="stop-color:#B7D1E1"
         id="stop12-0" />
      <stop
         offset="0.6"
         style="stop-color:#A0B6C2"
         id="stop14-9" />
      <stop
         offset="1"
         style="stop-color:#626E77"
         id="stop16-4" />
    </linearGradient>
    <linearGradient
       y2="25.039101"
       x2="45.693401"
       y1="25.039101"
       x1="1.9229"
       gradientTransform="translate(33.335657,828.75125)"
       gradientUnits="userSpaceOnUse"
       id="linearGradient3048"
       xlink:href="#SVGID_2_-1"
       inkscape:collect="always" />
  </defs>
  <sodipodi:namedview
     id="base"
     pagecolor="#ffffff"
     bordercolor="#666666"
     borderopacity="1.0"
     inkscape:pageopacity="0.0"
     inkscape:pageshadow="2"
     inkscape:zoom="0.49497475"
     inkscape:cx="-187.37458"
     inkscape:cy="299.97736"
     inkscape:document-units="px"
     inkscape:current-layer="layer1"
     showgrid="false"
     fit-margin-top="0"
     fit-margin-left="0"
     fit-margin-right="0"
     fit-margin-bottom="0"
     inkscape:window-width="1440"
     inkscape:window-height="881"
     inkscape:window-x="-8"
     inkscape:window-y="-8"
     inkscape:window-maximized="1" />
  <metadata
     id="metadata3124">
    <rdf:RDF>
      <cc:Work
         rdf:about="">
        <dc:format>image/svg+xml</dc:format>
        <dc:type
           rdf:resource="http://purl.org/dc/dcmitype/StillImage" />
        <dc:title />
      </cc:Work>
    </rdf:RDF>
  </metadata>
  <g
     inkscape:label="Layer 1"
     inkscape:groupmode="layer"
     id="layer1"
     transform="translate(-94.285446,-216.74147)">
    <path
       id="path3773_1_"
       sodipodi:nodetypes="ccccccccccccccsccccccccsccccccccccccccccc"
       inkscape:connector-curvature="0"
       d="m 268.50591,216.74147 v 21.635 25.788 6.788 l 3.874,5.548 59.60395,85.67 v 235.439 h -38.89897 c -73.86493,-45.317 -74.86093,-156.865 -6.44699,-204.63 l 17.54298,-12.243 -12.02599,-17.636 -48.59995,-71.413 -12.49099,-18.349 -18.00799,12.956 c -68.60495,49.345 -114.245891,120.941 -118.462887,198.369 -3.942997,72.399 29.894957,147.93 108.637897,209.186 l -61.02995,91.963 -22.28498,33.599 h 40.29296 468.15059 40.29396 l -22.28498,-33.599 -61.02994,-91.963 c 78.72693,-61.213 112.5849,-136.528 108.6389,-208.721 -4.221,-77.208 -49.88796,-148.519 -118.46389,-197.842 l -17.88399,-12.894 -12.52199,18.164 -48.60095,70.421 -12.21199,17.698 17.63698,12.305 c 68.41394,47.765 67.41694,159.312 -6.44699,204.63 h -38.89797 v -235.44 l 59.60395,-85.67 3.874,-5.548 v -6.788 -25.788 -21.635 H 498.42771 290.14089 268.50591 z"
       style="fill:#ffffff" />
    <path
       sodipodi:nodetypes="ccccccccccccccccccc"
       inkscape:connector-curvature="0"
       d="m 290.14278,238.37649 v 25.788 l 63.47795,91.25 v 263.831 h -66.45394 c -92.29992,-51.131 -95.86292,-186.067 -12.89399,-243.994 l -48.60096,-71.413 c -128.484878,92.414 -165.766874,264.61 6.943,384.836 L 160.2099,797.77745 c 415.87763,0 109.1889,0 468.15059,0 L 555.95654,688.67449 c 172.70887,-120.226 135.4279,-291.431 6.942,-383.844 l -48.60096,70.421 c 82.96993,57.926 79.40693,192.863 -12.89399,243.994 h -66.45294 v -263.832 l 63.47795,-91.25 v -25.788 c -169.28685,10e-4 -59.56895,10e-4 -208.28582,10e-4 z"
       style="fill:url(#linearGradient3007);fill-opacity:1"
       id="path2984_3_" />
  </g>
</svg>
