<?xml version="1.0" encoding="UTF-8" standalone="no"?>
<!-- Created with Inkscape (http://www.inkscape.org/) -->

<svg
   xmlns:dc="http://purl.org/dc/elements/1.1/"
   xmlns:cc="http://creativecommons.org/ns#"
   xmlns:rdf="http://www.w3.org/1999/02/22-rdf-syntax-ns#"
   xmlns:svg="http://www.w3.org/2000/svg"
   xmlns="http://www.w3.org/2000/svg"
   xmlns:sodipodi="http://sodipodi.sourceforge.net/DTD/sodipodi-0.dtd"
   xmlns:inkscape="http://www.inkscape.org/namespaces/inkscape"
   version="1.1"
   width="600"
   height="487.85431"
   viewBox="0 0 600.00001 487.8543"
   id="Layer_1"
   xml:space="preserve"
   inkscape:version="0.91 r13725"
   sodipodi:docname="D0605 - Commander 2014 - Common.svg"><sodipodi:namedview
     pagecolor="#889092"
     bordercolor="#666666"
     borderopacity="1"
     objecttolerance="10"
     gridtolerance="10"
     guidetolerance="10"
     inkscape:pageopacity="0"
     inkscape:pageshadow="2"
     inkscape:window-width="1015"
     inkscape:window-height="476"
     id="namedview3342"
     showgrid="false"
     inkscape:zoom="0.43609331"
     inkscape:cx="539.09995"
     inkscape:cy="253.51851"
     inkscape:window-x="2366"
     inkscape:window-y="443"
     inkscape:window-maximized="0"
     inkscape:current-layer="Layer_1" /><metadata
     id="metadata13"><rdf:RDF><cc:Work
         rdf:about=""><dc:format>image/svg+xml</dc:format><dc:type
           rdf:resource="http://purl.org/dc/dcmitype/StillImage" /><dc:title></dc:title></cc:Work></rdf:RDF></metadata><defs
     id="defs11" /><path
     style="fill:#ffffff;fill-opacity:1"
     d="m 247.83935,398.99164 c -27.59293,-11.53625 -69.51985,-29.072 -93.17093,-38.9683 -23.65108,-9.8963 -56.650337,-23.45669 -73.331681,-30.13421 -16.681341,-6.67751 -33.058402,-13.60126 -36.393472,-15.38616 l -6.063762,-3.24521 8.503215,-18.17095 C 59.716035,266.73111 65.162589,237.61895 63.621069,206.29184 62.471971,182.93959 61.083813,177.55262 50.693141,156.12287 44.290813,142.91869 32.374873,123.30961 24.213277,112.54714 16.051678,101.78467 9.8137756,92.619423 10.351266,92.179922 12.420822,90.487674 84.149297,81.333053 126.97622,77.295217 c 63.2573,-5.964067 213.10906,-8.209529 284.27061,-4.259669 68.64476,3.810167 160.66169,13.725309 177.15203,19.088747 2.44993,0.796838 -1.28593,7.795773 -10.99523,20.598945 -8.08827,10.66562 -20.00202,30.31485 -26.47497,43.66497 -10.11991,20.87172 -11.94033,27.53665 -12.99152,47.56452 -1.60125,30.5075 3.30622,58.23372 15.11536,85.39885 8.57459,19.72451 9.08196,22.29159 4.83979,24.48816 -2.60644,1.3496 -49.246,20.84371 -103.64349,43.32021 -54.39749,22.4765 -110.98757,45.86186 -125.75576,51.96746 -14.76817,6.10559 -27.66876,11.04216 -28.66798,10.97017 -0.99919,-0.072 -24.39278,-9.56966 -51.98571,-21.10594 z"
     id="path8211"
     inkscape:connector-curvature="0"
     sodipodi:nodetypes="sssscssssssssssssssscs" /><path
     style="fill:#000000"
     d="m 262.89004,385.01253 -35.11827,-14.67296 0,-139.48188 0,-139.481887 19.35088,-1.827573 c 25.07067,-2.367771 86.69157,-2.382742 109.23449,-0.02666 l 17.62132,1.841915 0,139.496756 0,139.49676 -36.55167,14.92791 c -20.10343,8.21036 -37.19671,14.80927 -37.98508,14.66424 -0.78837,-0.14506 -17.23662,-6.8665 -36.55167,-14.93662 z M 127.43384,328.59801 C 77.997393,307.76797 68.762006,302.94785 69.27858,298.24576 c 0.337752,-3.07438 3.818561,-17.20033 7.735134,-31.39098 8.232013,-29.82651 9.620137,-66.01126 3.424912,-89.27851 -4.208396,-15.80536 -17.713345,-44.03966 -29.032707,-60.69759 -3.826542,-5.63127 -6.632942,-10.56307 -6.23645,-10.95956 3.307345,-3.30735 138.713901,-15.986893 143.183831,-13.407819 1.18255,0.682316 2.15009,59.140969 2.15009,129.908109 0,70.76714 -0.96754,129.1791 -2.15009,129.80432 -1.18256,0.62522 -28.59631,-10.00633 -60.91946,-23.62572 z m 285.35553,23.41426 c -2.40857,-2.40857 -1.8099,-258.106134 0.60756,-259.500969 4.46994,-2.579074 139.87649,10.100469 143.18382,13.407819 0.39651,0.39649 -2.40991,5.32829 -6.23646,10.95956 -11.31935,16.65793 -24.82429,44.89223 -29.03269,60.69759 -7.96726,29.92242 -1.84364,90.17923 11.85699,116.67329 4.08527,7.90003 4.03261,8.68473 -0.6993,10.42299 -2.81442,1.03388 -30.5467,12.45535 -61.62726,25.38102 -31.08057,12.92568 -57.20426,22.80707 -58.05266,21.9587 z"
     id="path8207"
     inkscape:connector-curvature="0" /></svg>