<?xml version="1.0" encoding="UTF-8" standalone="no"?>
<!-- Created with Inkscape (http://www.inkscape.org/) -->

<svg
   xmlns:dc="http://purl.org/dc/elements/1.1/"
   xmlns:cc="http://creativecommons.org/ns#"
   xmlns:rdf="http://www.w3.org/1999/02/22-rdf-syntax-ns#"
   xmlns:svg="http://www.w3.org/2000/svg"
   xmlns="http://www.w3.org/2000/svg"
   xmlns:xlink="http://www.w3.org/1999/xlink"
   xmlns:inkscape="http://www.inkscape.org/namespaces/inkscape"
   version="1.1"
   width="600"
   height="576"
   id="svg3303">
  <defs
     id="defs3305">
    <linearGradient
       x1="0"
       y1="0"
       x2="1"
       y2="0"
       id="linearGradient3409"
       gradientUnits="userSpaceOnUse"
       gradientTransform="matrix(-170.50069,-119.49944,-119.49944,170.50069,238.35742,199.02051)"
       spreadMethod="pad">
      <stop
         id="stop3411"
         style="stop-color:#8f743f;stop-opacity:1"
         offset="0" />
      <stop
         id="stop3413"
         style="stop-color:#ebd491;stop-opacity:1"
         offset="0.46751401" />
      <stop
         id="stop3415"
         style="stop-color:#8f743f;stop-opacity:1"
         offset="1" />
    </linearGradient>
    <linearGradient
       x1="0"
       y1="0"
       x2="1"
       y2="0"
       id="linearGradient3387"
       gradientUnits="userSpaceOnUse"
       gradientTransform="matrix(-170.50069,-119.49944,-119.49944,170.50069,231.86523,208.28418)"
       spreadMethod="pad">
      <stop
         id="stop3389"
         style="stop-color:#8f743f;stop-opacity:1"
         offset="0" />
      <stop
         id="stop3391"
         style="stop-color:#ebd491;stop-opacity:1"
         offset="0.46751401" />
      <stop
         id="stop3393"
         style="stop-color:#8f743f;stop-opacity:1"
         offset="1" />
    </linearGradient>
    <clipPath
       id="clipPath3367">
      <path
         d="M 0,288 300,288 300,0 0,0 0,288 z"
         inkscape:connector-curvature="0"
         id="path3369" />
    </clipPath>
    <clipPath
       id="clipPath3353">
      <path
         d="M 289.462,0 300,0 l 0,288 -10.538,0 0,-288 z"
         inkscape:connector-curvature="0"
         id="path3355" />
    </clipPath>
    <clipPath
       id="clipPath3339">
      <path
         d="M 0,0 300,0 300,288 0,288 0,0 z"
         inkscape:connector-curvature="0"
         id="path3341" />
    </clipPath>
    <clipPath
       id="clipPath3325">
      <path
         d="M 0,288 0,0 10.378,0 13.834,288 0,288 z"
         inkscape:connector-curvature="0"
         id="path3327" />
    </clipPath>
    <linearGradient
       x1="0"
       y1="0"
       x2="1"
       y2="0"
       id="linearGradient3024"
       xlink:href="#linearGradient3409"
       gradientUnits="userSpaceOnUse"
       gradientTransform="matrix(-170.50069,-119.49944,-119.49944,170.50069,238.35742,199.02051)"
       spreadMethod="pad" />
    <linearGradient
       x1="0"
       y1="0"
       x2="1"
       y2="0"
       id="linearGradient3029"
       xlink:href="#linearGradient3387"
       gradientUnits="userSpaceOnUse"
       gradientTransform="matrix(-170.50069,-119.49944,-119.49944,170.50069,231.86523,208.28418)"
       spreadMethod="pad" />
    <linearGradient
       x1="0"
       y1="0"
       x2="1"
       y2="0"
       id="linearGradient3037"
       xlink:href="#linearGradient3387"
       gradientUnits="userSpaceOnUse"
       gradientTransform="matrix(-170.50069,-119.49944,-119.49944,170.50069,231.86523,208.28418)"
       spreadMethod="pad" />
    <linearGradient
       x1="0"
       y1="0"
       x2="1"
       y2="0"
       id="linearGradient3041"
       xlink:href="#linearGradient3409"
       gradientUnits="userSpaceOnUse"
       gradientTransform="matrix(-170.50069,-119.49944,-119.49944,170.50069,238.35742,199.02051)"
       spreadMethod="pad" />
    <linearGradient
       x1="0"
       y1="0"
       x2="1"
       y2="0"
       id="linearGradient3045"
       xlink:href="#linearGradient3409"
       gradientUnits="userSpaceOnUse"
       gradientTransform="matrix(-170.50069,-119.49944,-119.49944,170.50069,238.35742,199.02051)"
       spreadMethod="pad" />
    <linearGradient
       x1="0"
       y1="0"
       x2="1"
       y2="0"
       id="linearGradient3048"
       xlink:href="#linearGradient3409"
       gradientUnits="userSpaceOnUse"
       gradientTransform="matrix(-170.50069,-119.49944,-119.49944,170.50069,238.35742,199.02051)"
       spreadMethod="pad" />
    <linearGradient
       x1="0"
       y1="0"
       x2="1"
       y2="0"
       id="linearGradient3050"
       xlink:href="#linearGradient3387"
       gradientUnits="userSpaceOnUse"
       gradientTransform="matrix(-170.50069,-119.49944,-119.49944,170.50069,231.86523,208.28418)"
       spreadMethod="pad" />
    <linearGradient
       x1="0"
       y1="0"
       x2="1"
       y2="0"
       id="linearGradient3053"
       xlink:href="#linearGradient3387"
       gradientUnits="userSpaceOnUse"
       gradientTransform="matrix(-170.50069,-119.49944,-119.49944,170.50069,231.86523,208.28418)"
       spreadMethod="pad" />
    <linearGradient
       x1="0"
       y1="0"
       x2="1"
       y2="0"
       id="linearGradient3015"
       xlink:href="#linearGradient3387"
       gradientUnits="userSpaceOnUse"
       gradientTransform="matrix(-170.50069,-119.49944,-119.49944,170.50069,231.86523,208.28418)"
       spreadMethod="pad" />
    <linearGradient
       x1="0"
       y1="0"
       x2="1"
       y2="0"
       id="linearGradient3017"
       xlink:href="#linearGradient3409"
       gradientUnits="userSpaceOnUse"
       gradientTransform="matrix(-170.50069,-119.49944,-119.49944,170.50069,238.35742,199.02051)"
       spreadMethod="pad" />
    <linearGradient
       x1="0"
       y1="0"
       x2="1"
       y2="0"
       id="linearGradient3020"
       xlink:href="#linearGradient3409"
       gradientUnits="userSpaceOnUse"
       gradientTransform="matrix(-341.00138,238.99888,-238.99888,-341.00138,476.71444,177.95878)"
       spreadMethod="pad" />
    <linearGradient
       x1="0"
       y1="0"
       x2="1"
       y2="0"
       id="linearGradient3023"
       xlink:href="#linearGradient3387"
       gradientUnits="userSpaceOnUse"
       gradientTransform="matrix(-341.00138,238.99888,-238.99888,-341.00138,463.73006,159.43144)"
       spreadMethod="pad" />
  </defs>
  <metadata
     id="metadata3308">
    <rdf:RDF>
      <cc:Work
         rdf:about="">
        <dc:format>image/svg+xml</dc:format>
        <dc:type
           rdf:resource="http://purl.org/dc/dcmitype/StillImage" />
        <dc:title />
      </cc:Work>
    </rdf:RDF>
  </metadata>
  <path
     d="m 378.148,202.988 -124.238,163.864 59.242,37.906 0,130.952 -91.294,-162.694 124.236,-163.864 -59.238,-37.91 0,-130.954 91.292,162.7 z m 168.894,26.246 c -33.016,0.004 -59.776,26.796 -59.776,59.848 0,33.054 26.764,59.852 59.776,59.852 l -215.508,186.776 0,-141.034 -50.936,-32.59 L 400.082,204.5 307.894,40.288 547.042,229.234 z M 52.964,346.766 c 33.012,0 59.774,-26.798 59.774,-59.848 0,-33.058 -26.762,-59.852 -59.778,-59.852 l 215.512,-186.778 0,141.032 50.932,32.594 L 199.922,371.504 292.108,535.71 52.964,346.766 z M 286.728,0.11 3.638,245.472 l 49.322,0 c 22.824,0 41.396,18.594 41.396,41.446 0,22.852 -18.568,41.442 -41.392,41.442 l -52.964,0 313.152,247.436 0,0.204 0.12,-0.106 283.092,-245.364 -49.322,0 c -22.824,0 -41.394,-18.592 -41.394,-41.448 0,-22.852 18.57,-41.442 41.394,-41.442 L 600,247.632 286.856,0.206 l 0,-0.206 -0.128,0.11 z"
     inkscape:connector-curvature="0"
     id="path3373"
     style="fill:#ffffff;fill-opacity:1;fill-rule:nonzero;stroke:none" />
  <path
     d="m 52.9616,227.0658 c 33.014,0 59.776,26.794 59.776,59.852 l 0,0 c 0,33.05 -26.762,59.848 -59.774,59.848 l 0,0 239.146,188.944 -92.188,-164.206 119.482,-157.59 -50.932,-32.592 0,-141.032 -215.51,186.776 z"
     inkscape:connector-curvature="0"
     id="path3395"
     style="fill:url(#linearGradient3023);stroke:none" />
  <path
     d="m 400.0816,204.4998 -119.484,157.586 50.936,32.59 0,141.034 215.51,-186.776 c -33.012,0 -59.778,-26.798 -59.778,-59.852 l 0,0 c 0,-33.05 26.762,-59.842 59.778,-59.848 l 0,0 -239.148,-188.944 92.186,164.21 z"
     inkscape:connector-curvature="0"
     id="path3417"
     style="fill:url(#linearGradient3020);stroke:none" />
</svg>
