<?xml version="1.0" encoding="UTF-8" standalone="no"?>
<!-- Created with Inkscape (http://www.inkscape.org/) -->

<svg
   xmlns:dc="http://purl.org/dc/elements/1.1/"
   xmlns:cc="http://creativecommons.org/ns#"
   xmlns:rdf="http://www.w3.org/1999/02/22-rdf-syntax-ns#"
   xmlns:svg="http://www.w3.org/2000/svg"
   xmlns="http://www.w3.org/2000/svg"
   xmlns:xlink="http://www.w3.org/1999/xlink"
   xmlns:inkscape="http://www.inkscape.org/namespaces/inkscape"
   version="1.1"
   width="600"
   height="576.00006"
   id="svg3465">
  <defs
     id="defs3467">
    <clipPath
       id="clipPath3583">
      <path
         d="M 0,288 300,288 300,0 0,0 0,288 z"
         inkscape:connector-curvature="0"
         id="path3585" />
    </clipPath>
    <linearGradient
       x1="0"
       y1="0"
       x2="1"
       y2="0"
       id="linearGradient3569"
       gradientUnits="userSpaceOnUse"
       gradientTransform="matrix(-170.50069,-119.49944,-119.49944,170.50069,238.3584,199.01953)"
       spreadMethod="pad">
      <stop
         id="stop3571"
         style="stop-color:#bf331c;stop-opacity:1"
         offset="0" />
      <stop
         id="stop3573"
         style="stop-color:#f6971d;stop-opacity:1"
         offset="0.46751401" />
      <stop
         id="stop3575"
         style="stop-color:#bf331c;stop-opacity:1"
         offset="1" />
    </linearGradient>
    <clipPath
       id="clipPath3549">
      <path
         d="M 0,288 300,288 300,0 0,0 0,288 z"
         inkscape:connector-curvature="0"
         id="path3551" />
    </clipPath>
    <linearGradient
       x1="0"
       y1="0"
       x2="1"
       y2="0"
       id="linearGradient3535"
       gradientUnits="userSpaceOnUse"
       gradientTransform="matrix(-170.50069,-119.49944,-119.49944,170.50069,231.86523,208.28418)"
       spreadMethod="pad">
      <stop
         id="stop3537"
         style="stop-color:#bf331c;stop-opacity:1"
         offset="0" />
      <stop
         id="stop3539"
         style="stop-color:#f6971d;stop-opacity:1"
         offset="0.46751401" />
      <stop
         id="stop3541"
         style="stop-color:#bf331c;stop-opacity:1"
         offset="1" />
    </linearGradient>
    <clipPath
       id="clipPath3515">
      <path
         d="M 0,288 300,288 300,0 0,0 0,288 z"
         inkscape:connector-curvature="0"
         id="path3517" />
    </clipPath>
    <clipPath
       id="clipPath3501">
      <path
         d="M 0,0 300,0 300,288 0,288 0,0 z"
         inkscape:connector-curvature="0"
         id="path3503" />
    </clipPath>
    <clipPath
       id="clipPath3487">
      <path
         d="M 0,288 0,0 7.056,0 5.376,288 0,288 z"
         inkscape:connector-curvature="0"
         id="path3489" />
    </clipPath>
    <linearGradient
       x1="0"
       y1="0"
       x2="1"
       y2="0"
       id="linearGradient3048"
       xlink:href="#linearGradient3569"
       gradientUnits="userSpaceOnUse"
       gradientTransform="matrix(-170.50069,-119.49944,-119.49944,170.50069,238.3584,199.01953)"
       spreadMethod="pad" />
    <linearGradient
       x1="0"
       y1="0"
       x2="1"
       y2="0"
       id="linearGradient3057"
       xlink:href="#linearGradient3535"
       gradientUnits="userSpaceOnUse"
       gradientTransform="matrix(-170.50069,-119.49944,-119.49944,170.50069,231.86523,208.28418)"
       spreadMethod="pad" />
    <linearGradient
       x1="0"
       y1="0"
       x2="1"
       y2="0"
       id="linearGradient3068"
       xlink:href="#linearGradient3535"
       gradientUnits="userSpaceOnUse"
       gradientTransform="matrix(-170.50069,-119.49944,-119.49944,170.50069,231.86523,208.28418)"
       spreadMethod="pad" />
    <linearGradient
       x1="0"
       y1="0"
       x2="1"
       y2="0"
       id="linearGradient3075"
       xlink:href="#linearGradient3569"
       gradientUnits="userSpaceOnUse"
       gradientTransform="matrix(-170.50069,-119.49944,-119.49944,170.50069,238.3584,199.01953)"
       spreadMethod="pad" />
    <linearGradient
       x1="0"
       y1="0"
       x2="1"
       y2="0"
       id="linearGradient3083"
       xlink:href="#linearGradient3569"
       gradientUnits="userSpaceOnUse"
       gradientTransform="matrix(-170.50069,-119.49944,-119.49944,170.50069,238.3584,199.01953)"
       spreadMethod="pad" />
    <linearGradient
       x1="0"
       y1="0"
       x2="1"
       y2="0"
       id="linearGradient3088"
       xlink:href="#linearGradient3535"
       gradientUnits="userSpaceOnUse"
       gradientTransform="matrix(-170.50069,-119.49944,-119.49944,170.50069,231.86523,208.28418)"
       spreadMethod="pad" />
    <linearGradient
       x1="0"
       y1="0"
       x2="1"
       y2="0"
       id="linearGradient3093"
       xlink:href="#linearGradient3535"
       gradientUnits="userSpaceOnUse"
       gradientTransform="matrix(-170.50069,-119.49944,-119.49944,170.50069,231.86523,208.28418)"
       spreadMethod="pad" />
    <linearGradient
       x1="0"
       y1="0"
       x2="1"
       y2="0"
       id="linearGradient3096"
       xlink:href="#linearGradient3535"
       gradientUnits="userSpaceOnUse"
       gradientTransform="matrix(-213.12586,149.3743,-149.3743,-213.12586,1415.6648,369.64477)"
       spreadMethod="pad" />
    <linearGradient
       x1="0"
       y1="0"
       x2="1"
       y2="0"
       id="linearGradient3098"
       xlink:href="#linearGradient3569"
       gradientUnits="userSpaceOnUse"
       gradientTransform="matrix(-170.50069,-119.49944,-119.49944,170.50069,238.3584,199.01953)"
       spreadMethod="pad" />
    <linearGradient
       x1="0"
       y1="0"
       x2="1"
       y2="0"
       id="linearGradient3101"
       xlink:href="#linearGradient3569"
       gradientUnits="userSpaceOnUse"
       gradientTransform="matrix(-213.12586,149.3743,-149.3743,-213.12586,1423.7813,381.22559)"
       spreadMethod="pad" />
    <linearGradient
       x1="0"
       y1="0"
       x2="1"
       y2="0"
       id="linearGradient3018"
       xlink:href="#linearGradient3569"
       gradientUnits="userSpaceOnUse"
       gradientTransform="matrix(-341.00138,238.99888,-238.99888,-341.00138,476.71628,177.96083)"
       spreadMethod="pad" />
    <linearGradient
       x1="0"
       y1="0"
       x2="1"
       y2="0"
       id="linearGradient3022"
       xlink:href="#linearGradient3535"
       gradientUnits="userSpaceOnUse"
       gradientTransform="matrix(-341.00138,238.99888,-238.99888,-341.00138,463.72988,159.43152)"
       spreadMethod="pad" />
  </defs>
  <metadata
     id="metadata3470">
    <rdf:RDF>
      <cc:Work
         rdf:about="">
        <dc:format>image/svg+xml</dc:format>
        <dc:type
           rdf:resource="http://purl.org/dc/dcmitype/StillImage" />
        <dc:title />
      </cc:Work>
    </rdf:RDF>
  </metadata>
  <path
     d="m 378.14796,202.98808 -124.23808,163.864 59.24208,37.906 0,130.952 -91.29408,-162.694 124.236,-163.864 -59.23792,-37.91 0,-130.953998 91.292,162.699998 z m 168.89392,26.246 c -33.016,0.003 -59.77584,26.796 -59.77584,59.848 0,33.054 26.76384,59.852 59.77584,59.852 l -215.50784,186.776 0,-141.034 -50.936,-32.59 119.484,-157.586 -92.18816,-164.211998 239.148,188.945998 z m -494.07792,117.532 c 33.012,0 59.77408,-26.798 59.77408,-59.848 0,-33.058 -26.76208,-59.852 -59.77808,-59.852 l 215.512,-186.777998 0,141.031998 50.932,32.594 -119.48192,157.59 92.18592,164.206 -239.144,-188.944 z M 286.72796,0.110082 3.63804,245.47208 l 49.32192,0 c 22.824,0 41.396,18.594 41.396,41.446 0,22.852 -18.568,41.442 -41.392,41.442 l -52.964,0 313.152,247.436 0,0.204 0.12,-0.10608 283.092,-245.364 -49.32192,0 c -22.824,0 -41.39408,-18.592 -41.39408,-41.448 0,-22.852 18.57008,-41.442 41.39408,-41.442 l 52.95792,-0.008 -313.144,-247.425998 0,-0.2059999999998 L 286.72796,0.110082 z"
     inkscape:connector-curvature="0"
     id="path3521"
     style="fill:#ffffff;fill-opacity:1;fill-rule:nonzero;stroke:none" />
  <path
     d="m 52.96156,227.06589 c 33.01392,0 59.776,26.794 59.776,59.852 l 0,0 c 0,33.05 -26.76208,59.848 -59.77408,59.848 l 0,0 239.14608,188.944 -92.188,-164.206 119.48192,-157.59 -50.932,-32.592 0,-141.032 -215.50992,186.776 z"
     inkscape:connector-curvature="0"
     id="path3543"
     style="fill:url(#linearGradient3022);stroke:none" />
  <path
     d="m 52.96044,227.06629 c 33.016,0 59.77808,26.792 59.77808,59.852 0,33.05 -26.76208,59.848 -59.77408,59.848 l 239.144,188.944 -92.188,-164.206 119.484,-157.59 -50.932,-32.594 0,-141.032 -215.512,186.778 z"
     inkscape:connector-curvature="0"
     id="path3555"
     style="fill:none;stroke:#ffffff;stroke-width:12;stroke-linecap:butt;stroke-linejoin:miter;stroke-miterlimit:100;stroke-opacity:1;stroke-dasharray:none" />
  <path
     d="m 400.08156,204.49989 -119.484,157.586 50.936,32.59 0,141.034 215.50992,-186.776 c -33.012,0 -59.77792,-26.798 -59.77792,-59.852 l 0,0 c 0,-33.05 26.76192,-59.842 59.77792,-59.848 l 0,0 -239.148,-188.944 92.18608,164.21 z"
     inkscape:connector-curvature="0"
     id="path3577"
     style="fill:url(#linearGradient3018);stroke:none" />
  <path
     d="m 547.04252,348.93349 c -33.012,0 -59.77792,-26.796 -59.77792,-59.852 0,-33.05 26.76192,-59.844 59.77792,-59.848 l -239.148,-188.944 92.188,164.21 -119.48592,157.586 50.93792,32.59 0,141.036 215.508,-186.778 z"
     inkscape:connector-curvature="0"
     id="path3589"
     style="fill:none;stroke:#ffffff;stroke-width:12;stroke-linecap:butt;stroke-linejoin:miter;stroke-miterlimit:100;stroke-opacity:1;stroke-dasharray:none" />
</svg>
