<?xml version="1.0" encoding="UTF-8" standalone="no"?>
<!-- Created with Inkscape (http://www.inkscape.org/) -->

<svg
   xmlns:dc="http://purl.org/dc/elements/1.1/"
   xmlns:cc="http://creativecommons.org/ns#"
   xmlns:rdf="http://www.w3.org/1999/02/22-rdf-syntax-ns#"
   xmlns:svg="http://www.w3.org/2000/svg"
   xmlns="http://www.w3.org/2000/svg"
   xmlns:xlink="http://www.w3.org/1999/xlink"
   xmlns:inkscape="http://www.inkscape.org/namespaces/inkscape"
   version="1.1"
   width="600"
   height="608"
   id="svg2"
   xml:space="preserve"><metadata
     id="metadata8"><rdf:RDF><cc:Work
         rdf:about=""><dc:format>image/svg+xml</dc:format><dc:type
           rdf:resource="http://purl.org/dc/dcmitype/StillImage" /><dc:title /></cc:Work></rdf:RDF></metadata><defs
     id="defs6"><linearGradient
       x1="0"
       y1="0"
       x2="1"
       y2="0"
       id="linearGradient24"
       gradientUnits="userSpaceOnUse"
       gradientTransform="matrix(284.40039,0,0,-284.40039,7.7998047,153.45508)"
       spreadMethod="pad"><stop
         id="stop26"
         style="stop-color:#8f743f;stop-opacity:1"
         offset="0" /><stop
         id="stop28"
         style="stop-color:#ebd491;stop-opacity:1"
         offset="0.5" /><stop
         id="stop30"
         style="stop-color:#ebd491;stop-opacity:1"
         offset="0.5" /><stop
         id="stop32"
         style="stop-color:#8f743f;stop-opacity:1"
         offset="0.80000299" /><stop
         id="stop34"
         style="stop-color:#8f743f;stop-opacity:1"
         offset="1" /></linearGradient><clipPath
       id="clipPath42"><path
         d="M 0,304 300,304 300,0 0,0 0,304 z"
         inkscape:connector-curvature="0"
         id="path44" /></clipPath><linearGradient
       x1="0"
       y1="0"
       x2="1"
       y2="0"
       id="linearGradient3042"
       xlink:href="#linearGradient24"
       gradientUnits="userSpaceOnUse"
       gradientTransform="matrix(284.40039,0,0,-284.40039,7.7998047,153.45508)"
       spreadMethod="pad" /><linearGradient
       x1="0"
       y1="0"
       x2="1"
       y2="0"
       id="linearGradient3047"
       xlink:href="#linearGradient24"
       gradientUnits="userSpaceOnUse"
       gradientTransform="matrix(284.40039,0,0,-284.40039,7.7998047,153.45508)"
       spreadMethod="pad" /><linearGradient
       x1="0"
       y1="0"
       x2="1"
       y2="0"
       id="linearGradient3053"
       xlink:href="#linearGradient24"
       gradientUnits="userSpaceOnUse"
       gradientTransform="matrix(284.40039,0,0,-284.40039,7.7998047,153.45508)"
       spreadMethod="pad" /><linearGradient
       x1="0"
       y1="0"
       x2="1"
       y2="0"
       id="linearGradient3056"
       xlink:href="#linearGradient24"
       gradientUnits="userSpaceOnUse"
       gradientTransform="matrix(284.40039,0,0,-284.40039,7.79981,153.45508)"
       spreadMethod="pad" /><linearGradient
       x1="0"
       y1="0"
       x2="1"
       y2="0"
       id="linearGradient3001"
       xlink:href="#linearGradient24"
       gradientUnits="userSpaceOnUse"
       gradientTransform="matrix(568.80078,0,0,568.80078,15.59962,301.08984)"
       spreadMethod="pad" /></defs><path
     d="m 428.946,15.598 -89.348,89.34 0,140.304 54.472,-54.462 c 7.582,14.754 11.53,31.072 11.53,48 l 0,0 c 0,58.228 -47.372,105.596 -105.6,105.596 l 0,0 c -58.23,0 -105.6,-47.368 -105.6,-105.596 l 0,0 c 0,-16.916 3.952,-33.226 11.546,-47.988 l 0,0 54.454,54.45 0,-140.304 -89.344,-89.34 -155.458,0 0,158.85 65.264,-65.256 43.476,0 4.25,4.25 c -26.524,36.232 -40.99,80.21 -40.99,125.344 l 0,0 c 0,95.554 64.878,179.708 156.002,204.778 l 0,0 0,89.938 56.4,53.078 56.4,-53.078 0,-89.938 c 91.124,-25.07 156,-109.224 156,-204.778 l 0,0 c 0,-45.148 -14.458,-89.136 -40.962,-125.37 l 0,0 4.224,-4.224 43.476,0 65.262,65.256 0,-158.85 -155.454,0 z"
     inkscape:connector-curvature="0"
     id="path36"
     style="fill:url(#linearGradient3001);stroke:none" /><path
     d="m 600,0 -31.202,0 -133.39,0 -12.924,0 -9.138,9.136 -80.208,80.202 -9.138,9.138 0,12.922 0,96.186 0,75.314 53.262,-53.252 10.582,-10.58 c 1.43,6.404 2.156,13 2.156,19.716 0,49.624 -40.374,89.994 -90,89.994 -49.626,0 -90,-40.37 -90,-89.994 0,-6.71 0.73,-13.306 2.164,-19.712 l 10.574,10.574 53.262,53.258 0,-75.318 0,-96.186 0,-12.922 -9.138,-9.138 L 186.656,9.136 177.518,0 164.594,0 31.2,0 0,0 l 0,31.2 0,105.59 0,75.318 53.262,-53.258 34.062,-34.058 15.266,0 C 82.69,159.242 72,198.59 72,238.786 c 0,52.596 18.35,103.922 51.668,144.514 27.374,33.352 63.78,58.282 104.332,71.814 l 0,71.648 0,13.48 9.816,9.238 40.802,38.396 L 300,608 l 21.382,-20.124 40.802,-38.396 9.816,-9.238 0,-13.48 0,-71.648 C 412.55,441.582 448.958,416.652 476.332,383.3 509.65,342.708 528,291.382 528,238.786 c 0,-40.2 -10.678,-79.546 -30.56,-113.994 l 15.236,0 34.062,34.058 L 600,212.108 600,136.79 600,31.2 600,0 z m -31.202,31.2 0,105.59 -43.198,-43.196 -56.4,0 -18.57,18.568 c 28.806,34.222 46.17,78.388 46.17,126.624 0,94.688 -66.896,173.734 -156,192.52 l 0,95.456 -40.8,38.396 -40.8,-38.396 0,-95.456 c -89.106,-18.786 -156,-97.832 -156,-192.52 0,-48.236 17.384,-92.384 46.198,-126.598 L 130.8,93.594 l -56.4,0 -43.2,43.196 0,-105.59 133.394,0 80.206,80.198 0,96.186 -41.616,-41.612 c -15.286,20.27 -24.384,45.464 -24.384,72.81 0,66.932 54.262,121.19 121.2,121.19 66.938,0 121.2,-54.258 121.2,-121.19 0,-27.346 -9.082,-52.556 -24.366,-72.826 l -41.634,41.628 0,-96.186 80.208,-80.198 133.39,0"
     inkscape:connector-curvature="0"
     id="path48"
     style="fill:#ffffff;fill-opacity:1;fill-rule:nonzero;stroke:none" /><path
     d="m 576,23.998 -7.202,0 -133.39,0 -2.982,0 -2.11,2.11 -80.206,80.198 -2.11,2.11 0,2.982 0,96.186 0,17.38 12.292,-12.288 35.566,-35.562 C 407.754,195.496 414,216.65 414,238.782 c 0,62.854 -51.14,113.992 -114,113.992 -62.86,0 -114,-51.138 -114,-113.992 0,-22.112 6.254,-43.262 18.16,-61.654 l 35.548,35.548 12.292,12.288 0,-17.38 0,-96.186 0,-2.982 -2.11,-2.11 -80.202,-80.198 -2.11,-2.11 -2.984,0 -133.394,0 -7.2,0 0,7.202 0,105.59 0,17.382 12.292,-12.294 41.09,-41.086 50.434,0 11.894,11.892 C 111.476,148.52 96,193.036 96,238.786 c 0,47.06 16.414,92.976 46.218,129.29 28.148,34.294 66.952,58.632 109.782,68.982 l 0,89.704 0,3.11 2.266,2.132 40.8,38.398 4.934,4.642 4.934,-4.642 40.8,-38.398 2.266,-2.132 0,-3.11 0,-89.704 C 390.828,426.708 429.632,402.37 457.782,368.076 487.586,331.762 504,285.846 504,238.786 504,193.02 488.532,148.494 460.316,112.656 l 11.868,-11.864 50.434,0 41.09,41.086 12.292,12.294 0,-17.382 0,-105.59 0,-7.202 z m -7.202,7.202 0,105.59 -43.198,-43.196 -56.4,0 -18.57,18.568 c 28.806,34.222 46.17,78.388 46.17,126.624 0,94.688 -66.896,173.734 -156,192.52 l 0,95.456 -40.8,38.396 -40.8,-38.396 0,-95.456 c -89.106,-18.786 -156,-97.832 -156,-192.52 0,-48.236 17.384,-92.384 46.198,-126.598 L 130.8,93.594 l -56.4,0 -43.2,43.196 0,-105.59 133.394,0 80.206,80.198 0,96.186 -41.616,-41.612 c -15.286,20.27 -24.384,45.464 -24.384,72.81 0,66.932 54.262,121.19 121.2,121.19 66.938,0 121.2,-54.258 121.2,-121.19 0,-27.346 -9.082,-52.556 -24.366,-72.826 l -41.634,41.628 0,-96.186 80.208,-80.198 133.39,0"
     inkscape:connector-curvature="0"
     id="path52"
     style="fill:#ffffff;fill-opacity:1;fill-rule:nonzero;stroke:none" /></svg>