<?xml version="1.0" encoding="UTF-8" standalone="no"?>
<!-- Created with Inkscape (http://www.inkscape.org/) -->

<svg
   xmlns:dc="http://purl.org/dc/elements/1.1/"
   xmlns:cc="http://creativecommons.org/ns#"
   xmlns:rdf="http://www.w3.org/1999/02/22-rdf-syntax-ns#"
   xmlns:svg="http://www.w3.org/2000/svg"
   xmlns="http://www.w3.org/2000/svg"
   xmlns:xlink="http://www.w3.org/1999/xlink"
   xmlns:inkscape="http://www.inkscape.org/namespaces/inkscape"
   version="1.1"
   width="600"
   height="608"
   id="svg2"
   xml:space="preserve"><metadata
     id="metadata8"><rdf:RDF><cc:Work
         rdf:about=""><dc:format>image/svg+xml</dc:format><dc:type
           rdf:resource="http://purl.org/dc/dcmitype/StillImage" /><dc:title /></cc:Work></rdf:RDF></metadata><defs
     id="defs6"><clipPath
       id="clipPath16"><path
         d="M 0,304 300,304 300,0 0,0 0,304 z"
         inkscape:connector-curvature="0"
         id="path18" /></clipPath><linearGradient
       x1="0"
       y1="0"
       x2="1"
       y2="0"
       id="linearGradient36"
       gradientUnits="userSpaceOnUse"
       gradientTransform="matrix(284.40094,0,0,-284.40094,7.7998047,154.91016)"
       spreadMethod="pad"><stop
         id="stop38"
         style="stop-color:#bf331c;stop-opacity:1"
         offset="0" /><stop
         id="stop40"
         style="stop-color:#f6971d;stop-opacity:1"
         offset="0.5" /><stop
         id="stop42"
         style="stop-color:#f6971d;stop-opacity:1"
         offset="0.5" /><stop
         id="stop44"
         style="stop-color:#bf331c;stop-opacity:1"
         offset="0.80000299" /><stop
         id="stop46"
         style="stop-color:#bf331c;stop-opacity:1"
         offset="1" /></linearGradient><clipPath
       id="clipPath54"><path
         d="M 0,304 300,304 300,0 0,0 0,304 z"
         inkscape:connector-curvature="0"
         id="path56" /></clipPath><linearGradient
       x1="0"
       y1="0"
       x2="1"
       y2="0"
       id="linearGradient3053"
       xlink:href="#linearGradient36"
       gradientUnits="userSpaceOnUse"
       gradientTransform="matrix(284.40094,0,0,-284.40094,7.7998047,154.91016)"
       spreadMethod="pad" /><linearGradient
       x1="0"
       y1="0"
       x2="1"
       y2="0"
       id="linearGradient3061"
       xlink:href="#linearGradient36"
       gradientUnits="userSpaceOnUse"
       gradientTransform="matrix(284.40094,0,0,-284.40094,7.7998047,154.91016)"
       spreadMethod="pad" /><linearGradient
       x1="0"
       y1="0"
       x2="1"
       y2="0"
       id="linearGradient3066"
       xlink:href="#linearGradient36"
       gradientUnits="userSpaceOnUse"
       gradientTransform="matrix(284.40094,0,0,-284.40094,7.7998047,154.91016)"
       spreadMethod="pad" /><linearGradient
       x1="0"
       y1="0"
       x2="1"
       y2="0"
       id="linearGradient3069"
       xlink:href="#linearGradient36"
       gradientUnits="userSpaceOnUse"
       gradientTransform="matrix(284.40094,0,0,-284.40094,343.79981,154.91016)"
       spreadMethod="pad" /><linearGradient
       x1="0"
       y1="0"
       x2="1"
       y2="0"
       id="linearGradient3002"
       xlink:href="#linearGradient36"
       gradientUnits="userSpaceOnUse"
       gradientTransform="matrix(568.80188,0,0,568.80188,15.59882,298.17968)"
       spreadMethod="pad" /></defs><path
     d="m 568.798,0 -133.39,0 -12.924,0 -9.14,9.136 -80.206,80.202 -9.138,9.138 0,12.922 0,96.186 0,75.314 53.26,-53.252 10.582,-10.58 c 1.43,6.404 2.158,13 2.158,19.716 0,49.624 -40.374,89.994 -90,89.994 -49.628,0 -90,-40.37 -90,-89.994 0,-6.71 0.73,-13.306 2.164,-19.712 l 10.574,10.576 53.262,53.252 0,-75.314 0,-96.186 0,-12.922 -9.14,-9.138 L 186.656,9.136 177.516,0 164.592,0 31.198,0 0,0 l 0,31.2 0,105.59 0,75.318 53.26,-53.258 34.064,-34.058 15.266,0 C 82.688,159.242 72,198.59 72,238.786 c 0,52.596 18.348,103.922 51.668,144.514 27.374,33.352 63.778,58.282 104.332,71.814 l 0,71.648 0,13.48 9.816,9.238 40.8,38.396 L 300,608 l 21.382,-20.124 40.8,-38.396 9.818,-9.238 0,-13.48 0,-71.648 C 412.55,441.582 448.956,416.652 476.332,383.3 509.65,342.708 528,291.382 528,238.786 c 0,-40.2 -10.678,-79.546 -30.562,-113.994 l 15.236,0 34.064,34.058 L 600,212.108 600,136.79 600,31.2 600,0 568.798,0 z"
     inkscape:connector-curvature="0"
     id="path22"
     style="fill:#ffffff;fill-opacity:1;fill-rule:nonzero;stroke:none" /><path
     d="m 435.4072,31.2 -80.208,80.198 0,96.186 41.634,-41.63 c 15.284,20.272 24.366,45.48 24.366,72.826 l 0,0 c 0,66.936 -54.262,121.192 -121.2,121.192 l 0,0 c -66.94,0 -121.198,-54.256 -121.198,-121.192 l 0,0 c 0,-27.346 9.096,-52.538 24.38,-72.808 l 0,0 41.618,41.612 0,-96.186 -80.206,-80.198 -133.394,0 0,105.588 43.202,-43.194 56.398,0 18.598,18.594 c -28.814,34.214 -46.198,78.364 -46.198,126.598 l 0,0 c 0,94.688 66.894,173.734 156,192.52 l 0,0 0,95.456 40.8,38.396 40.802,-38.396 0,-95.456 c 89.102,-18.786 155.998,-97.832 155.998,-192.52 l 0,0 c 0,-48.234 -17.364,-92.402 -46.17,-126.624 l 0,0 18.568,-18.568 56.402,0 43.198,43.194 0,-105.588 -133.39,0 z"
     inkscape:connector-curvature="0"
     id="path48"
     style="fill:url(#linearGradient3002);stroke:none" /><path
     d="m 355.1984,207.584 41.634,-41.628 c 15.284,20.27 24.366,45.48 24.366,72.826 0,66.932 -54.262,121.19 -121.2,121.19 -66.938,0 -121.198,-54.258 -121.198,-121.19 0,-27.346 9.098,-52.54 24.38,-72.81 l 41.62,41.612 0,-96.186 -80.208,-80.198 -133.394,0 0,105.59 43.202,-43.196 56.4,0 18.598,18.594 c -28.816,34.214 -46.2,78.362 -46.2,126.598 0,94.688 66.894,173.734 156,192.52 l 0,95.456 40.8,38.396 40.802,-38.396 0,-95.456 c 89.104,-18.786 156,-97.832 156,-192.52 0,-48.236 -17.366,-92.402 -46.17,-126.624 l 18.568,-18.568 56.4,0 43.2,43.196 0,-105.59 -133.392,0 -80.208,80.198 0,96.186 z"
     inkscape:connector-curvature="0"
     id="path60"
     style="fill:none;stroke:#ffffff;stroke-width:21;stroke-linecap:butt;stroke-linejoin:miter;stroke-miterlimit:4;stroke-opacity:1;stroke-dasharray:none" /></svg>