<?xml version="1.0" encoding="UTF-8" standalone="no"?>
<!-- Created with Inkscape (http://www.inkscape.org/) -->

<svg
   xmlns:dc="http://purl.org/dc/elements/1.1/"
   xmlns:cc="http://creativecommons.org/ns#"
   xmlns:rdf="http://www.w3.org/1999/02/22-rdf-syntax-ns#"
   xmlns:svg="http://www.w3.org/2000/svg"
   xmlns="http://www.w3.org/2000/svg"
   xmlns:xlink="http://www.w3.org/1999/xlink"
   xmlns:inkscape="http://www.inkscape.org/namespaces/inkscape"
   version="1.1"
   width="600"
   height="556.00079"
   id="svg2"
   xml:space="preserve"><metadata
     id="metadata8"><rdf:RDF><cc:Work
         rdf:about=""><dc:format>image/svg+xml</dc:format><dc:type
           rdf:resource="http://purl.org/dc/dcmitype/StillImage" /><dc:title /></cc:Work></rdf:RDF></metadata><defs
     id="defs6"><clipPath
       id="clipPath16"><path
         d="M 0,278 300,278 300,0 0,0 0,278 z"
         inkscape:connector-curvature="0"
         id="path18" /></clipPath><clipPath
       id="clipPath24"><path
         d="m -376.5,334.5 413,0 0,-413 -413,0 0,413 z"
         inkscape:connector-curvature="0"
         id="path26" /></clipPath><radialGradient
       cx="0"
       cy="0"
       r="1"
       fx="0"
       fy="0"
       id="radialGradient46"
       gradientUnits="userSpaceOnUse"
       gradientTransform="matrix(-159.82355,81.434906,63.733643,125.08319,219.66797,226.33545)"
       spreadMethod="pad"><stop
         id="stop48"
         style="stop-color:#bbd5e6;stop-opacity:1"
         offset="0" /><stop
         id="stop50"
         style="stop-color:#495259;stop-opacity:1"
         offset="0.80000299" /><stop
         id="stop52"
         style="stop-color:#495259;stop-opacity:1"
         offset="1" /></radialGradient><clipPath
       id="clipPath60"><path
         d="M 0,278 300,278 300,0 0,0 0,278 z"
         inkscape:connector-curvature="0"
         id="path62" /></clipPath><radialGradient
       cx="0"
       cy="0"
       r="1"
       fx="0"
       fy="0"
       id="radialGradient80"
       gradientUnits="userSpaceOnUse"
       gradientTransform="matrix(-159.50339,30.393158,22.698257,119.12048,175,147)"
       spreadMethod="pad"><stop
         id="stop82"
         style="stop-color:#bbd5e6;stop-opacity:1"
         offset="0" /><stop
         id="stop84"
         style="stop-color:#495259;stop-opacity:1"
         offset="1" /></radialGradient><clipPath
       id="clipPath92"><path
         d="M 0,278 300,278 300,0 0,0 0,278 z"
         inkscape:connector-curvature="0"
         id="path94" /></clipPath><radialGradient
       cx="0"
       cy="0"
       r="1"
       fx="0"
       fy="0"
       id="radialGradient3050"
       xlink:href="#radialGradient80"
       gradientUnits="userSpaceOnUse"
       gradientTransform="matrix(-159.50339,30.393158,22.698257,119.12048,175,147)"
       spreadMethod="pad" /><radialGradient
       cx="0"
       cy="0"
       r="1"
       fx="0"
       fy="0"
       id="radialGradient3057"
       xlink:href="#radialGradient46"
       gradientUnits="userSpaceOnUse"
       gradientTransform="matrix(-159.82355,81.434906,63.733643,125.08319,219.66797,226.33545)"
       spreadMethod="pad" /><radialGradient
       cx="0"
       cy="0"
       r="1"
       fx="0"
       fy="0"
       id="radialGradient3071"
       xlink:href="#radialGradient46"
       gradientUnits="userSpaceOnUse"
       gradientTransform="matrix(-159.82355,81.434906,63.733643,125.08319,219.66797,226.33545)"
       spreadMethod="pad" /><radialGradient
       cx="0"
       cy="0"
       r="1"
       fx="0"
       fy="0"
       id="radialGradient3076"
       xlink:href="#radialGradient80"
       gradientUnits="userSpaceOnUse"
       gradientTransform="matrix(-159.50339,30.393158,22.698257,119.12048,175,147)"
       spreadMethod="pad" /><radialGradient
       cx="0"
       cy="0"
       r="1"
       fx="0"
       fy="0"
       id="radialGradient3082"
       xlink:href="#radialGradient80"
       gradientUnits="userSpaceOnUse"
       gradientTransform="matrix(-159.50339,30.393158,22.698257,119.12048,175,147)"
       spreadMethod="pad" /><radialGradient
       cx="0"
       cy="0"
       r="1"
       fx="0"
       fy="0"
       id="radialGradient3085"
       xlink:href="#radialGradient80"
       gradientUnits="userSpaceOnUse"
       gradientTransform="matrix(-159.50339,30.393158,22.698257,119.12048,175,147)"
       spreadMethod="pad" /><radialGradient
       cx="0"
       cy="0"
       r="1"
       fx="0"
       fy="0"
       id="radialGradient3087"
       xlink:href="#radialGradient46"
       gradientUnits="userSpaceOnUse"
       gradientTransform="matrix(-159.82355,81.434906,63.733643,125.08319,219.66797,226.33545)"
       spreadMethod="pad" /><radialGradient
       cx="0"
       cy="0"
       r="1"
       fx="0"
       fy="0"
       id="radialGradient3090"
       xlink:href="#radialGradient46"
       gradientUnits="userSpaceOnUse"
       gradientTransform="matrix(-159.82355,81.434906,63.733643,125.08319,219.66797,226.33545)"
       spreadMethod="pad" /><radialGradient
       cx="0"
       cy="0"
       r="1"
       fx="0"
       fy="0"
       id="radialGradient3014"
       xlink:href="#radialGradient80"
       gradientUnits="userSpaceOnUse"
       gradientTransform="matrix(-319.00724,-60.786404,45.39658,-238.24131,349.99974,262.00038)"
       spreadMethod="pad" /><radialGradient
       cx="0"
       cy="0"
       r="1"
       fx="0"
       fy="0"
       id="radialGradient3018"
       xlink:href="#radialGradient46"
       gradientUnits="userSpaceOnUse"
       gradientTransform="matrix(-319.64756,-162.87005,127.46747,-250.16674,439.3358,103.32925)"
       spreadMethod="pad" /></defs><path
     d="m 460.1959,9.9140182 c -3.61001,1.1220018 -6.21001,4.2780058 -6.62001,8.0340118 l 0,0 c -0.82401,7.572011 -2.43201,14.648021 -4.55801,20.384029 l 0,0 C 422.15784,21.548035 382.36378,20.102033 369.63376,20.102033 l 0,0 c -3.406,0 -6.79201,0.082 -10.07001,0.252 l 0,0 c -66.3241,3.360005 -120.35018,31.744046 -156.23623,82.074117 l 0,0 c -30.32004,42.52206 -46.57006,99.26815 -45.76006,159.78023 l 0,0 c 0.05,3.63201 2.17,6.91801 5.46,8.46202 l 0,0 311.10046,145.81621 c 1.3,0.61 2.67,0.902 4.022,0.902 l 0,0 c 3.41401,0 6.70401,-1.852 8.40001,-5.06201 l 0,0 c 25.73204,-48.70207 26.43004,-84.83812 -1.528,-122.79618 l 0,0 c 18.21403,12.62602 31.99405,26.33404 41.94006,36.23006 l 0,0 c 2.082,2.068 3.99601,3.974 5.75601,5.678 l 0,0 c 1.166,1.13201 2.602,1.94201 4.17601,2.35801 l 0,0 c 3.374,0.89 6.97801,1.342 10.70801,1.342 l 0,0 c 13.15402,0 26.43404,-5.47801 34.66005,-14.30002 l 0,0 c 5.90201,-6.33001 8.73201,-13.81602 8.18401,-21.65203 l 0,0 c -0.116,-1.618 -0.644,-3.18401 -1.534,-4.53801 l 0,0 c -2.716,-4.136 -5.72801,-8.57001 -8.92001,-13.27202 l 0,0 C 560.38004,252.50437 533.52,212.95831 530.862,174.81026 l 0,0 c -2.86601,-41.13806 -20.33803,-69.6321 -37.01606,-93.048138 l 0,0 c -1.582,-30.476044 -12.86401,-56.450081 -23.64003,-68.9741 l 0,0 c -1.832,-2.130003 -4.47601,-3.3000044 -7.19601,-3.3000044 l 0,0 c -0.938,0 -1.884,0.1380002 -2.814,0.4260006"
     inkscape:connector-curvature="0"
     id="path54"
     style="fill:url(#radialGradient3018);stroke:none" /><path
     d="m 463.0097,3.8e-6 c -1.876,0 -3.77201,0.28000041 -5.62601,0.85200124 -7.22401,2.24200326 -12.42602,8.55601236 -13.24402,16.07002296 -0.282,2.588004 -0.664,5.116008 -1.13,7.524011 -27.79804,-12.618018 -61.57609,-13.83002 -73.37611,-13.83002 -3.566,0 -7.11401,0.088 -10.55201,0.262001 -69.3221,3.514005 -125.85618,33.268048 -163.48424,86.044124 -31.48004,44.154066 -48.35607,102.898146 -47.52007,165.412236 0.098,7.26601 4.33801,13.84002 10.92202,16.92603 l 311.09645,145.81621 c 2.602,1.218 5.34601,1.798 8.04801,1.798 6.83201,0 13.40802,-3.7 16.79803,-10.11601 18.92602,-35.81805 24.51403,-64.16609 17.97602,-91.52213 2.65401,2.576 5.10401,5.012 7.35001,7.24601 2.11401,2.102 4.05801,4.038 5.84601,5.768 2.334,2.26001 5.20801,3.88201 8.35201,4.71401 4.16601,1.106 8.58402,1.662 13.13602,1.662 15.70002,0 31.64005,-6.63801 41.60206,-17.31802 7.63401,-8.18401 11.43602,-18.40803 10.70802,-28.78604 -0.226,-3.23801 -1.28,-6.36401 -3.06401,-9.08002 -2.772,-4.22 -5.79601,-8.67601 -9.00401,-13.39402 C 568.83785,248.06836 542.80981,209.74831 540.32981,174.15026 537.51581,133.7322 521.14778,104.16415 503.14976,78.494118 501.15975,50.500077 491.32174,22.778037 477.40172,6.6020134 473.73571,2.3420072 468.44971,3.8e-6 463.0097,3.8e-6 m 0.002,18.9740272 c 10.27801,11.946018 20.57803,37.296054 21.46603,66.010096 15.97802,22.204033 34.10805,50.164073 36.91405,90.484133 3.27801,47.04007 39.63206,93.98813 59.58409,124.38418 1.036,14.74002 -16.94202,25.80004 -33.37405,25.80004 -2.844,0 -5.63601,-0.328 -8.28201,-1.02801 -16.87202,-16.33802 -48.48607,-51.72207 -99.98615,-68.58809 61.04409,51.80807 71.86611,89.32012 38.82206,151.86022 L 167.05727,262.08038 c -1.45,-108.41015 54.45208,-225.230323 192.98828,-232.252333 3.098,-0.158 6.30601,-0.24 9.58801,-0.24 29.33805,0 64.6641,6.488009 82.68412,23.078033 6.33601,-8.956013 9.49202,-22.664033 10.69402,-33.692049"
     inkscape:connector-curvature="0"
     id="path66"
     style="fill:#ffffff;fill-opacity:1;fill-rule:nonzero;stroke:none" /><path
     d="M 147.74144,96.284143 C 87.831355,102.34215 35.99928,152.62423 35.269279,203.6943 l 0,0 C 18.707255,214.90032 8.35724,238.58435 9.5872418,263.87039 l 0,0 c 1.4480022,29.76604 17.8960262,58.21008 40.6100592,71.1181 l 0,0 c 12.864018,60.11809 70.684099,93.86214 167.634239,97.67214 l 0,0 c 93.15414,3.66401 138.93221,19.14803 148.42622,50.21407 l 0,0 c 4.50801,14.74003 -2.662,28.77405 -23.97004,46.92807 l 0,0 c -3.244,2.76601 -4.246,7.34601 -2.456,11.21202 l 0,0 c 1.574,3.39 4.96201,5.49801 8.60601,5.49801 l 0,0 c 0.512,0 1.024,-0.044 1.54201,-0.128 l 0,0 c 92.18213,-15.09003 145.04821,-56.15809 145.04821,-112.66217 l 0,0 c 0,-43.86206 -20.50203,-102.54415 -118.17418,-133.01819 l 0,0 C 289.08565,273.3224 224.12555,239.72235 183.78149,200.8423 l 0,0 c -25.37603,-24.45604 -36.36805,-63.1261 -26.13803,-91.94814 l 0,0 c 1.088,-3.064 0.528,-6.47201 -1.48001,-9.028011 l 0,0 c -1.808,-2.306004 -4.568,-3.630006 -7.46401,-3.630006 l 0,0 c -0.318,0 -0.638,0.016 -0.958,0.048"
     inkscape:connector-curvature="0"
     id="path86"
     style="fill:url(#radialGradient3014);stroke:none" /><path
     d="m 148.69864,86.74813 c -0.632,0 -1.272,0.032 -1.912,0.096 -31.64805,3.200004 -63.072091,18.33803 -86.216124,41.52806 -20.62603,20.66603 -32.852048,45.80207 -34.58405,70.4561 -16.8860249,13.91402 -27.1660399,39.01806 -25.87803799,65.5041 1.52000219,31.26604 18.22602599,61.32809 41.73406099,76.65811 7.930011,31.89604 27.83404,56.78808 59.282081,74.07411 29.25005,16.08202 68.3901,25.19203 116.33617,27.07603 87.29813,3.43401 131.69619,17.25603 139.72021,43.50607 2.28,7.45601 1.56,17.67202 -21.05003,36.93605 -6.48601,5.52801 -8.49202,14.69602 -4.90801,22.42203 3.146,6.78201 9.92001,10.99602 17.21202,10.99602 1.02,0 2.04801,-0.082 3.07801,-0.25 45.09006,-7.38401 81.30612,-20.84803 107.63215,-40.02006 29.68405,-21.61203 45.37407,-49.97007 45.37407,-82.00812 0,-47.04407 -21.65603,-109.88216 -124.83818,-142.0742 -86.34613,-26.94004 -150.04022,-59.78809 -189.31228,-97.63614 -22.82603,-21.99804 -32.82604,-56.46009 -23.78203,-81.94612 2.174,-6.12801 1.062,-12.942022 -2.956,-18.05803 -3.61801,-4.610007 -9.14002,-7.26001 -14.93203,-7.26001 m 0,18.97203 c -12.22201,34.43605 2.19001,76.60011 28.49404,101.95014 47.14407,45.43607 119.68618,78.02012 196.83229,102.09215 79.17411,24.70004 111.51216,69.6761 111.51216,123.96018 0,53.58208 -54.48408,89.77413 -137.0942,103.30215 21.44603,-18.27002 33.23805,-36.16205 26.89204,-56.92208 C 363.73696,442.15464 312.06288,426.87062 218.20474,423.18062 132.26462,419.80261 69.510529,392.08457 58.648513,328.67248 37.698483,319.00247 20.472458,292.29843 19.066456,263.40839 17.888454,239.17835 28.90847,216.59832 44.892493,209.09231 41.776488,161.56624 91.05056,111.55217 148.69864,105.72016"
     inkscape:connector-curvature="0"
     id="path98"
     style="fill:#ffffff;fill-opacity:1;fill-rule:nonzero;stroke:none" /><path
     d="m 502.77136,321.32667 c -3.25001,0 -6.38601,-1.766 -7.99201,-4.84801 -13.16202,-25.29403 -42.13207,-42.25206 -70.14611,-58.65208 -34.78405,-20.36003 -70.7481,-41.41406 -72.1761,-79.03012 -1.256,-33.16805 28.42004,-46.35806 29.68604,-46.90406 4.55801,-1.96801 9.85602,0.134 11.82802,4.698 1.962,4.55001 -0.122,9.82402 -4.65401,11.81002 -0.87,0.39 -19.65603,9.06201 -18.87202,29.71404 1.052,27.75204 29.88804,44.63207 63.28009,64.1781 30.21804,17.69002 61.46409,35.98005 77.02211,65.87809 2.294,4.40801 0.58,9.84401 -3.83001,12.13802 -1.326,0.69 -2.748,1.018 -4.146,1.018"
     inkscape:connector-curvature="0"
     id="path102"
     style="fill:#ffffff;fill-opacity:1;fill-rule:nonzero;stroke:none" /></svg>