<?xml version="1.0" encoding="UTF-8" standalone="no"?>
<!-- Created with Inkscape (http://www.inkscape.org/) -->

<svg
   xmlns:dc="http://purl.org/dc/elements/1.1/"
   xmlns:cc="http://creativecommons.org/ns#"
   xmlns:rdf="http://www.w3.org/1999/02/22-rdf-syntax-ns#"
   xmlns:svg="http://www.w3.org/2000/svg"
   xmlns="http://www.w3.org/2000/svg"
   xmlns:xlink="http://www.w3.org/1999/xlink"
   xmlns:inkscape="http://www.inkscape.org/namespaces/inkscape"
   version="1.1"
   width="600"
   height="607.92615"
   id="svg5680">
  <defs
     id="defs5682">
    <linearGradient
       x1="0"
       y1="0"
       x2="1"
       y2="0"
       id="linearGradient684"
       gradientUnits="userSpaceOnUse"
       gradientTransform="matrix(36.596619,-13.320084,-13.320084,-36.596619,642.1543,270.43359)"
       spreadMethod="pad">
      <stop
         id="stop686"
         style="stop-color:#626e77;stop-opacity:1"
         offset="0" />
      <stop
         id="stop688"
         style="stop-color:#a0b6c2;stop-opacity:1"
         offset="0.30000299" />
      <stop
         id="stop690"
         style="stop-color:#b7d1e1;stop-opacity:1"
         offset="0.5" />
      <stop
         id="stop692"
         style="stop-color:#a0b6c2;stop-opacity:1"
         offset="0.69999701" />
      <stop
         id="stop694"
         style="stop-color:#626e77;stop-opacity:1"
         offset="1" />
    </linearGradient>
    <linearGradient
       x1="0"
       y1="0"
       x2="1"
       y2="0"
       id="linearGradient2995"
       xlink:href="#linearGradient684"
       gradientUnits="userSpaceOnUse"
       gradientTransform="matrix(36.596619,-13.320084,-13.320084,-36.596619,642.1543,270.43359)"
       spreadMethod="pad" />
    <linearGradient
       x1="0"
       y1="0"
       x2="1"
       y2="0"
       id="linearGradient2998"
       xlink:href="#linearGradient684"
       gradientUnits="userSpaceOnUse"
       gradientTransform="matrix(562.07415,204.57832,-204.57832,562.07415,11.416218,123.41354)"
       spreadMethod="pad" />
  </defs>
  <metadata
     id="metadata5685">
    <rdf:RDF>
      <cc:Work
         rdf:about="">
        <dc:format>image/svg+xml</dc:format>
        <dc:type
           rdf:resource="http://purl.org/dc/dcmitype/StillImage" />
        <dc:title />
      </cc:Work>
    </rdf:RDF>
  </metadata>
  <path
     d="M 465.72006,607.92614 455.35298,596.6529 c -31.62343,-34.31119 -39.54849,-61.08129 -48.65616,-92.09038 l -1.44371,-4.80725 c -4.25434,-14.16067 -15.35864,-19.13686 -36.23102,-27.4766 -6.91139,-2.7492 -14.05315,-5.57519 -21.17956,-9.16911 -14.82109,-7.57181 -33.6047,-12.1794 -33.85044,-12.24083 l -9.95239,-2.41131 -4.37721,-9.35341 c -0.36861,-0.72124 -8.33974,-17.75458 -12.65552,-31.73094 -0.59837,-1.91983 -0.84534,-2.45738 -0.90677,-2.64168 -0.24574,0 -6.95746,-4.68439 -43.67996,-6.48135 -51.05211,-2.45738 -83.15166,-28.32132 -108.93881,-49.13227 -1.25941,-0.96821 -2.58025,-2.0427 -3.79358,-3.07173 0.65981,4.68438 0.78268,9.30733 0.1843,13.50024 -1.48978,10.09062 -6.83459,18.06176 -15.17433,22.37753 -4.86869,2.58025 -10.1367,3.9011 -15.604372,3.9011 -18.706818,0 -33.527902,-14.63678 -47.089577,-29.68825 -13.438807,-14.75965 -39.057011,-52.55725 -39.717433,-89.87873 -0.906774,-46.19878 7.018897,-71.81699 25.679639,-82.90592 4.853329,-2.88742 10.382438,-4.37721 16.372306,-4.37721 8.877292,0 18.123191,3.53248 26.524365,8.15543 2.457381,-3.42497 5.037632,-6.29704 7.556448,-8.58547 -0.536937,-10.1367 -0.659807,-19.07543 -0.659807,-26.34006 -4.192907,-2.51882 -8.401173,-6.23561 -12.240832,-11.74936 -0.06144,-0.12287 -0.184304,-0.30717 -0.292429,-0.43004 -0.845339,0.30717 -1.812319,0.66103 -2.948858,1.15128 -7.372145,3.1178 -15.358636,4.79189 -23.222257,4.79189 -26.032888,0 -46.0759085,-17.09416 -48.7636698,-41.45295 C -2.2889076,81.35469 12.639687,64.85952 30.409629,58.79286 55.121674,36.59963 81.999287,29.5193 98.079778,27.18478 105.16011,15.18969 118.82929,0.53755 149.07045,0 c 19.98158,0 29.93398,8.33974 34.98697,15.42007 4.73046,6.54278 6.46599,13.68454 6.83459,19.98158 16.01906,11.15037 27.89129,25.08066 36.66107,39.90174 1.30548,-2.34987 2.74919,-4.56151 4.31577,-6.66565 7.31071,-9.78345 21.30243,-21.83998 46.19878,-23.5755 23.69838,-1.68945 51.46679,-5.1605 83.56634,-9.12303 14.09923,-1.79696 29.27356,-3.65536 45.66122,-5.63662 24.95779,-2.94886 47.33532,-5.03763 67.1326,-6.89603 22.91509,-2.16557 42.65093,-4.02396 58.13244,-6.48134 17.40133,-2.82599 25.4339,-3.71679 31.73094,-3.71679 10.44387,0 16.4491,2.9335 21.4253,6.11273 L 600,28.44419 594.47089,44.46325 c -1.61266,4.66903 -10.38244,28.67457 -23.99019,42.35912 -13.02412,13.00876 -25.74107,29.74968 -31.02444,40.79254 -9.12303,19.01399 -27.2923,34.84874 -44.21752,38.62696 -14.75965,3.24068 -43.01954,8.89265 -57.28771,11.70328 -15.78868,22.50041 -34.20368,43.61853 -49.31658,59.63759 5.75949,3.48641 9.82953,7.43358 13.00877,10.44387 1.21271,1.19797 2.82598,2.7492 3.48641,3.17924 0.9682,0 2.70312,0.0614 4.43864,0.0614 l 2.76456,-0.0614 3.17923,0 c 14.09923,0 29.93399,2.81063 49.43945,23.16082 29.99542,31.31626 19.73585,77.62255 19.25973,79.60381 l -1.38228,6.1281 c 27.35374,7.43358 33.58934,28.01415 33.89651,44.44789 0.2912,15.00539 -3.83965,26.93905 -12.30226,35.58596 -5.09907,5.26801 -14.34497,11.51898 -28.98175,11.93366 0.59837,2.81063 1.09108,5.45231 1.38228,7.9097 17.5242,12.548 24.83491,32.34528 26.93905,48.90189 l 0,0 14.34496,5.88236 -0.96698,15.48151 c -3.59392,55.18357 -33.89651,70.00466 -37.38292,71.5098 l -14.03779,6.17418 z"
     inkscape:connector-curvature="0"
     id="path680"
     style="fill:#ffffff;fill-opacity:1;fill-rule:nonzero;stroke:none" />
  <path
     d="m 149.5011,21.48735 c -27.30765,0.53755 -32.46815,15.17433 -37.73616,26.21719 l 0,0 c 0,0 -38.289082,-1.1519 -70.496141,30.4101 l 0,0 c 0,0 -21.778546,4.02396 -19.628337,24.06698 l 0,0 c 2.227002,19.96622 24.189851,26.87761 42.236249,19.25973 l 0,0 c 18.12319,-7.63324 21.778545,-4.02396 29.288918,6.71172 l 0,0 c 7.495011,10.79712 16.556611,6.95746 16.556611,6.95746 l 0,0 c 0,0 -1.44371,23.75981 0.95223,54.66139 l 0,0 c 0,0 -16.310867,3.96253 -19.490105,31.31626 l 0,0 c 0,0 -29.580733,-26.81618 -42.174814,-19.25973 l 0,0 c -12.670875,7.49501 -15.788678,34.84874 -15.251125,64.01479 l 0,0 c 0.55291,29.08926 21.118124,61.55742 34.203682,75.88702 l 0,0 c 12.962688,14.34497 25.971453,26.81618 36.768572,21.17956 l 0,0 c 10.81248,-5.69805 -2.51882,-38.21228 -11.749354,-47.15101 l 0,0 C 83.673992,306.82008 75.93324,283.30601 75.764295,270.5737 l 0,0 c 0,0 24.113058,26.83154 53.693785,48.18004 l 0,0 c 29.5193,21.30243 59.20755,55.38324 113.93037,58.00957 l 0,0 c 54.70746,2.64169 60.35943,11.64185 64.19909,24.31272 l 0,0 c 3.88574,12.71695 11.51898,28.90495 11.51898,28.90495 l 0,0 c 0,0 21.10277,5.09907 38.44267,13.93029 l 0,0 c 26.21719,13.2545 58.56247,17.15559 68.28449,49.73126 l 0,0 c 9.72202,32.6371 15.58902,56.15117 45.35405,88.43503 l 0,0 c 0,0 21.65568,-9.49164 24.48167,-53.27911 l 0,0 -12.83982,-5.22194 c 0,0 2.9335,-38.27372 -26.4015,-50.51455 l 0,0 c 0,0 -0.3686,-20.04302 -7.92505,-32.6371 l 0,0 c -7.49502,-12.59408 -13.00877,-18.00032 -24.11306,-25.08066 l 0,0 c -11.04286,-7.08033 -20.4577,-23.26833 -18.90648,-39.71743 l 0,0 c 1.50515,-16.43374 14.34496,-13.00876 17.29382,-49.48552 l 0,0 c 0,0 9.35341,10.79712 -2.94886,36.47676 l 0,0 c -12.30226,25.72571 18.95256,39.71743 18.95256,39.71743 l 0,0 c 0,0 2.16557,21.82462 24.12842,26.92369 l 0,0 c 21.94749,5.05299 32.69853,-4.25434 32.32993,-24.29736 l 0,0 c -0.35325,-20.02766 -13.13164,-23.45264 -22.3161,-25.0653 l 0,0 c 0,0 -16.55661,-10.62817 -20.51914,-26.93904 l 0,0 10.85856,-3.83966 c 0,0 8.46261,-36.59963 -13.79206,-59.88332 l 0,0 C 433.3287,272.44746 423.25343,272.6164 412.68669,272.73927 l 0,0 c -4.0086,0.0614 -8.15544,0.12287 -12.77839,-0.78329 l 0,0 c -16.3723,-3.34818 -14.99002,-25.2496 -55.01463,-20.87239 l 0,0 c 0,0 48.42578,-44.57076 80.34102,-92.5665 l 0,0 c 0,0 45.29262,-8.89265 65.38172,-13.33129 l 0,0 c 8.89265,-1.91983 22.37753,-12.11796 29.41179,-26.87761 l 0,0 c 7.01889,-14.69822 21.94749,-33.40504 35.20199,-46.6749 l 0,0 C 566.1041,60.77474 574.1981,37.44497 574.1981,37.44497 l 0,0 c -5.57518,-3.48641 -8.64691,-4.02396 -38.27372,0.72185 l 0,0 c -29.58073,4.66903 -71.57124,7.08033 -126.10976,13.54632 l 0,0 c -54.53851,6.41991 -95.63822,12.3637 -130.19515,14.75965 l 0,0 c -34.55693,2.47274 -43.12705,31.7463 -37.19862,58.97716 l 0,0 c 6.00523,27.24622 6.41991,49.0862 -0.47612,71.03369 l 0,0 c 0,0 -9.35341,-14.39104 -11.70328,-39.8403 l 0,0 C 228.02981,131.14801 217.83168,73.077 168.14649,46.67551 l 0,0 c 0,0 8.52404,-25.18816 -17.87745,-25.18816 l 0,0 c -0.23038,0 -0.53756,0 -0.76794,0"
     inkscape:connector-curvature="0"
     id="path696"
     style="fill:url(#linearGradient2998);fill-opacity:1;fill-rule:nonzero;stroke:none" />
</svg>
