<?xml version="1.0" encoding="UTF-8" standalone="no"?>
<!-- Created with Inkscape (http://www.inkscape.org/) -->

<svg
   xmlns:dc="http://purl.org/dc/elements/1.1/"
   xmlns:cc="http://creativecommons.org/ns#"
   xmlns:rdf="http://www.w3.org/1999/02/22-rdf-syntax-ns#"
   xmlns:svg="http://www.w3.org/2000/svg"
   xmlns="http://www.w3.org/2000/svg"
   xmlns:inkscape="http://www.inkscape.org/namespaces/inkscape"
   version="1.1"
   width="600"
   height="320.00342"
   viewBox="0 0 600 320.00342"
   id="Layer_1"
   xml:space="preserve"><metadata
   id="metadata22"><rdf:RDF><cc:Work
       rdf:about=""><dc:format>image/svg+xml</dc:format><dc:type
         rdf:resource="http://purl.org/dc/dcmitype/StillImage" /><dc:title /></cc:Work></rdf:RDF></metadata><defs
   id="defs20">
	
	
	
</defs>
<g
   transform="matrix(6.4000683,0,0,6.4000683,0,-2.4512262)"
   id="g5">
		<linearGradient
   x1="3.8359001"
   y1="45.452099"
   x2="89.913498"
   y2="5.3134999"
   id="SVGID_2_"
   gradientUnits="userSpaceOnUse">
			<stop
   id="stop8"
   style="stop-color:#6d7984;stop-opacity:1"
   offset="0" />
			<stop
   id="stop10"
   style="stop-color:#b4cddd;stop-opacity:1"
   offset="1" />
		</linearGradient>
		<path
   d="M 6.229,0.383 C 2.267,7.742 0,16.279 0,25.383 c 0,9.104 2.267,17.641 6.229,25 H 87.52 c 3.962,-7.359 6.229,-15.896 6.229,-25 0,-9.104 -2.268,-17.641 -6.229,-25 H 6.229 z"
   inkscape:connector-curvature="0"
   id="path12"
   style="fill:url(#SVGID_2_)" />
	</g><path
   d="m 535.95452,37.997205 c 16.68498,36.889994 26.04828,78.272835 26.04828,122.004505 0,44.52527 -9.72171,86.61212 -26.98269,124.00132 H 64.979893 C 47.718909,246.61383 38.003606,204.52698 38.003606,160.00171 c 0,-43.72527 9.363299,-85.114511 26.048278,-122.004505 H 535.95452 M 548.21065,19.001803 H 535.95452 64.051884 51.795753 L 46.739699,30.169922 C 28.333102,70.848756 19.001803,114.53562 19.001803,160.00171 c 0,46.27249 9.670503,90.67617 28.729906,131.96301 l 5.094455,11.04011 h 12.153729 470.040217 12.15373 l 5.09445,-11.04011 c 19.06581,-41.28684 28.72991,-85.69052 28.72991,-131.96301 0,-45.46609 -9.3313,-89.152954 -27.7379,-129.838188 l -5.04965,-11.161719 0,0 z"
   inkscape:connector-curvature="0"
   id="path14"
   style="fill:#ffffff" /><path
   d="m 42.003648,244.0026 c 12.524934,-9.8177 20.915423,-23.07224 27.949099,-42.59885 6.534469,-18.11219 10.969717,-35.58438 19.200204,-52.25016 2.080023,-4.21124 7.129677,-7.53288 12.601739,-4.90245 3.85924,1.85602 7.69288,3.98084 11.91692,5.91366 4.44165,2.03522 5.36326,5.88807 3.33444,10.63692 -5.86246,13.68974 -13.13934,26.79068 -17.830592,40.86443 -4.665649,14.00335 -5.337657,30.33633 11.161722,34.67557 v 12.99854 c -30.784331,-3.72484 -49.222928,0.68481 -60.903052,10.66251 L 42.003648,244.0026 z M 87.668136,77.338425 c 16.083374,2.003222 27.910694,3.910442 22.163434,18.822601 -3.12963,8.134484 -6.51527,15.744164 -10.003305,23.174644 -1.984021,4.22405 -1.542416,8.9153 3.334435,12.16013 3.27044,2.18243 10.33611,5.73446 14.00335,7.16168 4.91525,1.92002 7.94889,-0.0768 9.4977,-3.66084 1.13921,-2.63683 3.71204,-7.76968 4.99846,-10.33611 2.41922,-4.81285 6.65607,-3.77604 9.6641,0.49921 19.117,27.23229 37.1972,65.24869 48.49972,110.67638 3.12963,12.57613 3.00163,22.83544 -0.83201,29.16511 5.51686,4.10244 11.69932,6.96327 18.50259,8.66569 8.01929,-15.06576 21.94584,-26.95069 40.83244,-36.16039 -3.87204,-15.47536 -8.84489,-30.72672 -15.33456,-45.66448 -6.53447,-21.03703 -2.57923,-32.01314 4.00004,-40.33963 1.79842,-2.27203 1.83682,-5.28646 0,-8.18569 -3.52004,-5.54886 -7.36008,-9.96491 -11.33452,-13.31214 -2.79683,-2.36163 -6.46407,-2.85443 -9.4977,0.16 -1.79202,1.78562 -3.35364,3.80164 -5.49766,5.33766 -21.67063,-25.66428 -40.16683,-53.165371 -47.0021,-72.499978 L 96.999435,60.499846 c -4.499248,4.74885 -8.000085,10.502512 -9.331299,16.838579 z m 162.075334,6.937674 c 3.92324,3.385636 4.00644,7.065676 1.43361,11.148919 -5.00485,7.961682 -9.8433,14.323352 -15.34096,19.072202 -2.86723,2.47683 -2.42563,6.66247 -0.66561,10.00331 3.85924,7.30248 9.8177,11.89773 15.83377,15.00176 4.97285,-4.97285 9.9521,-6.67527 12.83214,-1.16481 10.61771,20.28821 18.55379,40.85803 28.1667,59.82783 8.40329,16.58898 6.22726,28.0131 -3.16804,35.67399 -6.56007,5.35045 -12.88974,9.7793 -18.00339,15.00176 4.30085,4.46724 8.84489,8.74889 13.67055,12.82573 22.05463,-17.99059 55.49499,-17.01778 96.16742,-4.00004 1.57442,-4.82565 3.69284,-9.4913 6.32967,-14.00335 -14.25295,-12.78734 -29.12031,-15.88497 -34.32997,-28.3267 -2.75843,-6.57927 -4.12804,-19.89141 -7.48808,-28.3715 -11.01451,-27.8083 -21.35062,-48.63412 -38.51561,-83.9689 -7.69928,-15.85297 -5.96486,-31.264335 -2.00322,-39.840426 -5.74726,-2.451226 -10.20811,-5.401658 -13.49774,-8.787294 -7.66728,7.622482 -38.17001,7.788883 -54.04218,0 -3.68644,6.323268 -7.39848,11.23212 -11.12332,15.750568 9.93291,4.204845 17.86899,9.081697 23.74426,14.156951 z m 110.26037,9.561702 h 27.8339 v 99.329059 l 27.41789,-27.41149 V 56.160599 c -15.64177,10.137708 -34.57317,18.598599 -55.25179,26.17628 v 11.500922 z m 139.52789,-45.05648 28.0195,15.468965 c -6.29127,19.289805 -2.02882,42.022844 -2.56643,79.079244 l 15.29617,-0.006 5.27365,-4.66565 5.54886,7.16808 c 0,0 -6.64967,13.31854 -11.00812,20.11541 -8.60169,-2.24002 -9.7345,-1.79842 -15.65456,-1.29281 -1.35042,11.23212 2.02882,44.52527 2.02882,44.52527 0,0 -14.34895,-1.61922 -32.05794,8.05769 1.33121,-11.43692 3.47523,-40.80684 2.00322,-52.98617 -10.00971,0.46721 -34.23397,1.89442 -57.11421,4.87045 l -12.05133,-8.70409 c 0.67841,0.85761 68.62793,-62.157461 72.28237,-111.629989 z m -2.43203,95.149819 c 0,0 1.01122,-22.32984 0,-39.99403 0,0 -17.46578,27.60989 -30.25312,40.19883 4.05765,1.42081 30.25312,-0.2048 30.25312,-0.2048 z"
   inkscape:connector-curvature="0"
   id="path16"
   style="fill:#ffffff" />
</svg>