<?xml version="1.0" encoding="UTF-8" standalone="no"?>
<!-- Created with Inkscape (http://www.inkscape.org/) -->

<svg
   xmlns:dc="http://purl.org/dc/elements/1.1/"
   xmlns:cc="http://creativecommons.org/ns#"
   xmlns:rdf="http://www.w3.org/1999/02/22-rdf-syntax-ns#"
   xmlns:svg="http://www.w3.org/2000/svg"
   xmlns="http://www.w3.org/2000/svg"
   xmlns:xlink="http://www.w3.org/1999/xlink"
   xmlns:inkscape="http://www.inkscape.org/namespaces/inkscape"
   version="1.1"
   width="600"
   height="320"
   id="svg2"
   xml:space="preserve"><metadata
     id="metadata8"><rdf:RDF><cc:Work
         rdf:about=""><dc:format>image/svg+xml</dc:format><dc:type
           rdf:resource="http://purl.org/dc/dcmitype/StillImage" /><dc:title /></cc:Work></rdf:RDF></metadata><defs
     id="defs6"><linearGradient
       x1="0"
       y1="0"
       x2="1"
       y2="0"
       id="linearGradient24"
       gradientUnits="userSpaceOnUse"
       gradientTransform="matrix(271.13605,126.43282,126.43282,-271.13605,14.432617,16.783691)"
       spreadMethod="pad"><stop
         id="stop26"
         style="stop-color:#bf331c;stop-opacity:1"
         offset="0" /><stop
         id="stop28"
         style="stop-color:#f6971d;stop-opacity:1"
         offset="1" /></linearGradient><clipPath
       id="clipPath36"><path
         d="M 0,160 300,160 300,0 0,0 0,160 z"
         inkscape:connector-curvature="0"
         id="path38" /></clipPath><linearGradient
       x1="0"
       y1="0"
       x2="1"
       y2="0"
       id="linearGradient3044"
       xlink:href="#linearGradient24"
       gradientUnits="userSpaceOnUse"
       gradientTransform="matrix(271.13605,126.43282,126.43282,-271.13605,14.432617,16.783691)"
       spreadMethod="pad" /><linearGradient
       x1="0"
       y1="0"
       x2="1"
       y2="0"
       id="linearGradient3049"
       xlink:href="#linearGradient24"
       gradientUnits="userSpaceOnUse"
       gradientTransform="matrix(271.13605,126.43282,126.43282,-271.13605,14.432617,16.783691)"
       spreadMethod="pad" /><linearGradient
       x1="0"
       y1="0"
       x2="1"
       y2="0"
       id="linearGradient3056"
       xlink:href="#linearGradient24"
       gradientUnits="userSpaceOnUse"
       gradientTransform="matrix(271.13605,126.43282,126.43282,-271.13605,14.432617,16.783691)"
       spreadMethod="pad" /><linearGradient
       x1="0"
       y1="0"
       x2="1"
       y2="0"
       id="linearGradient3059"
       xlink:href="#linearGradient24"
       gradientUnits="userSpaceOnUse"
       gradientTransform="matrix(271.13605,126.43282,126.43282,-271.13605,14.432617,16.783691)"
       spreadMethod="pad" /><linearGradient
       x1="0"
       y1="0"
       x2="1"
       y2="0"
       id="linearGradient3000"
       xlink:href="#linearGradient24"
       gradientUnits="userSpaceOnUse"
       gradientTransform="matrix(542.2721,-252.86564,252.86564,542.2721,28.864434,286.43262)"
       spreadMethod="pad" /></defs><path
     d="M 42.7192,4.75 C 17.8692,51.902 4.7492,105.518 4.7492,160 l 0,0 c 0,54.482 13.12,108.096 37.97,155.25 l 0,0 514.562,0 c 24.846,-47.156 37.968,-100.772 37.968,-155.25 l 0,0 c 0,-54.48 -13.122,-108.094 -37.968,-155.25 l 0,0 -514.562,0 z"
     inkscape:connector-curvature="0"
     id="path30"
     style="fill:url(#linearGradient3000);stroke:none" /><path
     d="M 560.132,0 39.866,0 C 14.506,47.102 0,101.738 0,160 0,218.262 14.506,272.898 39.866,320 l 520.266,0 C 585.49,272.898 600,218.262 600,160 600,101.738 585.49,47.102 560.132,0 M 554.4,9.5 c 23.632,45.858 36.1,97.764 36.1,150.5 0,52.736 -12.468,104.642 -36.1,150.5 l -508.802,0 C 21.966,264.646 9.5,212.738 9.5,160 9.5,107.262 21.966,55.354 45.598,9.5 l 508.802,0"
     inkscape:connector-curvature="0"
     id="path42"
     style="fill:#ffffff;fill-opacity:1;fill-rule:nonzero;stroke:none" /><path
     d="m 548.2062,19 -12.258,0 -471.898,0 -12.258,0 -5.054,11.168 c -18.408,40.682 -27.74,84.364 -27.74,129.832 0,46.278 9.666,90.676 28.732,131.964 l 5.094,11.036 12.156,0 470.038,0 12.154,0 5.096,-11.036 c 19.064,-41.286 28.73,-85.686 28.73,-131.964 0,-45.47 -9.334,-89.152 -27.74,-129.834 L 548.2062,19 z m -12.258,19 c 16.69,36.884 26.05,78.272 26.05,122 0,44.524 -9.716,86.612 -26.98,124 l -470.038,0 c -17.264,-37.388 -26.982,-79.476 -26.982,-124 0,-43.728 9.362,-85.116 26.052,-122 l 471.898,0"
     inkscape:connector-curvature="0"
     id="path46"
     style="fill:#ffffff;fill-opacity:1;fill-rule:nonzero;stroke:none" /><path
     d="m 494.8332,82.167 -51,43.834 6.168,11.166 c 27.342,2.478 54.528,5.116 63.5,26.334 0.79,6.222 0.796,12.444 -0.166,18.666 -3.79,6.072 -10.412,11.292 -19.668,16.166 -11.618,6.12 -27.802,-1.176 -39.154,-13.248 -5.382,-2.062 -10.9,-3.268 -15.346,-4.752 l -5,10.834 51.834,32.834 c 14.002,-12.914 29.198,-24.04 46.5,-32 2.104,-11.624 3.296,-23.54 3.334,-35.834 -8.502,-21 -26.834,-30.834 -50.334,-36.166 l 46.334,-63.834 -89.668,2.666 c -0.596,9.792 -4.25,17.81 -9.332,25 19.474,-2.594 40.024,-3.348 61.998,-1.666 m -134.834,11.666 27.834,0 0,99.334 27.416,-27.416 0,-109.584 c -15.646,10.132 -34.572,18.596 -55.25,26.166 l 0,11.5 z m -110.256,-9.556 c 3.924,3.39 4.006,7.056 1.434,11.144 -5.012,7.966 -9.846,14.33 -15.346,19.08 -2.87,2.478 -2.426,6.666 -0.664,10 3.856,7.298 9.82,11.902 15.832,15 4.976,-4.98 9.952,-6.678 12.832,-1.168 10.618,20.292 18.558,40.862 28.168,59.834 8.398,16.582 6.226,28.01 -3.166,35.666 -6.564,5.35 -12.888,9.784 -18,15 4.294,4.474 8.844,8.756 13.666,12.834 22.056,-17.992 55.496,-17.024 96.168,-4 1.576,-4.834 3.692,-9.5 6.332,-14 -14.25,-12.792 -29.122,-15.888 -34.332,-28.334 -2.754,-6.578 -4.126,-19.888 -7.484,-28.364 -11.018,-27.802 -21.35,-48.636 -38.516,-83.968 -7.702,-15.852 -5.96,-31.26 -2,-39.834 -5.752,-2.456 -10.204,-5.406 -13.5,-8.792 -7.668,7.626 -38.168,7.792 -54.042,0 -3.688,6.326 -7.404,11.23 -11.126,15.75 9.93,4.2 17.872,9.076 23.744,14.152 M 87.6672,77.333 c 16.082,2 27.914,3.918 22.166,18.834 -3.13,8.126 -6.514,15.738 -10.002,23.166 -1.984,4.23 -1.542,8.916 3.336,12.168 3.272,2.18 10.336,5.74 14,7.166 4.916,1.916 7.95,-0.078 9.5,-3.666 1.136,-2.636 3.71,-7.77 5,-10.334 2.42,-4.814 6.66,-3.78 9.664,0.5 19.122,27.226 37.196,65.244 48.5,110.666 3.132,12.578 3,22.838 -0.832,29.168 5.52,4.098 11.7,6.964 18.5,8.666 8.02,-15.074 21.946,-26.958 40.832,-36.166 -3.874,-15.474 -8.848,-30.724 -15.332,-45.668 -6.536,-21.034 -2.582,-32.01 4,-40.332 1.798,-2.276 1.84,-5.284 0,-8.188 -3.52,-5.554 -7.366,-9.958 -11.332,-13.312 -2.792,-2.362 -6.46,-2.856 -9.5,0.166 -1.792,1.78 -3.358,3.792 -5.5,5.334 -21.668,-25.668 -40.168,-53.168 -47,-72.5 l -66.668,-2.5 c -4.5,4.75 -8,10.5 -9.332,16.832 m -45.668,166.668 c 12.526,-9.822 20.91,-23.072 27.95,-42.6 6.532,-18.116 10.968,-35.584 19.198,-52.25 2.082,-4.214 7.134,-7.534 12.602,-4.9 3.856,1.856 7.694,3.98 11.918,5.916 4.444,2.038 5.364,5.882 3.332,10.632 -5.86,13.692 -13.136,26.784 -17.832,40.868 -4.668,14 -5.334,30.334 11.166,34.666 l 0,13 c -30.788,-3.722 -49.226,0.692 -60.9,10.666 l -7.434,-15.998 z"
     inkscape:connector-curvature="0"
     id="path50"
     style="fill:#ffffff;fill-opacity:1;fill-rule:nonzero;stroke:none" /></svg>