<?xml version="1.0" encoding="UTF-8" standalone="no"?>
<!-- Created with Inkscape (http://www.inkscape.org/) -->

<svg
   xmlns:dc="http://purl.org/dc/elements/1.1/"
   xmlns:cc="http://creativecommons.org/ns#"
   xmlns:rdf="http://www.w3.org/1999/02/22-rdf-syntax-ns#"
   xmlns:svg="http://www.w3.org/2000/svg"
   xmlns="http://www.w3.org/2000/svg"
   xmlns:sodipodi="http://sodipodi.sourceforge.net/DTD/sodipodi-0.dtd"
   xmlns:inkscape="http://www.inkscape.org/namespaces/inkscape"
   version="1.1"
   width="600"
   height="487.85431"
   viewBox="0 0 600.00001 487.8543"
   id="Layer_1"
   xml:space="preserve"
   inkscape:version="0.91 r13725"
   sodipodi:docname="D0609 - Commander 2015 - Common.svg"><sodipodi:namedview
     pagecolor="#889092"
     bordercolor="#666666"
     borderopacity="1"
     objecttolerance="10"
     gridtolerance="10"
     guidetolerance="10"
     inkscape:pageopacity="0"
     inkscape:pageshadow="2"
     inkscape:window-width="1680"
     inkscape:window-height="988"
     id="namedview3342"
     showgrid="false"
     inkscape:zoom="1.7443732"
     inkscape:cx="225.30234"
     inkscape:cy="56.236534"
     inkscape:window-x="-8"
     inkscape:window-y="-8"
     inkscape:window-maximized="1"
     inkscape:current-layer="Layer_1" /><metadata
     id="metadata13"><rdf:RDF><cc:Work
         rdf:about=""><dc:format>image/svg+xml</dc:format><dc:type
           rdf:resource="http://purl.org/dc/dcmitype/StillImage" /><dc:title></dc:title></cc:Work></rdf:RDF></metadata><defs
     id="defs11" /><path
     style="fill:#ffffff"
     d="M 246.07917,434.26559 C 155.52236,382.22072 101.88103,339.681 86.346682,307.59132 77.885815,290.1135 77.463921,285.67703 80.610249,247.26873 86.728704,172.5786 85.695721,161.02074 71.146701,141.38281 48.919865,111.38154 38.198679,91.814399 35.298775,75.957078 l -2.804773,-15.337127 93.612848,0 c 100.7141,0 93.75266,-1.270589 126.90543,23.16255 12.99157,9.574604 13.03206,9.716863 6.92542,24.332109 -7.99774,19.14129 -4.19466,35.47345 11.29535,48.50744 16.64849,14.00878 39.38116,14.00878 56.02965,0 15.49001,-13.03399 19.29309,-29.36615 11.29535,-48.50744 -6.10665,-14.615246 -6.06616,-14.757505 6.92541,-24.332109 33.15277,-24.433139 26.19134,-23.16255 126.90545,-23.16255 l 93.61283,0 -2.80477,15.337127 c -2.89991,15.857321 -13.62109,35.424462 -35.84794,65.425732 -14.549,19.63793 -15.58199,31.19579 -9.46354,105.88592 3.14632,38.4083 2.72445,42.84477 -5.73641,60.32259 -11.18244,23.09983 -42.92429,52.13253 -94.29409,86.24617 -46.32937,30.76639 -119.16743,67.52608 -119.16743,67.52608 0,0 -26.73977,-12.23077 -52.60839,-27.09798 z"
     id="path3353"
     inkscape:connector-curvature="0"
     sodipodi:nodetypes="ssssscsssssssscssssscs" /><path
     style="fill:#000000"
     d="m 282.88827,306.28959 0,-118.33151 -9.20227,-2.79063 c -23.54503,-7.14013 -39.87653,-32.91645 -39.87653,-62.93786 0,-19.34923 12.8337,-15.95265 -15.68863,-30.976816 -16.41056,-8.64428 -16.67859,-10.366446 -86.01891,-9.260304 l -70.330299,1.121934 18.492764,28.148076 c 27.681535,42.13443 31.944215,66.16696 22.016165,124.12481 -7.236414,42.24465 -3.122915,55.38362 26.52954,84.73829 29.51125,29.2149 64.05018,54.28303 115.05249,83.50438 20.15061,11.54512 37.17482,20.99113 37.83158,20.99113 0.65675,0 1.1941,-53.24918 1.1941,-118.3315 z m 111.98686,70.19425 c 22.22748,-14.65139 53.04046,-38.55045 68.47334,-53.10902 34.96378,-32.98305 39.29911,-45.43796 32.04588,-92.0639 -8.5737,-55.11419 -0.90894,-88.19102 29.26483,-126.29062 6.49162,-8.196763 11.80293,-16.938925 11.80293,-19.427024 0,-3.131359 -21.84461,-4.523823 -70.96845,-4.523823 -67.10441,0 -70.62301,2.426448 -84.86542,9.332838 -23.72464,11.504489 -14.13837,12.553989 -14.95985,23.516929 -2.25516,30.09614 -5.89329,41.41921 -17.58755,54.73823 -6.66165,7.5872 -16.69337,14.94473 -22.29272,16.35008 l -10.18064,2.55518 0,118.91782 0,118.91782 19.42702,-11.13781 c 10.68487,-6.1258 37.61315,-23.12531 59.84063,-37.7767 z"
     id="path3355"
     inkscape:connector-curvature="0"
     sodipodi:nodetypes="scsssscsssssssssssssssscccss" /></svg>