<?xml version="1.0" encoding="UTF-8" standalone="no"?>
<!-- Created with Inkscape (http://www.inkscape.org/) -->

<svg
   xmlns:dc="http://purl.org/dc/elements/1.1/"
   xmlns:cc="http://creativecommons.org/ns#"
   xmlns:rdf="http://www.w3.org/1999/02/22-rdf-syntax-ns#"
   xmlns:svg="http://www.w3.org/2000/svg"
   xmlns="http://www.w3.org/2000/svg"
   xmlns:xlink="http://www.w3.org/1999/xlink"
   xmlns:inkscape="http://www.inkscape.org/namespaces/inkscape"
   version="1.1"
   width="600"
   height="600"
   id="svg4062">
  <defs
     id="defs4064">
    <radialGradient
       cx="0"
       cy="0"
       r="1"
       fx="0"
       fy="0"
       id="radialGradient254"
       gradientUnits="userSpaceOnUse"
       gradientTransform="matrix(17.6521,0,0,-17.6521,217.27344,482.37891)"
       spreadMethod="pad">
      <stop
         id="stop256"
         style="stop-color:#d7bd74;stop-opacity:1"
         offset="0" />
      <stop
         id="stop258"
         style="stop-color:#b39a54;stop-opacity:1"
         offset="0.69101" />
      <stop
         id="stop260"
         style="stop-color:#8d742f;stop-opacity:1"
         offset="1" />
    </radialGradient>
    <radialGradient
       cx="0"
       cy="0"
       r="1"
       fx="0"
       fy="0"
       id="radialGradient2995"
       xlink:href="#radialGradient254"
       gradientUnits="userSpaceOnUse"
       gradientTransform="matrix(17.6521,0,0,-17.6521,217.27344,482.37891)"
       spreadMethod="pad" />
    <radialGradient
       cx="0"
       cy="0"
       r="1"
       fx="0"
       fy="0"
       id="radialGradient2998"
       xlink:href="#radialGradient254"
       gradientUnits="userSpaceOnUse"
       gradientTransform="matrix(264.75502,0,0,264.78124,299.976,300.00068)"
       spreadMethod="pad" />
  </defs>
  <metadata
     id="metadata4067">
    <rdf:RDF>
      <cc:Work
         rdf:about="">
        <dc:format>image/svg+xml</dc:format>
        <dc:type
           rdf:resource="http://purl.org/dc/dcmitype/StillImage" />
        <dc:title />
      </cc:Work>
    </rdf:RDF>
  </metadata>
  <path
     d="m 299.9694,599.9994 c -91.10089,0 -177.9272,-42.17996 -234.696527,-113.48989 l -0.644336,0.4056 -0.989901,0.3444 c -5.219478,1.935 -10.663933,2.88 -16.228377,2.88 -14.653535,0 -28.242176,-6.73499 -37.271273,-18.56998 C 3.6446355,463.00454 0,452.17455 0,441.08956 0,430.31957 3.2846715,420.17958 9.8540146,411.02959 12.253775,407.75959 14.9985,404.9396 18.10319,402.5996 6.1043896,369.67463 0,335.21966 0,299.9997 0,134.59487 134.58154,0 299.97,0 c 165.40346,0 299.97001,134.59487 299.97001,299.9997 0,32.27997 -5.0845,63.92994 -15.10349,94.21491 0.86991,0.88559 1.75482,1.76999 2.62473,2.69999 l 0.64554,0.7044 0.58434,0.7056 3.70463,5.1 0.46555,0.6456 0.40436,0.6456 c 4.39456,7.60499 6.73433,16.16998 6.73433,24.71997 0,10.60499 -3.44966,20.56498 -10.019,28.94997 -9.19408,11.77499 -23.36766,18.44998 -38.89111,18.44998 -2.81972,0 -5.62444,-0.18 -8.44415,-0.6456 C 486.11639,553.89005 396.12539,600 299.97,600"
     inkscape:connector-curvature="0"
     id="path248"
     style="fill:#ffffff;fill-opacity:1;fill-rule:nonzero;stroke:none" />
  <path
     d="m 299.9694,532.21447 c -74.81252,0 -141.48085,-35.62497 -183.9566,-90.82491 6.49435,0 13.30367,0.3456 20.44295,1.23 0.23998,0 0.52435,0 0.76433,0.06 l 0.40436,0 c 0.58554,0.06 1.22987,0 1.87481,-0.06 9.49405,-0.8244 16.40836,-8.50499 17.29327,-18.92998 0,-0.18 0,-0.4644 0,-0.6444 l 0.048,-1.05 0,-0.4644 c 0,-10.49999 -6.14939,-19.04998 -15.28348,-21.38998 -0.58434,-0.12 -1.22987,-0.24 -1.87481,-0.3 -1.34986,-0.108 -1.9948,-0.2856 -2.39976,-0.5256 -0.52435,-3.93 -0.9443,-7.84499 -0.9443,-11.65499 0,-26.24997 11.48885,-58.70994 35.09649,-99.2549 0.76432,-1.23 0.76432,-0.8256 1.04989,-2.175 l 1.34987,-7.37999 c 0.06,-0.4644 0.11998,-0.7044 0.11998,-0.8244 0,-0.2856 -0.11998,-0.2256 -0.28557,-1.17 l -0.23997,-1.29 c -0.11999,-0.92999 -0.40436,-1.87499 -0.76553,-2.74499 -0.9899,-2.355 -2.63973,-4.575 -4.57454,-6.63 5.15949,-0.93 9.61404,-3.32999 12.89871,-7.19999 0.28557,-0.36 0.58434,-0.7056 0.82432,-1.0656 0,0 0.40436,-0.6444 0.68993,-1.05 1.22988,-1.11 2.29477,-2.27999 2.9997,-3.80999 0,0 1.04989,-2.22 1.45485,-3.105 0.47996,-0.7656 1.70983,-2.7 1.70983,-2.7 0.10799,-0.2256 0.22558,-0.4044 0.34557,-0.6444 l 1.93481,-3.56999 c 0.23997,-0.4044 0.52434,-1.11 0.70552,-1.575 0,0 0.16439,-0.42 0.22438,-0.5256 39.91101,20.03998 79.97201,156.61484 84.66654,209.05479 0,-0.4044 -0.06,-0.7644 -0.06,-1.11 0,10.07999 5.32447,18.68998 13.52865,22.09498 3.52465,1.455 7.27427,1.695 11.14388,0.81 1.39486,-0.3456 2.74473,-0.93 3.97461,-1.695 l 3.40466,-2.235 c 2.03979,-1.335 4.33456,-3.44999 12.82371,-11.24999 l 34.51155,-31.75496 c -0.34556,0.35999 -0.58434,0.52439 -0.9899,0.82439 10.24398,-7.37999 12.35877,-17.05498 13.52865,-22.19997 0,-0.06 0.11999,-0.6456 0.11999,-0.6456 0.16558,-0.8256 0.28557,-1.71 0.28557,-2.64 0,-1.0056 -0.11999,-1.995 -0.40436,-2.94 l -0.06,-0.3444 c -0.11999,-0.5256 -0.34557,-1.29 -0.52555,-1.815 -5.33947,-13.48498 -11.30887,-28.00497 -19.33307,-43.06495 -3.56964,-7.21499 -5.44445,-14.17499 -5.44445,-21.08998 0,-8.14499 2.39976,-15.94498 5.14448,-24.91498 2.93971,-9.53999 6.20938,-20.32498 7.21428,-33.20996 0.06,-0.3 0.06,-0.6444 0.06,-1.0044 0,-0.99 -0.11998,-2.1 -0.29997,-2.985 l 0,0 c -0.11998,-0.7044 -0.40436,-1.35 -0.58554,-1.995 0.29997,0.12 0.58554,0.3 0.94551,0.42 2.15978,0.63 8.24917,2.16 13.64863,0.63 1.10989,-0.2856 2.09979,-0.87 3.10469,-1.335 -0.06,0.06 -0.06,0.06 -0.11999,0.108 0.06,-0.048 0.17999,-0.108 0.23998,-0.1656 1.28987,-0.5844 2.51975,-1.17 3.68963,-2.05499 1.0499,0.70439 2.21978,1.81499 3.50965,4.09499 18.50815,29.77497 33.74663,63.92994 45.34047,101.7899 1.9948,9.43499 2.87971,15.92998 2.87971,20.84998 0,6.32999 -1.40986,8.26499 -2.0548,9.02999 -0.86991,0.7656 -3.04469,2.685 -3.04469,2.685 -6.08939,5.39999 -12.29877,10.90499 -17.33827,13.82998 l -0.58554,0.3 c -2.81972,1.695 -4.91951,4.515 -5.74443,7.68 l -0.11998,0.52559 c -0.52435,1.995 -1.28987,5.04 -1.28987,8.55 0,6.26999 2.39976,10.42499 4.39456,12.83998 2.9247,3.51 8.54914,7.605 18.74812,6.855 0,0 0.52435,-0.06 0.52435,-0.06 2.45975,-0.18 4.87451,-1.0656 6.79432,-2.64 l 0.41996,-0.36 c 5.50445,-4.335 13.0037,-7.90499 22.78272,-10.76999 13.36366,-2.4 25.19748,-3 36.14638,-2.88 C 445.21548,494.53811 376.89731,532.21807 299.97,532.21807 M 116.65773,157.79984 c -0.58554,1.695 -0.9455,3.33 -0.9455,4.86 l 0,1.35 c 0,6.20999 4.57454,11.41498 10.66393,12.23998 l 1.34987,0.18 c 19.39306,2.685 19.63303,8.84999 19.63303,14.81999 -0.06,0.4044 -0.11998,1.59 -0.17998,2.76 -5.27947,20.03998 -10.90391,30.98997 -16.16838,39.71996 l -0.23998,0.4044 c -1.16988,1.93499 -1.75482,4.10999 -1.75482,6.38999 l 0,0.42 c 0,4.67999 2.11479,8.78999 5.15948,12.17999 -5.21948,1.17 -9.55404,4.15499 -12.0138,8.72999 -0.23997,0.4044 -0.46435,0.8856 -0.58434,1.29 l -0.17998,0.4044 c -0.11999,0.3 -0.22558,0.5844 -0.34557,0.8856 -11.12888,34.85996 -23.907604,70.25993 -40.195976,111.20988 -0.05999,0.12 -0.119988,0.24 -0.179982,0.36 -8.309169,-23.84997 -12.883711,-49.39495 -12.883711,-76.00492 0,-53.54995 18.283171,-102.8849 48.865109,-142.19986 M 532.16058,299.9991 c 0,24.19498 -3.74962,47.51995 -10.60394,69.49493 -16.9333,-64.45494 -47.57524,-131.89487 -71.42285,-174.77982 -1.87482,-8.325 -2.45976,-17.35499 -2.9847,-26.08498 0,-0.12 -0.52435,-8.26499 -0.58555,-9.43499 0.06,-0.99 0.17999,-4.155 0.17999,-4.155 0,-0.17999 0,-0.40439 0,-0.64439 l 0,0 c 0,-8.73 -2.69973,-15.23999 -8.0842,-19.39498 -6.04439,-4.635 -14.0086,-5.16 -23.68263,-1.575 -4.09459,1.455 -9.13408,0.75 -15.52345,-0.18 0.11999,0 0.23998,0 0.35997,0.06 -14.0086,-2.52 -23.66763,-3.225 -33.92661,-3.93 -19.33307,-1.695 -19.33307,-1.695 -19.85801,-1.695 -10.019,0 -17.23328,8.36999 -19.75303,16.16999 -0.16558,0.5856 -0.34556,1.16999 -0.40436,1.81499 l -0.52434,3.165 c -0.06,0.5844 -0.11999,1.29 -0.11999,1.935 l 0,0.18 c 0.06,6.26999 2.9847,11.77499 7.9642,15.16498 l 8.20418,5.46 c 0,0 9.79402,6.67499 13.76862,9.31499 4.0496,5.26499 4.91951,8.95499 5.0395,11.99999 -0.92991,1.53 -1.93481,3.05999 -1.93481,3.05999 -5.80442,9.015 -11.24887,17.45999 -17.57824,23.89498 -0.16558,0.12 -0.34556,0.3 -0.40436,0.42 l -2.05479,2.22 c -2.15979,2.28 -5.68443,6.02999 -6.67434,12.47999 -0.11998,0.64439 -0.17998,1.34999 -0.17998,1.99499 0,1.23 0.29997,2.4 0.46436,3.63 -1.45486,-0.6444 -2.86472,-1.17 -4.33457,-1.47 -7.25927,-1.755 -14.23358,0.54 -18.62814,6.04499 -0.86991,1.11 -1.69483,2.46 -2.15978,3.75 l -0.17998,0.4656 c -0.64554,1.875 -1.22988,3.225 -1.87482,4.635 -2.69973,-4.695 -14.47355,-25.07998 -14.47355,-25.07998 -37.0313,-65.50493 -54.0096,-92.17491 -72.65273,-91.52991 -0.34557,0 -0.70433,0.06 -1.0499,0.06 -25.9474,3.045 -44.9955,1.65 -73.29767,-1.05 -0.22438,-0.06 -0.46435,-0.06 -0.70433,-0.06 l -0.40436,-0.06 c -0.64433,0 -1.16988,0.06 -1.75482,0.12 -2.45976,0.2856 -4.91951,1.23 -7.31927,2.52 42.23578,-43.76996 101.46485,-71.12993 166.9633,-71.12993 128.0272,0 232.19178,104.1749 232.19178,232.19977 m 35.26148,116.06988 -0.16559,-0.1644 c -4.9195,-5.09999 -10.13898,-9.31499 -15.17848,-13.06498 13.0037,-31.76997 20.15799,-66.44994 20.15799,-102.8399 0,-150.40485 -121.86282,-272.27973 -272.26778,-272.27973 -150.32996,0 -272.252772,121.87488 -272.252772,272.27973 0,40.48496 8.909109,78.92992 24.777523,113.44489 -4.334567,3.74999 -9.194081,7.01999 -14.878513,9.65999 0.05999,0 -0.524347,0.24 -0.524347,0.24 -1.934807,0.87 -3.449655,2.15999 -4.739526,3.86999 l -0.359964,0.5244 c -2.80472,3.87 -4.274573,8.48999 -4.274573,13.34999 0,5.03999 1.589841,9.91499 4.514549,13.66499 5.219478,6.89999 13.828617,9.41999 21.79282,6.49499 1.169883,-0.4644 2.639737,-1.23 3.629638,-1.995 l 0,0 c 4.69453,-3.63 9.79402,-6.67499 15.178482,-9.19499 48.745123,73.64993 132.286773,122.21988 227.137283,122.21988 97.73023,0 183.38666,-51.55495 231.42686,-128.83487 3.52465,1.11 7.0343,2.39999 10.48395,3.97499 0.53995,0.18 1.0655,0.42 1.58984,0.5844 9.59904,2.82 19.27308,0.18 24.71753,-6.73499 2.69973,-3.45 4.0496,-7.49999 4.0496,-11.83499 0,-3.69 -1.0055,-7.43999 -2.98471,-10.84499 -0.47995,-0.87 -1.18428,-1.815 -1.82981,-2.52"
     inkscape:connector-curvature="0"
     id="path250"
     style="fill:#8d742f;fill-opacity:1;fill-rule:nonzero;stroke:none" />
  <path
     d="m 35.215878,299.99934 c 0,38.44496 8.144186,75.52492 24.087592,110.33989 l 0,0 2.39976,5.08499 -4.274573,3.69 c -5.339466,4.575 -10.783921,8.09999 -17.233277,11.02499 l 0,0 c -0.764923,0.405 -1.289871,0.825 -2.054794,1.935 l 0,0 c -1.919808,2.685 -2.924708,5.78999 -2.924708,9.01499 l 0,0 c 0,3.345 1.049895,6.62999 2.984702,9.14999 l 0,0 c 2.354764,3.045 5.564443,4.68 9.149085,4.68 l 0,0 c 1.349865,0 2.744726,-0.225 3.974603,-0.645 l 0,0 c 0.644935,-0.225 1.409859,-0.705 1.754824,-0.93 l 0,0 c 4.934507,-3.87 10.558944,-7.275 16.588341,-10.07999 l 0,0 5.864414,-2.76 3.569643,5.39999 c 49.27007,74.45993 131.82182,118.87489 220.86791,118.87489 l 0,0 c 92.22578,0 176.29237,-46.87496 225.0375,-125.32488 l 0,0 3.10469,-4.91999 5.56444,1.69499 c 3.74963,1.23 7.49925,2.7 11.89381,4.575 l 0,0 c 1.82982,0.525 3.70463,0.81 5.51945,0.81 l 0,0 c 4.61954,0 8.72913,-1.815 11.18888,-4.92 l 0,0 c 1.63484,-2.15999 2.45976,-4.55999 2.45976,-7.31999 l 0,0 c 0,-2.34 -0.64494,-4.73999 -1.9948,-7.09499 l 0,0 -0.88492,-1.17 c -4.9795,-5.205 -10.24397,-9.31499 -14.29357,-12.23999 l 0,0 -4.61953,-3.51 2.15978,-5.39999 c 13.06369,-31.87497 19.63304,-65.50493 19.63304,-99.9599 l 0,0 C 564.73793,153.98949 445.9798,35.2196 299.9694,35.2196 l 0,0 C 154.034,35.2196 35.215878,153.98949 35.215878,299.99934 M 299.9694,60.29958 c 132.18178,0 239.69103,107.56489 239.69103,239.69976 l 0,0 c 0,24.49498 -3.68963,48.62995 -11.0089,71.71493 l 0,0 -7.79922,24.85497 -6.61433,-25.13997 C 497.52965,307.55933 466.82772,240.1194 443.64004,198.34444 l 0,0 -0.59994,-0.945 -0.22498,-1.05 c -1.93481,-8.66999 -2.57974,-17.81998 -3.10469,-27.35997 l 0,0 -0.23998,-3.345 -0.40496,-6.91499 0.17999,-4.33499 c 0,-6.39 -1.64984,-10.78499 -5.15949,-13.40999 l 0,0 c -2.11479,-1.65 -4.51455,-2.415 -7.49925,-2.415 l 0,0 c -2.63973,0 -5.62444,0.645 -9.0291,1.875 l 0,0 c -2.45975,0.885 -5.09949,1.35 -8.14418,1.35 l 0,0 c -2.9847,0 -6.32937,-0.465 -10.30397,-1.05 l 0,0 c -0.29997,0 -0.58494,-0.06 -0.94491,-0.18 l 0,0 c -13.52864,-2.34 -22.90271,-2.985 -32.9217,-3.69 l 0,0 c -16.10839,-1.41 -18.56815,-1.635 -19.21308,-1.635 l 0,0 c -6.68933,0 -11.18888,6.495 -12.77873,11.59499 l 0,0 -0.52494,3.99 c 0,3.81 1.75482,7.03499 4.63453,9.01499 l 0,0 8.24918,5.51999 13.76862,9.375 1.0049,0.62999 0.70493,1.005 c 4.39456,5.625 6.43436,10.78499 6.61434,16.34999 l 0,0 0.06,2.28 -1.28987,1.99499 -1.9348,3.045 c -5.96941,9.25499 -11.65384,18.04498 -18.68813,25.25997 l 0,0 -2.21978,2.4 c -1.70983,1.755 -3.9896,4.155 -4.75453,9.25499 l 0,0 c 0,0.525 0.11999,1.05 0.23998,1.575 l 0,0 2.68473,14.59499 -12.94371,-5.685 c -0.9899,-0.405 -2.05479,-0.825 -3.04469,-1.05 l 0,0 c -1.0499,-0.24 -2.0548,-0.36 -3.0447,-0.36 l 0,0 c -3.22467,0 -6.08939,1.35 -8.02419,3.81 l 0,0 c -0.52495,0.585 -0.82492,1.17 -1.10989,1.995 l 0,0 c -0.76493,2.115 -1.40986,3.62999 -2.0548,5.15999 l 0,0 -5.92441,13.64999 -7.43925,-12.88499 -14.51855,-25.13997 C 252.81413,178.00446 233.01611,144.8995 217.37267,144.9595 l 0,0 c -10.19898,1.16999 -19.57304,1.75499 -29.41206,1.75499 l 0,0 c -14.65353,0 -29.29207,-1.29 -46.87031,-2.86499 l 0,0 c -1.16988,0.12 -2.75972,0.705 -4.57454,1.69499 l 0,0 -9.55405,5.1 -3.16468,9.49499 c -0.58494,1.575 -0.58494,2.28 -0.58494,3.87 l 0,0 c 0,2.45999 1.75482,4.49999 5.50445,5.03999 l 0,0 c 21.68783,2.925 26.14238,10.94999 26.08239,23.54998 l 0,0 -0.11999,1.815 0,0.76499 -0.23997,0.765 c -5.56445,20.96998 -11.41386,32.45997 -17.27828,42.05996 l 0,0 c -0.40496,0.705 -0.64493,1.65 -0.64493,2.94 l 0,0 c 0,2.34 1.04989,4.73999 3.28467,7.25999 l 0,0 8.42916,9.61499 -12.47876,2.685 c -2.21977,0.48 -5.26447,1.71 -7.55924,6.20999 l 0,0 C 116.94272,301.81434 104.119,337.3193 87.830627,378.40426 l 0,0 -7.619238,19.09498 -6.614339,-19.03498 C 64.807929,353.20429 60.293381,326.77431 60.293381,299.99934 l 0,0 c 0,-49.39495 14.818518,-96.4499 43.060689,-136.81486 l 0,0 -8.609134,4.57499 23.847614,-24.73497 19.09309,-24.49498 -2.57974,7.73999 C 179.87642,83.66956 238.0556,60.29958 299.96941,60.29958 m -150.67493,362.74464 0.0456,-1.515 c 0,-6.97499 -3.91461,-12.65999 -10.30397,-14.24999 l 0,0 c -1.69483,-0.1044 -3.74963,-0.405 -5.68444,-1.575 l 0,0 -2.9847,-1.87499 -0.46495,-3.51 c -0.64494,-4.29 -1.12489,-8.56499 -1.12489,-12.65999 l 0,0 c 0,-27.59997 11.89381,-61.28994 36.20638,-103.00489 l 0,0 0.23998,-0.42 1.10989,-5.85 c -0.06,-0.12 -0.06,-0.24 -0.06,-0.36 l 0,0 -0.58494,-2.34 0,0 c -0.52495,-1.28999 -1.51485,-2.75999 -3.04469,-4.39499 l 0,0 -9.59904,-10.19999 13.81361,-2.34 c 3.52465,-0.585 6.32937,-2.16 8.68414,-4.97999 l 0,0 1.33486,-1.935 0.64494,-0.525 c 0.64493,-0.585 1.06489,-1.11 1.22987,-1.53 l 0,0 1.81482,-3.75 1.82982,-2.98499 2.27977,-4.275 3.38966,-8.14499 7.15429,3.57 c 43.06069,21.68997 83.13668,160.01984 88.64113,213.40478 l 0,0 c 0.11999,0.525 0.17999,1.11 0.17999,1.695 l 0,0 0,0.18 0,0.12 c 0.23997,6.67499 3.68963,12.29999 8.84911,14.47499 l 0,0 c 1.28987,0.525 2.51975,0.75 3.86961,0.75 l 0,0 c 0.80992,0 1.75483,-0.1044 2.51975,-0.285 l 0,0 c 0.68993,-0.18 1.22988,-0.42 1.81482,-0.765 l 0,0 3.32967,-2.16 c 1.52984,-1.005 4.04959,-3.345 11.89381,-10.55999 l 0,0 34.69153,-31.87497 c 7.43926,-5.62499 9.0141,-12.64499 10.07899,-17.27998 l 0,0 0.16498,-1.635 -0.46495,-2.46 c -4.85951,-12.43499 -10.88891,-27.19497 -19.0331,-42.43496 l 0,0 c -4.10958,-8.24999 -6.20937,-16.45498 -6.20937,-24.41997 l 0,0 c 0,-9.32999 2.68473,-17.99998 5.50444,-27.25497 l 0,0 c 2.80472,-9.13499 5.96941,-19.45498 6.91431,-31.51497 l 0,0 -0.06,-1.59 -3.62964,-14.81999 13.52865,4.335 c 0.46495,0.18 3.22468,0.93 6.14938,0.93 l 0,0 c 1.16989,0 2.23478,-0.1044 3.10469,-0.405 l 0,0 2.23478,-0.93 c 0.80992,-0.42 1.63484,-0.705 2.45975,-1.29 l 0,0 4.27458,-3.165 4.39456,3.045 c 2.15978,1.515 3.9746,3.63 5.56444,6.27 l 0,0 c 18.74813,30.22497 34.33157,65.03993 46.34537,104.23489 l 0,0 c 2.03979,10.07999 3.04469,16.99498 3.04469,22.37998 l 0,0 c 0,6.44999 -1.28987,10.90499 -4.69453,14.71498 l 0,0 -3.74962,3.27 c -6.0294,5.34 -12.29877,10.90499 -18.26818,14.30999 l 0,0 c -1.18488,0.69 -1.9948,1.87499 -2.47475,3.68999 l 0,0 c -0.52495,1.755 -1.04989,4.095 -1.04989,6.675 l 0,0 c 0,3.98999 1.46985,6.50999 2.69973,7.96499 l 0,0 c 2.27977,2.82 5.84941,4.21499 10.54394,4.21499 l 0,0 2.33977,-0.1044 c 1.0049,-0.06 1.9348,-0.42 3.10469,-1.34999 l 0,0 c 6.20938,-4.92 14.47355,-8.91 26.18738,-12.29999 l 0,0 c 11.60884,-2.055 22.85771,-3.06 35.39646,-3.06 l 0,0 2.09979,0 14.65353,0.18 -8.60914,11.77499 C 448.38016,502.85974 376.0274,539.7147 299.97,539.7147 l 0,0 c -74.81252,0 -144.0006,-34.16997 -189.88101,-93.74991 l 0,0 -9.31407,-12.07498 15.23848,0 c 7.31927,0 14.35356,0.405 22.78272,1.28999 l 0,0 c 5.80442,-0.52499 9.91401,-5.27999 10.49895,-12.13498"
     inkscape:connector-curvature="0"
     id="path262"
     style="fill:url(#radialGradient2998);fill-opacity:1;fill-rule:nonzero;stroke:none" />
</svg>
