<?xml version="1.0" encoding="UTF-8" standalone="no"?>
<!-- Created with Inkscape (http://www.inkscape.org/) -->

<svg
   xmlns:dc="http://purl.org/dc/elements/1.1/"
   xmlns:cc="http://creativecommons.org/ns#"
   xmlns:rdf="http://www.w3.org/1999/02/22-rdf-syntax-ns#"
   xmlns:svg="http://www.w3.org/2000/svg"
   xmlns="http://www.w3.org/2000/svg"
   xmlns:xlink="http://www.w3.org/1999/xlink"
   xmlns:inkscape="http://www.inkscape.org/namespaces/inkscape"
   version="1.1"
   width="600"
   height="600"
   id="svg3996">
  <defs
     id="defs3998">
    <radialGradient
       cx="0"
       cy="0"
       r="1"
       fx="0"
       fy="0"
       id="radialGradient238"
       gradientUnits="userSpaceOnUse"
       gradientTransform="matrix(17.6521,0,0,-17.6521,134.52441,482.37891)"
       spreadMethod="pad">
      <stop
         id="stop240"
         style="stop-color:#b7d1e1;stop-opacity:1"
         offset="0" />
      <stop
         id="stop242"
         style="stop-color:#a0b6c2;stop-opacity:1"
         offset="0.66291797" />
      <stop
         id="stop244"
         style="stop-color:#626e77;stop-opacity:1"
         offset="1" />
    </radialGradient>
    <radialGradient
       cx="0"
       cy="0"
       r="1"
       fx="0"
       fy="0"
       id="radialGradient2995"
       xlink:href="#radialGradient238"
       gradientUnits="userSpaceOnUse"
       gradientTransform="matrix(17.6521,0,0,-17.6521,134.52441,482.37891)"
       spreadMethod="pad" />
    <radialGradient
       cx="0"
       cy="0"
       r="1"
       fx="0"
       fy="0"
       id="radialGradient2998"
       xlink:href="#radialGradient238"
       gradientUnits="userSpaceOnUse"
       gradientTransform="matrix(264.75502,0,0,264.78123,299.99174,300.00046)"
       spreadMethod="pad" />
  </defs>
  <metadata
     id="metadata4001">
    <rdf:RDF>
      <cc:Work
         rdf:about="">
        <dc:format>image/svg+xml</dc:format>
        <dc:type
           rdf:resource="http://purl.org/dc/dcmitype/StillImage" />
        <dc:title />
      </cc:Work>
    </rdf:RDF>
  </metadata>
  <path
     d="m 299.9706,599.9994 c -91.10089,0 -177.9272,-42.17996 -234.696527,-113.48989 l -0.645536,0.4056 -0.989901,0.3444 c -5.219478,1.935 -10.663933,2.88 -16.228377,2.88 -14.653535,0 -28.242176,-6.73499 -37.271273,-18.56998 C 3.6446355,463.00454 0,452.17455 0,441.08956 0,430.31957 3.2846715,420.17958 9.8540146,411.0296 12.253775,407.75959 14.9985,404.93959 18.10319,402.5996 6.1043896,369.67463 0,335.21967 0,299.9997 0,134.59487 134.58154,0 299.97,0 c 165.40346,0 299.97001,134.59487 299.97001,299.9997 0,32.27997 -5.0845,63.92993 -15.10349,94.21491 0.86991,0.8856 1.75482,1.77 2.62473,2.7 l 0.64434,0.7056 0.58554,0.7044 3.70463,5.09999 0.46435,0.6444 0.40556,0.6456 c 4.39456,7.60499 6.73433,16.16998 6.73433,24.71997 0,10.60499 -3.44966,20.56498 -10.019,28.94997 -9.19408,11.77499 -23.36766,18.44998 -38.89111,18.44998 -2.81972,0 -5.62444,-0.18 -8.44415,-0.6444 C 486.11639,553.89005 396.12539,600 299.97,600"
     inkscape:connector-curvature="0"
     id="path232"
     style="fill:#ffffff;fill-opacity:1;fill-rule:nonzero;stroke:none" />
  <path
     d="m 299.9706,532.21447 c -74.81252,0 -141.48085,-35.62497 -183.9566,-90.82491 6.49435,0 13.30367,0.34559 20.44295,1.23 0.23998,0 0.52435,0 0.76433,0.06 l 0.40436,0 c 0.58434,0.06 1.22987,0 1.87481,-0.06 9.49405,-0.8256 16.40836,-8.50499 17.29327,-18.92998 0,-0.18 0,-0.4656 0,-0.64561 l 0.048,-1.04999 0,-0.4656 c 0,-10.49999 -6.14939,-19.04998 -15.28348,-21.38998 -0.58434,-0.11999 -1.22987,-0.24 -1.87481,-0.3 -1.34986,-0.108 -1.9948,-0.2844 -2.39976,-0.52439 -0.52435,-3.93 -0.9443,-7.845 -0.9443,-11.655 0,-26.24997 11.48885,-58.70994 35.09649,-99.25489 0.76432,-1.23 0.76432,-0.8244 1.04989,-2.17501 l 1.34987,-7.37999 c 0.06,-0.46439 0.11998,-0.7056 0.11998,-0.8256 0,-0.2856 -0.11998,-0.22439 -0.28437,-1.17 l -0.23997,-1.28999 c -0.11999,-0.93001 -0.40556,-1.875 -0.76553,-2.74501 -0.9899,-2.35499 -2.63973,-4.57499 -4.57454,-6.62998 5.15948,-0.93 9.61404,-3.33 12.89871,-7.19999 0.28437,-0.36001 0.58434,-0.7044 0.82552,-1.06441 0,0 0.40436,-0.64559 0.68993,-1.04999 1.22988,-1.11 2.29477,-2.28 2.9997,-3.81 0,0 1.04989,-2.22 1.45485,-3.105 0.47996,-0.76439 1.70983,-2.7 1.70983,-2.7 0.10799,-0.2256 0.22438,-0.4044 0.34437,-0.64559 l 1.93481,-3.57 c 0.23997,-0.4044 0.52554,-1.11 0.70552,-1.575 0,0 0.16439,-0.42 0.22558,-0.5244 39.91101,20.03998 79.972,156.61484 84.66654,209.05479 0,-0.4056 -0.06,-0.76559 -0.06,-1.11 0,10.07999 5.32447,18.68998 13.52865,22.09498 3.52465,1.455 7.27427,1.695 11.14388,0.81 1.39486,-0.3456 2.74473,-0.93 3.97461,-1.695 l 3.40466,-2.235 c 2.03979,-1.335 4.33456,-3.44999 12.82371,-11.24999 l 34.51155,-31.75497 c -0.34436,0.36001 -0.58434,0.52441 -0.9899,0.82561 10.24398,-7.37999 12.35877,-17.05498 13.52865,-22.19998 0,-0.06 0.11999,-0.64561 0.11999,-0.64561 0.16438,-0.82559 0.28437,-1.70998 0.28437,-2.63999 0,-1.0056 -0.11999,-1.99499 -0.40436,-2.94 l -0.06,-0.34439 c -0.11998,-0.5256 -0.34556,-1.29 -0.52554,-1.815 -5.33947,-13.48499 -11.30887,-28.00497 -19.33307,-43.06496 -3.56964,-7.21499 -5.44445,-14.17499 -5.44445,-21.08998 0,-8.14499 2.39976,-15.94498 5.14448,-24.91498 2.93971,-9.53998 6.20938,-20.32497 7.21428,-33.20997 0.06,-0.3 0.06,-0.64439 0.06,-1.00558 0,-0.99001 -0.11998,-2.1 -0.29997,-2.98501 l 0,0 c -0.11998,-0.7056 -0.40556,-1.34999 -0.58554,-1.995 0.29997,0.12 0.58554,0.3 0.94551,0.42 2.15978,0.63001 8.24917,2.16001 13.64863,0.63001 1.10989,-0.2856 2.09979,-0.87 3.10469,-1.33501 -0.06,0.06 -0.06,0.06 -0.11999,0.108 0.06,-0.048 0.17999,-0.108 0.23998,-0.16439 1.28987,-0.5856 2.51975,-1.17001 3.68963,-2.05501 1.0499,0.7056 2.21978,1.815 3.50965,4.095 18.50815,29.77498 33.74663,63.92994 45.34047,101.78991 1.9948,9.43498 2.87971,15.92997 2.87971,20.84997 0,6.33 -1.40986,8.26499 -2.0548,9.02999 -0.86991,0.7656 -3.04469,2.685 -3.04469,2.685 -6.08939,5.39999 -12.29877,10.90499 -17.33827,13.82999 l -0.58554,0.3 c -2.81972,1.695 -4.91951,4.51498 -5.74443,7.67999 l -0.11998,0.5244 c -0.52435,1.995 -1.28987,5.03999 -1.28987,8.54999 0,6.26999 2.39976,10.42499 4.39456,12.83999 2.9247,3.50999 8.54914,7.60499 18.74812,6.85499 0,0 0.52435,-0.06 0.52435,-0.06 2.45975,-0.18 4.87451,-1.0656 6.79432,-2.64 l 0.41996,-0.36 c 5.50445,-4.33499 13.0037,-7.90499 22.78272,-10.76999 13.36366,-2.4 25.19748,-3 36.14638,-2.87999 -42.23577,57.77994 -110.55394,95.4599 -187.48125,95.4599 M 116.66073,157.80165 c -0.58434,1.695 -0.9455,3.32999 -0.9455,4.85999 l 0,1.34999 c 0,6.21 4.57454,11.41499 10.66393,12.24 l 1.34987,0.17999 c 19.39306,2.685 19.63303,8.85 19.63303,14.81999 -0.06,0.4044 -0.11998,1.59 -0.17998,2.75999 -5.27947,20.03999 -10.90391,30.98998 -16.16838,39.71997 l -0.23998,0.4044 c -1.16988,1.935 -1.75482,4.10999 -1.75482,6.38999 l 0,0.42 c 0,4.67999 2.11479,8.78999 5.15948,12.17999 -5.21948,1.17 -9.55404,4.155 -12.0138,8.72999 -0.23997,0.4044 -0.46435,0.8844 -0.58434,1.29 l -0.17998,0.4056 c -0.11999,0.3 -0.22558,0.5844 -0.34557,0.88439 -11.12888,34.85998 -23.907605,70.25994 -40.195976,111.20989 -0.05999,0.12 -0.119988,0.24001 -0.179982,0.36001 -8.309169,-23.84998 -12.883712,-49.39495 -12.883712,-76.00492 0,-53.54996 18.283172,-102.88491 48.86511,-142.19986 m 415.50345,142.19986 c 0,24.19497 -3.74962,47.51995 -10.60394,69.49492 -16.9333,-64.45494 -47.57524,-131.89486 -71.42285,-174.77983 -1.87482,-8.32498 -2.45976,-17.35497 -2.98471,-26.08497 0,-0.12 -0.52554,-8.26499 -0.58554,-9.43498 0.06,-0.99 0.17999,-4.155 0.17999,-4.155 0,-0.18 0,-0.4044 0,-0.6456 l 0,0 c 0,-8.72999 -2.69973,-15.23999 -8.0842,-19.39498 -6.04439,-4.635 -14.0086,-5.16 -23.68263,-1.575 -4.09459,1.455 -9.13408,0.75 -15.52345,-0.18 0.11999,0 0.23998,0 0.35997,0.06 -14.0086,-2.51999 -23.66763,-3.22499 -33.92661,-3.92999 -19.33307,-1.695 -19.33307,-1.695 -19.85801,-1.695 -10.019,0 -17.23328,8.36999 -19.75303,16.16998 -0.16438,0.5844 -0.34556,1.16999 -0.40556,1.815 l -0.52434,3.16499 c -0.06,0.5844 -0.11999,1.29 -0.11999,1.935 l 0,0.18 c 0.06,6.26999 2.9847,11.77499 7.9642,15.16498 l 8.20418,5.46 c 0,0 9.79402,6.67499 13.76862,9.31499 4.0496,5.265 4.91951,8.95499 5.0395,11.99999 -0.92991,1.52999 -1.93481,3.06 -1.93481,3.06 -5.80442,9.01499 -11.24887,17.45998 -17.57824,23.89497 -0.16438,0.12 -0.34436,0.3 -0.40436,0.42 l -2.05479,2.22 c -2.15979,2.28 -5.68443,6.03 -6.67434,12.47999 -0.11998,0.6456 -0.17998,1.35 -0.17998,1.99499 0,1.23001 0.29997,2.4 0.46556,3.63 -1.45486,-0.6444 -2.86472,-1.17 -4.33457,-1.47 -7.25928,-1.755 -14.23358,0.54 -18.62814,6.045 -0.86991,1.11 -1.69483,2.45999 -2.15978,3.75 l -0.17998,0.46439 c -0.64554,1.875 -1.22988,3.225 -1.87482,4.635 -2.69973,-4.69499 -14.47355,-25.07998 -14.47355,-25.07998 -37.0313,-65.50493 -54.0096,-92.1749 -72.65273,-91.5299 -0.34557,0 -0.70553,0.06 -1.0499,0.06 -25.9474,3.04499 -44.9955,1.64999 -73.29767,-1.05001 -0.22558,-0.06 -0.46435,-0.06 -0.70433,-0.06 l -0.40436,-0.06 c -0.64553,0 -1.16988,0.06 -1.75482,0.11999 -2.45976,0.28561 -4.91951,1.23 -7.31927,2.52 42.23578,-43.76995 101.46485,-71.12993 166.9633,-71.12993 128.0272,0 232.19178,104.1749 232.19178,232.19977 m 35.26148,116.06988 -0.16439,-0.16439 c -4.9195,-5.1 -10.13898,-9.31499 -15.17848,-13.065 13.0037,-31.76996 20.15799,-66.44992 20.15799,-102.83988 0,-150.40485 -121.86282,-272.27974 -272.26778,-272.27974 -150.32996,0 -272.252772,121.87489 -272.252772,272.27974 0,40.48495 8.909109,78.92991 24.777522,113.44487 -4.334566,3.75001 -9.19408,7.02 -14.878512,9.66 0.05999,0 -0.524348,0.23999 -0.524348,0.23999 -1.934806,0.87001 -3.449655,2.16001 -4.739526,3.87001 l -0.359964,0.52559 c -2.804719,3.87 -4.274572,8.49 -4.274572,13.34999 0,5.04 1.589841,9.91499 4.514548,13.66499 5.219478,6.89999 13.828617,9.41999 21.792821,6.49499 1.169883,-0.4656 2.639736,-1.23 3.629637,-1.995 l 0,0 c 4.694531,-3.62999 9.794021,-6.67499 15.178482,-9.19499 48.745124,73.64993 132.286774,122.21988 227.137284,122.21988 97.73023,0 183.38666,-51.55495 231.42686,-128.83488 3.52465,1.11 7.0343,2.4 10.48395,3.97501 0.53995,0.18 1.06549,0.41999 1.58984,0.5844 9.59904,2.81999 19.27308,0.17999 24.71753,-6.735 2.69973,-3.44999 4.0496,-7.49999 4.0496,-11.83499 0,-3.69 -1.0055,-7.43999 -2.98471,-10.84499 -0.47995,-0.86999 -1.18428,-1.815 -1.82981,-2.52"
     inkscape:connector-curvature="0"
     id="path234"
     style="fill:#626e77;fill-opacity:1;fill-rule:nonzero;stroke:none" />
  <path
     d="m 35.217078,299.9991 c 0,38.38496 8.144186,75.46492 24.132587,110.33989 l 0,0 2.354765,5.085 -4.274573,3.69 c -5.279472,4.57499 -10.783922,8.09999 -17.233277,11.02498 l 0,0 c -0.764923,0.405 -1.289871,0.825 -2.114788,1.935 l 0,0 c -1.859814,2.64 -2.864714,5.745 -2.864714,9.01499 l 0,0 c 0,3.345 1.049895,6.68999 2.924708,9.14999 l 0,0 c 2.354764,3.045 5.579442,4.68 9.209079,4.68 l 0,0 c 1.349865,0 2.744725,-0.225 4.034596,-0.705 l 0,0 c 0.644936,-0.225 1.349865,-0.645 1.694831,-0.87 l 0,0 c 4.994501,-3.87 10.618938,-7.275 16.528347,-10.07999 l 0,0 5.924408,-2.76 3.569643,5.4 c 49.21008,74.45992 131.82182,118.87488 220.86791,118.87488 l 0,0 c 92.16579,0 176.29237,-46.87496 225.09749,-125.32488 l 0,0 3.0447,-4.92 5.56444,1.69501 c 3.80962,1.22999 7.55925,2.7 11.95381,4.57499 l 0,0 c 1.81482,0.525 3.64463,0.81 5.45945,0.81 l 0,0 c 4.61954,0 8.72913,-1.815 11.18888,-4.91999 l 0,0 c 1.63484,-2.16001 2.45976,-4.62 2.45976,-7.32 l 0,0 c 0,-2.27999 -0.64494,-4.74 -1.9948,-7.09499 l 0,0 -0.94491,-1.17 c -4.79952,-5.09999 -10.12399,-9.25499 -14.17358,-12.29998 l 0,0 -4.67953,-3.45001 2.21977,-5.39999 c 12.94371,-31.81497 19.57305,-65.44493 19.57305,-99.9599 l 0,0 C 564.73913,153.98925 445.981,35.21937 299.9706,35.21937 l 0,0 c -145.9954,0 -264.753522,118.76988 -264.753522,264.77973 M 299.9706,60.29934 c 132.18178,0 239.69103,107.5649 239.69103,239.69976 l 0,0 c 0,24.49498 -3.68963,48.62995 -10.9639,71.71493 l 0,0 -7.84422,24.85497 -6.56934,-25.13997 C 497.53085,307.43909 466.78392,240.05916 443.64124,198.3442 l 0,0 -0.53995,-0.88499 -0.22498,-1.05 c -2.05479,-8.84999 -2.69973,-17.98499 -3.04469,-26.24998 l 0,0 c -0.06,-0.24 -0.70493,-9.25498 -0.76493,-11.12999 l 0,0 0.17999,-4.63499 c 0,-6.38999 -1.70983,-10.785 -5.15949,-13.40998 l 0,0 c -2.11479,-1.65001 -4.57454,-2.415 -7.49925,-2.415 l 0,0 c -2.63973,0 -5.62444,0.64499 -9.0291,1.87499 l 0,0 c -2.39976,0.885 -5.09949,1.35001 -8.14418,1.35001 l 0,0 c -3.16468,0 -6.73433,-0.52501 -10.94891,-1.17001 l 0,0 c -13.70863,-2.4 -23.14268,-3.04499 -33.22167,-3.74999 l 0,0 c -16.16839,-1.41 -18.56815,-1.635 -19.27308,-1.635 l 0,0 c -6.62933,0 -11.12888,6.49499 -12.71873,11.65499 l 0,0 -0.52494,3.92999 c 0.06,3.81 1.75482,7.08 4.63453,9.01499 l 0,0 8.24918,5.52 13.76862,9.37499 1.0049,0.63 0.70493,1.005 c 4.39456,5.62499 6.43436,10.66498 6.61434,16.22998 l 0,0 0.11999,2.46 -1.40986,2.05499 -1.87481,2.925 c -5.68444,8.85 -11.53385,17.98498 -18.74813,25.31998 l 0,0 -2.09979,2.27999 c -1.82982,1.935 -4.10959,4.275 -4.81452,8.55 l 0,0 0.17998,2.05499 2.69973,14.81999 -12.89871,-5.625 c -1.04989,-0.405 -2.05479,-0.82499 -3.04469,-1.04999 l 0,0 c -1.0499,-0.24001 -2.0548,-0.36001 -3.0447,-0.36001 l 0,0 c -3.28467,0 -6.02939,1.29 -8.02419,3.81 l 0,0 c -0.52495,0.585 -0.82492,1.17001 -1.10989,2.055 l 0,0 c -0.82492,2.115 -1.40986,3.57 -2.0548,5.1 l 0,0 -5.9844,13.64998 -7.37926,-12.88499 -14.51855,-25.13997 C 252.81532,178.00423 232.9573,144.89926 217.37386,144.95926 l 0,0 c -10.19898,1.16999 -19.57304,1.75499 -29.41206,1.75499 l 0,0 c -14.65353,0 -29.29207,-1.29 -46.81032,-2.86499 l 0,0 c -0.88491,0.12 -2.35476,0.46499 -4.57454,1.695 l 0,0 -9.83901,5.27999 -2.93971,9.19499 c -0.52495,1.635 -0.58494,2.34 -0.58494,3.98999 l 0,0 c 0,2.4 1.81482,4.5 5.50445,5.04 l 0,0 c 21.68783,2.925 26.14238,10.95 26.08239,22.72498 l 0,0 -0.11999,2.63999 0,0.76501 -0.23997,0.765 c -5.56445,21.08997 -11.47386,32.45997 -17.21828,41.99995 l 0,0 c -0.46496,0.76501 -0.70493,1.65001 -0.70493,3 l 0,0 c 0,2.4 1.04989,4.74 3.28467,7.26 l 0,0 8.54914,9.61498 -12.59874,2.68501 c -2.21977,0.47999 -5.26447,1.70999 -7.55924,6.20999 l 0,0 c -11.12889,34.87496 -23.9526,70.37993 -40.360963,111.68989 l 0,0 -7.679232,19.09498 -6.614339,-19.03499 C 64.749125,353.14405 60.294571,326.71408 60.294571,299.9991 l 0,0 c 0,-49.27495 14.758524,-96.2099 42.775719,-136.46986 l 0,0 -8.849112,4.81499 24.252572,-25.13997 17.92321,-23.08498 -2.21978,7.035 C 179.11269,84.02932 237.57684,60.29934 299.9706,60.29934 m -150.67493,362.80464 0.0456,-1.575 c 0,-6.975 -3.85462,-12.65999 -10.36397,-14.24999 l 0,0 c -1.69543,-0.105 -3.69023,-0.405 -5.62504,-1.57499 l 0,0 -2.9847,-1.875 -0.52494,-3.51 c -0.58495,-4.28999 -1.0049,-8.56499 -1.0049,-12.65999 l 0,0 c 0,-27.59997 11.83381,-61.28993 36.14638,-103.00489 l 0,0 0.23998,-0.42001 1.04989,-5.96999 c 0,-0.12 0,-0.12 0,-0.24 l 0,0 -0.58494,-2.4 0,-0.06 c -0.46495,-1.17 -1.51485,-2.64001 -3.10469,-4.335 l 0,0 -9.43406,-10.13999 13.66364,-2.34 c 3.50965,-0.585 6.37436,-2.15999 8.72913,-4.97999 l 0,0 1.27487,-1.935 0.76492,-0.645 c 0.76493,-0.645 1.0049,-1.11 1.16988,-1.41 l 0,0 1.81482,-3.75 1.82982,-2.98499 2.15978,-4.03499 3.10469,-8.625 7.55925,3.81 c 43.58564,21.85497 82.9567,158.56484 88.58114,213.28478 l 0,0 c 0.17998,0.465 0.23998,1.005 0.23998,1.53 l 0,0 c 0,0.22501 0,0.465 0,0.705 l 0,0 0,0.225 c 0.28497,6.56999 3.74962,12.07499 8.9091,14.12999 l 0,0 c 1.22988,0.525 2.45976,0.75 3.80962,0.75 l 0,0 c 0.86992,0 1.75483,-0.1044 2.51975,-0.285 l 0,0 c 0.64494,-0.18 1.22988,-0.42 1.75483,-0.765 l 0,0 3.32966,-2.16 c 1.52985,-1.005 4.0496,-3.345 11.95381,-10.55999 l 0,0 32.75672,-30.04497 c 0.58494,-0.705 1.22988,-1.35 1.9948,-1.83 l 0,0 0.11999,-0.06 c 7.37926,-5.67001 8.83412,-12.645 9.83902,-17.21999 l 0,0 0.22497,-1.53 0.06,-0.1044 -0.46495,-2.4 c -5.27948,-13.30499 -11.12889,-27.65997 -19.0481,-42.49495 l 0,0 c -4.15458,-8.24999 -6.25437,-16.51499 -6.25437,-24.41998 l 0,0 c 0,-9.20999 2.68473,-17.87998 5.56444,-27.25497 l 0,0 c 2.74472,-9.13499 5.90941,-19.45499 6.85431,-31.45497 l 0,0 -0.06,-1.71 -3.16468,-14.57999 13.06369,4.15501 c 0.46495,0.17999 3.16468,0.92999 6.14938,0.92999 l 0,0 c 1.16989,0 2.23478,-0.1044 3.16469,-0.405 l 0,0 2.17478,-0.99 c 1.0499,-0.48 1.75483,-0.82499 2.33977,-1.22999 l 0,0 4.33456,-3.225 4.45456,3.105 c 2.09979,1.46999 3.9746,3.56999 5.56444,6.26999 l 0,0 c 18.74813,30.22497 34.27157,65.03993 46.34537,104.23489 l 0,0 c 2.03979,9.95999 2.9847,16.87498 2.9847,22.37998 l 0,0 c 0,6.45 -1.22988,10.90499 -4.57454,14.59498 l 0,0 -3.28468,2.86501 c -6.20937,5.56499 -12.64373,11.30998 -18.79312,14.83498 l 0,0 c -1.18488,0.68999 -1.9948,1.87499 -2.51974,3.75 l 0,0 c -0.64494,2.33999 -0.94491,4.55999 -0.94491,6.61499 l 0,0 c 0,3.99 1.40986,6.55499 2.57974,7.96499 l 0,0 c 2.27977,2.82 5.90941,4.215 10.60394,4.215 l 0,0 2.33977,-0.1044 c 1.06489,-0.06 1.9348,-0.42 3.10469,-1.35001 l 0,0 c 6.14938,-4.91999 14.47355,-8.84998 26.18738,-12.29998 l 0,0 c 11.60884,-2.055 22.79772,-3.06 35.39646,-3.06 l 0,0 2.09979,0 14.65353,0.18 -8.66913,11.77499 C 448.44076,502.8601 376.028,539.71506 299.9706,539.71506 l 0,0 c -74.81252,0 -144.0006,-34.16996 -189.88101,-93.74991 l 0,0 -9.31407,-12.07498 15.23848,0 c 7.31927,0 14.29357,0.405 22.78272,1.29 l 0,0 c 5.80442,-0.52501 9.91401,-5.28 10.49895,-12.07499"
     inkscape:connector-curvature="0"
     id="path246"
     style="fill:url(#radialGradient2998);fill-opacity:1;fill-rule:nonzero;stroke:none" />
</svg>
