<?xml version="1.0" encoding="UTF-8" standalone="no"?>
<!-- Created with Inkscape (http://www.inkscape.org/) -->

<svg
   xmlns:dc="http://purl.org/dc/elements/1.1/"
   xmlns:cc="http://creativecommons.org/ns#"
   xmlns:rdf="http://www.w3.org/1999/02/22-rdf-syntax-ns#"
   xmlns:svg="http://www.w3.org/2000/svg"
   xmlns="http://www.w3.org/2000/svg"
   xmlns:xlink="http://www.w3.org/1999/xlink"
   xmlns:inkscape="http://www.inkscape.org/namespaces/inkscape"
   version="1.1"
   width="600"
   height="559.57355"
   id="svg4013">
  <defs
     id="defs4015">
    <radialGradient
       cx="0"
       cy="0"
       r="1"
       fx="0"
       fy="0"
       id="radialGradient186"
       gradientUnits="userSpaceOnUse"
       gradientTransform="matrix(33.328537,0,0,-33.328537,396.24902,271.51074)"
       spreadMethod="pad">
      <stop
         id="stop188"
         style="stop-color:#d7bd74;stop-opacity:1"
         offset="0" />
      <stop
         id="stop190"
         style="stop-color:#b39a54;stop-opacity:1"
         offset="0.69101" />
      <stop
         id="stop192"
         style="stop-color:#8d742f;stop-opacity:1"
         offset="1" />
    </radialGradient>
    <radialGradient
       cx="0"
       cy="0"
       r="1"
       fx="0"
       fy="0"
       id="radialGradient4011"
       xlink:href="#radialGradient186"
       gradientUnits="userSpaceOnUse"
       gradientTransform="matrix(33.328537,0,0,-33.328537,396.24902,271.51074)"
       spreadMethod="pad" />
    <radialGradient
       cx="0"
       cy="0"
       r="1"
       fx="0"
       fy="0"
       id="radialGradient2990"
       xlink:href="#radialGradient186"
       gradientUnits="userSpaceOnUse"
       gradientTransform="matrix(41.660671,0,0,41.660671,239.99854,449.50349)"
       spreadMethod="pad" />
  </defs>
  <metadata
     id="metadata4018">
    <rdf:RDF>
      <cc:Work
         rdf:about="">
        <dc:format>image/svg+xml</dc:format>
        <dc:type
           rdf:resource="http://purl.org/dc/dcmitype/StillImage" />
        <dc:title />
      </cc:Work>
    </rdf:RDF>
  </metadata>
  <g
     transform="matrix(6.9627321,0,0,6.9627321,-1371.055,-2849.9988)"
     id="layer1"
     style="stroke:#000000;stroke-width:0.28724357;stroke-miterlimit:4;stroke-dasharray:none">
    <path
       d="m 206.42602,425.01441 8.90125,0 c 5.9325,-8.705 14.95125,-14.2675 25.05875,-14.2675 l 0,0 c 10.1075,0 19.13,5.5625 25.0575,14.2675 l 0,0 8.90625,0 c -7.83125,-9.54 -20.13125,-15.6925 -33.96375,-15.6925 l 0,0 c -13.83375,0 -26.12875,6.1525 -33.96,15.6925 m 64.17875,3.555 c -1.20125,1.025 -1.7475,2.73 -1.7525,4.45375 l 0,0 c 0.005,2.10875 0.82,4.28125 2.44125,5.32125 l 0,0 c 1.255,0.57625 2.46125,1.04125 3.60375,1.1925 l 0,0 c 0.36625,0.0488 0.7225,0.0725 1.07875,0.0725 l 0,0 c 2.16875,0 4.2725,-0.88875 6.91875,-2.505 l 0,0 0.0537,-0.0287 0.025,-0.0538 c 0.0687,-0.1275 0.1075,-0.205 0.1125,-0.3325 l 0,0 c 0.005,-0.0588 -0.03,-0.16625 -0.1025,-0.215 l 0,0 c -0.0788,-0.0487 -0.1425,-0.0537 -0.18125,-0.0537 l 0,0 c -0.1125,0.005 -0.195,0.035 -0.2,0.025 l 0,0 -0.0337,0 -0.035,0.015 c -0.13625,0.0437 -0.2825,0.11625 -0.37125,0.14625 l 0,0 c -1.415,0.37125 -3.03625,0.7275 -4.52125,0.7275 l 0,0 c -2.275,-0.015 -4.155,-0.78125 -4.73125,-3.6475 l 0,0 c -0.0637,-0.38125 -0.1075,-0.76125 -0.1075,-1.1225 l 0,0 c 0,-0.40125 0.0537,-0.7725 0.17625,-1.09 l 0,0 c 0.9225,-1.88 1.5675,-2.29 3.305,-2.31375 l 0,0 c 0.42,0 0.91375,0.0288 1.48,0.0775 l 0,0 c 0.55125,0.26875 0.7325,0.7575 0.7425,1.495 l 0,0 c 0,0.2725 -0.035,0.57625 -0.0837,0.8975 l 0,0 -0.01,0.0638 0.03,0.0587 c 0.1175,0.215 0.3275,0.26375 0.5125,0.26875 l 0,0 c 0.23875,-0.005 0.5325,-0.0975 0.655,-0.4 l 0,0 0.0137,-0.035 0,-0.0337 c 0.01,-1.27 0.41,-2.11 1.3425,-2.67625 l 0,0 0.1075,-0.0625 0,-0.1175 c -0.009,-0.90375 -0.63,-1.42125 -1.08375,-1.5525 l 0,0 -0.15125,-0.0537 -0.0875,0.14125 c -0.37625,0.58625 -0.69375,0.76625 -1.11875,0.77625 l 0,0 c -0.14625,0 -0.3125,-0.0288 -0.4925,-0.0787 l 0,0 c -1.1425,-0.4725 -2.37875,-0.87875 -3.6525,-0.87875 l 0,0 c -1.27,0 -2.58375,0.40625 -3.8825,1.51875 m -4.53125,-1.39125 c -0.83,0.2925 -1.655,0.415 -2.475,0.415 l 0,0 c -0.825,0 -1.64125,-0.1225 -2.44625,-0.3075 l 0,0 -0.0487,-0.01 -0.0437,0.01 c -0.3325,0.0587 -0.67875,0.3175 -0.665,0.75625 l 0,0 c 0,0.0588 0.005,0.1325 0.02,0.205 l 0,0 0.02,0.1025 0.0975,0.045 c 0.68375,0.33625 1.3175,0.7125 1.69375,1.47875 l 0,0 c 0.0587,1.28875 0.3475,3.115 0.3475,4.85375 l 0,0 c 0,2.055 -0.40625,3.91625 -1.93375,4.6725 l 0,0 -0.1275,0.0638 0.01,0.13625 c 0.02,0.5275 0.3025,0.91875 0.7425,0.9525 l 0,0 0.0925,0.01 0.0687,-0.0588 c 1.18125,-0.99625 2.43125,-1.5825 3.8275,-1.5825 l 0,0 c 0.45875,0 0.9325,0.0638 1.42625,0.20125 l 0,0 0.0637,0.0137 0.0625,-0.0237 c 0.25875,-0.0688 0.425,-0.3175 0.40625,-0.5375 l 0,0 c 0,-0.15125 -0.04,-0.2975 -0.0838,-0.43875 l 0,0 -0.0288,-0.0887 -0.0787,-0.0388 c -0.9275,-0.45875 -1.06375,-1.045 -1.18125,-1.83125 l 0,0 c -0.16125,-0.7325 -0.21,-1.47 -0.21,-2.22125 l 0,0 c -0.005,-1.3575 0.17625,-2.76375 0.24875,-4.12125 l 0,0 0,-0.02 0,-0.0138 c -0.01,-0.0487 -0.015,-0.0937 -0.015,-0.1375 l 0,0 c 0,-0.6 0.39625,-1.06875 1.00625,-1.5525 l 0,0 0.13625,-0.1075 -0.0775,-0.15625 c -0.0875,-0.185 -0.235,-0.59125 -0.7425,-0.67875 l 0,0 -0.0587,-0.005 -0.0538,0.015 z m -48.45125,0.98125 c -0.005,0.15625 0.0625,0.3425 0.22375,0.44875 l 0,0 c 0.5525,0.37125 1.13375,0.7425 1.64125,1.10375 l 0,0 c 0.33625,0.415 0.57125,0.855 0.57625,1.445 l 0,0 c 0,0.0588 -0.005,0.1125 -0.01,0.17125 l 0,0 c -0.5075,0.78125 -0.97625,1.5775 -1.5725,2.17375 l 0,0 c -0.16625,0.20875 -0.36625,0.3125 -0.43,0.64375 l 0,0 -0.004,0.02 0,0.0138 c 0.0138,0.43 0.32625,0.7425 0.595,0.9875 l 0,0 c 0.19,0.16 0.4,0.415 0.80625,0.42875 l 0,0 c 0.0487,0.01 0.0975,0.02 0.15125,0.02 l 0,0 c 0.24375,-0.005 0.43875,-0.14625 0.62,-0.36125 l 0,0 c 0.45875,0.005 0.78625,0.23375 1.08375,0.7275 l 0,0 c 1.255,2.01625 2.35875,4.39875 3.2425,7.275 l 0,0 c 0.11625,0.58625 0.215,1.1525 0.215,1.63125 l 0,0 c 0,0.5025 -0.1075,0.89875 -0.3575,1.16625 l 0,0 c -0.54125,0.47875 -1.09375,0.99625 -1.57625,1.28 l 0,0 -0.0787,0.0437 -0.0238,0.0825 c -0.04,0.1475 -0.0588,0.27875 -0.0588,0.40625 l 0,0 c -0.005,0.175 0.0487,0.35125 0.185,0.46875 l 0,0 c 0.1375,0.1125 0.3075,0.14625 0.49375,0.14625 l 0,0 c 0.0387,0 0.0775,0 0.1125,0 l 0,0 0.0725,-0.005 0.0537,-0.0437 c 0.48375,-0.38625 1.12875,-0.67875 1.89,-0.90375 l 0,0 c 0.9075,-0.16125 1.7425,-0.22 2.55875,-0.22 l 0,0 c 0.43375,0 0.86375,0.015 1.29875,0.045 l 0,0 c 0.97625,0.14625 1.9525,0.33125 2.925,0.77125 l 0,0 c 0.13125,0.0337 0.23375,0.0538 0.33625,0.0538 l 0,0 c 0.36125,0 0.71375,-0.235 0.71375,-0.62 l 0,0 c 0,-0.1225 -0.04,-0.255 -0.1075,-0.37625 l 0,0 -0.015,-0.02 -0.02,-0.0188 c -1.25,-1.29 -2.7875,-1.72875 -3.28625,-3.2625 l 0,0 c -1.1475,-4.54625 -3.33,-9.35 -5.04375,-12.4075 l 0,0 c -0.205,-0.85375 -0.21,-1.7675 -0.2775,-2.7 l 0,0 c 0.004,-0.12125 0.0138,-0.22875 0.0138,-0.33125 l 0,0 c -0.005,-0.24 -0.0238,-0.44 -0.13125,-0.61625 l 0,0 c -0.0975,-0.175 -0.3125,-0.2775 -0.5225,-0.2725 l 0,0 c -0.16125,0 -0.3375,0.0387 -0.5425,0.11625 l 0,0 c -0.21,0.0788 -0.425,0.1025 -0.64875,0.1025 l 0,0 c -0.25375,0 -0.5225,-0.0387 -0.80125,-0.0775 l 0,0 c -1.48875,-0.26375 -2.285,-0.225 -3.60375,-0.37625 l 0,0 c -0.44875,0.0487 -0.66875,0.45 -0.6975,0.84 m 13.705,-0.7225 c -0.24375,0.185 -0.4975,0.42 -0.5025,0.78625 l 0,0 c 0,0.0925 0.02,0.195 0.0637,0.2925 l 0,0 0.0238,0.0537 0.045,0.035 c 1.455,1.08375 3.36875,1.65 5.33125,2.1725 l 0,0 c 0.60125,0.185 1.28875,2.32875 1.85125,4.60375 l 0,0 c 0.1075,1.1475 0.14625,2.15375 0.14625,3.08125 l 0,0 0,0.025 0.005,0.0237 c 0.1025,0.5425 0.44875,0.77125 0.7275,0.80125 l 0,0 0.0488,0.01 0.0537,-0.02 c 0.5275,-0.17125 1.055,-0.3125 1.7525,-0.3125 l 0,0 c 0.65,0 1.45,0.1225 2.525,0.46375 l 0,0 0.0188,0.005 0.025,0.005 c 0.0537,0.005 0.1075,0.01 0.15625,0.01 l 0,0 c 0.13125,0 0.26875,-0.025 0.395,-0.1225 l 0,0 c 0.1275,-0.1025 0.18125,-0.26375 0.18125,-0.43 l 0,0 c 0,-0.0575 -0.01,-0.12125 -0.02,-0.19 l 0,0 -0.01,-0.0437 -0.0238,-0.0387 c -3.38875,-5.17125 -3.06625,-6.9825 -3.565,-9.615 l 0,0 0,-0.0238 -0.009,-0.02 c -0.3325,-0.88875 -0.89875,-1.025 -1.29,-0.99125 l 0,0 -0.0925,0 c -0.9325,0.0688 -1.84625,0.1175 -2.76375,0.1175 l 0,0 c -1.62625,0 -3.2475,-0.16625 -4.8775,-0.7125 l 0,0 -0.1075,-0.035 -0.0888,0.0688 z m 14.2925,2.305 c -0.5375,1.01 -0.815,2.13875 -0.815,3.4075 l 0,0 c 0,0.66 0.0725,1.3525 0.22875,2.085 l 0,0 c 0.57125,1.675 1.60625,2.96375 3.165,3.745 l 0,0 c 0.5225,0.46375 1.17125,0.665 1.855,0.665 l 0,0 c 0.3075,0 0.62,-0.045 0.9425,-0.1075 l 0,0 0.0238,-0.005 0.02,-0.015 c 0.7425,-0.35625 1.83625,-0.58125 2.78375,-0.65375 l 0,0 c 0.0975,-0.01 0.185,-0.015 0.2675,-0.015 l 0,0 c 0.91875,0.005 1.42625,0.47375 2.14375,1.3275 l 0,0 0.02,0.025 0.0288,0.0187 c 0.16125,0.10375 0.3275,0.1525 0.48875,0.1525 l 0,0 c 0.2,-0.005 0.37125,-0.0738 0.5225,-0.1375 l 0,0 0.185,-0.0725 -0.0675,-0.19125 c -0.23,-0.64875 -0.3425,-1.215 -0.3425,-1.71375 l 0,0 c 0.01,-1.27875 0.67875,-2.13875 1.94875,-2.7975 l 0,0 0.0825,-0.0487 0.025,-0.0925 c 0.0238,-0.0937 0.0337,-0.18625 0.0337,-0.26375 l 0,0 c 0.005,-0.425 -0.3225,-0.68875 -0.66375,-0.77625 l 0,0 -0.0387,-0.015 -0.045,0.01 c -0.95625,0.1125 -1.91375,0.185 -2.875,0.185 l 0,0 c -0.5575,0 -1.11375,-0.0238 -1.675,-0.0775 l 0,0 -0.0387,-0.005 -0.045,0.0138 c -0.37,0.1025 -0.52625,0.45 -0.56125,0.7775 l 0,0 -0.0188,0.195 0.19,0.0437 c 0.5075,0.1075 1.03,0.185 1.38625,0.36625 l 0,0 c 0.1375,0.19 0.22,0.42 0.22,0.65875 l 0,0 c 0,0.16625 -0.0387,0.3325 -0.1225,0.5125 l 0,0 c -0.2625,0.5175 -0.825,0.59125 -1.44,0.70875 l 0,0 c -0.26375,0.0238 -0.5375,0.0387 -0.805,0.0387 l 0,0 c -1.23125,0 -2.35375,-0.2975 -3.08125,-1.06375 l 0,0 c -0.665,-0.675 -1.065,-1.86625 -1.06,-3.10125 l 0,0 c 0,-0.1075 0,-0.205 0.01,-0.3075 l 0,0 c -0.01,-1.48875 0.99125,-3.2325 2.22625,-3.94 l 0,0 c 0.25375,-0.04 0.57125,-0.0588 0.9175,-0.0588 l 0,0 c 0.63,0 1.3575,0.0725 1.9875,0.2775 l 0,0 c 1.10875,0.3325 1.71875,0.3525 1.73375,1.53375 l 0,0 c 0,0.195 -0.02,0.435 -0.0637,0.7125 l 0,0 -0.0137,0.1025 0.0725,0.0788 c 0.1275,0.12625 0.3075,0.25375 0.5425,0.25875 l 0,0 c 0.16625,0 0.34125,-0.0788 0.4925,-0.21 l 0,0 0.0487,-0.0487 0.015,-0.0688 c 0.225,-1.08875 0.47375,-2.085 1.28875,-2.97875 l 0,0 0.0738,-0.0825 -0.025,-0.1125 c -0.11125,-0.44375 -0.22875,-0.9525 -0.75125,-1.19125 l 0,0 -0.1125,-0.0537 -0.1025,0.0737 c -0.47875,0.35125 -1.19625,0.83 -1.9675,0.825 l 0,0 c -0.0437,0 -0.0975,0 -0.14625,0 l 0,0 c -0.9675,-0.17625 -1.8225,-0.69875 -2.91125,-0.89875 l 0,0 c -0.32625,-0.015 -0.625,-0.025 -0.9175,-0.025 l 0,0 -0.0738,0 0,0 c -2.01625,0 -3.86125,0.36625 -5.19,2.33 m -41.5375,-1.82125 c -0.28375,0.0387 -0.49375,0.23875 -0.68875,0.43875 l 0,0 c -0.18625,0.23 -0.3325,0.39125 -0.35625,0.635 l 0,0 0,0.185 0.185,0.03 c 1.26,0.195 2.0025,0.55625 2.01625,1.79625 l 0,0 c 0,0.0937 -0.004,0.18625 -0.0137,0.28875 l 0,0 c -0.40125,1.5475 -0.83,2.3725 -1.23125,3.04125 l 0,0 -0.0288,0.05 0,0.0575 c 0.0388,0.3275 0.2875,0.48375 0.59125,0.68875 l 0,0 c 0.3075,0.18625 0.6875,0.3425 1.05375,0.3425 l 0,0 c 0.28875,0.005 0.60125,-0.1225 0.7525,-0.43 l 0,0 c 0.19,-0.24 0.34125,-0.5075 0.4875,-0.80625 l 0,0 c 0.1225,-0.2875 0.19125,-0.4975 0.25,-0.615 l 0,0 c 0.0775,-0.1125 0.0625,-0.0925 0.14125,-0.1025 l 0,0 c 0.0825,-0.005 0.2925,0.0537 0.625,0.21 l 0,0 c 3.30125,1.49875 6.1425,12.36375 6.3675,15.195 l 0,0 c 0,0.44 0.25375,0.85 0.66875,0.87 l 0,0 0.005,0 c 0.14125,0 0.2825,-0.0637 0.39,-0.17125 l 0,0 c 1.07,-0.97625 2.11,-1.94875 3.17875,-2.93 l 0,0 c 0.49375,-0.3225 0.59125,-0.79625 0.66,-1.1225 l 0,0 0.0137,-0.0688 -0.0237,-0.0537 c -0.37125,-0.9475 -0.78125,-1.92875 -1.30875,-2.915 l 0,0 c -0.3425,-0.69875 -0.46875,-1.28375 -0.46875,-1.83125 l 0,0 c -0.01,-1.28375 0.7225,-2.4075 0.86875,-4.10625 l 0,0 0,-0.0288 -0.005,-0.03 c -0.185,-0.67375 -0.87875,-1.455 -1.51375,-1.50875 l 0,0 c -0.13625,0 -0.2875,0.0588 -0.385,0.18125 l 0,0 -0.02,0.0288 -0.015,0.0337 c -0.36125,1.045 -0.73625,1.32375 -0.84875,1.295 l 0,0 c -0.0687,0.005 -0.17625,-0.0537 -0.29375,-0.22 l 0,0 c -0.82,-1.3475 -1.92875,-3.41375 -2.96875,-5.14625 l 0,0 c -0.5225,-0.865 -1.03,-1.64625 -1.47875,-2.2225 l 0,0 c -0.46375,-0.56625 -0.825,-0.95625 -1.275,-0.98125 l 0,0 -0.005,-0.01 c -0.005,0 -0.0188,0 -0.0438,0.01 l 0,0 c -0.74625,0.0875 -1.41125,0.1225 -2.06,0.1225 l 0,0 c -1.01125,0 -1.9875,-0.0888 -3.17875,-0.2 l 0,0 -0.025,0 -0.0188,0 z m 28.35875,3.98875 c -0.34125,0.0688 -0.63,0.425 -0.7475,1.065 l 0,0 c -0.39,1.83 -2.20625,3.15375 -2.23625,5.0675 l 0,0 c 0,0.0588 0.005,0.1125 0.005,0.17125 l 0,0 c 0.04,0.69875 0.42,1.27 1.01125,1.32875 l 0,0 c 0.16125,0.009 0.3075,0.009 0.45875,0.009 l 0,0 c 0.405,0 0.80625,-0.0188 1.28875,-0.0188 l 0,0 c 0.17125,0 0.36125,0 0.5625,0.01 l 0,0 c 0.615,0.009 1.01,-0.19625 1.25,-0.5275 l 0,0 c 0.24375,-0.3275 0.375,-0.7275 0.64375,-1.19625 l 0,0 c 0.25375,-0.46375 0.415,-0.60125 0.9675,-0.9375 l 0,0 0.0775,-0.0487 0.02,-0.0937 c 0.0488,-0.22875 0.0975,-0.55625 0.0975,-0.88875 l 0,0 c -0.005,-0.45875 -0.0787,-0.96625 -0.48875,-1.25 l 0,0 c -0.13625,-0.0775 -0.27375,-0.1075 -0.395,-0.1075 l 0,0 c -0.1275,0 -0.24,0.02 -0.34625,0.04 l 0,0 c -0.47375,0.15125 -0.845,0.5025 -1.21125,0.8 l 0,0 c -0.3475,0.27875 -0.69875,0.5575 -0.91875,0.80125 l 0,0 c -0.0138,0.01 -0.0337,0.01 -0.0437,0.01 l 0,0 c -0.01,-0.415 0.9575,-1.9775 1.255,-2.67125 l 0,0 -0.195,-0.0825 0.2,0.0675 c 0.0925,-0.26375 0.13125,-0.4925 0.13625,-0.6925 l 0,0 c 0,-0.3225 -0.13625,-0.58625 -0.33625,-0.7275 l 0,0 c -0.205,-0.1475 -0.44,-0.18125 -0.645,-0.18125 l 0,0 c -0.15625,0 -0.2925,0.025 -0.41,0.0537 m -29.0425,4.35125 -0.01,0.0138 -0.005,0.02 c -0.88375,2.76875 -1.84625,5.34625 -2.84125,7.85625 l 0,0 c -0.86,1.3625 -1.65125,2.87625 -3.38375,3.6575 l 0,0 -0.0488,0.0238 -0.035,0.0487 c -0.1125,0.15125 -0.16125,0.3275 -0.16125,0.49875 l 0,0 c 0,0.34625 0.215,0.7125 0.615,0.7225 l 0,0 c 0.0638,0 0.1275,-0.01 0.19125,-0.0288 l 0,0 0.0387,-0.015 0.025,-0.02 c 1.1025,-0.85375 2.5575,-1.40625 4.555,-1.40625 l 0,0 c 0.46375,0 0.9575,0.03 1.48,0.0975 l 0,0 0.0187,0 0.025,0 c 0.39,-0.0487 0.5325,-0.425 0.5275,-0.7125 l 0,0 c 0,-0.2975 -0.1275,-0.65375 -0.49375,-0.75625 l 0,0 -0.0187,-0.01 -0.01,0 c -0.36625,-0.0437 -0.625,-0.1375 -0.82,-0.5275 l 0,0 c -0.0538,-0.3425 -0.0838,-0.69875 -0.0838,-1.06 l 0,0 c 0,-2.08 0.9175,-4.50125 2.53875,-7.275 l 0,0 c 0.0588,-0.0738 0.0887,-0.16625 0.0887,-0.25375 l 0,0 c -0.035,-0.36125 -0.3325,-0.56125 -0.655,-0.77125 l 0,0 c -0.33125,-0.19625 -0.7225,-0.3475 -1.055,-0.3525 l 0,0 c -0.17,0 -0.38,0.0488 -0.4825,0.25 m 36.035,6.83 -0.02,0.16125 -2.51,0 -0.0237,-0.16125 -0.44875,0 -0.0937,1.3825 0.435,0 c 0.0288,-0.21 0.0975,-0.36125 0.2,-0.45875 l 0,0 c 0.1025,-0.0975 0.24875,-0.15125 0.43,-0.15125 l 0,0 0.0825,0 0,3.4175 -0.385,0 0,0.5075 2.10875,0 0,-0.5075 -0.38125,0 0,-3.4175 0.0788,0 c 0.185,0 0.3325,0.0537 0.435,0.15125 l 0,0 c 0.1075,0.1025 0.17,0.25375 0.205,0.45875 l 0,0 0.425,0 -0.0937,-1.3825 -0.44375,0 z m 11.7725,0.29375 c -0.3075,0.14625 -0.57125,0.34625 -0.79625,0.605 l 0,0 c -0.205,0.23 -0.35625,0.49875 -0.45875,0.79625 l 0,0 c -0.1125,0.2925 -0.16625,0.62 -0.16625,0.95625 l 0,0 c 0,0.645 0.18125,1.1675 0.5375,1.55875 l 0,0 c 0.35125,0.385 0.82,0.585 1.40625,0.585 l 0,0 c 0.27375,0 0.5325,-0.0487 0.78625,-0.14625 l 0,0 c 0.24375,-0.0925 0.47375,-0.23875 0.6875,-0.43 l 0,0 0.29375,0.47875 0.36125,0 0,-2.09875 c 0,-0.0788 0.01,-0.1525 0.0387,-0.22 l 0,0 c 0.03,-0.0637 0.0687,-0.1325 0.1275,-0.19625 l 0,0 -0.17625,-0.3075 c -0.0725,0.035 -0.15125,0.0487 -0.22875,0.0687 l 0,0 c -0.0837,0.015 -0.16125,0.015 -0.245,0.015 l 0,0 -1.48375,0 0,0.4925 0.75125,0 0,1.455 c -0.0337,0.015 -0.0775,0.02 -0.12125,0.03 l 0,0 c -0.04,0 -0.0888,0.005 -0.1475,0.005 l 0,0 c -0.36625,0 -0.67375,-0.19125 -0.9225,-0.57125 l 0,0 c -0.24875,-0.38625 -0.37125,-0.86 -0.37125,-1.42125 l 0,0 c 0,-0.38625 0.0737,-0.69875 0.22,-0.9275 l 0,0 c 0.14625,-0.235 0.34125,-0.35125 0.57625,-0.35125 l 0,0 c 0.1225,0 0.22,0.0388 0.2975,0.11125 l 0,0 c 0.0788,0.0788 0.1175,0.17125 0.1175,0.27875 l 0,0 c 0,0.0337 -0.005,0.0787 -0.02,0.1225 l 0,0 c -0.0187,0.0387 -0.0437,0.0775 -0.0725,0.1075 l 0,0 0.25875,0.36125 1.3575,-0.92375 -0.26375,-0.41 -0.25375,0.16125 c -0.16625,-0.13125 -0.3475,-0.22875 -0.5425,-0.2975 l 0,0 c -0.19,-0.0687 -0.39,-0.1025 -0.6,-0.1025 l 0,0 c -0.3275,0 -0.645,0.0687 -0.9475,0.215 m 9.62375,0.34625 0,0.415 0.23,-0.0725 0,3.305 -0.23,0 0,0.41 1.60625,0 0,-0.41 -0.22375,0 0,-1.89875 c 0.0925,-0.0837 0.185,-0.1525 0.2775,-0.19625 l 0,0 c 0.0975,-0.0487 0.195,-0.0675 0.28875,-0.0675 l 0,0 c 0.11125,0 0.2,0.0337 0.25875,0.1025 l 0,0 c 0.0588,0.0725 0.0875,0.18 0.0875,0.32125 l 0,0 0,1.73875 -0.225,0 0,0.41 1.61125,0 0,-0.41 -0.22875,0 0,-1.94375 c 0,-0.3175 -0.0838,-0.56125 -0.245,-0.73625 l 0,0 c -0.16,-0.18125 -0.38,-0.26875 -0.66375,-0.26875 l 0,0 c -0.17125,0 -0.34625,0.0487 -0.53625,0.14125 l 0,0 c -0.19625,0.0925 -0.40125,0.23375 -0.625,0.435 l 0,0 0,-1.31375 0.23875,-0.0788 0,-0.415 -1.62125,0.5325 z m -20.38625,0 0,0.415 0.225,-0.0725 0,3.305 -0.225,0 0,0.41 1.6025,0 0,-0.41 -0.22,0 0,-1.89875 c 0.0825,-0.0837 0.18,-0.1525 0.27875,-0.19625 l 0,0 c 0.0975,-0.0487 0.19,-0.0675 0.2825,-0.0675 l 0,0 c 0.1175,0 0.205,0.0337 0.25875,0.1025 l 0,0 c 0.0588,0.0725 0.0888,0.18 0.0888,0.32125 l 0,0 0,1.73875 -0.225,0 0,0.41 1.61125,0 0,-0.41 -0.235,0 0,-1.94375 c 0,-0.3175 -0.0775,-0.56125 -0.23875,-0.73625 l 0,0 c -0.15625,-0.18125 -0.38125,-0.26875 -0.66375,-0.26875 l 0,0 c -0.16625,0 -0.3425,0.0487 -0.5375,0.14125 l 0,0 c -0.19,0.0925 -0.4,0.23375 -0.62,0.435 l 0,0 0,-1.31375 0.23375,-0.0788 0,-0.415 -1.61625,0.5325 z m 31.5775,-0.16125 c -0.14625,0.1225 -0.22,0.25375 -0.22,0.405 l 0,0 c 0,0.1125 0.04,0.205 0.1225,0.27375 l 0,0 c 0.0788,0.0738 0.18625,0.1075 0.3225,0.1075 l 0,0 c 0.215,0 0.4,-0.0587 0.55625,-0.17125 l 0,0 c 0.15125,-0.1075 0.23,-0.23875 0.23,-0.395 l 0,0 c 0,-0.1175 -0.0437,-0.21 -0.1375,-0.28375 l 0,0 c -0.0925,-0.0725 -0.21875,-0.11125 -0.375,-0.11125 l 0,0 c -0.18625,0 -0.3525,0.0575 -0.49875,0.175 m -12.9975,0.7525 c -0.18625,0.16625 -0.425,0.2925 -0.71375,0.38 l 0,0 0,0.37625 0.30375,0 0,1.89 c 0,0.3225 0.0588,0.55625 0.2,0.7025 l 0,0 c 0.12625,0.1425 0.34125,0.215 0.635,0.215 l 0,0 c 0.18,0 0.35625,-0.0437 0.53125,-0.13125 l 0,0 c 0.18125,-0.0838 0.3475,-0.215 0.50375,-0.37625 l 0,0 -0.17125,-0.25375 c -0.0487,0.0337 -0.0975,0.0537 -0.14125,0.0687 l 0,0 c -0.0437,0.0138 -0.0838,0.0238 -0.1225,0.0238 l 0,0 c -0.1025,0 -0.17625,-0.0337 -0.215,-0.1025 l 0,0 c -0.0438,-0.0688 -0.0638,-0.185 -0.0638,-0.35625 l 0,0 0,-1.68 0.40125,0 c 0.0288,0 0.0537,-0.005 0.0638,-0.0188 l 0,0 c 0.0137,-0.015 0.0237,-0.0538 0.0337,-0.1175 l 0,0 0.0687,-0.38625 -0.5675,0 0,-0.795 -0.32625,-0.0737 c -0.0937,0.25375 -0.23,0.46375 -0.42,0.635 m 21.40625,-0.3025 c -0.0788,0.0775 -0.15625,0.24375 -0.23,0.4875 l 0,0 c -0.0925,-0.0288 -0.185,-0.0437 -0.2825,-0.0588 l 0,0 c -0.1075,-0.0137 -0.215,-0.0187 -0.3225,-0.0187 l 0,0 c -0.44,0 -0.81125,0.12125 -1.10375,0.37125 l 0,0 c -0.2925,0.24875 -0.44,0.55625 -0.44,0.9275 l 0,0 c 0,0.2975 0.0987,0.55625 0.29875,0.78125 l 0,0 c 0.2,0.215 0.47375,0.36625 0.815,0.43875 l 0,0 c -0.15125,0.0838 -0.3275,0.15125 -0.5275,0.22 l 0,0 c -0.2,0.0688 -0.415,0.1325 -0.65875,0.18625 l 0,0 0.385,0.405 c 0.0738,-0.02 0.1425,-0.03 0.205,-0.04 l 0,0 c 0.0588,-0.004 0.1175,-0.009 0.17625,-0.009 l 0,0 c 0.0537,0 0.1225,0.005 0.195,0.009 l 0,0 c 0.0738,0.01 0.16125,0.02 0.27375,0.04 l 0,0 c -0.195,0.0587 -0.34625,0.14125 -0.45375,0.24875 l 0,0 c -0.1025,0.1075 -0.15125,0.23 -0.15125,0.38125 l 0,0 c 0,0.2 0.0925,0.35625 0.2725,0.46375 l 0,0 c 0.18625,0.11625 0.445,0.16625 0.7725,0.16625 l 0,0 c 0.385,0 0.7075,-0.0838 0.96625,-0.25875 l 0,0 c 0.25875,-0.17625 0.39125,-0.39125 0.39125,-0.645 l 0,0 c 0,-0.24875 -0.1225,-0.445 -0.36625,-0.59125 l 0,0 c -0.245,-0.14625 -0.64,-0.25375 -1.1875,-0.3225 l 0,0 c 0.57625,-0.14625 0.99625,-0.34125 1.275,-0.585 l 0,0 c 0.27375,-0.245 0.41,-0.5425 0.41,-0.90875 l 0,0 c 0,-0.2875 -0.0975,-0.55125 -0.2875,-0.78625 l 0,0 c -0.19625,-0.22875 -0.28875,-0.34625 -0.28875,-0.34625 l 0,0 c 0,-0.03 0.01,-0.0588 0.03,-0.0788 l 0,0 c 0.0238,-0.0188 0.0575,-0.0288 0.0925,-0.0288 l 0,0 c 0.0288,0 0.0538,0.005 0.0875,0.02 l 0,0 c 0.0337,0.009 0.0787,0.0337 0.1275,0.0625 l 0,0 0.13125,-0.625 c -0.0387,-0.009 -0.0725,-0.0188 -0.1175,-0.0188 l 0,0 c -0.0387,-0.01 -0.0725,-0.01 -0.1075,-0.01 l 0,0 c -0.17,0 -0.3025,0.0387 -0.38,0.1225 m -1.11875,2.1825 c -0.13125,-0.27875 -0.2,-0.59625 -0.2,-0.9475 l 0,0 c 0,-0.1375 0.0288,-0.24375 0.0788,-0.3175 l 0,0 c 0.0575,-0.0738 0.13125,-0.1175 0.22375,-0.1175 l 0,0 c 0.18125,0 0.3275,0.1325 0.46375,0.4 l 0,0 c 0.1325,0.26375 0.2,0.58125 0.2,0.9375 l 0,0 c 0,0.1475 -0.0288,0.26 -0.0875,0.3375 l 0,0 c -0.0538,0.0825 -0.13625,0.1225 -0.23875,0.1225 l 0,0 c -0.16125,0 -0.3075,-0.1375 -0.44,-0.415 m 0.245,2.3775 c -0.05,-0.0637 -0.0737,-0.15125 -0.0737,-0.25875 l 0,0 c 0,-0.0787 0.015,-0.15125 0.0387,-0.225 l 0,0 c 0.025,-0.0675 0.0587,-0.13625 0.1125,-0.21 l 0,0 c 0.1075,0.0488 0.2,0.1225 0.25875,0.215 l 0,0 c 0.0638,0.0925 0.0925,0.2 0.0925,0.3175 l 0,0 c 0,0.0788 -0.0138,0.14125 -0.0588,0.18625 l 0,0 c -0.0437,0.0488 -0.0975,0.0675 -0.17,0.0675 l 0,0 c -0.0888,0 -0.15125,-0.0288 -0.2,-0.0925 m -24.6875,-3.18375 0.385,0.15125 c 0.0975,-0.13625 0.21,-0.23375 0.3325,-0.3075 l 0,0 c 0.12125,-0.0688 0.24875,-0.1025 0.38,-0.1025 l 0,0 c 0.1275,0 0.225,0.03 0.29875,0.0925 l 0,0 c 0.0725,0.0638 0.1125,0.15125 0.1125,0.25375 l 0,0 -0.005,0.17625 c -0.0638,-0.005 -0.1125,-0.01 -0.15625,-0.01 l 0,0 -0.1025,0 c -0.5525,0 -0.9675,0.0975 -1.24125,0.29875 l 0,0 c -0.2725,0.2 -0.41,0.5025 -0.41,0.9025 l 0,0 c 0,0.3075 0.0937,0.5525 0.28875,0.7425 l 0,0 c 0.19,0.195 0.43375,0.2925 0.7425,0.2925 l 0,0 c 0.14625,0 0.2925,-0.0387 0.44375,-0.1025 l 0,0 c 0.14625,-0.0675 0.2975,-0.17 0.44375,-0.3025 l 0,0 0.0888,0.3075 1.28375,0 0,-0.41 -0.22875,0 0,-1.895 c 0,-0.32625 -0.0987,-0.58 -0.29875,-0.77125 l 0,0 c -0.205,-0.19 -0.4825,-0.2825 -0.835,-0.2825 l 0,0 c -0.14625,0 -0.2825,0.0137 -0.425,0.0437 l 0,0 c -0.13625,0.0288 -0.2675,0.0725 -0.395,0.13125 l 0,0 0.0637,-0.19 -0.3425,-0.1275 -0.42375,1.10875 z m 0.86875,1.64625 c -0.0687,-0.0887 -0.0975,-0.215 -0.0975,-0.38625 l 0,0 c 0,-0.18625 0.0488,-0.34125 0.15625,-0.44875 l 0,0 c 0.0975,-0.1125 0.23875,-0.16625 0.415,-0.16625 l 0,0 c 0.005,0 0.0238,0 0.0537,0 l 0,0 c 0.0238,0.005 0.0587,0.01 0.1075,0.0188 l 0,0 0.005,0.69375 c 0,0.1275 -0.035,0.23 -0.1025,0.3025 l 0,0 c -0.0687,0.0788 -0.15625,0.1175 -0.26875,0.1175 l 0,0 c -0.1175,0 -0.21,-0.0437 -0.26875,-0.13125 m 15.175,-2.49625 c -0.0825,-0.0387 -0.16,-0.0675 -0.23375,-0.0875 l 0,0 c -0.0738,-0.0188 -0.13625,-0.0288 -0.195,-0.0288 l 0,0 c -0.0975,0 -0.19125,0.0387 -0.27875,0.11625 l 0,0 c -0.0925,0.0888 -0.23,0.26875 -0.41,0.5575 l 0,0 c -0.0488,-0.1425 -0.1325,-0.26375 -0.24875,-0.37125 l 0,0 c -0.1125,-0.1075 -0.26875,-0.21 -0.46875,-0.3025 l 0,0 -0.69875,0.84875 0.24,0.26875 0.11625,-0.1025 c 0.04,0.025 0.0687,0.0537 0.0837,0.0875 l 0,0 c 0.0138,0.03 0.0238,0.0888 0.0238,0.17625 l 0,0 0,1.67 -0.22375,0 0,0.41 1.70875,0 0,-0.41 -0.3325,0 0,-1.38625 c 0,-0.16125 0.0387,-0.28375 0.1125,-0.37125 l 0,0 c 0.0737,-0.0888 0.17625,-0.1375 0.3025,-0.1375 l 0,0 c 0.0588,0 0.1325,0.015 0.22,0.04 l 0,0 c 0.0775,0.0187 0.185,0.0587 0.3125,0.1075 l 0,0 0.38125,-1.10875 -0.3425,-0.1225 -0.0688,0.14625 z m 4.97625,0.025 c -0.195,0.0925 -0.4,0.23375 -0.625,0.435 l 0,0 0.0337,-0.57625 -0.0488,0 -1.3675,0.385 0,0.37125 0.225,-0.0337 0,2.22625 -0.225,0 0,0.41 1.6075,0 0,-0.41 -0.225,0 0,-1.89875 c 0.0875,-0.0837 0.185,-0.1525 0.28375,-0.19625 l 0,0 c 0.0975,-0.0487 0.19,-0.0675 0.2775,-0.0675 l 0,0 c 0.1175,0 0.205,0.0337 0.26375,0.1025 l 0,0 c 0.0637,0.0725 0.0875,0.18 0.0875,0.32125 l 0,0 0,1.73875 -0.21875,0 0,0.41 1.60125,0 0,-0.41 -0.225,0 0,-1.94375 c 0,-0.3175 -0.0775,-0.56125 -0.23875,-0.73625 l 0,0 c -0.16625,-0.18125 -0.39125,-0.26875 -0.67375,-0.26875 l 0,0 c -0.16625,0 -0.3425,0.0487 -0.5325,0.14125 m -2.92,-0.14125 -1.3675,0.385 0,0.37125 0.23,-0.0337 0,2.22625 -0.23,0 0,0.41 1.60625,0 0,-0.41 -0.22375,0 0,-2.3725 c 0,-0.0637 0.005,-0.1425 0.01,-0.225 l 0,0 c 0,-0.0925 0.009,-0.21 0.0188,-0.35125 l 0,0 -0.0437,0 z m -7.5,0.5025 c -0.3125,0.3325 -0.46375,0.7475 -0.46375,1.24 l 0,0 c 0,0.49875 0.14125,0.90875 0.425,1.23125 l 0,0 c 0.2825,0.31625 0.64375,0.4825 1.08875,0.4825 l 0,0 c 0.3275,0 0.625,-0.0725 0.89375,-0.215 l 0,0 c 0.26875,-0.14625 0.5125,-0.36625 0.7375,-0.65875 l 0,0 -0.235,-0.25875 c -0.1075,0.1125 -0.23,0.195 -0.35625,0.25375 l 0,0 c -0.1325,0.0537 -0.26875,0.0838 -0.415,0.0838 l 0,0 c -0.18125,0 -0.3425,-0.0488 -0.48375,-0.1475 l 0,0 c -0.13625,-0.0975 -0.25875,-0.24875 -0.35125,-0.43375 l 0,0 1.255,-0.5275 c 0.1175,-0.0488 0.23875,-0.0875 0.36125,-0.1275 l 0,0 c 0.1225,-0.0287 0.185,-0.0587 0.185,-0.0825 l 0,0 c 0,-0.0687 -0.0438,-0.19 -0.12625,-0.36625 l 0,0 c -0.0838,-0.17125 -0.18625,-0.3325 -0.3025,-0.46375 l 0,0 c -0.1425,-0.17125 -0.30375,-0.2975 -0.48875,-0.38625 l 0,0 c -0.18625,-0.0825 -0.39125,-0.12625 -0.61,-0.12625 l 0,0 c -0.435,0 -0.80625,0.17 -1.11375,0.5025 m 0.605,0.81 c -0.0137,-0.0875 -0.0237,-0.185 -0.0237,-0.2825 l 0,0 c 0,-0.15625 0.0237,-0.28375 0.0825,-0.37125 l 0,0 c 0.0537,-0.0875 0.1325,-0.13125 0.235,-0.13125 l 0,0 c 0.1125,0 0.22375,0.0575 0.32625,0.185 l 0,0 c 0.10375,0.1225 0.19125,0.2925 0.26375,0.5275 l 0,0 -0.82,0.34125 c -0.0288,-0.0825 -0.0487,-0.17 -0.0638,-0.26875 m -20.99625,-0.81 c -0.3075,0.3325 -0.46375,0.7475 -0.46375,1.24 l 0,0 c 0,0.49875 0.1425,0.90875 0.425,1.23125 l 0,0 c 0.28375,0.31625 0.645,0.4825 1.08875,0.4825 l 0,0 c 0.3275,0 0.625,-0.0725 0.89375,-0.215 l 0,0 c 0.26875,-0.14625 0.5125,-0.36625 0.7375,-0.65875 l 0,0 -0.23,-0.25875 c -0.11125,0.1125 -0.22875,0.195 -0.36125,0.25375 l 0,0 c -0.12625,0.0537 -0.2675,0.0838 -0.415,0.0838 l 0,0 c -0.175,0 -0.33625,-0.0488 -0.4775,-0.1475 l 0,0 c -0.1475,-0.0975 -0.26,-0.24875 -0.3575,-0.43375 l 0,0 1.255,-0.5275 c 0.1225,-0.0488 0.24,-0.0875 0.36125,-0.1275 l 0,0 c 0.1225,-0.0287 0.18625,-0.0587 0.18625,-0.0825 l 0,0 c 0,-0.0687 -0.0438,-0.19 -0.1275,-0.36625 l 0,0 c -0.0825,-0.17125 -0.185,-0.3325 -0.2975,-0.46375 l 0,0 c -0.14125,-0.17125 -0.3075,-0.2975 -0.49375,-0.38625 l 0,0 c -0.185,-0.0825 -0.385,-0.12625 -0.61,-0.12625 l 0,0 c -0.435,0 -0.805,0.17 -1.11375,0.5025 m 0.60625,0.81 c -0.015,-0.0875 -0.025,-0.185 -0.025,-0.2825 l 0,0 c 0,-0.15625 0.03,-0.28375 0.0837,-0.37125 l 0,0 c 0.0588,-0.0875 0.13125,-0.13125 0.23375,-0.13125 l 0,0 c 0.1175,0 0.23,0.0575 0.3325,0.185 l 0,0 c 0.1025,0.1225 0.19,0.2925 0.25875,0.5275 l 0,0 -0.815,0.34125 c -0.03,-0.0825 -0.0538,-0.17 -0.0688,-0.26875 m 1.1325,6.10875 -6.25,12.8325 c -0.1075,0.215 0.03,0.47375 0.3325,0.47375 l 0,0 c 0.38,0 0.54625,-0.1225 0.68375,-0.3375 l 0,0 2.26,-3.08125 c 0.27375,-0.385 0.79125,-0.61 1.64125,-0.61 l 0,0 2.31375,0 c 0.85,0 1.42125,0.3375 1.7775,1.01625 l 0,0 1.28,2.51875 c 0.14125,0.3025 0.795,0.625 1.61625,0.625 l 0,0 c 1.44,0 2.20625,-0.79625 1.87875,-1.48875 l 0,0 -6.005,-11.91375 c -0.1075,-0.235 -0.29375,-0.50875 -0.70875,-0.50875 l 0,0 c -0.4875,0 -0.68375,0.19125 -0.82,0.47375 m -1.44,7.88125 1.44,-3.07625 1.52875,3.0225 c 0.195,0.405 -0.26875,0.81 -0.87,0.81 l 0,0 -1.3375,0 c -0.4925,0 -0.95625,-0.37125 -0.76125,-0.75625 m -27.7,-7.4225 0,11.71375 c 0,1.03125 0.99625,1.20125 1.57125,1.20125 l 0,0 c 0.60125,0 1.54375,-0.25875 1.54375,-1.20125 l 0,0 0,-5.595 c 0,-0.425 0.3175,-0.79625 0.9425,-0.79625 l 0,0 c 0.57625,0 0.99625,0.45875 1.255,0.81125 l 0,0 4.63875,6.1375 c 0.21,0.3175 0.54625,0.57625 1.0975,0.57625 l 0,0 c 0.5225,0 0.99625,-0.27875 0.99625,-0.61125 l 0,0 0,-11.71375 c 0,-0.94625 -0.99625,-1.20125 -1.59625,-1.20125 l 0,0 c -0.58125,0 -1.59625,0.17125 -1.59625,1.20125 l 0,0 0,6.455 c 0,0.235 -0.1325,0.47375 -0.47375,0.47375 l 0,0 c -0.235,0 -0.57625,-0.0287 -0.7325,-0.25375 l 0,0 -5.3175,-7.23125 c -0.235,-0.37125 -0.625,-0.67875 -1.26,-0.67875 l 0,0 c -0.64875,0 -1.06875,0.28875 -1.06875,0.7125 m 52.41125,-0.67875 c -0.7025,0 -1.1375,0.27375 -1.1375,0.67875 l 0,0 0,12.13375 c 0,0.37625 0.5425,0.71375 1.1375,0.71375 l 0,0 9.97625,0 c 0.64375,0 1.29375,-0.27875 1.29375,-0.67875 l 0,0 c 0,-0.42 -0.67375,-0.67875 -1.3475,-0.67875 l 0,0 -7.85125,0 0,-4.155 c 0,-0.66 0.625,-1.08 2.1575,-1.25 l 0,0 4.01875,-0.44 c 0.45875,-0.0337 0.97125,-0.17125 0.97125,-0.47375 l 0,0 c 0,-0.3025 -0.54125,-0.43875 -1.025,-0.43875 l 0,0 -4.985,0 c -0.7325,0 -1.1375,-0.37125 -1.1375,-0.845 l 0,0 0,-2.47125 c 0,-0.35125 -0.67,-0.67375 -0.9675,-0.7425 l 0,0 8.4375,0 c 0.67875,0 1.32375,-0.2875 1.29375,-0.7075 l 0,0 c -0.0238,-0.405 -0.64375,-0.645 -1.29375,-0.645 l 0,0 -9.54125,0 z m -14.985,3.8925 0,5.74125 c 0,2.14875 2.695,3.8925 6.02,3.8925 l 0,0 c 3.33,0 6.02625,-1.74375 6.02625,-3.8925 l 0,0 0,-2.09375 c 0,-0.46 -0.28875,-0.87875 -1.05,-0.87875 l 0,0 -3.92625,0 c -0.5275,0 -0.9425,0.2725 -0.99625,0.61 l 0,0 c -0.0537,0.37125 0.36625,0.7425 0.9425,0.7425 l 0,0 2.88125,0 c -0.34125,0.0138 -1.05,0.37 -1.05,0.98125 l 0,0 0,0.63875 c 0,1.4025 -0.65375,2.535 -2.8275,2.535 l 0,0 c -2.1725,0 -2.905,-1.1325 -2.905,-2.535 l 0,0 0,-5.74125 c 0,-1.40625 1.51875,-2.54 3.69125,-2.54 l 0,0 c 2.35875,0 3.8775,1.01625 3.8775,2.54 l 0,0 0,0.33625 c 0,0.24875 0.2875,0.47375 0.67875,0.47375 l 0,0 c 0.395,0 0.68375,-0.225 0.68375,-0.47375 l 0,0 0,-0.33625 c 0,-2.14875 -2.69625,-3.8925 -6.02625,-3.8925 l 0,0 c -3.325,0 -6.02,1.74375 -6.02,3.8925 m -22.3875,-3.8925 c -0.55625,0 -1.035,0.28875 -1.065,0.645 l 0,0 c -0.0237,0.38625 0.455,0.7075 1.065,0.7075 l 0,0 2.925,0 c 0.44875,0 0.74125,0.18625 0.74125,0.50875 l 0,0 0,11.06875 c 0,0.24 0.28875,0.59625 0.79625,0.59625 l 0,0 c 0.5275,0 0.85,-0.27875 0.90375,-0.61125 l 0,0 1.69875,-10.44375 c 0.1075,-0.7125 0.635,-1.11875 1.64625,-1.11875 l 0,0 1.38125,0 c 0.61,0 1.11375,-0.2875 1.11375,-0.67375 l 0,0 c 0,-0.39 -0.5575,-0.67875 -1.1675,-0.67875 l 0,0 -10.03875,0 z m -20.67375,1.20125 0,11.1375 c 0,1.03125 0.99125,1.20125 1.5575,1.20125 l 0,0 c 0.6,0 1.5325,-0.25875 1.5325,-1.20125 l 0,0 0,-11.1375 c 0,-0.94625 -0.9325,-1.20125 -1.5325,-1.20125 l 0,0 c -0.56625,0 -1.5575,0.17125 -1.5575,1.20125 m -3.0375,-0.83 -3.46125,7.745 c -0.0788,0.165 -0.18125,0.37 -0.5525,0.37 l 0,0 c -0.5225,0 -0.63,-0.23875 -0.7075,-0.4725 l 0,0 -2.99375,-7.26625 c -0.23375,-0.56125 -0.9175,-0.7275 -1.51875,-0.7275 l 0,0 c -1.18125,0 -1.78125,0.7075 -1.5225,1.3325 l 0,0 4.8525,11.255 c 0.18625,0.41 0.3425,0.91875 1.08,0.91875 l 0,0 c 0.81,0 1.02,-0.425 1.23,-0.9475 l 0,0 4.595,-12.07 c 0.1075,-0.28875 -0.025,-0.50875 -0.3425,-0.50875 l 0,0 c -0.41875,0 -0.55125,0.15125 -0.65875,0.37125 m 34.7075,15.69375 c -0.7575,0.645 -1.13375,1.52875 -1.13375,2.65625 l 0,0 c 0,1.07875 0.3375,1.9525 1.01125,2.6225 l 0,0 c 0.67375,0.66875 1.5825,1.005 2.71,1.005 l 0,0 c 1.11375,0 2.01125,-0.34125 2.705,-1.02 l 0,0 c 0.69875,-0.67875 1.04,-1.50875 1.04,-2.495 l 0,0 c 0,-1.06 -0.35625,-1.94375 -1.06875,-2.66125 l 0,0 c -0.70875,-0.7125 -1.5625,-1.07 -2.55375,-1.07 l 0,0 c -1.06,0 -1.95875,0.3175 -2.71,0.9625 m 1.28875,4.4675 c -0.36625,-0.5075 -0.5475,-1.09875 -0.5475,-1.7575 l 0,0 c 0,-0.68875 0.17125,-1.28375 0.51875,-1.7825 l 0,0 c 0.34625,-0.4975 0.77125,-0.75125 1.27875,-0.75125 l 0,0 c 0.5175,0 0.9575,0.25375 1.31875,0.75625 l 0,0 c 0.36125,0.5025 0.54125,1.09875 0.54125,1.7775 l 0,0 c 0,0.7025 -0.17,1.29375 -0.5175,1.7875 l 0,0 c -0.34125,0.4925 -0.77625,0.73625 -1.30875,0.73625 l 0,0 c -0.4925,0 -0.9225,-0.25375 -1.28375,-0.76625 m 14.145,-3.47625 c 0,0.5025 0.1275,0.9225 0.39125,1.255 l 0,0 c 0.24875,0.3275 0.7175,0.61 1.38625,0.85375 l 0,0 c 0.39625,0.1425 0.68375,0.255 0.875,0.3475 l 0,0 c 0.185,0.0925 0.33625,0.21 0.45875,0.34125 l 0,0 c 0.11625,0.1375 0.17,0.28375 0.17,0.44 l 0,0 c 0,0.75125 -0.64875,1.1325 -1.9625,1.1325 l 0,0 -0.7025,0 c -0.3425,0.0288 -0.51375,0.1325 -0.51375,0.2925 l 0,0 c 0,0.19125 0.225,0.3325 0.675,0.44 l 0,0 c 0.44875,0.1075 0.8925,0.15625 1.3275,0.15625 l 0,0 c 0.9525,0 1.69,-0.17125 2.22125,-0.5275 l 0,0 c 0.5325,-0.34625 0.79625,-0.86375 0.79625,-1.5425 l 0,0 c 0,-0.3475 -0.0587,-0.655 -0.17625,-0.91375 l 0,0 c -0.12125,-0.26375 -0.2975,-0.47875 -0.5225,-0.64875 l 0,0 c -0.23375,-0.17125 -0.595,-0.3375 -1.08375,-0.50375 l 0,0 c -0.4925,-0.16125 -0.83,-0.2825 -1.02,-0.37 l 0,0 c -0.18625,-0.0888 -0.3325,-0.20625 -0.44,-0.3525 l 0,0 c -0.1025,-0.14625 -0.15125,-0.3175 -0.15125,-0.5175 l 0,0 c 0,-0.64375 0.7475,-0.96625 2.24125,-0.96625 l 0,0 c 0.43,0 0.645,-0.0788 0.645,-0.225 l 0,0 c 0,-0.195 -0.225,-0.35125 -0.66375,-0.46875 l 0,0 c -0.45,-0.1125 -0.88375,-0.17125 -1.30875,-0.17125 l 0,0 c -1.7625,0 -2.6425,0.65 -2.6425,1.94875 m -58.29,-1.82125 c -0.3375,0.0775 -0.69375,0.22875 -1.08,0.46375 l 0,0 c -0.38,0.235 -0.68375,0.5025 -0.9175,0.80125 l 0,0 c -0.23,0.2975 -0.405,0.625 -0.5125,0.98625 l 0,0 c -0.1125,0.35625 -0.17125,0.74625 -0.17125,1.17125 l 0,0 c 0,1.07 0.395,1.94375 1.17625,2.6325 l 0,0 c 0.78625,0.68375 1.74375,1.025 2.87625,1.025 l 0,0 c 0.36625,0 0.7625,-0.0288 1.1825,-0.0925 l 0,0 c 0.41875,-0.0587 0.67875,-0.1325 0.79,-0.225 l 0,0 c 0.1075,-0.0875 0.16125,-0.225 0.16125,-0.415 l 0,0 c 0,-0.16125 -0.0538,-0.23875 -0.15625,-0.23875 l 0,0 -1.05875,0.0238 c -0.66,0 -1.1625,-0.0725 -1.51375,-0.215 l 0,0 c -0.35625,-0.14625 -0.655,-0.33625 -0.89375,-0.57625 l 0,0 c -0.24375,-0.23375 -0.435,-0.4925 -0.57125,-0.78625 l 0,0 c -0.14125,-0.2925 -0.21,-0.6925 -0.21,-1.205 l 0,0 c 0,-0.3475 0.0488,-0.655 0.15125,-0.91875 l 0,0 c 0.0925,-0.26875 0.27375,-0.54625 0.5425,-0.835 l 0,0 c 0.2675,-0.2875 0.57125,-0.4975 0.9025,-0.63 l 0,0 c 0.3325,-0.12125 0.7175,-0.185 1.1675,-0.185 l 0,0 c 0.175,0 0.44375,0.02 0.81,0.0638 l 0,0 c 0.36625,0.0437 0.56125,0.0625 0.59125,0.0625 l 0,0 c 0.1175,0 0.17625,-0.0675 0.17625,-0.205 l 0,0 c 0,-0.26375 -0.21,-0.46375 -0.63,-0.61 l 0,0 c -0.415,-0.13625 -0.92875,-0.205 -1.53375,-0.205 l 0,0 c -0.5175,0 -0.9425,0.0337 -1.27875,0.1125 m 27.55375,0.0288 c -0.0838,0.01 -0.17125,0.0738 -0.27375,0.17125 l 0,0 c -0.1025,0.1025 -0.195,0.225 -0.28375,0.36625 l 0,0 c -0.0875,0.14125 -0.16125,0.3125 -0.22,0.5075 l 0,0 -0.35125,1.245 c -0.23875,0.80125 -0.425,1.30375 -0.55625,1.51375 l 0,0 c -0.0687,0.1075 -0.14125,0.19125 -0.225,0.24 l 0,0 c -0.0775,0.0588 -0.16625,0.0825 -0.25875,0.0825 l 0,0 c -0.13625,0 -0.26375,-0.0638 -0.37625,-0.19 l 0,0 c -0.11125,-0.1325 -0.25875,-0.47875 -0.44375,-1.035 l 0,0 c -0.185,-0.5575 -0.37625,-1.20125 -0.57625,-1.93375 l 0,0 c -0.0688,-0.27375 -0.19,-0.50375 -0.35125,-0.70375 l 0,0 c -0.16125,-0.2 -0.29875,-0.2925 -0.405,-0.2925 l 0,0 -3.2775,0 0.80125,1.045 0,4.8975 -0.80125,1.04 3.175,0 -0.80125,-1.04 0,-1.30875 c 0,-0.44875 0.0388,-0.85 0.12625,-1.20125 l 0,0 c 0.0838,-0.35125 0.19625,-0.5275 0.3225,-0.5275 l 0,0 c 0.1425,0 0.3125,0.22 0.5175,0.66875 l 0,0 c 0.19625,0.445 0.38625,0.9475 0.5625,1.51375 l 0,0 c 0.17,0.56625 0.2975,0.9725 0.385,1.22625 l 0,0 c 0.0875,0.25375 0.17625,0.42875 0.26375,0.53625 l 0,0 c 0.0875,0.1025 0.18625,0.18125 0.28375,0.22 l 0,0 c 0.1025,0.0387 0.3125,0.0638 0.63,0.0638 l 0,0 c 0.21875,0 0.375,-0.025 0.4725,-0.0638 l 0,0 c 0.0937,-0.0387 0.18625,-0.1175 0.26375,-0.22875 l 0,0 c 0.0838,-0.1175 0.15625,-0.26375 0.215,-0.45 l 0,0 c 0.5525,-1.68875 0.90375,-2.715 1.055,-3.06625 l 0,0 c 0.0737,-0.17625 0.14625,-0.3075 0.22,-0.395 l 0,0 c 0.0775,-0.0937 0.15125,-0.1325 0.22,-0.1325 l 0,0 c 0.14625,0 0.2725,0.18625 0.375,0.5525 l 0,0 c 0.1075,0.36125 0.16125,0.76125 0.16125,1.18625 l 0,0 0,1.91875 c 0,0.13625 0.0637,0.26375 0.195,0.37125 l 0,0 c 0.1275,0.1075 0.3425,0.15625 0.63,0.15625 l 0,0 c 0.19625,0 0.3325,-0.015 0.42,-0.0537 l 0,0 c 0.0887,-0.0338 0.16625,-0.0975 0.24,-0.19 l 0,0 c 0.0725,-0.0937 0.1125,-0.19625 0.1125,-0.30875 l 0,0 0,-5.75125 c 0,-0.17125 -0.0687,-0.3225 -0.20125,-0.45375 l 0,0 c -0.12625,-0.1325 -0.2775,-0.20125 -0.44875,-0.215 l 0,0 c -0.16625,-0.005 -0.45375,-0.01 -0.86375,-0.01 l 0,0 c -0.5475,0 -0.86,0.01 -0.9325,0.0288 m -12.66125,0.04 c -0.1275,0.0387 -0.24,0.11125 -0.3375,0.21375 l 0,0 c -0.1025,0.10375 -0.175,0.22 -0.23375,0.3575 l 0,0 -2.15375,5.4925 c -0.0925,0.235 -0.13625,0.38125 -0.13625,0.44 l 0,0 c 0,0.2725 0.25875,0.41 0.77625,0.41 l 0,0 c 0.4975,0 0.85875,-0.22 1.08375,-0.66375 l 0,0 c 0.16625,-0.3325 0.33625,-0.5475 0.5125,-0.65 l 0,0 c 0.17125,-0.0975 0.36125,-0.15125 0.57125,-0.15125 l 0,0 1.71375,0 c 0.18625,0 0.3375,0.0438 0.45875,0.13125 l 0,0 c 0.1225,0.0937 0.28375,0.30875 0.48875,0.65 l 0,0 c 0.26875,0.46375 0.625,0.68875 1.07875,0.68875 l 0,0 c 0.5225,0 0.78625,-0.14625 0.78625,-0.445 l 0,0 c 0,-0.0538 -0.0488,-0.185 -0.13625,-0.41 l 0,0 -2.2175,-5.47875 c -0.0675,-0.14625 -0.15125,-0.2675 -0.23875,-0.36625 l 0,0 c -0.0875,-0.0925 -0.195,-0.165 -0.3175,-0.21375 l 0,0 c -0.1225,-0.05 -0.38125,-0.0738 -0.78125,-0.0738 l 0,0 c -0.48375,0 -0.79125,0.02 -0.9175,0.0688 m 0.2675,4.20375 c -0.195,-0.13625 -0.2975,-0.2975 -0.2975,-0.48875 l 0,0 c 0,-0.3075 0.0925,-0.7025 0.27875,-1.19125 l 0,0 c 0.185,-0.48875 0.385,-0.7325 0.595,-0.7325 l 0,0 c 0.21,0 0.425,0.25875 0.64,0.77125 l 0,0 c 0.215,0.5175 0.3225,0.90375 0.3225,1.1575 l 0,0 c 0,0.18125 -0.1025,0.3375 -0.3025,0.47875 l 0,0 c -0.205,0.13625 -0.41,0.205 -0.60625,0.205 l 0,0 c -0.21875,0 -0.42875,-0.0688 -0.63,-0.2 m 60.5375,-4.23375 0.79625,1.035 0,5.38125 c 0,0.35125 0.2825,0.5275 0.85375,0.5275 l 0,0 c 0.28375,0 0.49375,-0.0537 0.625,-0.16125 l 0,0 c 0.1375,-0.1125 0.20625,-0.3325 0.20625,-0.65875 l 0,0 -0.02,-0.61125 c 0,-0.2775 0.0437,-0.4975 0.14625,-0.67375 l 0,0 c 0.0975,-0.17 0.25875,-0.2925 0.47375,-0.35625 l 0,0 c 0.215,-0.0638 0.5175,-0.1125 0.9175,-0.14625 l 0,0 c 0.7325,-0.0637 1.29875,-0.28375 1.71,-0.67375 l 0,0 c 0.4,-0.38125 0.605,-0.90375 0.605,-1.5525 l 0,0 c 0,-0.67 -0.23875,-1.1875 -0.7075,-1.55375 l 0,0 c -0.47875,-0.37 -1.11375,-0.55625 -1.915,-0.55625 l 0,0 -3.69125,0 z m 2.695,3.07125 c -0.14125,-0.175 -0.21375,-0.4875 -0.21375,-0.9225 l 0,0 c 0,-0.77625 0.2825,-1.1625 0.83875,-1.1625 l 0,0 c 0.3125,0 0.58625,0.1125 0.835,0.3475 l 0,0 c 0.245,0.22375 0.36625,0.4975 0.36625,0.805 l 0,0 c 0,0.3275 -0.11125,0.61 -0.33125,0.845 l 0,0 c -0.225,0.23375 -0.49375,0.35625 -0.82,0.35625 l 0,0 c -0.30375,0 -0.5275,-0.0925 -0.675,-0.26875 m -6.5125,-3.07125 0.8,1.05 0,5.35125 c 0,0.36625 0.28375,0.5425 0.84,0.5425 l 0,0 c 0.57625,0 0.86,-0.18625 0.86,-0.5525 l 0,0 0,-5.34125 0.8,-1.05 -3.3,0 z m -2.66125,0.62 0,1.245 c 0,0.25375 -0.1475,0.46875 -0.45,0.635 l 0,0 c -0.2925,0.17125 -0.61,0.25875 -0.9425,0.25875 l 0,0 c -0.33125,0 -0.63375,-0.0825 -0.9125,-0.23875 l 0,0 c -0.27875,-0.16125 -0.415,-0.37125 -0.415,-0.635 l 0,0 0,-0.835 0.8,-1.05 -3.305,0 0.805,1.05 0,4.85375 -0.805,1.04 1.9675,0 c 0.16125,0 0.29375,-0.0487 0.38625,-0.15125 l 0,0 c 0.1025,-0.1025 0.15125,-0.235 0.15125,-0.40125 l 0,0 0,-1.7375 c 0,-0.29375 0.12625,-0.5175 0.385,-0.68375 l 0,0 c 0.25875,-0.16625 0.57125,-0.24375 0.9425,-0.24375 l 0,0 c 0.36625,0 0.68875,0.0825 0.9775,0.24875 l 0,0 c 0.2825,0.17125 0.42375,0.395 0.42375,0.67875 l 0,0 0,1.73375 c 0,0.37 0.30375,0.56125 0.91375,0.56125 l 0,0 c 0.5325,0 0.79625,-0.17625 0.79625,-0.5325 l 0,0 0,-5.79125 c 0,-0.415 -0.3075,-0.625 -0.92375,-0.625 l 0,0 c -0.53125,0 -0.795,0.21 -0.795,0.62 m -19.54125,-0.62 0.81,1.05 0,4.85375 -0.8,1.04 3.17875,0 -0.80625,-1.04 0,-1.31875 c 0,-0.75125 0.0337,-1.20125 0.1075,-1.3475 l 0,0 c 0.0738,-0.15125 0.16125,-0.225 0.26875,-0.225 l 0,0 c 0.175,0 0.395,0.205 0.67375,0.625 l 0,0 c 0.27875,0.42 0.7425,1.22125 1.39125,2.3975 l 0,0 c 0.17625,0.3175 0.34625,0.5625 0.50375,0.7275 l 0,0 c 0.16,0.17125 0.32125,0.26875 0.4825,0.29875 l 0,0 c 0.16125,0.0288 0.35625,0.0387 0.57625,0.0387 l 0,0 c 0.60625,0 0.9675,-0.0588 1.09875,-0.18125 l 0,0 c 0.1225,-0.12125 0.185,-0.3075 0.185,-0.54125 l 0,0 0,-5.79125 c 0,-0.15625 -0.0487,-0.28375 -0.14625,-0.37625 l 0,0 c -0.0975,-0.0925 -0.2925,-0.13625 -0.585,-0.13625 l 0,0 c -0.3325,0 -0.5525,0.0437 -0.665,0.12625 l 0,0 c -0.1075,0.0788 -0.16125,0.215 -0.16125,0.415 l 0,0 0,2.51 c 0,0.57125 -0.12125,0.86 -0.35625,0.86 l 0,0 c -0.1075,0 -0.22375,-0.0537 -0.35625,-0.16625 l 0,0 c -0.13125,-0.1125 -0.4,-0.5375 -0.82,-1.28375 l 0,0 c -0.415,-0.7425 -0.7225,-1.3 -0.91375,-1.66625 l 0,0 c -0.19,-0.37 -0.36625,-0.605 -0.53625,-0.7075 l 0,0 c -0.16625,-0.1075 -0.28875,-0.16125 -0.37125,-0.16125 l 0,0 -2.75875,0 z m -11.8075,0 0.80125,1.05 0,5.35125 c 0,0.36625 0.28375,0.5425 0.845,0.5425 l 0,0 c 0.57125,0 0.85375,-0.18625 0.85375,-0.5525 l 0,0 0,-5.34125 0.80625,-1.05 -3.30625,0 z m -6.9775,0 0.79625,1.035 0,5.38125 c 0,0.35125 0.28875,0.5275 0.855,0.5275 l 0,0 c 0.2825,0 0.4925,-0.0537 0.63,-0.16125 l 0,0 c 0.13125,-0.1125 0.2,-0.3325 0.2,-0.65875 l 0,0 -0.02,-0.61125 c 0,-0.2775 0.0488,-0.4975 0.14625,-0.67375 l 0,0 c 0.0975,-0.17 0.255,-0.2925 0.47375,-0.35625 l 0,0 c 0.215,-0.0638 0.5225,-0.1125 0.91875,-0.14625 l 0,0 c 0.7275,-0.0637 1.29875,-0.28375 1.70875,-0.67375 l 0,0 c 0.405,-0.38125 0.605,-0.90375 0.605,-1.5525 l 0,0 c 0,-0.67 -0.23375,-1.1875 -0.7075,-1.55375 l 0,0 c -0.47875,-0.37 -1.11375,-0.55625 -1.91375,-0.55625 l 0,0 -3.6925,0 z m 2.70125,3.07125 c -0.1475,-0.175 -0.215,-0.4875 -0.215,-0.9225 l 0,0 c 0,-0.77625 0.2775,-1.1625 0.84,-1.1625 l 0,0 c 0.3075,0 0.585,0.1125 0.83,0.3475 l 0,0 c 0.24375,0.22375 0.37125,0.4975 0.37125,0.805 l 0,0 c 0,0.3275 -0.1125,0.61 -0.3375,0.845 l 0,0 c -0.22,0.23375 -0.49375,0.35625 -0.815,0.35625 l 0,0 c -0.30375,0 -0.5275,-0.0925 -0.67375,-0.26875 m -24.18,-2.45125 0,1.245 c 0,0.25375 -0.15125,0.46875 -0.445,0.635 l 0,0 c -0.3025,0.17125 -0.615,0.25875 -0.94625,0.25875 l 0,0 c -0.3325,0 -0.635,-0.0825 -0.91375,-0.23875 l 0,0 c -0.27875,-0.16125 -0.415,-0.37125 -0.415,-0.635 l 0,0 0,-0.835 0.80125,-1.05 -3.30625,0 0.80625,1.05 0,4.85375 -0.80625,1.04 1.9675,0 c 0.15625,0 0.28875,-0.0487 0.39125,-0.15125 l 0,0 c 0.0975,-0.1025 0.14625,-0.235 0.14625,-0.40125 l 0,0 0,-1.7375 c 0,-0.29375 0.1275,-0.5175 0.38625,-0.68375 l 0,0 c 0.25375,-0.16625 0.56625,-0.24375 0.9425,-0.24375 l 0,0 c 0.36125,0 0.6875,0.0825 0.97625,0.24875 l 0,0 c 0.2825,0.17125 0.42,0.395 0.42,0.67875 l 0,0 0,1.73375 c 0,0.37 0.3125,0.56125 0.9175,0.56125 l 0,0 c 0.5275,0 0.79625,-0.17625 0.79625,-0.5325 l 0,0 0,-5.79125 c 0,-0.415 -0.3075,-0.625 -0.9275,-0.625 l 0,0 c -0.5275,0 -0.79125,0.21 -0.79125,0.62 m 54.17,7.88625 c -5.92375,7.885 -14.5025,12.85125 -24.0525,12.85125 l 0,0 c -9.54625,0 -18.13,-4.96625 -24.04875,-12.85125 l 0,0 -8.70125,0 c 7.86125,8.725 19.615,14.2775 32.75,14.2775 l 0,0 c 13.13875,0 24.8925,-5.5525 32.75375,-14.2775 l 0,0 -8.70125,0 z"
       inkscape:connector-curvature="0"
       id="path194"
       style="fill:url(#radialGradient2990);fill-opacity:1;fill-rule:nonzero;stroke:#000000;stroke-width:0.28724357;stroke-miterlimit:4;stroke-dasharray:none" />
  </g>
</svg>
