<?xml version="1.0" encoding="UTF-8" standalone="no"?>
<!-- Created with Inkscape (http://www.inkscape.org/) -->

<svg
   xmlns:dc="http://purl.org/dc/elements/1.1/"
   xmlns:cc="http://creativecommons.org/ns#"
   xmlns:rdf="http://www.w3.org/1999/02/22-rdf-syntax-ns#"
   xmlns:svg="http://www.w3.org/2000/svg"
   xmlns="http://www.w3.org/2000/svg"
   xmlns:xlink="http://www.w3.org/1999/xlink"
   xmlns:inkscape="http://www.inkscape.org/namespaces/inkscape"
   version="1.1"
   width="600"
   height="510.31689"
   id="svg5414">
  <defs
     id="defs5416">
    <radialGradient
       cx="0"
       cy="0"
       r="1"
       fx="0"
       fy="0"
       id="radialGradient334"
       gradientUnits="userSpaceOnUse"
       gradientTransform="matrix(17.571457,0,0,-17.571442,134.70898,483.67676)"
       spreadMethod="pad">
      <stop
         id="stop336"
         style="stop-color:#b7d1e1;stop-opacity:1"
         offset="0" />
      <stop
         id="stop338"
         style="stop-color:#a0b6c2;stop-opacity:1"
         offset="0.66291797" />
      <stop
         id="stop340"
         style="stop-color:#626e77;stop-opacity:1"
         offset="1" />
    </radialGradient>
    <radialGradient
       cx="0"
       cy="0"
       r="1"
       fx="0"
       fy="0"
       id="radialGradient276"
       gradientUnits="userSpaceOnUse"
       gradientTransform="matrix(17.571457,0,0,-17.571442,136.15039,483.67676)"
       spreadMethod="pad">
      <stop
         id="stop278"
         style="stop-color:#b7d1e1;stop-opacity:1"
         offset="0" />
      <stop
         id="stop280"
         style="stop-color:#a0b6c2;stop-opacity:1"
         offset="0.66291797" />
      <stop
         id="stop282"
         style="stop-color:#626e77;stop-opacity:1"
         offset="1" />
    </radialGradient>
    <radialGradient
       cx="0"
       cy="0"
       r="1"
       fx="0"
       fy="0"
       id="radialGradient3019"
       xlink:href="#radialGradient334"
       gradientUnits="userSpaceOnUse"
       gradientTransform="matrix(17.571457,0,0,-17.571442,134.70898,483.67676)"
       spreadMethod="pad" />
  </defs>
  <metadata
     id="metadata5419">
    <rdf:RDF>
      <cc:Work
         rdf:about="">
        <dc:format>image/svg+xml</dc:format>
        <dc:type
           rdf:resource="http://purl.org/dc/dcmitype/StillImage" />
        <dc:title />
      </cc:Work>
    </rdf:RDF>
  </metadata>
  <path
     d="M 419.35319,0 179.60068,0 178.4525,0.15309 C 162.25043,1.90087 139.82267,13.56126 132.34675,38.08126 112.02398,43.70734 35.42769,65.08898 35.42769,65.08898 L 34.4326,65.43292 C 21.26682,70.52318 0,87.56726 0,118.75945 c 0,5.57505 0.6889,11.60937 2.23257,18.14123 l 91.44606,341.41736 2.53875,3.38075 c 10.32086,13.80366 35.49149,34.93015 64.29802,26.76533 0,0 128.91497,-35.47873 139.52925,-38.42572 10.6653,2.94699 139.78439,38.47675 139.78439,38.47675 28.55138,8.11379 53.72202,-13.0127 64.0939,-26.81636 l 2.48772,-3.34248 91.29298,-340.805 C 599.29833,130.81533 600,124.64068 600,118.96357 600,87.51623 578.82247,70.52318 565.65669,65.43292 l -0.94406,-0.34394 c 0,0 -76.64732,-21.38164 -96.97008,-27.00772 -7.47592,-24.52 -29.90368,-36.18039 -46.05473,-37.92817 L 420.53964,0 419.35319,0 z"
     inkscape:connector-curvature="0"
     id="path324"
     style="fill:#000000;fill-opacity:1;fill-rule:nonzero;stroke:none" />
  <path
     d="m 180.7361,21.72609 c 0,0 -29.39337,3.18939 -29.39337,33.59061 L 42.25298,85.71793 c 0,0 -27.26287,10.51221 -18.88117,46.19506 l 90.24686,336.73534 c 0,0 18.88117,25.20891 40.91344,18.88117 l 145.56357,-40.02041 145.51253,40.02041 c 21.98125,6.32774 40.91344,-18.88117 40.91344,-18.88117 L 576.73024,131.91299 C 585.09918,96.23014 557.83632,85.71793 557.83632,85.71793 L 448.74657,55.3167 c 0,-30.40122 -29.39338,-33.59061 -29.39338,-33.59061 l -238.61709,0 z"
     inkscape:connector-curvature="0"
     id="path326"
     style="fill:#626e77;fill-opacity:1;fill-rule:nonzero;stroke:none" />
  <path
     d="m 181.69292,34.3433 c -1.3523,0.24291 -5.5878,1.18645 -9.51713,3.84002 -5.63883,3.7252 -8.22861,9.15992 -8.22861,17.13338 l 0,9.56816 c 0,0 -115.81298,32.3021 -117.4587,32.74861 -3.03629,1.39057 -12.10691,6.87632 -12.10691,21.36889 0,2.94699 0.34395,6.23844 1.23748,9.9764 0.1531,0.54806 87.96326,328.45569 89.40487,333.73732 3.89105,4.38859 15.30905,15.79384 26.01263,12.75754 l 149.0081,-41.0155 149.0081,41.0155 c 10.75461,3.0363 22.12158,-8.36895 26.01263,-12.75754 1.39057,-5.28163 89.25177,-333.18875 89.45589,-333.73732 0.842,-3.73796 1.23748,-7.02941 1.23748,-9.9764 0,-14.49257 -9.12164,-19.97832 -12.15794,-21.36889 -1.64572,-0.446 -117.4587,-32.74861 -117.4587,-32.74861 l 0,-9.56816 c 0,-7.97346 -2.58978,-13.40818 -8.17758,-17.13338 -3.98035,-2.65357 -8.16483,-3.59762 -9.56816,-3.84002 l -236.70345,0 z"
     inkscape:connector-curvature="0"
     id="path328"
     style="fill:#000000;fill-opacity:1;fill-rule:nonzero;stroke:none" />
  <path
     d="m 438.68087,81.53345 0,323.82471 c 0,0 -2.79391,20.97341 -19.58283,20.97341 l -90.8975,0 121.69421,33.59061 c 0,0 6.97837,3.49556 10.46118,-4.18448 l 89.55795,-332.24469 c 0,0 3.48281,-10.46118 -4.93717,-13.25509 L 438.68087,81.53345 z M 55.11258,110.93959 c -8.41998,2.78114 -4.88614,13.25509 -4.88614,13.25509 l 89.50692,332.24469 c 3.48281,7.66728 10.51222,4.18447 10.51222,4.18447 l 121.6942,-33.53958 -90.94852,0 c -16.78893,0 -19.58283,-21.03719 -19.58283,-21.03719 l 0,-323.81195 -106.29585,28.70447 z m 127.97091,-60.85348 234.31779,0 c 4.88614,0 5.58781,6.27671 5.58781,6.27671 l 0,348.29368 c 0,5.5878 -5.58781,6.97838 -5.58781,6.97838 l -234.31779,0 c -4.88614,0 -4.88614,-6.97838 -4.88614,-6.97838 l 0,-348.29368 c 0,-4.18447 4.88614,-6.27671 4.88614,-6.27671"
     inkscape:connector-curvature="0"
     id="path330"
     style="fill:#626e77;fill-opacity:1;fill-rule:nonzero;stroke:none" />
  <g
     transform="matrix(12.757543,0,0,-12.757543,-1418.4857,6426.2675)"
     id="g332">
    <path
       d="m 125.645,499.398 c -0.051,-0.035 -0.09,-0.074 -0.09,-0.093 l 0,0 0,-27.297 c 0,-0.063 0.023,-0.153 -0.012,-0.153 l 0,0 18.293,0 c 0.051,0.024 0.109,0.063 0.109,0.149 l 0,0 0,27.254 c -0.007,0.054 -0.035,0.129 -0.039,0.14 l 0,0 -18.261,0 z m 20.328,-27.503 c -0.094,-0.688 -0.618,-1.993 -1.934,-1.993 l 0,0 -4.18,0 6.766,-1.871 c 0.016,-0.004 0.063,-0.019 0.113,-0.019 l 0,0 c 0.035,0 0.102,0 0.149,0.093 l 0,0 7.023,26.063 c 0.016,0.043 0.137,0.449 -0.105,0.527 l 0,0 -7.828,2.114 -0.004,-24.914 z m -30.34,22.753 c -0.266,-0.089 -0.145,-0.492 -0.121,-0.558 l 0,0 6.992,-25.977 c 0.07,-0.156 0.141,-0.156 0.176,-0.156 l 0,0 c 0.047,0 0.097,0.016 0.175,0.047 l 0,0 6.696,1.844 -4.176,0 c -1.316,0 -1.84,1.304 -1.934,2.047 l 0,0 0,24.859 -7.808,-2.106 z"
       inkscape:connector-curvature="0"
       id="path342"
       style="fill:url(#radialGradient3019);fill-opacity:1;fill-rule:nonzero;stroke:none" />
  </g>
</svg>
