<?xml version="1.0" encoding="UTF-8" standalone="no"?>
<!-- Created with Inkscape (http://www.inkscape.org/) -->

<svg
   xmlns:dc="http://purl.org/dc/elements/1.1/"
   xmlns:cc="http://creativecommons.org/ns#"
   xmlns:rdf="http://www.w3.org/1999/02/22-rdf-syntax-ns#"
   xmlns:svg="http://www.w3.org/2000/svg"
   xmlns="http://www.w3.org/2000/svg"
   xmlns:xlink="http://www.w3.org/1999/xlink"
   xmlns:inkscape="http://www.inkscape.org/namespaces/inkscape"
   version="1.1"
   width="600"
   height="608"
   id="svg2"
   xml:space="preserve"><metadata
     id="metadata8"><rdf:RDF><cc:Work
         rdf:about=""><dc:format>image/svg+xml</dc:format><dc:type
           rdf:resource="http://purl.org/dc/dcmitype/StillImage" /><dc:title /></cc:Work></rdf:RDF></metadata><defs
     id="defs6"><clipPath
       id="clipPath16"><path
         d="M 0,304 300,304 300,0 0,0 0,304 z"
         inkscape:connector-curvature="0"
         id="path18" /></clipPath><linearGradient
       x1="0"
       y1="0"
       x2="1"
       y2="0"
       id="linearGradient36"
       gradientUnits="userSpaceOnUse"
       gradientTransform="matrix(286.38379,0,0,-286.38379,6.8085937,143.83398)"
       spreadMethod="pad"><stop
         id="stop38"
         style="stop-color:#bf331c;stop-opacity:1"
         offset="0" /><stop
         id="stop40"
         style="stop-color:#f6971d;stop-opacity:1"
         offset="0.39999399" /><stop
         id="stop42"
         style="stop-color:#bf331c;stop-opacity:1"
         offset="1" /></linearGradient><clipPath
       id="clipPath50"><path
         d="M 0,304 300,304 300,0 0,0 0,304 z"
         inkscape:connector-curvature="0"
         id="path52" /></clipPath><linearGradient
       x1="0"
       y1="0"
       x2="1"
       y2="0"
       id="linearGradient3015"
       xlink:href="#linearGradient36"
       gradientUnits="userSpaceOnUse"
       gradientTransform="matrix(286.38379,0,0,-286.38379,6.8085937,143.83398)"
       spreadMethod="pad" /><linearGradient
       x1="0"
       y1="0"
       x2="1"
       y2="0"
       id="linearGradient3023"
       xlink:href="#linearGradient36"
       gradientUnits="userSpaceOnUse"
       gradientTransform="matrix(286.38379,0,0,-286.38379,6.8085937,143.83398)"
       spreadMethod="pad" /><linearGradient
       x1="0"
       y1="0"
       x2="1"
       y2="0"
       id="linearGradient3028"
       xlink:href="#linearGradient36"
       gradientUnits="userSpaceOnUse"
       gradientTransform="matrix(286.38379,0,0,-286.38379,6.8085937,143.83398)"
       spreadMethod="pad" /><linearGradient
       x1="0"
       y1="0"
       x2="1"
       y2="0"
       id="linearGradient3031"
       xlink:href="#linearGradient36"
       gradientUnits="userSpaceOnUse"
       gradientTransform="matrix(286.38379,0,0,-286.38379,6.8085937,143.83398)"
       spreadMethod="pad" /><linearGradient
       x1="0"
       y1="0"
       x2="1"
       y2="0"
       id="linearGradient3000"
       xlink:href="#linearGradient36"
       gradientUnits="userSpaceOnUse"
       gradientTransform="matrix(572.76758,0,0,572.76758,13.617387,320.33204)"
       spreadMethod="pad" /></defs><path
     d="m 332.842,0 0,54.546 0,163.592 0,14.03 12.758,5.854 c 38.802,17.806 63.872,56.844 63.872,99.454 0,60.324 -49.108,109.402 -109.472,109.402 -60.364,0 -109.472,-49.078 -109.472,-109.402 0,-42.61 25.072,-81.648 63.87,-99.454 l 12.76,-5.854 0,-14.03 0,-163.592 L 267.158,0 229.44,39.426 11.406,267.324 0,279.248 l 8.332,14.24 c 29.098,49.74 45.126,111.986 45.126,175.272 0,38.492 -5.574,75.778 -16.562,110.816 L 27.982,608 l 29.808,0 484.422,0 29.802,0 -8.91,-28.424 c -10.99,-35.042 -16.56,-72.328 -16.56,-110.816 0,-63.286 16.024,-125.532 45.126,-175.272 L 600,279.248 588.592,267.324 370.562,39.426 332.842,0 z m 21.894,54.546 218.032,227.9 c -29.928,51.156 -48.12,115.892 -48.12,186.314 0,41.652 6.262,81.316 17.564,117.36 l -484.422,0 C 69.092,550.076 75.352,510.412 75.352,468.76 75.352,398.338 57.16,333.602 27.23,282.446 l 218.034,-227.9 0,163.592 c -45.214,20.748 -76.63,66.362 -76.63,119.338 0,72.508 58.816,131.284 131.366,131.284 72.552,0 131.368,-58.776 131.368,-131.284 0,-52.976 -31.418,-98.592 -76.632,-119.338 l 0,-163.592"
     inkscape:connector-curvature="0"
     id="path22"
     style="fill:#ffffff;fill-opacity:1;fill-rule:nonzero;stroke:none" /><path
     d="m 354.7362,218.138 c 45.214,20.746 76.63,66.362 76.63,119.338 l 0,0 c 0,72.508 -58.812,131.284 -131.366,131.284 l 0,0 c -72.55,0 -131.368,-58.776 -131.368,-131.284 l 0,0 c 0,-52.976 31.418,-98.59 76.632,-119.338 l 0,0 0,-163.592 -218.034,227.898 c 29.93,51.156 48.122,115.894 48.122,186.316 l 0,0 c 0,41.652 -6.26,81.316 -17.562,117.36 l 0,0 484.42,0 c -11.3,-36.044 -17.562,-75.708 -17.562,-117.36 l 0,0 c 0,-70.422 18.192,-135.16 48.12,-186.316 l 0,0 -218.032,-227.898 0,163.592 z"
     inkscape:connector-curvature="0"
     id="path44"
     style="fill:url(#linearGradient3000);stroke:none" /><path
     d="m 431.3674,337.4766 c 0,72.508 -58.814,131.284 -131.368,131.284 -72.55,0 -131.366,-58.776 -131.366,-131.284 0,-52.976 31.418,-98.59 76.63,-119.338 l 0,-163.592 -218.032,227.898 c 29.928,51.156 48.12,115.894 48.12,186.316 0,41.652 -6.26,81.316 -17.562,117.358 l 484.422,0 c -11.302,-36.042 -17.562,-75.706 -17.562,-117.358 0,-70.422 18.19,-135.16 48.118,-186.316 l -218.03,-227.898 0,163.592 c 45.212,20.746 76.63,66.362 76.63,119.338 z"
     inkscape:connector-curvature="0"
     id="path56"
     style="fill:none;stroke:#ffffff;stroke-width:15;stroke-linecap:butt;stroke-linejoin:miter;stroke-miterlimit:4;stroke-opacity:1;stroke-dasharray:none" /></svg>