<?xml version="1.0" encoding="UTF-8" standalone="no"?>
<!-- Created with Inkscape (http://www.inkscape.org/) -->

<svg
   xmlns:dc="http://purl.org/dc/elements/1.1/"
   xmlns:cc="http://creativecommons.org/ns#"
   xmlns:rdf="http://www.w3.org/1999/02/22-rdf-syntax-ns#"
   xmlns:svg="http://www.w3.org/2000/svg"
   xmlns="http://www.w3.org/2000/svg"
   xmlns:xlink="http://www.w3.org/1999/xlink"
   xmlns:sodipodi="http://sodipodi.sourceforge.net/DTD/sodipodi-0.dtd"
   xmlns:inkscape="http://www.inkscape.org/namespaces/inkscape"
   version="1.1"
   width="600"
   height="436.15826"
   viewBox="0 0 600.00002 436.15827"
   id="Layer_1"
   xml:space="preserve"
   inkscape:version="0.48.4 r9939"
   sodipodi:docname="B1912 - Dragon's Maze - Mythic Rare.svg"
   inkscape:export-filename="DGM_M.png"
   inkscape:export-xdpi="92.856201"
   inkscape:export-ydpi="92.856201"><sodipodi:namedview
   pagecolor="#ffffff"
   bordercolor="#666666"
   borderopacity="1"
   objecttolerance="10"
   gridtolerance="10"
   guidetolerance="10"
   inkscape:pageopacity="0"
   inkscape:pageshadow="2"
   inkscape:window-width="640"
   inkscape:window-height="480"
   id="namedview7"
   showgrid="false"
   inkscape:zoom="0.5"
   inkscape:cx="197.41874"
   inkscape:cy="177.58909"
   inkscape:current-layer="Layer_1"
   fit-margin-top="0"
   fit-margin-left="0"
   fit-margin-right="0"
   fit-margin-bottom="0"
   inkscape:window-x="239"
   inkscape:window-y="102"
   inkscape:window-maximized="0" /><metadata
   id="metadata13"><rdf:RDF><cc:Work
       rdf:about=""><dc:format>image/svg+xml</dc:format><dc:type
         rdf:resource="http://purl.org/dc/dcmitype/StillImage" /><dc:title /></cc:Work></rdf:RDF></metadata><defs
   id="defs11"><linearGradient
   id="linearGradient3932"><stop
     offset="0"
     id="stop3934"
     style="stop-color:#bb2c26;stop-opacity:1" /><stop
     id="stop3948"
     offset="0.30000001"
     style="stop-color:#bb2c26;stop-opacity:1" /><stop
     id="stop3946"
     offset="0.40000001"
     style="stop-color:#e07823;stop-opacity:1" /><stop
     id="stop3944"
     offset="0.5"
     style="stop-color:#f7981d;stop-opacity:1" /><stop
     id="stop3942"
     offset="0.60000002"
     style="stop-color:#e07823;stop-opacity:1" /><stop
     id="stop3940"
     offset="0.69999999"
     style="stop-color:#bb2c26;stop-opacity:1" /><stop
     offset="1"
     id="stop3936"
     style="stop-color:#bb2c26;stop-opacity:1" /></linearGradient>
	
	
<linearGradient
   inkscape:collect="always"
   xlink:href="#linearGradient3932"
   id="linearGradient3938"
   x1="26.529333"
   y1="226.80684"
   x2="571.91797"
   y2="226.80684"
   gradientUnits="userSpaceOnUse" /><linearGradient
   gradientTransform="translate(-69.733345,670.31456)"
   inkscape:collect="always"
   xlink:href="#linearGradient3932-7"
   id="linearGradient3938-1"
   x1="26.529333"
   y1="226.80684"
   x2="571.91797"
   y2="226.80684"
   gradientUnits="userSpaceOnUse" /><linearGradient
   id="linearGradient3932-7"><stop
     offset="0"
     id="stop3934-4"
     style="stop-color:#bb2c26;stop-opacity:1" /><stop
     id="stop3948-0"
     offset="0.30000001"
     style="stop-color:#bb2c26;stop-opacity:1" /><stop
     id="stop3946-9"
     offset="0.40000001"
     style="stop-color:#e07823;stop-opacity:1" /><stop
     id="stop3944-4"
     offset="0.5"
     style="stop-color:#f7981d;stop-opacity:1" /><stop
     id="stop3942-8"
     offset="0.60000002"
     style="stop-color:#e07823;stop-opacity:1" /><stop
     id="stop3940-8"
     offset="0.69999999"
     style="stop-color:#bb2c26;stop-opacity:1" /><stop
     offset="1"
     id="stop3936-2"
     style="stop-color:#bb2c26;stop-opacity:1" /></linearGradient><linearGradient
   inkscape:collect="always"
   xlink:href="#linearGradient3932-7"
   id="linearGradient3083"
   gradientUnits="userSpaceOnUse"
   gradientTransform="translate(-0.014595,0.00205925)"
   x1="26.529333"
   y1="226.80684"
   x2="571.91797"
   y2="226.80684" /></defs>
<path
   d="m 600.00002,436.15827 c -43.93946,0 -86.50936,0 -134.95006,0 10.9914,-55.0879 -3.8121,-108.13452 -24.90514,-149.8408 -18.33646,35.47782 -37.03058,79.07706 -8.30462,149.8408 -30.10424,0 -178.89824,0 -267.48376,0 20.08113,-41.35736 24.91386,-87.7219 -4.50124,-149.8408 -22.48877,33.74186 -38.74908,100.8767 -27.33022,149.8408 -26.29215,0 -67.82397,0 -132.52498,0 21.930476,-39.21142 157.43883,-294.29931 187.54308,-351.393574 25.26278,0 40.83396,0.17446 59.51062,0.17446 51.90388,-84.9391603493825 0,0 51.90388,-84.9391603493825 C 304.61902,9.9882257 348.95976,83.395136 348.95976,83.395136 c 0,0 0,0 61.4123,0 C 475.31732,204.01275 537.04368,321.27189 600.00002,436.15827 z M 303.29308,269.51631 c 0,-38.56588 1.75338,-89.35317 -4.32678,-106.80857 -5.70506,17.63859 -4.38784,66.42823 -4.38784,106.81729 -18.6854,2.17212 -33.18358,18.0486 -33.18358,37.30972 0,20.7441 16.82732,37.57142 37.57142,37.57142 20.75282,0 37.57142,-16.82732 37.57142,-37.57142 -0.008,-19.26986 -14.5418,-35.16378 -33.24464,-37.31844 z"
   inkscape:connector-curvature="0"
   id="path5"
   style="fill:#ffffff;fill-opacity:1" /><path
   style="fill:url(#linearGradient3083);fill-opacity:1;fill-rule:evenodd;stroke:none;stroke-width:12;marker-end:none"
   d="m 290.125,64.874998 -25.65625,42.531252 -1.75,2.90625 -3.375,0 -26.90625,0 L 272.34375,170.75 290.125,64.874998 z m 17.90625,0.4375 L 325.75,171.25 l 40.59375,-60.9375 -29.3125,0 -3.5,0 -1.75,-3.03125 -23.75,-41.968752 z M 189.625,135.4375 42.53125,409.75 l 61.75,0 c -2.91847,-68.0598 21.59347,-122.34215 50,-160.46875 14.64911,-19.6617 30.32739,-35.10967 43.875,-46.125 9.72213,-7.9049 17.98778,-13.4082 24.71875,-16.78125 l -33.25,-50.9375 z m 219.21875,0 -33.28125,50.9375 c 6.73441,3.37196 14.98715,8.9 24.71875,16.8125 13.5476,11.01519 29.2259,26.43261 43.875,46.09375 28.40653,38.12552 52.91848,92.41295 50,160.46875 l 61.75,0 -147.0625,-274.3125 z m -80.96875,61.25 0.3125,56.25 c 19.54872,10.44877 32.9375,30.96008 32.9375,54.625 0,34.2017 -27.86188,62.0625 -62.0625,62.0625 -34.20172,0 -62.0625,-27.8608 -62.0625,-62.0625 0,-23.49039 13.17935,-43.87854 32.5,-54.40625 L 270,197.125 186.5,284.3125 c 8.45272,15.7461 15.23814,37.48032 18.28125,60.7188 2.88268,22.0133 2.48477,45.0662 -3.78125,64.7187 l 195.21875,0 c -12.51257,-42.9242 -1.53671,-95.57892 15.3125,-125.59375 L 327.875,196.6875 z"
   id="path7-5"
   inkscape:connector-curvature="0" />
</svg>