<?xml version="1.0" encoding="UTF-8" standalone="no"?>
<!-- Created with Inkscape (http://www.inkscape.org/) -->

<svg
   xmlns:dc="http://purl.org/dc/elements/1.1/"
   xmlns:cc="http://creativecommons.org/ns#"
   xmlns:rdf="http://www.w3.org/1999/02/22-rdf-syntax-ns#"
   xmlns:svg="http://www.w3.org/2000/svg"
   xmlns="http://www.w3.org/2000/svg"
   xmlns:xlink="http://www.w3.org/1999/xlink"
   xmlns:inkscape="http://www.inkscape.org/namespaces/inkscape"
   version="1.1"
   width="600"
   height="451.11978"
   viewBox="0 0 600.00001 451.11978"
   id="PC2"
   xml:space="preserve"><metadata
   id="metadata36"><rdf:RDF><cc:Work
       rdf:about=""><dc:format>image/svg+xml</dc:format><dc:type
         rdf:resource="http://purl.org/dc/dcmitype/StillImage" /></cc:Work></rdf:RDF></metadata><defs
   id="defs34"><linearGradient
   x1="28.916"
   y1="238.82809"
   x2="261.78531"
   y2="106.3673"
   id="linearGradient3028"
   xlink:href="#SVGID_1_"
   gradientUnits="userSpaceOnUse"
   gradientTransform="translate(-360,0)" />
	<linearGradient
   x1="28.916"
   y1="238.82809"
   x2="261.78531"
   y2="106.3673"
   id="SVGID_1_"
   gradientUnits="userSpaceOnUse">
		<stop
   id="stop8"
   style="stop-color:#8f743f;stop-opacity:1"
   offset="0" />
		<stop
   id="stop10"
   style="stop-color:#957a44;stop-opacity:1"
   offset="0.1081" />
		<stop
   id="stop12"
   style="stop-color:#a48a52;stop-opacity:1"
   offset="0.24950001" />
		<stop
   id="stop14"
   style="stop-color:#bea569;stop-opacity:1"
   offset="0.40939999" />
		<stop
   id="stop16"
   style="stop-color:#e2cb89;stop-opacity:1"
   offset="0.58179998" />
		<stop
   id="stop18"
   style="stop-color:#ebd491;stop-opacity:1"
   offset="0.62" />
		<stop
   id="stop20"
   style="stop-color:#e6ce8c;stop-opacity:1"
   offset="0.63789999" />
		<stop
   id="stop22"
   style="stop-color:#b79e63;stop-opacity:1"
   offset="0.80320001" />
		<stop
   id="stop24"
   style="stop-color:#9a7f49;stop-opacity:1"
   offset="0.92909998" />
		<stop
   id="stop26"
   style="stop-color:#8f743f;stop-opacity:1"
   offset="1" />
	</linearGradient>
	
	
<linearGradient
   x1="28.916"
   y1="238.82809"
   x2="261.78531"
   y2="106.3673"
   id="linearGradient3011"
   xlink:href="#SVGID_1_"
   gradientUnits="userSpaceOnUse"
   gradientTransform="matrix(2.0000058,0,0,2.0000058,-0.001398,-76.287719)" /></defs>
<path
   d="m 540.45218,451.1118 -39.71012,-25.41007 c -44.95413,-54.23016 -119.80034,-87.17425 -200.73858,-87.17425 -80.94023,0 -155.78844,32.94409 -200.740574,87.17625 L 59.538792,451.1198 C 54.110776,282.66532 173.62112,184.03903 300.00148,184.03903 c 127.62437,0 245.96471,99.93829 240.4507,267.07277 z M 594.05033,330.68545 C 613.36639,242.2192 585.58431,148.17693 511.65209,80.458731 394.56176,-26.805579 205.47121,-26.833579 88.350875,80.458731 14.846662,147.78893 -13.481419,241.6852 5.9526368,330.68545 l 22.1780642,35.1501 17.974052,-29.96008 C 66.896813,270.15328 109.22693,223.46715 167.9871,187.96104 c -7.16602,-46.88213 0.38601,2.52201 -6.53201,-42.72612 37.3061,27.10008 29.87808,21.70806 38.30611,27.82608 33.15809,-11.96403 48.65214,-14.87604 79.45822,-18.16805 4.30002,-10.30803 0.68601,-1.64801 20.78206,-49.78615 18.79406,45.02013 16.11805,38.61212 20.78206,49.78615 30.80409,3.29201 46.13014,6.14202 79.45823,18.16805 8.37403,-6.08002 1.06401,-0.77 38.30611,-27.82608 -6.91602,45.24013 0.63201,-4.15201 -6.53202,42.72612 58.75617,35.50211 101.0883,82.18624 121.88236,147.91443 l 17.97405,29.96008 22.17806,-35.1501 z"
   inkscape:connector-curvature="0"
   id="path3"
   style="fill:#ffffff" />
<path
   d="M 524.21412,428.63775 C 477.73399,362.48755 392.48574,321.64544 299.99947,321.64544 c -92.48227,0 -177.73051,40.84211 -224.210648,106.98631 -0.354001,-60.07818 22.188064,-116.53034 63.856188,-159.55847 42.55612,-43.95012 99.50629,-68.1522 160.35646,-68.1522 60.87818,0 117.84234,24.22008 160.39847,68.2042 41.68212,43.07613 64.20818,99.51029 63.81418,159.51247 z M 573.54227,343.0315 C 555.86021,275.8673 511.33608,216.57313 450.40791,179.35502 l 10.93803,-71.55221 -63.79219,46.34014 c -20.96406,-7.47402 -42.83412,-12.51204 -65.04218,-14.97604 l -32.5121,-77.88823 -32.51209,77.88623 c -22.20807,2.464 -44.07613,7.50202 -65.04219,14.97604 L 138.653,107.80081 149.59104,179.35302 C 88.660859,216.57113 44.13673,275.8653 26.456679,343.0295 20.11266,321.25743 16.900651,298.77537 16.900651,276.0933 16.898651,133.19689 143.89702,16.940551 299.99947,16.940551 c 156.10245,0 283.10082,116.256339 283.10082,259.154749 0,22.68207 -3.21401,45.16413 -9.55802,66.9362 z"
   inkscape:connector-curvature="0"
   id="path28"
   style="fill:url(#linearGradient3011)" /><path
   d="m 299.99947,18.940557 c 75.15022,0 145.78842,26.792078 198.89458,75.440219 53.01215,48.558144 82.20624,113.092324 82.20624,181.714524 0,20.09006 -2.54201,40.02212 -7.56602,59.43618 C 554.66621,271.17129 511.25408,214.56912 452.58591,178.34502 l 10.01203,-65.50619 1.45001,-9.47003 -7.75402,5.63002 -59.06418,42.90612 c -20.43806,-7.20402 -41.71612,-12.11003 -63.32418,-14.59604 l -30.21209,-72.380209 -3.69401,-8.842026 -3.69201,8.844026 -30.21209,72.380209 c -21.60806,2.48601 -42.88612,7.39202 -63.32418,14.59604 l -59.06417,-42.90612 -7.75402,-5.63002 1.45,9.47003 10.01203,65.50619 C 88.746859,214.56912 45.334733,271.17329 26.466679,335.53348 21.440664,316.11942 18.900657,296.18736 18.900657,276.0973 c 0,-68.6242 29.194084,-133.15638 82.206243,-181.714524 53.10415,-48.650141 123.74235,-75.442219 198.89257,-75.442219 m 0,183.980533 c 60.33218,0 116.78634,24.00607 158.96046,67.5942 39.87412,41.20812 62.06018,94.74827 63.21019,151.89844 -47.57814,-63.68419 -131.43038,-102.7683 -222.17265,-102.7683 -90.73826,0 -174.5865,39.08011 -222.166642,102.7563 1.188003,-57.22017 23.388072,-110.77632 63.248182,-151.93844 42.17812,-43.55613 98.61629,-67.5422 158.92046,-67.5422 m 0,-187.980544 c -157.45845,0 -285.100825,116.922334 -285.100825,261.154754 0,25.85208 4.122012,50.82015 11.762034,74.40622 C 43.372728,278.92731 89.344861,218.09513 151.76904,180.37103 l -10.41403,-68.1342 60.77218,44.14613 c 21.16006,-7.63403 43.52612,-12.87604 66.75219,-15.35805 l 31.12009,-74.554215 31.12209,74.554215 c 23.22607,2.48201 45.59213,7.72202 66.7522,15.35805 l 60.77217,-44.14613 -10.41403,68.1342 c 62.42418,37.7241 108.39432,98.55628 125.10836,170.13049 7.64003,-23.58607 11.76204,-48.55414 11.76204,-74.40622 C 585.1003,131.86288 457.45793,14.940546 299.99947,14.940546 l 0,0 z m 0,183.980534 c -127.22637,0 -230.272666,106.15231 -226.092654,236.02868 43.694124,-66.31819 128.554374,-111.30232 226.092654,-111.30232 97.53628,0 182.39653,44.98413 226.09066,111.30232 4.26201,-129.36037 -98.46429,-236.02868 -226.09066,-236.02868 l 0,0 z"
   inkscape:connector-curvature="0"
   id="path30"
   style="fill:#ffffff;fill-opacity:1" />
</svg>