<?xml version="1.0" encoding="UTF-8" standalone="no"?>
<!-- Created with Inkscape (http://www.inkscape.org/) -->

<svg
   xmlns:dc="http://purl.org/dc/elements/1.1/"
   xmlns:cc="http://creativecommons.org/ns#"
   xmlns:rdf="http://www.w3.org/1999/02/22-rdf-syntax-ns#"
   xmlns:svg="http://www.w3.org/2000/svg"
   xmlns="http://www.w3.org/2000/svg"
   xmlns:xlink="http://www.w3.org/1999/xlink"
   xmlns:inkscape="http://www.inkscape.org/namespaces/inkscape"
   version="1.1"
   width="600"
   height="474.91064"
   id="svg4422">
  <defs
     id="defs4424">
    <radialGradient
       cx="0"
       cy="0"
       r="1"
       fx="0"
       fy="0"
       id="radialGradient326"
       gradientUnits="userSpaceOnUse"
       gradientTransform="matrix(17.89679,0,0,-17.89679,746.04492,481.54248)"
       spreadMethod="pad">
      <stop
         id="stop328"
         style="stop-color:#d7bd74;stop-opacity:1"
         offset="0" />
      <stop
         id="stop330"
         style="stop-color:#b39a54;stop-opacity:1"
         offset="0.69101" />
      <stop
         id="stop332"
         style="stop-color:#8d742f;stop-opacity:1"
         offset="1" />
    </radialGradient>
    <radialGradient
       cx="0"
       cy="0"
       r="1"
       fx="0"
       fy="0"
       id="radialGradient2995"
       xlink:href="#radialGradient326"
       gradientUnits="userSpaceOnUse"
       gradientTransform="matrix(17.89679,0,0,-17.89679,746.04492,481.54248)"
       spreadMethod="pad" />
    <radialGradient
       cx="0"
       cy="0"
       r="1"
       fx="0"
       fy="0"
       id="radialGradient2998"
       xlink:href="#radialGradient326"
       gradientUnits="userSpaceOnUse"
       gradientTransform="matrix(212.48419,0,0,212.48419,323.46037,247.38688)"
       spreadMethod="pad" />
  </defs>
  <metadata
     id="metadata4427">
    <rdf:RDF>
      <cc:Work
         rdf:about="">
        <dc:format>image/svg+xml</dc:format>
        <dc:type
           rdf:resource="http://purl.org/dc/dcmitype/StillImage" />
        <dc:title />
      </cc:Work>
    </rdf:RDF>
  </metadata>
  <path
     d="m 555.60929,64.7426 c 0,0 -26.07257,40.48609 -104.31402,81.20964 -86.49302,45.03336 -135.42064,39.51253 -151.74567,37.42292 -22.26142,-2.8732 -34.13417,0.28495 -39.22759,2.42205 -3.47871,1.48409 -32.00894,14.60348 -38.96638,43.16933 -8.29905,34.13417 -11.02978,60.28985 -11.21975,61.69083 -0.92607,7.50358 -1.53158,14.33042 -1.85215,19.88687 0,0 -0.55849,24.58847 -21.94085,34.32413 C 98.828808,384.57086 51.242808,389.99671 50.554189,390.0442 L 0,394.62708 l 41.732732,28.8508 c 1.306003,0.92607 33.49304,22.62947 71.616458,9.17764 18.7352,-6.625 26.89179,-3.75179 28.9339,-2.68325 0,0 16.65747,6.25695 27.46168,44.93838 0,0 4.40479,-41.69711 13.53494,-52.31136 5.10529,-7.27799 15.81451,-14.61536 30.75043,-20.96728 l 0.36854,-0.13108 0.37992,-0.18996 c 10.47177,-4.91532 24.01859,-8.90457 29.07638,-8.63149 26.76119,19.57817 107.50779,56.49056 159.30862,-8.7621 l 12.79883,-16.13507 -17.48857,-10.89919 c -3.24126,-2.04211 -8.85707,-6.07885 -14.50851,-11.31473 36.9124,-3.71617 93.26049,-27.46168 155.49747,-118.35949 l 17.2986,-25.2296 c 0,0 -5.47334,-0.60504 -9.64067,-1.06855 7.56294,-10.66174 52.82188,-77.49347 52.82188,-140.43094 0,0 1.4366,-31.30846 -10.0681,-60.47981 0,0 -9.78314,33.9442 -34.26476,64.74213"
     inkscape:connector-curvature="0"
     id="path320"
     style="fill:#000000;fill-opacity:1;fill-rule:nonzero;stroke:none" />
  <path
     d="m 239.21226,233.28822 c -8.15659,33.52866 -10.80421,59.31629 -10.80421,59.31629 -2.2677,17.66665 -2.2677,31.8071 -2.2677,31.8071 92.70247,-48.97511 236.94457,-163.93899 236.94457,-163.93899 -92.01385,49.75871 -146.04676,43.63237 -165.898,41.0916 -19.5663,-2.50515 -28.05532,0.46257 -29.82436,1.15166 0,0 -23.14,10.0681 -28.1503,30.57234 m -75.13079,196.90964 c -6.16196,-20.12432 -27.12925,-25.36021 -56.85862,-14.84095 -29.729382,10.48365 -55.101458,-6.99305 -55.101458,-6.99305 0,0 104.907658,-8.77396 292.046018,-131.15832 C 531.30576,154.76183 581.575,58.1651 581.575,58.1651 c 1.30601,62.51005 -50.26924,133.33103 -50.26924,133.33103 -24.49349,0 -53.33241,16.59811 -53.33241,16.59811 14.84094,5.24776 46.32749,8.77396 46.32749,8.77396 -98.78132,144.27772 -176.60723,106.66483 -176.60723,106.66483 7.00493,27.97221 41.09161,48.97511 41.09161,48.97511 -47.26544,59.45876 -124.1534,13.08378 -135.51562,4.3573 -11.36223,-8.76209 -46.37498,7.88351 -46.37498,7.88351 -22.49887,9.51008 -33.20809,19.57817 -38.77642,27.50917 -4.82034,6.81497 -4.03673,17.93974 -4.03673,17.93974"
     inkscape:connector-curvature="0"
     id="path322"
     style="fill:#8d742f;fill-opacity:1;fill-rule:nonzero;stroke:none" />
  <path
     d="M 347.40867,282.16788 C 206.24162,374.54978 112.13817,402.55761 73.041185,410.86854 l 0,0 c 4.30981,1.10416 9.225131,1.89964 14.56787,1.89964 l 0,0 c 6.031359,0 11.967737,-1.02106 17.619165,-3.01568 l 0,0 c 10.57863,-3.71617 20.26679,-5.61581 28.80331,-5.61581 l 0,0 c 11.12477,0 20.2193,3.25313 26.71369,9.3676 l 0,0 c 0.653,-1.62657 1.4841,-3.19377 2.50515,-4.67787 l 0,0 c 7.931,-11.36222 21.89336,-21.28785 41.1391,-29.4563 l 0,0 c 0.92607,-0.46304 23.28247,-10.99417 39.18009,-10.99417 l 0,0 c 5.56832,0 10.0206,1.306 13.27374,3.76366 l 0,0 c 8.20407,6.30443 38.81203,24.25604 70.8566,24.25604 l 0,0 c 20.82481,0 38.36087,-7.65793 52.27573,-22.72445 l 0,0 c -10.53113,-7.56295 -32.32951,-25.69264 -38.07592,-48.70204 l 0,0 -2.96819,-12.09834 11.31474,5.28338 c 0.0475,0.095 8.34654,3.84677 22.53448,3.84677 l 0,0 c 26.25066,0 78.84697,-13.30936 141.03645,-100.50287 l 0,0 c -10.70922,-1.48409 -27.68726,-4.21482 -37.83846,-7.78852 l 0,0 -12.2052,-4.3573 11.23163,-6.39942 c 1.15166,-0.70049 28.19779,-16.05196 53.14245,-17.2986 l 0,0 c 7.46796,-10.89919 37.93345,-57.51162 45.73385,-104.34964 l 0,0 c -24.67158,34.7753 -88.44015,110.55909 -226.47279,200.86326 m -25.96572,-73.00557 c -11.55219,0 -20.31428,-1.10416 -24.99214,-1.70967 l 0,0 c -4.9272,-0.60552 -9.46259,-0.92608 -13.54682,-0.92608 l 0,0 c -8.63149,0 -12.57324,1.4366 -13.13126,1.66219 l 0,0 c -0.22559,0.0475 -20.58736,9.18951 -24.80219,26.48811 l 0,0 c -7.931,32.74506 -10.62611,58.29523 -10.6736,58.66328 l 0,0 c -1.06855,8.07347 -1.57908,15.39896 -1.85215,20.91979 l 0,0 C 291.80856,281.3724 369.34952,224.70375 416.74555,188.80054 l 0,0 c -34.35975,13.49932 -66.27371,20.36177 -95.3026,20.36177"
     inkscape:connector-curvature="0"
     id="path334"
     style="fill:url(#radialGradient2998);fill-opacity:1;fill-rule:nonzero;stroke:none" />
</svg>
