<?xml version="1.0" encoding="UTF-8" standalone="no"?>
<!-- Created with Inkscape (http://www.inkscape.org/) -->

<svg
   xmlns:dc="http://purl.org/dc/elements/1.1/"
   xmlns:cc="http://creativecommons.org/ns#"
   xmlns:rdf="http://www.w3.org/1999/02/22-rdf-syntax-ns#"
   xmlns:svg="http://www.w3.org/2000/svg"
   xmlns="http://www.w3.org/2000/svg"
   xmlns:xlink="http://www.w3.org/1999/xlink"
   xmlns:inkscape="http://www.inkscape.org/namespaces/inkscape"
   version="1.1"
   width="600"
   height="600"
   id="svg4176">
  <defs
     id="defs4178">
    <radialGradient
       cx="0"
       cy="0"
       r="1"
       fx="0"
       fy="0"
       id="radialGradient274"
       gradientUnits="userSpaceOnUse"
       gradientTransform="matrix(18.099121,0,0,-18.099121,398.01758,482.37891)"
       spreadMethod="pad">
      <stop
         id="stop276"
         style="stop-color:#b7d1e1;stop-opacity:1"
         offset="0" />
      <stop
         id="stop278"
         style="stop-color:#a0b6c2;stop-opacity:1"
         offset="0.66291797" />
      <stop
         id="stop280"
         style="stop-color:#626e77;stop-opacity:1"
         offset="1" />
    </radialGradient>
    <radialGradient
       cx="0"
       cy="0"
       r="1"
       fx="0"
       fy="0"
       id="radialGradient2995"
       xlink:href="#radialGradient274"
       gradientUnits="userSpaceOnUse"
       gradientTransform="matrix(18.099121,0,0,-18.099121,398.01758,482.37891)"
       spreadMethod="pad" />
    <radialGradient
       cx="0"
       cy="0"
       r="1"
       fx="0"
       fy="0"
       id="radialGradient2998"
       xlink:href="#radialGradient274"
       gradientUnits="userSpaceOnUse"
       gradientTransform="matrix(264.25881,0,0,271.486,299.80348,300.00272)"
       spreadMethod="pad" />
  </defs>
  <metadata
     id="metadata4181">
    <rdf:RDF>
      <cc:Work
         rdf:about="">
        <dc:format>image/svg+xml</dc:format>
        <dc:type
           rdf:resource="http://purl.org/dc/dcmitype/StillImage" />
        <dc:title />
      </cc:Work>
    </rdf:RDF>
  </metadata>
  <path
     d="m 227.85764,108.99147 c 25.43432,7.84498 45.56861,42.35988 80.30354,105.52469 l 1.25565,2.33999 c 2.39451,-1.05 4.84741,-1.815 7.30032,-2.33999 2.45291,-4.85999 5.18323,-8.66998 7.12512,-10.72497 l 2.56971,-2.92499 c 3.65016,-3.80999 7.12511,-8.72998 10.54166,-14.00996 l -6.20527,-4.33499 -8.33697,-5.68498 c -10.95048,-7.61998 -17.27256,-19.79994 -17.44777,-33.6299 l 0.29202,-4.85999 0.56884,-4.27498 0.96364,-4.22999 c 4.21959,-13.70996 14.60064,-26.89492 29.5517,-31.28991 -11.92872,-2.27999 -24.07646,-3.44999 -36.341,-3.44999 -24.86489,0 -49.27717,4.73999 -72.14178,13.88996 m 145.88963,187.13944 c -1.43086,6.26998 -2.96393,11.77497 -4.39479,16.46995 -2.45291,8.38498 -4.27799,14.65496 -4.27799,19.91994 0,3.80999 1.03723,7.96498 3.25594,12.29997 8.49758,16.58995 14.99486,32.5799 20.64531,47.45985 0.23361,0.7656 1.31406,4.22999 1.43086,4.63499 l 0.1612,0.7644 0.1168,0.70559 0.56884,5.84999 0.11681,1.12439 -0.11681,1.11 -0.27683,2.74499 c 1.98569,-1.87499 4.16119,-3.56999 6.6141,-4.97998 2.84712,-1.695 7.92814,-6.26998 12.48355,-10.36497 -0.16003,-2.27999 -0.73004,-6.91498 -2.2193,-14.65496 -8.89179,-29.41491 -20.4117,-57.47983 -34.10711,-83.08475 M 167.23577,452.69984 c 36.66221,33.7499 83.42807,52.19984 132.76365,52.19984 35.30435,0 69.13404,-9.43497 99.41578,-27.47991 -4.84742,-2.74499 -8.38077,-6.20998 -10.95049,-9.37497 -2.00028,-2.52 -3.47495,-5.20499 -4.33639,-8.14498 l -3.65016,-11.12997 c -0.86085,-2.39999 -1.25565,-5.09998 -1.25565,-7.96497 0,-0.5244 0,-1.0044 0,-1.53 -2.39451,3.10499 -5.35844,6.14998 -8.9502,8.96998 l -34.39911,32.5799 -12.93617,11.59496 c -0.58403,0.5844 -1.54767,1.41 -2.56972,2.115 l -3.70856,2.51999 -1.19725,0.7056 -0.35042,-0.3 -12.20614,4.27498 -2.21929,0.8244 -2.39451,-0.3 c -14.93646,-1.81499 -14.93646,-1.81499 -16.36732,-2.39999 -15.7979,-6.73498 -26.57317,-23.36993 -26.86518,-41.47488 -4.27799,-46.76985 -34.50132,-147.89955 -61.48331,-187.27443 -0.78844,0.88439 -1.53307,1.64999 -2.33611,2.35499 0.29202,2.68499 0.39364,6.08998 -0.0584,8.72997 l -1.19725,6.73498 -0.23361,1.05 -0.39363,1.0056 c 0,0.048 -1.76668,4.43998 -2.1025,5.56498 l -0.35041,0.93 -0.57001,1.04999 c -21.44835,37.73989 -32.28202,67.5598 -33.08506,90.94473 12.89237,7.78498 20.93732,22.55993 20.93732,39.37488 0,0.4644 -0.1752,3.40499 -0.23361,3.74999 -0.56884,7.15498 -2.90552,14.11496 -6.71629,20.09994 M 299.99942,600 c -90.6846,0 -176.74079,-43.94987 -231.945822,-118.00465 -1.211853,0.8256 -2.409106,1.635 -3.547956,2.58 l -0.686815,0.52439 -0.730032,0.4044 -6.511887,3.68999 -0.685646,0.42 -0.730032,0.2244 c -4.511599,1.70999 -9.242207,2.63999 -14.031218,2.63999 -12.71716,0 -24.470678,-6.02998 -32.2236196,-16.63495 C 3.1975409,468.1636 0,458.44362 0,448.52865 0,438.92868 2.9201286,429.67371 8.3953698,421.81373 l 0.7884348,-1.16999 1.0944644,-0.93 9.797031,-8.20497 1.03723,-0.8856 1.255655,-0.5844 c 1.708276,-0.8256 3.358148,-1.695 4.949618,-2.75999 C 14.498439,372.94388 7.9865518,336.97399 7.9865518,299.9991 7.9865518,134.5946 138.99812,0 299.99942,0 c 161.01589,0 292.01286,134.5946 292.01286,299.9991 0,32.7599 -5.18323,64.91981 -15.22847,95.68471 3.94217,3.22499 7.86975,6.73498 11.63671,10.84497 l 0.68682,0.75 0.5116,0.8256 c 5.76726,9.08997 6.90611,10.96496 7.12512,12.94496 l 2.2923,8.38497 c 0.62841,2.175 0.96364,4.51499 0.96364,6.91498 0,2.75999 -0.4532,5.56498 -1.47466,8.26498 l -5.02263,13.64995 -0.57001,1.515 -1.70827,2.23499 c -7.98655,10.42497 -20.25109,16.46995 -33.65448,16.46995 -4.62841,0 -9.24221,-0.70559 -13.79761,-2.05499 l -3.54796,-1.35 c -0.90524,-0.34559 -1.70827,-0.76559 -2.51131,-1.10999 C 482.80005,553.06394 394.50996,599.9988 300,599.9988"
     inkscape:connector-curvature="0"
     id="path268"
     style="fill:#000000;fill-opacity:1;fill-rule:nonzero;stroke:none" />
  <path
     d="m 571.36697,424.45553 c -6.94991,-7.49998 -14.30863,-12.94496 -21.49215,-18.22495 -11.24249,-8.36997 -20.99572,-15.52495 -25.1569,-28.24491 -16.81995,-68.4898 -49.21877,-141.73458 -74.08367,-187.72444 -2.11709,-9.14997 -2.74492,-18.86994 -3.25594,-28.30492 0,-0.24 -0.62841,-9.25497 -0.62841,-10.19997 0,-0.86999 0.23361,-4.61998 0.23361,-4.67998 0,-8.50498 -2.39451,-14.35496 -6.96451,-17.98495 -7.81134,-6.16498 -17.73978,-2.41499 -20.92272,-1.18439 -5.08103,1.87499 -10.90668,1.00559 -17.68138,0 0.278,0 -34.0487,-4.03499 -34.0487,-4.03499 0,0 -20.19269,-1.755 -20.19269,-1.755 -8.49757,0 -14.71745,7.49998 -16.93675,14.51996 -0.1168,0.48 -0.23361,0.9456 -0.29201,1.41 l -0.51044,3.34499 c -0.0584,0.52439 -0.1168,1.04999 -0.1168,1.57499 0.1168,5.39998 2.51131,10.13997 6.67249,13.06496 l 8.38077,5.74498 c -0.0584,-0.06 11.3593,7.91998 14.54224,10.13997 4.33639,5.62499 6.33668,10.48497 6.33668,16.04996 l 0,0.24 c -1.02204,1.52999 -2.68652,4.15498 -2.68652,4.15498 -5.98626,9.61497 -11.62211,18.64495 -18.41141,25.66493 -0.35041,0.35999 -2.45291,2.81999 -2.45291,2.81999 -1.88348,1.99499 -5.02262,5.32498 -5.98626,11.24996 -0.0584,0.4644 -0.0584,0.99 -0.0584,1.455 0,5.51998 2.73032,10.66497 6.8915,15.76495 -4.6138,-4.91998 -10.03064,-8.78997 -15.11167,-10.01997 -6.21987,-1.45499 -12.03093,0.4644 -15.68109,5.21999 -0.62724,0.82439 -1.37246,2.15999 -1.70827,3.10499 -1.94189,5.62498 -3.59176,9.01497 -4.90582,11.24996 -0.1168,-0.06 -0.29201,-0.06 -0.40882,-0.12 -3.75236,-6.79498 -17.78358,-31.8149 -17.78358,-31.8149 -36.3848,-66.2098 -54.18299,-95.21972 -71.35334,-94.63472 -27.66822,3.28499 -47.39369,1.815 -76.65338,-1.04999 -0.62841,-0.06 -1.59147,-0.06 -2.2193,0 -10.26425,1.16999 -22.13457,15.58495 -22.13457,24.08992 l 0,1.455 c 0,4.69499 3.35815,8.72997 7.92815,9.37497 l 1.43086,0.18 c 21.33154,2.98499 23.09822,10.54497 23.09822,19.33494 0,0 -0.11681,1.995 -0.17521,3.22499 -5.59205,21.73494 -11.51991,33.6299 -17.11195,43.12487 -0.86086,1.47 -1.53307,3.97499 -1.53307,5.68499 0,7.13998 5.86946,12.88496 12.42515,16.93495 -1.64988,-0.36 -3.41655,-0.9444 -4.90582,-1.0056 -9.57802,-0.4644 -13.6224,5.33998 -14.93646,7.79998 -0.29201,0.52439 -0.68681,1.57499 -0.92042,2.09999 -11.4031,36.85489 -24.572885,74.30978 -41.407427,117.65965 -0.685646,1.16999 -3.41655,5.68498 -3.41655,5.68498 -11.184093,18.62994 -21.667355,36.14989 -42.546275,45.88486 -1.489265,0.7056 -3.372748,2.27999 -4.336391,3.62999 -2.452908,3.56999 -3.766966,7.72498 -3.766966,12.11996 0,4.45499 1.372461,8.78998 3.883772,12.19497 4.453196,5.96998 11.695115,8.20497 18.426011,5.62498 0.90524,-0.3 2.102493,-0.99 2.847126,-1.58999 20.878919,-16.57495 48.13832,-22.54494 83.26747,-18.20995 0.62841,0.06 1.64987,0.108 2.3361,0.06 7.98655,-0.7656 13.85601,-7.49998 14.54224,-16.76995 0.0584,-0.108 0.11681,-1.63499 0.11681,-1.63499 0,-9.67498 -5.24163,-17.33995 -13.05298,-19.33495 -0.46722,-0.12 -0.92042,-0.24 -1.43086,-0.3 -3.59176,-0.34559 -4.6138,-1.39499 -5.47524,-2.86499 -0.17521,-1.99499 -1.08045,-13.46996 -1.08045,-13.46996 0,-28.24491 11.91412,-63.05981 36.50161,-106.28968 0.51044,-0.8856 0.51044,-0.6444 0.73003,-1.64999 l 1.21185,-6.61498 c 0.0467,-0.36 0.0467,-0.5244 0.0467,-0.6444 0,-0.18 -0.10513,-0.18 -0.1612,-0.8856 l -0.23244,-1.34999 c -0.1168,-0.69 -0.3364,-1.455 -0.62841,-2.1 -1.82508,-4.57498 -6.32208,-8.72997 -11.51991,-12.07496 8.55598,1.63499 16.08991,-0.5844 20.64531,-6.14998 l 3.47496,-5.15999 2.4529,-4.21499 1.60607,-2.51999 2.2777,-4.27498 c 0.17521,-0.3 0.39364,-0.8844 0.51044,-1.23 0,0 1.48927,-3.86999 1.59147,-4.04999 1.43087,0.5856 2.80333,1.11 2.80333,1.11 44.25455,21.62993 85.09255,175.13947 89.31213,223.42433 l 0,0.12 c 0,8.20497 4.57,15.98995 11.69512,18.97494 0.0584,0 9.30061,0.6456 9.30061,0.6456 1.98568,0.18 1.25565,-0.108 2.90552,-1.23 l 3.53336,-2.39999 12.71716,-11.47497 35.36276,-33.4049 c 8.73118,-6.38998 10.71687,-15.70495 11.75352,-20.68493 0.16119,-0.7056 0.21959,-1.755 0.21959,-2.7 0,-0.92999 -0.0584,-1.87499 -0.16119,-2.51999 l -0.11681,-0.3456 c -0.0584,-0.4644 -0.1752,-0.7656 -0.40882,-1.16999 -5.30003,-14.06996 -11.4615,-29.23492 -19.55026,-44.93987 -4.00057,-8.20497 -6.00086,-16.10995 -6.00086,-23.90993 0,-9.13497 2.51131,-17.51995 5.43144,-27.23992 3.06613,-10.37996 6.20527,-21.04493 7.24192,-34.27489 0,-0.18 0,-0.42 0,-0.7044 0,-0.8256 -0.0584,-1.815 -0.17521,-2.51999 -1.13885,-5.33999 -4.39479,-10.90497 -8.43917,-15.82496 0.84684,0.8844 1.25565,1.815 2.2193,2.64 0.1168,0.12 1.48926,1.34999 1.48926,1.34999 0.0584,0.06 9.51962,6.08998 9.51962,6.08998 1.37246,0.4644 7.12511,2.055 11.91413,0.6444 0.0584,0 0.1168,-0.06 0.1752,-0.06 -0.0584,0 -0.1168,0.06 -0.1168,0.06 1.13885,-0.36 2.2339,-0.9444 3.25594,-1.69499 1.13885,-0.8256 2.2193,-1.77 3.35815,-2.69999 2.2339,0.34559 4.96422,1.40999 7.98655,6.73497 19.22905,31.63491 35.02694,68.0848 47.05787,108.40468 1.94189,9.71997 2.84713,16.93495 2.84713,22.49993 0,7.66498 -1.82508,10.60497 -3.18294,12.17997 l -3.19754,2.81999 c -6.33668,5.78998 -12.83397,11.71496 -18.30921,14.99995 -2.17549,1.29 -4.21958,3.68999 -4.84741,6.14998 l -0.17521,0.7044 c 0.0584,-0.12 -1.13885,8.02498 -1.13885,8.02498 l 3.70856,11.24996 c 3.59176,4.45499 9.067,6.44998 16.30892,5.90999 1.82508,-0.1644 4.5116,-1.23 5.92786,-2.4 6.10307,-5.03998 14.38164,-9.01497 25.21531,-12.23996 20.3533,-3.74999 38.15149,-3.40499 54.18299,-2.39999 11.75352,1.81499 26.35416,4.43998 40.42918,10.94996 0.40882,0.18 0.80245,0.36 1.15287,0.4644 8.59978,2.57999 16.87834,0.36 21.60895,-5.84998 0.0584,0 3.41655,-10.25997 3.41655,-10.25997 l -2.61351,-9.65997 c -0.40882,-1.53 -0.46722,-1.0056 -1.54767,-2.11499 M 63.36793,379.33446 c 0,0 1.883483,-3.04499 2.74492,-4.51498 4.789011,-12.47997 9.242208,-24.31493 13.520196,-35.9099 -2.117093,-12.65996 -3.489554,-25.60492 -3.489554,-38.90988 0,-45.40486 13.067576,-87.71974 35.245958,-123.38963 -6.38049,-4.22999 -10.60007,-11.60997 -10.60007,-19.81494 l 0,-1.455 c 0,-16.28995 17.95879,-36.26989 34.32611,-38.20488 0,0 5.13943,-0.06 5.13943,-0.06 7.98655,0.81 15.22847,1.45499 22.07617,1.99499 38.03467,-30.58491 85.72038,-49.04985 137.66946,-49.04985 47.6273,0 91.66284,15.46495 127.98924,41.59488 9.24221,-0.4656 16.03151,2.75999 20.3533,6.16498 4.74521,3.74999 10.16205,10.42497 11.87032,21.97493 39.23193,41.41488 63.5858,97.90471 63.5858,160.24452 0,7.43998 -0.3948,14.81996 -1.08044,22.09493 5.76725,17.03995 10.89208,34.3949 15.11166,51.43485 2.1755,6.50998 7.02291,11.14497 14.83425,17.11495 9.63643,-28.40992 14.99487,-58.88983 14.99487,-90.64473 0,-151.63455 -120.1049,-274.97918 -267.659,-274.97918 -147.5395,0 -267.658987,123.34463 -267.658987,274.97918 0,35.03989 6.453484,68.44479 18.133999,99.3147 4.511598,-6.02998 8.555977,-12.76496 12.892368,-19.97994 m 444.06396,75.70477 c 3.82537,0.6444 7.81135,1.35 11.92873,2.22 -48.43034,71.08478 -128.73387,117.71964 -219.36007,117.71964 -88.29009,0 -166.71014,-44.17486 -215.476288,-112.09466 13.359588,-3.68999 28.748668,-4.43999 46.663658,-2.27999 -0.11681,0 5.30003,0.12 5.30003,0.12 1.08045,-0.12 2.11709,-0.4044 3.19754,-0.6444 40.66279,43.06487 97.4739,69.89979 160.31506,69.89979 64.62245,0 122.68921,-28.46992 163.57101,-73.58978 16.14831,-2.27999 30.63215,-2.11499 43.86033,-1.35"
     inkscape:connector-curvature="0"
     id="path270"
     style="fill:#626e77;fill-opacity:1;fill-rule:nonzero;stroke:none" />
  <path
     d="m 39.640746,300.00138 c 0,28.30492 4.336391,56.18983 12.892368,82.96475 l 0,0 c 1.489266,-2.39999 3.022333,-4.91998 4.613804,-7.66498 l 0,0 2.175495,-3.22499 c 4.555401,-11.71496 8.731185,-22.91993 12.775563,-33.86989 l 0,0 C 69.92248,324.73631 68.842033,312.25634 68.842033,300.00138 l 0,0 c 0,-42.88487 11.403102,-84.89975 33.026657,-121.87463 l 0,0 c -5.358438,-5.80499 -8.380772,-13.64996 -8.380772,-22.73994 l 0,0 c 0,-20.26494 20.586912,-43.28987 41.568032,-45.68986 l 0,0 5.94246,-0.06 c 6.8331,0.705 13.05298,1.23 19.03924,1.755 l 0,0 C 200.75884,79.45704 249.13078,62.52209 299.99942,62.52209 l 0,0 c 46.60525,0 91.54603,14.35496 130.20853,41.54988 l 0,0 c 10.67307,0.105 18.134,4.33498 22.5872,7.78497 l 0,0 c 5.19783,4.04999 11.69511,11.48997 14.20642,24.31493 l 0,0 c 41.34902,44.47487 64.09683,102.59969 64.09683,163.82951 l 0,0 c 0,6.61498 -0.27742,13.48496 -0.90524,21.08994 l 0,0 c 5.75265,17.45994 10.71687,34.45489 14.54224,49.97985 l 0,0 c 0.80303,2.29499 2.05869,4.33498 4.33639,6.68998 l 0,0 c 7.47553,-25.25993 11.2863,-51.32985 11.2863,-77.75977 l 0,0 c 0,-147.47956 -116.80515,-267.4792 -260.35867,-267.4792 l 0,0 c -143.55353,0 -260.358674,119.99964 -260.358674,267.4792 m 297.546504,-160.72452 -0.56942,3.58499 c 0,2.98499 1.25565,5.44499 3.41655,6.89998 l 0,0 8.39537,5.74498 -0.62783,-0.165 c 2.1609,1.275 6.04467,3.97499 14.36703,9.83997 l 0,0 1.70828,1.17 0.68623,0.93 c 5.47524,7.03498 7.92815,13.48496 7.92815,20.68494 l 0,0 0,2.39999 -1.13885,1.88999 -2.62812,4.15499 c -6.21987,9.89997 -12.03093,19.27494 -19.15604,26.65492 l 0,0 -2.62812,2.98499 c -1.64987,1.71 -3.47495,3.64499 -4.04437,7.49998 l 0,0 c 0,3.05999 1.70827,6.62998 5.24163,10.96497 l 0,0 -0.23361,0.12 2.00028,1.97999 c 0.68623,0.705 1.13885,1.41 1.60608,2.05499 l 0,0 0,0.06 0.39421,0.36 0.39422,0.525 8.55598,5.50498 c 1.08044,0.24 2.86172,0.585 4.6868,0.585 l 0,0 c 0.84684,0 1.70828,-0.06 3.47496,-0.88499 l 0,0 c 0.74463,-0.525 1.41626,-1.11 2.16089,-1.695 l 0,0 3.31435,-2.75999 3.19754,0.54 c 5.35843,0.80999 9.69483,4.21498 13.05297,10.12497 l 0,0 c 19.50646,32.2349 35.53797,69.32979 48.02152,110.86466 l 0,0 c 2.05869,10.60497 3.02233,17.98495 3.02233,24.08993 l 0,0 c 0,7.72498 -1.64987,13.22996 -5.81105,17.74495 l 0,0 -3.08074,2.81999 c -7.18352,6.61498 -13.637,12.35996 -19.44806,15.86995 l 0,0 c -0.74463,0.42 -1.37246,1.17 -1.48926,1.47 l 0,0 -0.11681,-0.36 c -0.0432,1.52999 -0.39421,3.64499 -0.78843,6.62998 l 0,0 2.55511,7.96498 c 1.15345,0.98999 3.31435,2.39999 7.65074,2.39999 l 0,0 1.82508,-0.12 c 0.45262,0 1.47466,-0.405 1.88348,-0.69 l 0,0 c 6.94991,-5.68498 16.03151,-10.07997 28.45665,-13.70996 l 0,0 c 11.69512,-2.23499 23.60924,-3.28499 36.38481,-3.28499 l 0,0 c 6.7893,0 13.28658,0.285 20.19269,0.81 l 0,0 c 13.637,2.11499 28.17924,4.97998 42.54627,11.60996 l 0,0 c 1.70828,0.525 3.31435,0.765 4.90582,0.765 l 0,0 c 3.37275,0 6.21987,-1.16999 8.22016,-3.22499 l 0,0 2.2193,-6.67498 -1.64988,-6.22498 -0.1752,-0.165 c -6.21988,-6.74998 -13.12598,-11.89496 -20.4701,-17.35495 l 0,0 c -11.75352,-8.66997 -22.87921,-16.91995 -28.00404,-32.4599 l 0,0 C 500.93347,311.89634 468.76825,239.23656 444.18077,193.8917 l 0,0 -0.45262,-0.885 -0.29202,-1.05 c -2.04409,-9.37497 -2.73032,-18.98994 -3.29974,-29.06991 l 0,0 c 0,-0.285 -0.62783,-9.65997 -0.74463,-11.41496 l 0,0 0.29201,-4.33499 c 0,-8.90997 -3.08074,-11.30997 -4.11738,-12.07497 l 0,0 c -1.64987,-1.34999 -3.53336,-1.93499 -5.98627,-1.93499 l 0,0 c -3.29974,0 -6.49728,1.17 -8.04495,1.815 l 0,0 c -2.78872,1.06499 -5.92786,1.52999 -9.40281,1.52999 l 0,0 c -3.59176,0 -7.53394,-0.525 -10.71688,-1.11 l 0,0 c -0.62782,0 -0.62782,0 -34.67652,-3.98998 l 0,0 -19.56487,-1.755 c -5.19782,0 -8.78958,5.56498 -9.98684,9.65997 m -215.30108,17.51995 c 0,0.945 0.68623,1.81499 3.02233,2.11499 l 0,0 c 20.87892,2.92499 29.4349,10.72497 29.4349,27.23992 l 0,0 -0.23361,3.10499 0,0.765 -0.23361,0.765 c -5.75265,22.67993 -11.97253,35.09989 -17.84199,45.11986 l 0,0 c -0.23361,0.405 -0.45262,1.395 -0.51102,1.875 l 0,0 c 0,3.10499 3.24134,6.91498 8.95019,10.42497 l 0,0 6.38049,4.04998 5.25623,0.99 c 1.37246,0.285 2.73032,0.405 4.04438,0.405 l 0,0 c 2.90552,0 6.9645,-0.705 9.2422,-3.44999 l 0,0 3.25595,-4.81499 2.55511,-4.27498 1.31406,-2.16 2.3945,-4.63498 1.48927,-3.80999 2.62811,-7.43998 6.94991,2.98499 3.25594,1.35 c 48.64935,23.72993 89.42894,183.16445 93.47332,230.27931 l 0,0 c 0,4.91998 2.56971,9.55497 6.27828,11.59496 l 0,0 c 1.88348,0.12 4.6722,0.36 6.38048,0.48 l 0,0 2.68652,-1.76999 12.54195,-11.30997 36.10739,-33.9749 c 6.43888,-4.75498 7.98655,-11.89496 8.83339,-16.16995 l 0,0 -0.0584,-2.45999 c -4.94962,-12.95996 -11.11109,-28.30492 -19.33126,-44.24987 l 0,0 c -4.5554,-9.37497 -6.78929,-18.26994 -6.78929,-27.35992 l 0,0 c 0,-10.13997 2.74492,-19.39494 5.82565,-29.69991 l 0,0 c 2.90553,-9.85497 5.92786,-20.03994 6.8477,-33.4049 l 0,0 c -0.74463,-3.16499 -2.56971,-6.91498 -5.47524,-10.72497 l 0,0 -0.62782,-0.80999 -0.80304,-1.065 -1.94189,-2.33999 c -3.92757,-4.09499 -8.14715,-7.03498 -11.4031,-7.79998 l 0,0 c -0.80303,-0.165 -1.59147,-0.285 -2.3361,-0.285 l 0,0 c -2.45291,0 -4.57,0.99 -6.51189,3.74999 l 0,0 c -1.82508,5.21998 -3.65016,9.31497 -5.57744,12.65996 l 0,0 -6.7893,10.76997 -6.16147,-11.06997 -17.85659,-31.8749 c -30.10653,-54.77984 -50.92704,-90.76473 -64.09682,-90.76473 l 0,0 c -11.00889,1.29 -20.99573,1.87499 -31.37679,1.87499 l 0,0 c -15.17007,0 -30.16493,-1.33499 -47.51049,-2.98499 l 0,0 c -6.7309,0.825 -15.68109,12.01497 -15.68109,18.10495 m 4.96422,109.04967 c -11.51991,37.07989 -24.70429,74.63978 -42.093656,119.23464 l 0,0 -3.474953,5.80499 c -11.242496,18.68994 -22.879208,38.08488 -45.743815,48.74985 l 0,0 c -0.394218,0.225 -1.197253,0.87 -1.430863,1.17 l 0,0 c -1.533068,2.27999 -2.394506,4.91998 -2.394506,7.72497 l 0,0 c 0,2.82 0.861438,5.57999 2.394506,7.61998 l 0,0 c 1.766677,2.39999 4.219585,3.74999 7.022909,3.74999 l 0,0 c 1.022045,0 2.000288,-0.165 3.985976,-1.05 l 0,0 c 17.914989,-14.23495 39.757551,-21.20993 66.622732,-21.20993 l 0,0 c 6.94991,0 14.30863,0.525 22.80621,1.46999 l 0,0 c 4.39479,-0.42 7.47553,-4.28998 7.86974,-9.26997 l 0,0 0.11681,-1.63499 c 0,-6.14999 -2.96393,-10.90497 -7.81135,-12.13497 l 0,0 c -5.41683,-0.465 -8.89179,-2.56499 -11.18409,-6.67498 l 0,0 -0.73003,-1.40999 -0.17521,-1.635 -1.13885,-14.11496 c 0,-29.36991 12.03093,-64.9348 37.40685,-109.87467 l 0,0 0.97824,-5.20498 -0.35041,-1.59 c -1.02205,-2.63999 -4.21959,-5.74498 -8.67278,-8.60997 l 0,0 -5.75266,-3.68999 -5.92786,-1.29 -1.76668,-0.40499 c -0.74463,-0.18 -1.43086,-0.42 -2.68652,-0.48 l 0,0 c -4.78901,0 -6.73089,2.45999 -7.86974,4.75498 m 340.26799,197.68441 c -43.64132,46.99486 -104.4384,73.94978 -167.11896,73.94978 l 0,0 c -61.48331,0 -119.19966,-24.61493 -162.88478,-69.31479 l 0,0 c -0.23361,0.06 -0.45262,0.06 -0.74463,0.06 l 0,0 c -2.2193,0 -4.3948,-0.06 -6.26368,-0.405 l 0,0 0.21901,0.225 c -6.32208,-0.765 -12.38134,-1.17 -18.0756,-1.17 l 0,0 c -5.13942,0 -10.10364,0.36 -14.775846,0.99 l 0,0 c 49.335576,62.57981 124.163866,99.6147 202.525526,99.6147 l 0,0 c 80.93136,0 157.24892,-39.01489 206.52609,-104.93969 l 0,0 c -4.96421,-0.285 -10.10364,-0.465 -15.46208,-0.465 l 0,0 c -8.38077,0 -16.19211,0.465 -23.94505,1.455"
     inkscape:connector-curvature="0"
     id="path282"
     style="fill:url(#radialGradient2998);fill-opacity:1;fill-rule:nonzero;stroke:none" />
</svg>
