<?xml version="1.0" encoding="UTF-8" standalone="no"?>
<!-- Created with Inkscape (http://www.inkscape.org/) -->

<svg
   xmlns:dc="http://purl.org/dc/elements/1.1/"
   xmlns:cc="http://creativecommons.org/ns#"
   xmlns:rdf="http://www.w3.org/1999/02/22-rdf-syntax-ns#"
   xmlns:svg="http://www.w3.org/2000/svg"
   xmlns="http://www.w3.org/2000/svg"
   xmlns:xlink="http://www.w3.org/1999/xlink"
   xmlns:inkscape="http://www.inkscape.org/namespaces/inkscape"
   version="1.1"
   width="600"
   height="433.43121"
   id="svg6005">
  <defs
     id="defs6007">
    <linearGradient
       x1="0"
       y1="0"
       x2="1"
       y2="0"
       id="linearGradient662"
       gradientUnits="userSpaceOnUse"
       gradientTransform="matrix(39.927734,0,0,-39.927734,212.95508,142.95312)"
       spreadMethod="pad">
      <stop
         id="stop664"
         style="stop-color:#bb2c26;stop-opacity:1"
         offset="0" />
      <stop
         id="stop666"
         style="stop-color:#e07823;stop-opacity:1"
         offset="0.30000299" />
      <stop
         id="stop668"
         style="stop-color:#f7981d;stop-opacity:1"
         offset="0.5" />
      <stop
         id="stop670"
         style="stop-color:#e07823;stop-opacity:1"
         offset="0.69999701" />
      <stop
         id="stop672"
         style="stop-color:#bb2c26;stop-opacity:1"
         offset="1" />
    </linearGradient>
    <linearGradient
       x1="0"
       y1="0"
       x2="1"
       y2="0"
       id="linearGradient2997"
       xlink:href="#linearGradient662"
       gradientUnits="userSpaceOnUse"
       gradientTransform="matrix(39.927734,0,0,-39.927734,212.95508,142.95312)"
       spreadMethod="pad" />
    <linearGradient
       x1="0"
       y1="0"
       x2="1"
       y2="0"
       id="linearGradient3000"
       xlink:href="#linearGradient662"
       gradientUnits="userSpaceOnUse"
       gradientTransform="matrix(540.81018,0,0,540.81018,29.601379,216.71398)"
       spreadMethod="pad" />
  </defs>
  <metadata
     id="metadata6010">
    <rdf:RDF>
      <cc:Work
         rdf:about="">
        <dc:format>image/svg+xml</dc:format>
        <dc:type
           rdf:resource="http://purl.org/dc/dcmitype/StillImage" />
        <dc:title />
      </cc:Work>
    </rdf:RDF>
  </metadata>
  <path
     d="m 128.13807,99.67564 c -13.1113,0 -23.79809,10.68678 -23.79809,23.81162 0,13.17902 10.68679,23.86581 23.79809,23.86581 13.17901,0 23.8658,-10.68679 23.8658,-23.86581 0,-13.12484 -10.68679,-23.81162 -23.8658,-23.81162 m 251.32237,98.63269 c -14.60121,0 -26.45285,11.89226 -26.45285,26.50702 0,14.60122 11.85164,26.45285 26.45285,26.45285 14.65539,0 26.50703,-11.85163 26.50703,-26.45285 0,-14.61476 -11.85164,-26.50702 -26.50703,-26.50702 m -168.40157,-7.8424 c -19.69403,0 -35.66326,16.03695 -35.66326,35.66326 0,19.68049 15.96923,35.71744 35.66326,35.71744 19.68049,0 35.7039,-16.03695 35.7039,-35.71744 0,-19.62631 -16.02341,-35.66326 -35.7039,-35.66326 m 317.02784,242.96528 c -39.57769,0 -102.58775,-43.81719 -140.63488,-86.09027 -0.0542,0 -23.33756,-21.79347 -86.87587,-21.79347 -64.28326,0 -88.51478,22.32171 -88.73149,22.5926 -36.61139,40.74254 -100.84048,85.29114 -139.889927,85.29114 -4.18532,0 -8.194558,-0.47352 -12.014171,-1.43574 C -10.153581,413.85908 -1.4307779,321.26734 2.7545422,276.75937 9.418547,206.083 23.654053,104.97162 70.572981,43.43794 93.165583,13.80208 123.32969,0 165.49442,0 c 26.03296,0 58.56739,3.64353 82.23002,31.26123 l 104.59237,0 C 375.91172,3.64353 408.4597,0 434.54684,0 c 42.16473,0 72.31529,13.80208 94.85371,43.43794 46.98665,61.53368 61.22216,162.64506 67.83198,233.32143 4.18532,44.50797 12.96231,137.09971 -57.03683,155.19546 -3.91443,1.00231 -7.93721,1.47638 -12.10899,1.47638"
     inkscape:connector-curvature="0"
     id="path656"
     style="fill:#ffffff;fill-opacity:1;fill-rule:nonzero;stroke:none" />
  <path
     d="m 468.99108,69.78243 c -5.71588,0 -10.32109,4.6052 -10.32109,10.32108 0,5.66169 4.60521,10.32108 10.32109,10.32108 5.64815,0 10.30753,-4.65939 10.30753,-10.32108 0,-5.71588 -4.65938,-10.32108 -10.30753,-10.32108 m -44.76532,43.38375 c -5.71588,0 -10.32108,4.65939 -10.32108,10.32108 0,5.71588 4.6052,10.32108 10.32108,10.32108 5.66169,0 10.32108,-4.6052 10.32108,-10.32108 0,-5.66169 -4.65939,-10.32108 -10.32108,-10.32108 m 89.46291,1.32739 c -5.6617,0 -10.30754,4.65938 -10.30754,10.32108 0,5.71587 4.64584,10.30753 10.30754,10.30753 5.71587,0 10.32108,-4.59166 10.32108,-10.30753 0,-5.6617 -4.60521,-10.32108 -10.32108,-10.32108 M 128.19224,88.82631 c -19.09806,0 -34.647405,15.56289 -34.647405,34.66095 0,19.09807 15.549345,34.66095 34.647405,34.66095 19.11161,0 34.66096,-15.56288 34.66096,-34.66095 0,-19.09806 -15.54935,-34.66095 -34.66096,-34.66095 m 340.79884,70.43257 c -5.71588,0 -10.32109,4.60521 -10.32109,10.25336 0,5.71587 4.60521,10.37526 10.32109,10.37526 5.64815,0 10.30753,-4.65939 10.30753,-10.37526 0,-5.64815 -4.65938,-10.25336 -10.30753,-10.25336 m -89.53064,28.2543 c -20.52026,0 -37.24799,16.76837 -37.24799,37.30217 0,20.57444 16.72773,37.28863 37.24799,37.28863 20.53381,0 37.30218,-16.71419 37.30218,-37.28863 0,-20.5338 -16.76837,-37.30217 -37.30218,-37.30217 m -168.40157,-7.88303 c -25.66725,0 -46.51258,20.89951 -46.51258,46.49904 0,25.66725 20.84533,46.51259 46.51258,46.51259 25.65371,0 46.49904,-20.84534 46.49904,-46.51259 0,-25.59953 -20.84533,-46.49904 -46.49904,-46.49904 m 317.02784,242.95173 c -36.08315,0 -96.92605,-42.80133 -132.64349,-82.48737 -0.16254,-0.14845 -24.81394,-25.34218 -94.92144,-25.34218 -70.21585,0 -95.97792,25.34218 -96.23527,25.61307 -35.60908,39.63187 -97.41366,82.21648 -132.331967,82.21648 -3.386181,0 -6.555647,-0.36624 -9.413584,-1.05648 C 1.481338,405.70516 9.6217179,319.30335 13.549688,277.77523 20.051156,208.35851 33.961589,109.30594 79.200971,49.93941 99.843133,22.84995 126.44497,10.79515 165.44024,10.79515 c 26.61538,0 56.3596,3.80607 77.09657,31.3154 l 114.91345,0 c 20.79116,-27.50933 50.53537,-31.3154 77.13721,-31.3154 38.99527,0 65.61065,12.0548 86.25281,39.14426 45.22584,59.36653 59.14982,158.47328 65.65129,227.83582 3.91442,41.52812 12.06835,127.92993 -49.04545,143.75017 -2.85794,0.69132 -6.02741,1.05648 -9.35941,1.05648"
     inkscape:connector-curvature="0"
     id="path658"
     style="fill:#000000;fill-opacity:1;fill-rule:nonzero;stroke:none" />
  <path
     d="m 370.30432,56.08871 -3.06111,4.59166 -5.60752,0 -123.22991,0 -5.55334,0 -3.16946,-4.59166 C 216.6665,36.92292 198.6791,29.41915 165.44035,29.41915 l 0,0 c -33.48256,0 -54.23308,9.19686 -71.421341,31.84365 l 0,0 C 51.691743,116.76908 38.404367,212.42193 32.065436,279.5225 l 0,0 c -5.458524,58.24232 -5.025093,113.58606 35.175651,123.90714 l 0,0 c 1.327383,0.36571 2.912116,0.52825 4.713565,0.52825 l 0,0 c 26.249677,0 82.798908,-36.3405 118.678888,-76.24326 l 0,0 0.10835,-0.10836 0.0943,-0.0943 c 1.21902,-1.2732 30.63816,-31.38313 109.73936,-31.38313 l 0,0 c 79.15537,0 107.50448,30.16411 108.72351,31.47794 l 0,0 c 35.93415,40.01112 92.53756,76.35162 118.78724,76.35162 l 0,0 c 1.80145,0 3.38618,-0.16254 4.70002,-0.52824 l 0,0 c 40.16009,-10.32109 40.63415,-65.66483 35.13499,-123.90715 l 0,0 c -4.02278,-43.01805 -10.94413,-97.77937 -26.5612,-146.18822 l 0,0 c -3.64353,11.85163 -14.65539,20.4119 -27.67187,20.4119 l 0,0 c -15.96924,0 -28.93154,-12.9623 -28.93154,-28.93153 l 0,0 c 0,-15.9286 12.9623,-28.94508 28.93154,-28.94508 l 0,0 c 5.5127,0 10.59197,1.53055 14.98046,4.18532 l 0,0 C 522.20787,85.81992 514.74472,72.69509 506.02192,61.26334 l 0,0 C 488.76648,38.61601 468.08369,29.41915 434.54695,29.41915 l 0,0 c -33.18458,0 -51.22615,7.50377 -64.24263,26.66956 m 69.68761,24.0148 c 0,-15.98278 13.01648,-28.94508 28.94507,-28.94508 l 0,0 c 15.96924,0 28.98572,12.9623 28.98572,28.94508 l 0,0 c 0,15.92859 -13.01648,28.94508 -28.98572,28.94508 l 0,0 c -15.92859,0 -28.94507,-13.01649 -28.94507,-28.94508 M 74.866768,123.48726 c 0,-29.36496 23.90644,-53.28495 53.325582,-53.28495 l 0,0 c 29.36497,0 53.28495,23.91999 53.28495,53.28495 l 0,0 c 0,29.41915 -23.91998,53.28495 -53.28495,53.28495 l 0,0 c -29.419142,0 -53.325582,-23.8658 -53.325582,-53.28495 m 320.414022,0 c 0,-15.98277 12.9623,-28.94507 28.94508,-28.94507 l 0,0 c 15.98277,0 28.94507,12.9623 28.94507,28.94507 l 0,0 c 0,15.98278 -12.9623,28.99926 -28.94507,28.99926 l 0,0 c -15.98278,0 -28.94508,-13.01648 -28.94508,-28.99926 m 44.71114,46.07916 c 0,-15.96923 13.01648,-28.93153 28.94507,-28.93153 l 0,0 c 15.96924,0 28.98572,12.9623 28.98572,28.93153 l 0,0 c 0,15.98277 -13.01648,28.94508 -28.98572,28.94508 l 0,0 c -15.92859,0 -28.94507,-12.96231 -28.94507,-28.94508 m -294.01535,56.56277 c 0,-35.92061 29.14825,-65.12304 65.12304,-65.12304 l 0,0 c 35.87997,0 65.0824,29.20243 65.0824,65.12304 l 0,0 c 0,35.93416 -29.20243,65.13658 -65.0824,65.13658 l 0,0 c -35.97479,0 -65.12304,-29.20242 -65.12304,-65.13658 m 177.61198,-1.31384 c 0,-30.85488 25.08483,-55.92617 55.87199,-55.92617 l 0,0 c 30.84134,0 55.92617,25.07129 55.92617,55.92617 l 0,0 c 0,30.84134 -25.08483,55.91263 -55.92617,55.91263 l 0,0 c -30.78716,0 -55.87199,-25.07129 -55.87199,-55.91263"
     inkscape:connector-curvature="0"
     id="path674"
     style="fill:url(#linearGradient3000);fill-opacity:1;fill-rule:nonzero;stroke:none" />
</svg>
