<?xml version="1.0" encoding="UTF-8" standalone="no"?>
<!-- Created with Inkscape (http://www.inkscape.org/) -->

<svg
   xmlns:dc="http://purl.org/dc/elements/1.1/"
   xmlns:cc="http://creativecommons.org/ns#"
   xmlns:rdf="http://www.w3.org/1999/02/22-rdf-syntax-ns#"
   xmlns:svg="http://www.w3.org/2000/svg"
   xmlns="http://www.w3.org/2000/svg"
   xmlns:sodipodi="http://sodipodi.sourceforge.net/DTD/sodipodi-0.dtd"
   xmlns:inkscape="http://www.inkscape.org/namespaces/inkscape"
   version="1.1"
   width="600"
   height="487.85431"
   viewBox="0 0 600.00001 487.8543"
   id="Layer_1"
   xml:space="preserve"
   inkscape:version="0.91 r13725"
   sodipodi:docname="D0805 - Modern Masters 2015 - Common.svg"><sodipodi:namedview
     pagecolor="#889092"
     bordercolor="#666666"
     borderopacity="1"
     objecttolerance="10"
     gridtolerance="10"
     guidetolerance="10"
     inkscape:pageopacity="0"
     inkscape:pageshadow="2"
     inkscape:window-width="1015"
     inkscape:window-height="477"
     id="namedview3342"
     showgrid="false"
     inkscape:zoom="0.30836454"
     inkscape:cx="314.38008"
     inkscape:cy="268.417"
     inkscape:window-x="2557"
     inkscape:window-y="447"
     inkscape:window-maximized="0"
     inkscape:current-layer="Layer_1" /><metadata
     id="metadata13"><rdf:RDF><cc:Work
         rdf:about=""><dc:format>image/svg+xml</dc:format><dc:type
           rdf:resource="http://purl.org/dc/dcmitype/StillImage" /><dc:title></dc:title></cc:Work></rdf:RDF></metadata><defs
     id="defs11" /><path
     style="fill:#ffffff;fill-opacity:1"
     d="M 192.24949,453.73933 C 125.69049,434.5554 76.293448,392.89438 49.164456,333.06266 31.168095,293.37254 29.306931,269.49516 43.788058,264.08738 c 9.220743,-3.44335 17.622482,-0.12607 30.757865,12.14421 13.552391,12.65983 28.793227,17.0018 44.629327,12.71447 15.78184,-4.27264 25.11505,-13.25974 31.71346,-30.53741 6.55082,-17.15308 3.16899,-32.02728 -11.18559,-49.19716 -9.14658,-10.94048 -20.39826,-15.20855 -32.33143,-15.38011 -11.753803,-0.16898 -23.788821,4.73761 -32.267788,14.22722 -4.938438,5.52708 -11.568038,11.49814 -14.732449,13.26903 -8.59999,4.8128 -23.53068,-1.4698 -25.896741,-10.89693 -4.156267,-16.55989 10.974293,-57.08691 33.937966,-90.90242 35.426272,-52.167501 94.772452,-86.947977 157.250632,-92.15846 22.93605,-1.912792 25.76135,-1.493292 32.00703,4.752392 4.14905,4.149042 6.86945,10.966898 6.89874,17.289554 0.10975,23.689871 20.59907,57.013974 35.05503,57.013974 13.72476,0 35.56182,-34.153366 35.56182,-55.619055 0,-7.796817 2.33705,-14.171149 6.85038,-18.684473 6.23308,-6.233099 9.09101,-6.663515 31.71631,-4.776637 85.40718,7.122689 161.68253,68.575751 186.29322,150.091665 7.91499,26.2161 8.00104,32.54899 0.53401,39.30655 -9.26678,8.38634 -20.52102,6.42429 -33.52923,-5.84544 -13.79908,-13.01571 -22.97708,-15.94233 -42.93945,-13.69228 -17.44724,1.96655 -30.51208,13.12406 -36.45576,31.13363 -5.64666,17.10954 -1.95614,32.5856 11.19423,46.94246 9.69495,10.58439 13.27119,12.26437 28.85977,13.5571 15.28315,1.26739 19.60073,0.27964 30.60269,-7.00113 7.04503,-4.66218 12.80916,-9.76021 12.80916,-11.32896 0,-1.56874 4.26744,-4.3399 9.48321,-6.15812 7.85016,-2.73658 10.89233,-2.19742 17.6663,3.13097 9.85811,7.7544 10.17521,14.95812 1.81086,41.14081 -26.76499,83.78165 -99.68072,142.68154 -185.49362,149.83806 -31.48395,2.62567 -37.20944,-1.26741 -40.71363,-27.68319 -1.24615,-9.394 -6.00083,-23.45346 -10.56593,-31.24323 -14.52227,-24.78036 -32.7463,-24.74847 -47.2984,0.0829 -4.53823,7.74391 -9.15286,21.18992 -10.25472,29.88004 -3.37009,26.57895 -7.40549,30.29269 -32.62619,30.02561 -11.88403,-0.12594 -30.27987,-2.72854 -40.87965,-5.78366 z M 504.47537,112.8953 c -336.31691,249.97267 -168.15846,124.98634 0,0 z"
     id="path7311"
     inkscape:connector-curvature="0"
     sodipodi:nodetypes="cssssssassssssssssssssssssssssssssssscccc" /><path
     style="fill:#000000"
     d="M 215.92226,437.03935 C 172.78171,430.70155 135.01852,410.43637 102.89658,376.38541 82.701943,354.97803 62.73681,320.8293 57.166301,298.16751 l -2.215158,-9.01165 15.097624,9.57463 c 18.592535,11.79103 34.688613,14.77053 53.798813,9.95852 52.6548,-13.25863 68.6458,-83.29231 26.87931,-117.71978 -25.49628,-21.01618 -55.096048,-21.87214 -83.75733,-2.42207 l -12.013217,8.15239 2.192671,-9.00129 C 67.85821,143.73518 115.06564,87.687892 158.81832,66.990799 183.77576,55.184747 205.06488,49.401266 229.09231,47.899913 l 14.35844,-0.897188 2.18871,14.908614 c 2.96974,20.228734 11.46434,37.097475 26.00187,51.635001 l 12.15172,12.15173 0,118.24197 0,118.24196 -9.31478,6.88674 c -12.34152,9.12445 -29.22988,43.25696 -29.22988,59.0755 0,13.72726 1.16355,13.37435 -29.32613,8.89511 z m 138.53599,-8.69828 c 0,-16.01877 -16.79747,-50.08065 -29.22985,-59.27233 l -9.3148,-6.88674 0,-119.24394 0,-119.24394 8.86951,-6.55752 c 11.83504,-8.75001 26.51779,-36.371781 29.25767,-55.040616 l 2.21513,-15.093259 14.35843,0.897188 c 24.06655,1.503797 45.32865,7.290487 70.441,19.171213 43.39685,20.531174 90.85949,76.936604 101.50228,120.627134 l 2.19268,9.00129 -12.01322,-8.15239 c -28.66129,-19.45007 -58.26105,-18.59411 -83.75731,2.42207 -31.68852,26.12035 -31.60861,77.88318 0.1606,104.07008 24.1377,19.89634 52.88642,21.21427 80.51748,3.69118 l 15.09762,-9.57463 -2.19528,9.01165 c -10.68384,43.85769 -57.10285,98.97356 -101.37646,120.37002 -23.64593,11.42752 -41.0826,16.3922 -71.46822,20.34881 l -15.25726,1.98672 0,-12.53199 z"
     id="path7307"
     inkscape:connector-curvature="0" /></svg>