<?xml version="1.0" encoding="UTF-8" standalone="no"?>
<!-- Created with Inkscape (http://www.inkscape.org/) -->

<svg
   xmlns:dc="http://purl.org/dc/elements/1.1/"
   xmlns:cc="http://creativecommons.org/ns#"
   xmlns:rdf="http://www.w3.org/1999/02/22-rdf-syntax-ns#"
   xmlns:svg="http://www.w3.org/2000/svg"
   xmlns="http://www.w3.org/2000/svg"
   xmlns:sodipodi="http://sodipodi.sourceforge.net/DTD/sodipodi-0.dtd"
   xmlns:inkscape="http://www.inkscape.org/namespaces/inkscape"
   version="1.1"
   width="600"
   height="689.25903"
   id="svg3820"
   inkscape:version="0.91 r13725"
   sodipodi:docname="B2202 - Zendikar Expeditions - Common.svg">
  <sodipodi:namedview
     pagecolor="#d9d9df"
     bordercolor="#666666"
     borderopacity="1"
     objecttolerance="10"
     gridtolerance="10"
     guidetolerance="10"
     inkscape:pageopacity="0"
     inkscape:pageshadow="2"
     inkscape:window-width="1855"
     inkscape:window-height="1056"
     id="namedview3406"
     showgrid="false"
     inkscape:zoom="0.48422202"
     inkscape:cx="232.50614"
     inkscape:cy="185.97012"
     inkscape:window-x="1985"
     inkscape:window-y="24"
     inkscape:window-maximized="1"
     inkscape:current-layer="svg3820" />
  <defs
     id="defs3822" />
  <metadata
     id="metadata3825">
    <rdf:RDF>
      <cc:Work
         rdf:about="">
        <dc:format>image/svg+xml</dc:format>
        <dc:type
           rdf:resource="http://purl.org/dc/dcmitype/StillImage" />
        <dc:title></dc:title>
      </cc:Work>
    </rdf:RDF>
  </metadata>
  <path
     style="fill:#000000"
     d=""
     id="path3427"
     inkscape:connector-curvature="0" />
  <path
     style="fill:#000000"
     d=""
     id="path3425"
     inkscape:connector-curvature="0" />
  <path
     style="fill:#ffffff"
     d="m 173.92489,624.28242 c -5.74004,-15.71429 -14.00941,-38.41948 -18.37638,-50.45596 -4.36697,-12.03648 -12.54022,-34.4681 -18.16278,-49.84805 -22.34184,-61.11394 -31.52421,-88.40074 -30.19523,-89.72971 1.52132,-1.52134 12.16571,3.94648 61.8408,31.76632 18.05472,10.1113 37.75078,21.11853 43.76902,24.46053 6.01824,3.34199 15.86627,8.80993 21.88452,12.15097 6.01824,3.34106 14.77204,8.22833 19.4529,10.86062 4.68085,2.63232 16.03755,8.97822 25.2371,14.10204 l 16.72645,9.316 8.78963,-4.63967 c 4.83429,-2.55183 23.25849,-12.52603 40.94263,-22.1649 17.68417,-9.63884 49.97096,-27.0202 71.74843,-38.62521 21.77747,-11.60499 47.635,-25.95265 57.46114,-31.88367 9.82618,-5.93099 18.332,-10.31738 18.9019,-9.74751 0.56987,0.56988 -2.64824,9.67318 -7.15137,20.22953 -4.50313,10.55636 -13.40409,33.41831 -19.7799,50.80434 -6.37581,17.38603 -12.97694,34.89364 -14.66919,38.9058 -1.69226,4.01216 -12.64794,31.09424 -24.34594,60.18241 l -21.26912,52.88757 -111.18409,0 -111.18409,0 -10.43643,-28.57145 z M 207.9371,444.88683 c -47.47724,-27.19123 -88.2962,-50.65666 -90.70882,-52.14541 -4.02721,-2.48509 -2.35447,-6.63264 20.41888,-50.62861 13.643,-26.35697 31.60817,-60.50537 39.92261,-75.88532 8.31444,-15.37995 26.88627,-50.39517 41.27073,-77.8116 71.80399,-136.856659 79.28546,-150.765035 81.05323,-150.681603 0.91325,0.0431 14.91824,24.389621 31.12221,54.103376 16.20397,29.713757 48.06442,87.398887 70.801,128.189187 22.73659,40.7903 44.22045,79.36175 47.74194,85.71434 3.52148,6.35259 9.28285,16.74773 12.803,23.10032 3.52017,6.35259 12.36893,22.3063 19.66389,35.45267 7.29496,13.14639 12.89508,24.08864 12.4447,24.31612 -0.45041,0.2276 -3.00735,1.61887 -5.68212,3.09199 -2.67477,1.4731 -28.93619,15.48701 -58.3587,31.142 -29.42251,15.65501 -56.77816,30.39321 -60.79032,32.75156 -4.01216,2.35835 -19.33132,10.66549 -34.04257,18.46034 -14.71126,7.79482 -28.90611,15.65076 -31.54411,17.45764 -2.63801,1.80688 -5.92068,3.17865 -7.29484,3.04841 -1.37416,-0.13026 -41.34348,-22.48419 -88.82071,-49.67541 z"
     id="path3460"
     inkscape:connector-curvature="0" />
  <path
     style="fill:#000000"
     d="m 199.89219,625.2272 c -0.69871,-1.82082 -11.67735,-31.63846 -24.397,-66.26144 -12.71964,-34.623 -24.27444,-65.96002 -25.67733,-69.63783 -3.24949,-12.03366 57.47057,25.16298 59.20038,26.13983 31.94016,18.05473 58.39301,32.82677 58.78409,32.82677 0.39109,0 6.2785,3.28268 13.08314,7.29484 12.68212,7.47765 19.15529,8.9166 23.2219,5.16212 1.91143,-1.76472 62.88019,-35.60883 120.24325,-66.74769 7.35562,-3.99293 15.53224,-8.73015 18.17025,-10.52713 2.63798,-1.79701 5.44956,-3.26729 6.24793,-3.26729 1.28109,0 -9.45453,27.9803 -46.87109,122.16049 l -10.37386,26.11182 -95.18064,0.028 c -78.07655,0.0219 -95.40893,-0.56688 -96.45102,-3.28251 z m 21.41878,-200.12683 c -41.459,-23.61539 -75.78993,-43.26233 -76.29097,-43.65987 -0.92621,-0.73493 39.17978,-78.31896 119.89321,-231.93041 9.48665,-18.05472 21.05922,-40.17915 25.71682,-49.16539 6.37665,-12.302933 9.12312,-15.606324 11.11917,-13.373873 1.45795,1.63062 19.96819,34.697303 41.13388,73.481523 21.16568,38.78422 54.86044,100.06085 74.87723,136.17029 20.01677,36.10945 38.41319,69.41318 40.88088,74.00829 l 4.48672,8.35473 -18.78076,10.03485 c -10.32939,5.51916 -29.17587,15.61742 -41.88105,22.44058 -53.40093,28.67834 -105.51001,56.58975 -105.63786,56.58328 -0.0755,-0.004 -34.05828,-19.32862 -75.51727,-42.944 z"
     id="path3462"
     inkscape:connector-curvature="0"
     sodipodi:nodetypes="csccsssscssccccscsssssscsscs" />
</svg>
