<?xml version="1.0" encoding="UTF-8" standalone="no"?>
<!-- Created with Inkscape (http://www.inkscape.org/) -->

<svg
   xmlns:dc="http://purl.org/dc/elements/1.1/"
   xmlns:cc="http://creativecommons.org/ns#"
   xmlns:rdf="http://www.w3.org/1999/02/22-rdf-syntax-ns#"
   xmlns:svg="http://www.w3.org/2000/svg"
   xmlns="http://www.w3.org/2000/svg"
   xmlns:xlink="http://www.w3.org/1999/xlink"
   xmlns:inkscape="http://www.inkscape.org/namespaces/inkscape"
   version="1.1"
   width="600"
   height="257.14423"
   id="svg5493">
  <defs
     id="defs5495">
    <linearGradient
       x1="0"
       y1="0"
       x2="1"
       y2="0"
       id="linearGradient584"
       gradientUnits="userSpaceOnUse"
       gradientTransform="matrix(14.5625,25.222992,25.222992,-14.5625,421.8457,242.37012)"
       spreadMethod="pad">
      <stop
         id="stop586"
         style="stop-color:#8d742f;stop-opacity:1"
         offset="0" />
      <stop
         id="stop588"
         style="stop-color:#b39a54;stop-opacity:1"
         offset="0.35000601" />
      <stop
         id="stop590"
         style="stop-color:#d7bd74;stop-opacity:1"
         offset="0.60000598" />
      <stop
         id="stop592"
         style="stop-color:#8d742f;stop-opacity:1"
         offset="1" />
    </linearGradient>
    <linearGradient
       x1="0"
       y1="0"
       x2="1"
       y2="0"
       id="linearGradient2994"
       xlink:href="#linearGradient584"
       gradientUnits="userSpaceOnUse"
       gradientTransform="matrix(14.5625,25.222992,25.222992,-14.5625,421.8457,242.37012)"
       spreadMethod="pad" />
    <linearGradient
       x1="0"
       y1="0"
       x2="1"
       y2="0"
       id="linearGradient2997"
       xlink:href="#linearGradient584"
       gradientUnits="userSpaceOnUse"
       gradientTransform="matrix(168.03483,-291.0449,291.0449,168.03483,215.24107,316.74021)"
       spreadMethod="pad" />
  </defs>
  <metadata
     id="metadata5498">
    <rdf:RDF>
      <cc:Work
         rdf:about="">
        <dc:format>image/svg+xml</dc:format>
        <dc:type
           rdf:resource="http://purl.org/dc/dcmitype/StillImage" />
        <dc:title />
      </cc:Work>
    </rdf:RDF>
  </metadata>
  <path
     d="m 87.301505,257.14332 c -1.846219,0 -3.692439,-0.31201 -5.504042,-1.08466 -6.761779,-2.7924 -10.269597,-10.23498 -8.250294,-17.216 l 23.354679,-79.73361 -79.422062,18.34681 c -1.084654,0.17355 -2.123152,0.31201 -3.196267,0.31201 -5.9540587,0 -11.4119455,-3.64628 -13.43124822,-9.46187 C -1.6285869,161.45191 1.4753699,153.92856 7.9717552,150.6746 L 85.501441,112.55016 39.795966,72.66028 c -5.273265,-4.60401 -6.45023,-12.40429 -2.711635,-18.34681 2.711635,-4.28092 7.304107,-6.66947 12.0812,-6.66947 1.892375,0 3.78475,0.31202 5.63097,1.11928 l 51.071059,21.72769 -5.72329,-38.21674 c -1.038498,-6.94641 3.16166,-13.61587 9.83112,-15.73903 1.44236,-0.44955 2.88472,-0.66925 4.32708,-0.66925 5.27327,0 10.2696,2.96549 12.75046,7.88105 L 144.94972,59.54058 173.11611,7.47719 C 175.68927,2.74625 180.60483,0 185.69348,0 c 1.71929,0 3.4732,0.31201 5.18095,0.94619 6.66947,2.56163 10.4196,9.77342 8.70031,16.71982 l -9.05801,37.09748 c 29.20488,-11.18117 79.0182,-26.19324 136.43563,-26.19324 118.19267,0 249.80505,63.95997 272.79049,186.24894 1.3962,7.25795 -3.02319,14.33128 -10.09651,16.36212 -1.25774,0.35725 -2.61933,0.58895 -3.96938,0.58895 -5.72328,0 -11.08885,-3.51936 -13.24662,-9.06956 -2.38855,-6.12714 -61.07526,-149.68225 -239.12006,-149.68225 -27.71638,0 -51.47491,4.0963 -70.6756,9.41572 l 5.95406,0.13846 c 7.16564,0.18463 13.10816,5.58482 13.88126,12.75046 0.71541,7.16564 -3.92321,13.75433 -10.90423,15.41593 l -69.55633,16.50059 40.12066,42.27843 c 4.86941,5.18095 5.22711,13.07354 0.85388,18.65836 -2.74625,3.56551 -6.9464,5.45788 -11.22732,5.45788 -2.38855,0 -4.82325,-0.58894 -7.02718,-1.80006 l -45.47469,-25.74323 10.90423,51.61338 c 1.48852,6.93487 -2.38855,13.88127 -9.01186,16.31597 -1.62698,0.6351 -3.30012,0.90003 -4.96171,0.90003 -5.08865,0 -9.95805,-2.7001 -12.57737,-7.43103 l -25.60476,-46.97475 -38.216754,69.23323 c -2.619324,4.73094 -7.442573,7.39642 -12.485061,7.39642"
     inkscape:connector-curvature="0"
     id="path580"
     style="fill:#000000;fill-opacity:1;fill-rule:nonzero;stroke:none" />
  <path
     d="m 144.45355,90.49892 -30.19723,-60.34831 9.55418,63.50996 -74.644969,-31.7319 61.929139,53.95577 -96.811151,47.644 103.169061,-23.85085 -30.151075,103.1806 50.794125,-92.04559 38.08982,69.82172 -17.44678,-82.53755 72.97183,41.29762 -57.10588,-60.31369 93.66103,-22.22386 -69.85633,-1.61545 c 0,0 49.21329,-36.50899 134.90096,-36.50899 l 0,0 c 190.52986,0 252.41284,158.74027 252.41284,158.74027 l 0,0 C 565.08008,107.94569 444.46424,42.86645 326.95236,42.86645 l 0,0 c -87.25696,0 -157.12483,36.50899 -157.12483,36.50899 l 0,0 15.86595,-65.09078 -41.23993,76.21426 z"
     inkscape:connector-curvature="0"
     id="path594"
     style="fill:url(#linearGradient2997);fill-opacity:1;fill-rule:nonzero;stroke:none" />
</svg>
