<?xml version="1.0" encoding="UTF-8" standalone="no"?>
<!-- Created with Inkscape (http://www.inkscape.org/) -->

<svg
   xmlns:dc="http://purl.org/dc/elements/1.1/"
   xmlns:cc="http://creativecommons.org/ns#"
   xmlns:rdf="http://www.w3.org/1999/02/22-rdf-syntax-ns#"
   xmlns:svg="http://www.w3.org/2000/svg"
   xmlns="http://www.w3.org/2000/svg"
   xmlns:sodipodi="http://sodipodi.sourceforge.net/DTD/sodipodi-0.dtd"
   xmlns:inkscape="http://www.inkscape.org/namespaces/inkscape"
   version="1.1"
   width="600"
   height="280.20016"
   id="svg5012"
   inkscape:version="0.91 r13725"
   sodipodi:docname="G0801 - From the Vault Angels-Common.svg">
  <sodipodi:namedview
     pagecolor="#ffffff"
     bordercolor="#666666"
     borderopacity="1"
     objecttolerance="10"
     gridtolerance="10"
     guidetolerance="10"
     inkscape:pageopacity="0"
     inkscape:pageshadow="2"
     inkscape:window-width="1141"
     inkscape:window-height="643"
     id="namedview4713"
     showgrid="false"
     inkscape:zoom="1.3717872"
     inkscape:cx="194.18698"
     inkscape:cy="62.878987"
     inkscape:window-x="2180"
     inkscape:window-y="261"
     inkscape:window-maximized="0"
     inkscape:current-layer="svg5012" />
  <defs
     id="defs5014" />
  <metadata
     id="metadata5017">
    <rdf:RDF>
      <cc:Work
         rdf:about="">
        <dc:format>image/svg+xml</dc:format>
        <dc:type
           rdf:resource="http://purl.org/dc/dcmitype/StillImage" />
        <dc:title></dc:title>
      </cc:Work>
    </rdf:RDF>
  </metadata>
  <path
     style="fill:#ffffff;fill-opacity:1"
     d="m 250.3196,212.16098 -48.02577,-48.76248 -17.46392,-0.10778 c -15.35468,-0.0948 -18.81496,-0.52395 -28.65014,-3.55375 -6.15241,-1.8953 -15.56263,-5.5181 -20.91158,-8.05068 l -9.72538,-4.60468 30.69336,-14.34536 c 16.88135,-7.88995 30.9434,-14.74638 31.249,-15.23652 0.3056,-0.49013 -2.15858,-2.26655 -5.47595,-3.94759 -15.3563,-7.78162 -46.24125,-33.981312 -49.41828,-41.921506 -3.30871,-8.269277 -2.69773,-9.48784 2.65392,-5.293099 2.5728,2.016626 6.04693,4.38568 7.72027,5.264565 5.51642,2.897367 23.39478,2.907181 54.339,0.02983 18.96359,-1.763331 35.23932,-2.597672 44.39952,-2.276045 12.97669,0.455626 15.21215,0.885684 21.77416,4.188908 4.02204,2.024634 8.46056,5.267766 9.86337,7.206959 5.51363,7.621771 1.98347,24.573748 -10.42691,50.070658 l -6.05093,12.4315 20.55961,22.18448 c 11.30778,12.20145 21.00354,22.18446 21.54613,22.18446 0.5426,0 10.22721,-9.97097 21.52136,-22.15773 l 20.53482,-22.15773 -7.87303,-13.07162 c -8.70277,-14.44927 -15.10616,-29.41152 -16.293,-38.070411 -1.48167,-10.809936 5.40233,-19.544777 18.28511,-23.201297 8.43663,-2.394568 36.01348,-1.7575 62.37114,1.440868 12.69252,1.540174 29.8134,2.844101 38.04639,2.897618 15.35344,0.09979 19.16483,-0.78778 26.50773,-6.173006 2.78139,-2.039854 2.8067,-2.015008 2.8067,2.755969 0,4.341315 -0.88019,5.660361 -8.95776,13.423943 -10.55285,10.142633 -31.29376,25.836176 -39.92832,30.211636 -3.35108,1.69812 -5.84282,3.48851 -5.53722,3.97864 0.3056,0.49014 14.36765,7.34657 31.249,15.23652 l 30.69336,14.34536 -9.72537,4.60469 c -5.34896,2.53258 -14.75917,6.15538 -20.9116,8.05068 -9.83156,3.02869 -13.30109,3.45944 -28.65013,3.55698 l -17.46392,0.11102 -48.02577,48.59607 c -26.41418,26.72784 -48.30644,48.6695 -48.64949,48.75926 -19.5691,-19.09947 -32.96256,-32.67972 -48.64948,-48.59933 z"
     id="path5289"
     inkscape:connector-curvature="0"
     sodipodi:nodetypes="ccssscssssssssssscssscssssssssssscssscscc" />
  <path
     d="m 417.76678,106.68929 0,0 c 0.0369,0.36037 0.0369,0.72 0.0369,1.08 0,-0.36036 -0.0369,-0.72 -0.0369,-1.08"
     inkscape:connector-curvature="0"
     id="path412"
     style="fill:#ffffff;fill-opacity:1;fill-rule:nonzero;stroke:none" />
  <path
     style="fill:#000000"
     d="m 281.57789,170.15893 z m 30.52836,67.04897 c 6.79621,-7.03234 28.30219,-28.91312 47.79109,-48.62395 l 35.43434,-35.83788 6.18378,2.02262 c 7.54343,2.46733 20.73576,1.71576 34.71048,-1.97746 20.29292,-5.36301 21.98615,-3.37442 -19.7315,-23.17353 l -36.79727,-17.46392 12.96328,-0.62371 c 12.13466,-0.58385 13.51583,-0.9291 21.60769,-5.40124 9.76458,-5.39662 20.46956,-13.392028 26.83998,-20.04644 l 4.29882,-4.490468 -8.69322,0 c -4.78128,0 -21.02992,-1.439172 -36.1081,-3.198162 -30.77472,-3.590112 -55.71402,-4.339042 -64.09912,-1.9249 -7.02942,2.023831 -12.58896,7.462983 -12.58896,12.316358 0,8.04466 8.04725,26.062242 19.56032,43.795072 3.73056,5.74593 6.52836,11.07866 6.21736,11.85051 -0.81498,2.02262 -49.60644,54.41886 -50.67492,54.41886 -0.78201,0 -33.61038,-34.84667 -46.50087,-49.35977 l -4.66101,-5.24771 7.97803,-16.66791 c 8.06707,-16.85392 13.19449,-31.186711 13.19449,-36.882817 0,-1.851736 -1.65234,-4.764241 -4.08036,-7.192255 -7.54171,-7.54172 -24.71866,-8.475467 -69.15711,-3.759415 -9.46037,1.003986 -23.05943,1.83144 -30.22014,1.838785 l -13.01946,0.01335 3.66379,3.858501 c 6.18301,6.511591 23.20229,18.790531 31.35387,22.620961 7.12331,3.34723 8.65934,3.60157 19.53175,3.23395 6.49023,-0.21943 11.61227,-0.0974 11.38229,0.27118 -0.22997,0.36857 -16.98652,8.50801 -37.23677,18.08763 l -36.81865,17.41747 7.2135,2.71486 c 16.47479,6.20042 36.32161,8.28468 46.08552,4.83977 l 5.10468,-1.80103 47.66614,48.57938 c 26.21637,26.71868 48.02239,48.5794 48.45783,48.5794 0.43543,0 6.35223,-5.75374 13.14843,-12.78609 z"
     id="path5291"
     inkscape:connector-curvature="0"
     sodipodi:nodetypes="ccsscssscssscsssssssscssssscssssscsscsss" />
</svg>
