<?xml version="1.0" encoding="UTF-8" standalone="no"?>
<!-- Created with Inkscape (http://www.inkscape.org/) -->

<svg
   xmlns:dc="http://purl.org/dc/elements/1.1/"
   xmlns:cc="http://creativecommons.org/ns#"
   xmlns:rdf="http://www.w3.org/1999/02/22-rdf-syntax-ns#"
   xmlns:svg="http://www.w3.org/2000/svg"
   xmlns="http://www.w3.org/2000/svg"
   xmlns:xlink="http://www.w3.org/1999/xlink"
   xmlns:inkscape="http://www.inkscape.org/namespaces/inkscape"
   version="1.1"
   width="600"
   height="257.13525"
   id="svg5425">
  <defs
     id="defs5427">
    <linearGradient
       x1="0"
       y1="0"
       x2="1"
       y2="0"
       id="linearGradient566"
       gradientUnits="userSpaceOnUse"
       gradientTransform="matrix(14.562622,25.223206,25.223206,-14.562622,354.84619,242.36914)"
       spreadMethod="pad">
      <stop
         id="stop568"
         style="stop-color:#626e77;stop-opacity:1"
         offset="0" />
      <stop
         id="stop570"
         style="stop-color:#a0b6c2;stop-opacity:1"
         offset="0.35000601" />
      <stop
         id="stop572"
         style="stop-color:#b7d1e1;stop-opacity:1"
         offset="0.60000598" />
      <stop
         id="stop574"
         style="stop-color:#a0b6c2;stop-opacity:1"
         offset="0.69999701" />
      <stop
         id="stop576"
         style="stop-color:#626e77;stop-opacity:1"
         offset="1" />
    </linearGradient>
    <linearGradient
       x1="0"
       y1="0"
       x2="1"
       y2="0"
       id="linearGradient2995"
       xlink:href="#linearGradient566"
       gradientUnits="userSpaceOnUse"
       gradientTransform="matrix(14.562622,25.223206,25.223206,-14.562622,354.84619,242.36914)"
       spreadMethod="pad" />
    <linearGradient
       x1="0"
       y1="0"
       x2="1"
       y2="0"
       id="linearGradient2998"
       xlink:href="#linearGradient566"
       gradientUnits="userSpaceOnUse"
       gradientTransform="matrix(168.03037,-291.0372,291.0372,168.03037,215.26025,316.74138)"
       spreadMethod="pad" />
  </defs>
  <metadata
     id="metadata5430">
    <rdf:RDF>
      <cc:Work
         rdf:about="">
        <dc:format>image/svg+xml</dc:format>
        <dc:type
           rdf:resource="http://purl.org/dc/dcmitype/StillImage" />
        <dc:title />
      </cc:Work>
    </rdf:RDF>
  </metadata>
  <path
     d="m 87.319412,257.13526 c -1.846155,0 -3.738464,-0.312 -5.50385,-1.08462 -6.761543,-2.79231 -10.269238,-10.23462 -8.250005,-17.21539 l 23.353862,-79.73083 -79.419287,18.34617 c -1.084616,0.17354 -2.157694,0.31107 -3.196156,0.31107 -5.9538501,0 -11.4115463,-3.64615 -13.47693237,-9.46154 C -1.6075735,161.44627 1.4962749,153.92319 7.9924333,150.66934 L 85.519411,112.54623 39.815533,72.65774 c -5.273081,-4.60385 -6.450005,-12.40385 -2.711541,-18.34616 2.711541,-4.28077 7.303852,-6.66924 12.126932,-6.66924 1.846155,0 3.738464,0.31108 5.584619,1.11923 L 105.88481,70.48851 100.16173,32.2731 c -1.038463,-6.94616 3.11539,-13.61539 9.83078,-15.73847 1.44231,-0.44954 2.88462,-0.66923 4.32693,-0.66923 5.27308,0 10.26923,2.96538 12.75,7.88077 L 144.96561,59.5385 173.13102,7.47693 C 175.70409,2.74616 180.61948,0 185.70795,0 c 1.71923,0 3.47308,0.31108 5.13462,0.94615 6.71539,2.56155 10.46539,9.77309 8.74616,16.71925 l -9.0577,37.09618 c 29.15771,-11.18078 78.96929,-26.19233 136.43086,-26.19233 118.18855,0 249.79634,63.95774 272.78097,186.24244 1.39615,7.2577 -3.02308,14.33078 -10.09616,16.36155 -1.2577,0.35723 -2.61924,0.588 -3.96924,0.588 -5.72308,0 -11.08847,-3.51923 -13.24616,-9.06924 -2.38846,-6.12692 -61.07312,-149.67702 -239.11171,-149.67702 -27.7154,0 -51.47311,4.09615 -70.67313,9.41539 l 5.95385,0.13846 c 7.16539,0.18461 13.10771,5.58462 13.88078,12.75001 0.76154,7.16539 -3.92308,13.75385 -10.90385,15.41539 l -69.5539,16.50001 40.11926,42.27696 c 4.86924,5.18077 5.22693,13.07308 0.9,18.6577 -2.79231,3.56539 -6.99231,5.4577 -11.27308,5.4577 -2.38846,0 -4.82308,-0.588 -7.02693,-1.8 l -45.47311,-25.74233 10.90386,51.61158 c 1.48846,6.93462 -2.38847,13.88078 -9.01155,16.31539 -1.62692,0.63508 -3.33462,0.9 -4.96154,0.9 -5.08847,0 -9.9577,-2.7 -12.57693,-7.43077 l -25.60387,-46.97311 -38.215413,69.23082 c -2.619233,4.73077 -7.442313,7.39616 -12.484625,7.39616"
     inkscape:connector-curvature="0"
     id="path562"
     style="fill:#000000;fill-opacity:1;fill-rule:nonzero;stroke:none" />
  <path
     d="m 144.46955,90.49668 -30.15002,-60.3462 9.5077,63.50774 -74.596214,-31.73079 61.880814,53.95388 -96.807762,47.64234 103.165462,-23.85001 -30.150025,103.17699 50.792345,-92.04237 38.08849,69.81928 -17.49232,-82.53467 73.06159,41.29618 -57.15004,-60.31158 93.62314,-22.22309 -69.81928,-1.61539 c 0,0 49.21158,-36.50772 134.94241,-36.50772 l 0,0 c 190.47706,0 252.35787,158.73473 252.35787,158.73473 l 0,0 C 565.08139,107.94285 444.46976,42.86588 327.00814,42.86588 l 0,0 c -87.34622,0 -157.1655,36.50772 -157.1655,36.50772 l 0,0 15.8654,-65.08851 -41.23849,76.21159 z"
     inkscape:connector-curvature="0"
     id="path578"
     style="fill:url(#linearGradient2998);fill-opacity:1;fill-rule:nonzero;stroke:none" />
</svg>
