<?xml version="1.0" encoding="UTF-8" standalone="no"?>
<!-- Created with Inkscape (http://www.inkscape.org/) -->

<svg
   xmlns:dc="http://purl.org/dc/elements/1.1/"
   xmlns:cc="http://creativecommons.org/ns#"
   xmlns:rdf="http://www.w3.org/1999/02/22-rdf-syntax-ns#"
   xmlns:svg="http://www.w3.org/2000/svg"
   xmlns="http://www.w3.org/2000/svg"
   xmlns:xlink="http://www.w3.org/1999/xlink"
   xmlns:inkscape="http://www.inkscape.org/namespaces/inkscape"
   version="1.1"
   width="600"
   height="510.31689"
   id="svg5565">
  <defs
     id="defs5567">
    <radialGradient
       cx="0"
       cy="0"
       r="1"
       fx="0"
       fy="0"
       id="radialGradient358"
       gradientUnits="userSpaceOnUse"
       gradientTransform="matrix(17.571762,0,0,-17.571762,218.3916,483.67627)"
       spreadMethod="pad">
      <stop
         id="stop360"
         style="stop-color:#d7bd74;stop-opacity:1"
         offset="0" />
      <stop
         id="stop362"
         style="stop-color:#b39a54;stop-opacity:1"
         offset="0.69101" />
      <stop
         id="stop364"
         style="stop-color:#8d742f;stop-opacity:1"
         offset="1" />
    </radialGradient>
    <radialGradient
       cx="0"
       cy="0"
       r="1"
       fx="0"
       fy="0"
       id="radialGradient300"
       gradientUnits="userSpaceOnUse"
       gradientTransform="matrix(17.571762,0,0,-17.571762,219.67139,483.67627)"
       spreadMethod="pad">
      <stop
         id="stop302"
         style="stop-color:#d7bd74;stop-opacity:1"
         offset="0" />
      <stop
         id="stop304"
         style="stop-color:#b39a54;stop-opacity:1"
         offset="0.69101" />
      <stop
         id="stop306"
         style="stop-color:#8d742f;stop-opacity:1"
         offset="1" />
    </radialGradient>
    <radialGradient
       cx="0"
       cy="0"
       r="1"
       fx="0"
       fy="0"
       id="radialGradient3019"
       xlink:href="#radialGradient358"
       gradientUnits="userSpaceOnUse"
       gradientTransform="matrix(17.571762,0,0,-17.571762,218.3916,483.67627)"
       spreadMethod="pad" />
  </defs>
  <metadata
     id="metadata5570">
    <rdf:RDF>
      <cc:Work
         rdf:about="">
        <dc:format>image/svg+xml</dc:format>
        <dc:type
           rdf:resource="http://purl.org/dc/dcmitype/StillImage" />
        <dc:title />
      </cc:Work>
    </rdf:RDF>
  </metadata>
  <path
     d="M 419.35319,0 179.54965,0 178.40147,0.15309 C 162.26318,1.90087 139.83542,13.56126 132.3595,38.08126 112.02398,43.70734 35.42769,65.08898 35.42769,65.08898 L 34.4326,65.43292 C 21.27958,70.52318 0,87.56726 0,118.75945 c 0,5.57505 0.70115,11.60937 2.19429,18.14123 l 91.4971,341.41736 2.48772,3.38075 c 10.37188,13.80366 35.52976,34.93015 64.28526,26.76533 0,0 128.97876,-35.47873 139.59303,-38.42572 10.66531,2.94699 139.73337,38.47675 139.73337,38.47675 28.55138,8.11379 53.77304,-13.0127 64.08114,-26.81636 l 2.53875,-3.34248 91.30573,-340.805 C 599.26006,130.81533 600,124.64068 600,118.96357 600,87.51623 578.82247,70.52318 565.66945,65.43292 l -0.99509,-0.34394 c 0,0 -76.59629,-21.38164 -96.93181,-27.00772 -7.47592,-24.52 -29.90368,-36.18039 -46.093,-37.92817 L 420.50137,0 419.35319,0 z"
     inkscape:connector-curvature="0"
     id="path348"
     style="fill:#000000;fill-opacity:1;fill-rule:nonzero;stroke:none" />
  <path
     d="m 180.74886,21.72609 c 0,0 -29.40613,3.18939 -29.40613,33.59061 l -109.077,30.40123 c 0,0 -27.31389,10.51221 -18.89392,46.19506 l 90.19583,336.73534 c 0,0 18.89392,25.20891 40.91344,18.88117 L 300.0574,447.50909 445.56994,487.5295 c 22.01952,6.32774 40.91344,-18.88117 40.91344,-18.88117 L 576.73024,131.91299 C 585.09918,96.23014 557.84907,85.71793 557.84907,85.71793 L 448.75932,55.3167 c 0,-30.40122 -29.40613,-33.59061 -29.40613,-33.59061 l -238.60433,0 z"
     inkscape:connector-curvature="0"
     id="path350"
     style="fill:#8d742f;fill-opacity:1;fill-rule:nonzero;stroke:none" />
  <path
     d="m 181.69292,34.3433 c -1.39057,0.24189 -5.57505,1.18645 -9.56816,3.84002 -5.57504,3.7252 -8.16482,9.15992 -8.16482,17.13338 l 0,9.56816 c 0,0 -115.81298,32.3021 -117.4587,32.74861 -3.04905,1.39057 -12.11967,6.87632 -12.11967,21.36889 0,2.94699 0.35721,6.23844 1.25024,9.9764 0.15309,0.54806 87.96326,328.45569 89.40486,333.73732 3.89105,4.38859 15.24527,15.79384 26.01263,12.75754 l 149.0081,-41.0155 148.99535,41.0155 c 10.76736,3.0363 22.13433,-8.36895 26.01263,-12.75754 1.40333,-5.28163 89.25177,-333.18875 89.40486,-333.73732 0.90629,-3.73796 1.30127,-7.02941 1.30127,-9.9764 0,-14.49257 -9.12165,-19.97832 -12.15794,-21.36889 -1.64572,-0.446 -117.4587,-32.74861 -117.4587,-32.74861 l 0,-9.56816 c 0,-7.97346 -2.60254,-13.40818 -8.17758,-17.13338 -3.99311,-2.65357 -8.17759,-3.59762 -9.56816,-3.84002 l -236.71621,0 z"
     inkscape:connector-curvature="0"
     id="path352"
     style="fill:#000000;fill-opacity:1;fill-rule:nonzero;stroke:none" />
  <path
     d="m 438.69362,81.53345 0,323.82471 c 0,0 -2.7939,20.97341 -19.58283,20.97341 l -90.89749,0 121.64317,33.59061 c 0,0 7.02941,3.49556 10.51222,-4.18448 l 89.50692,-332.24469 c 0,0 3.53384,-10.46118 -4.88614,-13.25509 L 438.69362,81.53345 z M 55.07431,110.93959 c -8.38171,2.78114 -4.88614,13.25509 -4.88614,13.25509 l 89.54519,332.24469 c 3.49557,7.66728 10.47395,4.18447 10.47395,4.18447 l 121.6942,-33.53958 -90.8975,0 c -16.80168,0 -19.59558,-21.03719 -19.59558,-21.03719 l 0,-323.81195 -106.33412,28.70447 z m 128.02194,-60.85348 234.26676,0 c 4.93717,0 5.57505,6.27671 5.57505,6.27671 l 0,348.29368 c 0,5.5878 -5.57505,6.97838 -5.57505,6.97838 l -234.26676,0 c -4.88614,0 -4.88614,-6.97838 -4.88614,-6.97838 l 0,-348.29368 c 0,-4.18447 4.88614,-6.27671 4.88614,-6.27671"
     inkscape:connector-curvature="0"
     id="path354"
     style="fill:#8d742f;fill-opacity:1;fill-rule:nonzero;stroke:none" />
  <g
     transform="matrix(12.757543,0,0,-12.757543,-2486.0752,6426.2674)"
     id="g356">
    <path
       d="m 209.324,499.398 c -0.047,-0.035 -0.086,-0.074 -0.086,-0.093 l 0,0 0,-27.297 c 0.004,-0.067 0.024,-0.153 -0.015,-0.153 l 0,0 18.297,0 c 0.05,0.024 0.105,0.067 0.105,0.149 l 0,0 0.004,27.254 c -0.008,0.054 -0.039,0.129 -0.043,0.14 l 0,0 -18.262,0 z m 20.332,-27.503 c -0.094,-0.688 -0.617,-1.993 -1.933,-1.993 l 0,0 -4.184,0 6.77,-1.871 c 0.015,-0.004 0.062,-0.023 0.113,-0.023 l 0,0 c 0.035,0 0.098,0 0.148,0.097 l 0,0 7.024,26.063 c 0.023,0.07 0.129,0.449 -0.11,0.527 l 0,0 -7.828,2.114 0,-24.914 z m -30.344,22.753 c -0.261,-0.089 -0.14,-0.492 -0.121,-0.558 l 0,0 6.997,-25.981 c 0.07,-0.152 0.132,-0.152 0.175,-0.152 l 0,0 c 0.047,0 0.098,0.016 0.176,0.047 l 0,0 6.695,1.844 -4.175,0 c -1.321,0 -1.84,1.304 -1.938,2.047 l 0,0 0,24.859 -7.809,-2.106 z"
       inkscape:connector-curvature="0"
       id="path366"
       style="fill:url(#radialGradient3019);fill-opacity:1;fill-rule:nonzero;stroke:none" />
  </g>
</svg>
