<?xml version="1.0" encoding="UTF-8" standalone="no"?>
<!-- Created with Inkscape (http://www.inkscape.org/) -->

<svg
   xmlns:dc="http://purl.org/dc/elements/1.1/"
   xmlns:cc="http://creativecommons.org/ns#"
   xmlns:rdf="http://www.w3.org/1999/02/22-rdf-syntax-ns#"
   xmlns:svg="http://www.w3.org/2000/svg"
   xmlns="http://www.w3.org/2000/svg"
   xmlns:xlink="http://www.w3.org/1999/xlink"
   xmlns:inkscape="http://www.inkscape.org/namespaces/inkscape"
   version="1.1"
   width="600"
   height="474.91141"
   id="svg4356">
  <defs
     id="defs4358">
    <radialGradient
       cx="0"
       cy="0"
       r="1"
       fx="0"
       fy="0"
       id="radialGradient310"
       gradientUnits="userSpaceOnUse"
       gradientTransform="matrix(17.89679,0,0,-17.89679,662.91992,481.54248)"
       spreadMethod="pad">
      <stop
         id="stop312"
         style="stop-color:#b7d1e1;stop-opacity:1"
         offset="0" />
      <stop
         id="stop314"
         style="stop-color:#a0b6c2;stop-opacity:1"
         offset="0.66291797" />
      <stop
         id="stop316"
         style="stop-color:#626e77;stop-opacity:1"
         offset="1" />
    </radialGradient>
    <radialGradient
       cx="0"
       cy="0"
       r="1"
       fx="0"
       fy="0"
       id="radialGradient2995"
       xlink:href="#radialGradient310"
       gradientUnits="userSpaceOnUse"
       gradientTransform="matrix(17.89679,0,0,-17.89679,662.91992,481.54248)"
       spreadMethod="pad" />
    <radialGradient
       cx="0"
       cy="0"
       r="1"
       fx="0"
       fy="0"
       id="radialGradient2998"
       xlink:href="#radialGradient310"
       gradientUnits="userSpaceOnUse"
       gradientTransform="matrix(212.48452,0,0,212.48452,323.46088,247.38757)"
       spreadMethod="pad" />
  </defs>
  <metadata
     id="metadata4361">
    <rdf:RDF>
      <cc:Work
         rdf:about="">
        <dc:format>image/svg+xml</dc:format>
        <dc:type
           rdf:resource="http://purl.org/dc/dcmitype/StillImage" />
        <dc:title />
      </cc:Work>
    </rdf:RDF>
  </metadata>
  <path
     d="m 555.61017,64.74271 c 0,0 -26.07261,40.48616 -104.30231,81.20977 -86.50503,45.03343 -135.43273,39.51259 -151.75779,37.42298 -22.26145,-2.87321 -34.13422,0.28495 -39.22764,2.42205 -3.47873,1.4841 -32.009,14.60351 -38.96645,43.1694 -8.29906,34.13423 -11.0298,60.28994 -11.21977,61.69093 -0.92607,7.50359 -1.53158,14.33044 -1.85215,19.8869 0,0 -0.55754,24.58851 -21.94088,34.32418 C 98.828965,384.57148 51.242889,389.99734 50.554269,390.04483 L 0,394.62772 41.732798,423.47856 c 1.306005,0.92607 33.493093,22.6295 71.616572,9.17765 18.73523,-6.62501 26.89183,-3.7518 28.93394,-2.68325 0,0 16.64563,6.25695 27.46173,44.93845 0,0 4.4048,-41.69718 13.53496,-52.31144 5.10529,-7.27801 15.81453,-14.61538 30.75048,-20.96732 l 0.36758,-0.13107 0.37993,-0.18997 c 10.47179,-4.91532 24.01862,-8.90458 29.07643,-8.6315 26.76123,19.5782 107.50796,56.49065 159.30887,-8.76211 l 12.79885,-16.1351 -17.4886,-10.8992 c -3.24127,-2.04212 -8.85709,-6.07886 -14.50853,-11.31476 36.91245,-3.71617 93.26064,-27.46172 155.49771,-118.35967 l 17.29863,-25.22965 c 0,0 -5.47334,-0.60503 -9.64069,-1.06855 7.56296,-10.66175 52.82197,-77.49359 52.82197,-140.43116 0,0 1.43661,-31.3085 -10.06811,-60.47991 0,0 -9.78317,33.94426 -34.26482,64.74224"
     inkscape:connector-curvature="0"
     id="path304"
     style="fill:#ffffff;fill-opacity:1;fill-rule:nonzero;stroke:none" />
  <path
     d="m 239.21264,233.2886 c -8.1566,33.52871 -10.80423,59.31638 -10.80423,59.31638 -2.2677,17.66668 -2.2677,31.80716 -2.2677,31.80716 92.70262,-48.97519 236.94494,-163.93926 236.94494,-163.93926 -92.01399,49.7588 -146.04699,43.63244 -165.89826,41.09167 -19.56633,-2.50515 -28.05537,0.46256 -29.82441,1.15166 0,0 -23.14003,10.06811 -28.15034,30.57239 m -75.13091,196.90995 c -6.16197,-20.12436 -27.12929,-25.36025 -56.85871,-14.84097 -29.729429,10.48366 -55.101545,-6.99306 -55.101545,-6.99306 0,0 104.907825,-8.77398 292.046475,-131.15853 C 531.3066,154.76208 581.57593,58.1652 581.57593,58.1652 c 1.306,62.51015 -50.26933,133.33124 -50.26933,133.33124 -24.49353,0 -53.33249,16.59814 -53.33249,16.59814 14.84096,5.24776 46.32756,8.77398 46.32756,8.77398 -98.78148,144.27794 -176.60751,106.66499 -176.60751,106.66499 7.00494,27.97225 41.09167,48.97519 41.09167,48.97519 -47.26551,59.45885 -124.15359,13.0838 -135.51583,4.35731 -11.36224,-8.76211 -46.37505,7.88352 -46.37505,7.88352 -22.49891,9.51009 -33.20815,19.5782 -38.77648,27.50922 -4.82035,6.81497 -4.03674,17.93976 -4.03674,17.93976"
     inkscape:connector-curvature="0"
     id="path306"
     style="fill:#626e77;fill-opacity:1;fill-rule:nonzero;stroke:none" />
  <path
     d="M 347.45671,282.16862 C 206.19445,374.55067 112.18583,402.55854 73.041301,410.86948 l 0,0 c 4.309817,1.10417 9.225145,1.89965 14.567893,1.89965 l 0,0 c 6.019496,0 11.955883,-1.02106 17.619196,-3.01569 l 0,0 c 10.57864,-3.71618 20.26682,-5.61582 28.80335,-5.61582 l 0,0 c 11.17228,0 20.26682,3.25314 26.71374,9.36762 l 0,0 c 0.653,-1.62657 1.48409,-3.19378 2.50515,-4.67788 l 0,0 c 7.93101,-11.36224 21.8934,-21.28788 41.13916,-29.45635 l 0,0 c 0.92608,-0.46303 23.28251,-10.99418 39.18015,-10.99418 l 0,0 c 5.56833,0 10.02062,1.306 13.27376,3.76366 l 0,0 c 8.20409,6.30445 38.76461,24.25608 70.85671,24.25608 l 0,0 c 20.77736,0 38.31344,-7.65794 52.27583,-22.72449 l 0,0 c -10.53115,-7.61044 -32.32957,-25.69268 -38.07599,-48.70211 l 0,0 -3.01568,-12.09836 11.31475,5.28338 c 0.095,0.095 8.39405,3.84678 22.58201,3.84678 l 0,0 c 26.20322,0 78.7996,-13.30938 141.03668,-100.50302 l 0,0 c -10.70924,-1.4841 -27.68731,-4.21484 -37.79104,-7.78854 l 0,0 -12.2527,-4.35731 11.27913,-6.39942 c 1.10417,-0.7005 28.15035,-16.05199 53.09505,-17.29863 l 0,0 c 7.46797,-10.89921 37.93351,-57.51172 45.73392,-104.34981 l 0,0 c -24.67162,34.77535 -88.45216,110.55927 -226.42566,200.86358 m -26.01325,-73.00568 c -11.55221,0 -20.31431,-1.10417 -24.99218,-1.70968 l 0,0 c -4.87971,-0.60551 -9.4626,-0.92608 -13.49935,-0.92608 l 0,0 c -8.90458,0 -12.89383,1.53159 -13.17878,1.66219 l 0,0 c -0.17809,0.0475 -20.58738,9.18953 -24.80222,26.48816 l 0,0 c -7.93101,32.7451 -10.62613,58.29531 -10.67362,58.66337 l 0,0 c -1.06855,8.07348 -1.57908,15.39899 -1.85216,20.91983 l 0,0 c 59.36387,-32.88759 136.95244,-89.60382 184.30106,-125.49522 l 0,0 c -34.31231,13.53496 -66.27382,20.39743 -95.30275,20.39743"
     inkscape:connector-curvature="0"
     id="path318"
     style="fill:url(#radialGradient2998);fill-opacity:1;fill-rule:nonzero;stroke:none" />
</svg>
