<?xml version="1.0" encoding="UTF-8" standalone="no"?>
<!-- Created with Inkscape (http://www.inkscape.org/) -->

<svg
   xmlns:dc="http://purl.org/dc/elements/1.1/"
   xmlns:cc="http://creativecommons.org/ns#"
   xmlns:rdf="http://www.w3.org/1999/02/22-rdf-syntax-ns#"
   xmlns:svg="http://www.w3.org/2000/svg"
   xmlns="http://www.w3.org/2000/svg"
   xmlns:xlink="http://www.w3.org/1999/xlink"
   xmlns:inkscape="http://www.inkscape.org/namespaces/inkscape"
   version="1.1"
   width="600"
   height="266.11792"
   id="svg5561">
  <defs
     id="defs5563">
    <linearGradient
       x1="0"
       y1="0"
       x2="1"
       y2="0"
       id="linearGradient602"
       gradientUnits="userSpaceOnUse"
       gradientTransform="matrix(14.5625,25.222992,25.222992,-14.5625,488.3457,242.37012)"
       spreadMethod="pad">
      <stop
         id="stop604"
         style="stop-color:#bb2c26;stop-opacity:1"
         offset="0" />
      <stop
         id="stop606"
         style="stop-color:#e07823;stop-opacity:1"
         offset="0.35000601" />
      <stop
         id="stop608"
         style="stop-color:#f7981d;stop-opacity:1"
         offset="0.60000598" />
      <stop
         id="stop610"
         style="stop-color:#e07823;stop-opacity:1"
         offset="0.69999701" />
      <stop
         id="stop612"
         style="stop-color:#bb2c26;stop-opacity:1"
         offset="1" />
    </linearGradient>
    <linearGradient
       x1="0"
       y1="0"
       x2="1"
       y2="0"
       id="linearGradient2997"
       xlink:href="#linearGradient602"
       gradientUnits="userSpaceOnUse"
       gradientTransform="matrix(14.5625,25.222992,25.222992,-14.5625,488.3457,242.37012)"
       spreadMethod="pad" />
    <linearGradient
       x1="0"
       y1="0"
       x2="1"
       y2="0"
       id="linearGradient3000"
       xlink:href="#linearGradient602"
       gradientUnits="userSpaceOnUse"
       gradientTransform="matrix(163.62702,-283.41034,283.41034,163.62702,217.47195,316.29696)"
       spreadMethod="pad" />
  </defs>
  <metadata
     id="metadata5566">
    <rdf:RDF>
      <cc:Work
         rdf:about="">
        <dc:format>image/svg+xml</dc:format>
        <dc:type
           rdf:resource="http://purl.org/dc/dcmitype/StillImage" />
        <dc:title />
      </cc:Work>
    </rdf:RDF>
  </metadata>
  <path
     d="m 92.88845,266.11748 c -2.898937,0 -5.707984,-0.52855 -8.337253,-1.61801 -10.314823,-4.30346 -15.71943,-15.53965 -12.595769,-26.2028 l 18.955453,-64.83282 -64.259773,14.83178 c -1.88768,0.39371 -3.415802,0.57349 -4.86527,0.57349 -9.179968,0 -17.4273316,-5.83158 -20.5060478,-14.48345 C -2.450625,164.0259 2.212394,152.48634 12.167659,147.51994 L 77.090367,115.6204 41.494116,84.54109 C 33.325405,77.51847 31.617504,65.70924 37.314253,56.58545 41.314337,50.16959 48.202121,46.34928 55.797786,46.34928 c 2.943882,0 5.842819,0.61844 8.561977,1.80903 l 36.776047,15.6183 -3.505687,-23.30385 c -1.629248,-10.66315 4.741667,-20.76448 14.966597,-24.01174 2.05623,-0.6517 4.30347,-1.01126 6.58441,-1.01126 8.24737,0 15.7082,4.61807 19.43861,12.03396 l 10.66315,21.32629 20.28132,-37.39404 C 173.33957,4.3484 180.66557,0 188.69944,0 c 2.7641,0 5.44955,0.4836 7.89904,1.44947 10.14628,3.91019 15.88798,14.93289 13.25871,25.50615 l -5.31472,21.85439 c 30.73098,-10.48337 73.51839,-20.97797 121.71041,-20.97797 118.29462,0 250.18502,64.51821 273.35404,187.81292 2.11241,11.05641 -4.472,21.7645 -15.35987,24.88816 -1.84273,0.5735 -3.89896,0.87643 -6.05631,0.87643 -9.00018,0 -16.94417,-5.44955 -20.23637,-13.83175 -2.28095,-5.7417 -57.36076,-140.75576 -225.51035,-140.75576 -15.22503,0 -30.23658,1.31463 -44.80992,3.95514 1.66295,2.67421 2.7641,5.74169 3.11242,9.07884 1.14609,10.93281 -6.0563,20.97797 -16.62956,23.48364 l -54.42811,12.89915 29.67478,31.34897 c 7.326,7.7642 7.94399,19.96671 1.35958,28.34891 -4.21357,5.35966 -10.44965,8.38219 -17.1689,8.38219 -3.73041,0 -7.46083,-1.01125 -10.70809,-2.80904 l -29.14667,-16.46102 7.06756,33.18047 c 2.24724,10.62943 -3.55064,21.1128 -13.82051,24.88816 -2.37084,0.92137 -4.92146,1.40452 -7.55072,1.40452 -7.98894,0 -15.26999,-4.38211 -19.09029,-11.40473 l -18.09027,-33.10182 -30.28153,54.86632 c -3.86525,6.93273 -11.1463,11.23619 -19.04534,11.23619"
     inkscape:connector-curvature="0"
     id="path596"
     style="fill:#ffffff;fill-opacity:1;fill-rule:nonzero;stroke:none" />
  <path
     d="m 92.88845,258.26338 c -1.79779,0 -3.59558,-0.30382 -5.359662,-1.0562 -6.584408,-2.71916 -10.00021,-9.9665 -8.033876,-16.76439 l 22.742048,-77.64208 -77.338697,17.86554 c -1.056202,0.1681 -2.067459,0.30383 -3.112425,0.30383 -5.797874,0 -11.112592,-3.55064 -13.078926,-9.21368 -2.4157809,-6.67429 0.6067543,-14.00029 6.93273,-17.1689 L 91.135605,117.46313 46.629055,78.61962 c -5.134939,-4.48324 -6.281031,-12.0789 -2.640505,-17.86554 2.640505,-4.16863 7.112509,-6.49452 11.764291,-6.49452 1.842736,0 3.685471,0.30383 5.483261,1.08991 l 49.731378,21.15775 -5.57315,-37.21426 c -1.01126,-6.76419 3.07871,-13.25871 9.57323,-15.32617 1.40452,-0.43866 2.80905,-0.6517 4.21357,-0.6517 5.13494,0 10.00021,2.8877 12.41599,7.67432 l 17.42733,34.85466 27.42754,-50.69769 c 2.50567,-4.60684 7.29229,-7.28105 12.24745,-7.28105 1.67419,0 3.38209,0.30383 5.04505,0.92137 6.49452,2.49443 10.14628,9.51705 8.47209,16.28124 l -8.82041,36.12435 c 28.4388,-10.88787 76.94543,-25.50615 132.85671,-25.50615 115.0923,0 243.25229,62.2822 265.63478,181.36335 1.35958,7.06756 -2.94388,13.95535 -9.83167,15.93291 -1.22474,0.34788 -2.55061,0.5726 -3.86525,0.5726 -5.57315,0 -10.79797,-3.42704 -12.89914,-8.83165 -2.32589,-5.96641 -59.47316,-145.75586 -232.84758,-145.75586 -26.98932,0 -50.12464,3.98885 -68.82166,9.16874 l 5.79787,0.13483 c 6.97768,0.17978 12.76432,5.43832 13.51714,12.41599 0.69664,6.97767 -3.8203,13.39354 -10.6182,15.01155 l -67.73176,16.06775 39.06824,41.1694 c 4.74167,5.04505 5.08999,12.73061 0.83148,18.16892 -2.67422,3.47199 -6.76419,5.31472 -10.93282,5.31472 -2.32589,0 -4.69672,-0.57349 -6.84284,-1.75284 l -44.28182,-25.06795 10.6182,50.25948 c 1.44947,6.75296 -2.32589,13.51714 -8.77547,15.88798 -1.5843,0.61754 -3.21355,0.87642 -4.83156,0.87642 -4.95516,0 -9.69683,-2.62927 -12.24745,-7.23611 l -24.9331,-45.74253 -37.21427,67.41714 c -2.55061,4.60684 -7.247334,7.2024 -12.15755,7.2024"
     inkscape:connector-curvature="0"
     id="path598"
     style="fill:#ffffff;fill-opacity:1;fill-rule:nonzero;stroke:none" />
  <path
     d="m 148.5413,95.99032 -29.36017,-58.76527 9.25862,61.84399 -72.686909,-30.89952 60.304629,52.54042 -94.271632,46.39423 100.462772,-23.2252 -29.36016,100.47401 49.46171,-89.63109 37.09066,67.99019 -16.98912,-80.37247 71.05767,40.21432 -55.60791,-58.73156 91.17045,-21.64091 -67.99019,-1.57306 c 0,0 47.92236,-35.55131 131.3623,-35.55131 l 0,0 c 185.53198,0 245.79167,154.57627 245.79167,154.57627 l 0,0 C 558.13414,112.97944 440.68225,49.60733 326.25288,49.60733 l 0,0 c -84.96807,0 -153.0032,35.5513 -153.0032,35.5513 l 0,0 15.44976,-63.38334 -40.15814,74.21503 z"
     inkscape:connector-curvature="0"
     id="path614"
     style="fill:url(#linearGradient3000);fill-opacity:1;fill-rule:nonzero;stroke:none" />
</svg>
