<?xml version="1.0" encoding="UTF-8" standalone="no"?>
<!-- Created with Inkscape (http://www.inkscape.org/) -->

<svg
   xmlns:dc="http://purl.org/dc/elements/1.1/"
   xmlns:cc="http://creativecommons.org/ns#"
   xmlns:rdf="http://www.w3.org/1999/02/22-rdf-syntax-ns#"
   xmlns:svg="http://www.w3.org/2000/svg"
   xmlns="http://www.w3.org/2000/svg"
   xmlns:xlink="http://www.w3.org/1999/xlink"
   xmlns:inkscape="http://www.inkscape.org/namespaces/inkscape"
   version="1.1"
   width="600"
   height="556.00079"
   id="svg2"
   xml:space="preserve"><metadata
     id="metadata8"><rdf:RDF><cc:Work
         rdf:about=""><dc:format>image/svg+xml</dc:format><dc:type
           rdf:resource="http://purl.org/dc/dcmitype/StillImage" /><dc:title /></cc:Work></rdf:RDF></metadata><defs
     id="defs6"><radialGradient
       cx="0"
       cy="0"
       r="1"
       fx="0"
       fy="0"
       id="radialGradient24"
       gradientUnits="userSpaceOnUse"
       gradientTransform="matrix(-159.82355,81.434906,63.733643,125.08319,219.66797,226.33545)"
       spreadMethod="pad"><stop
         id="stop26"
         style="stop-color:#fae19a;stop-opacity:1"
         offset="0" /><stop
         id="stop28"
         style="stop-color:#735d33;stop-opacity:1"
         offset="1" /></radialGradient><clipPath
       id="clipPath36"><path
         d="M 0,278 300,278 300,0 0,0 0,278 z"
         inkscape:connector-curvature="0"
         id="path38" /></clipPath><radialGradient
       cx="0"
       cy="0"
       r="1"
       fx="0"
       fy="0"
       id="radialGradient56"
       gradientUnits="userSpaceOnUse"
       gradientTransform="matrix(-159.50339,30.393158,22.698257,119.12048,175,147)"
       spreadMethod="pad"><stop
         id="stop58"
         style="stop-color:#fae19a;stop-opacity:1"
         offset="0" /><stop
         id="stop60"
         style="stop-color:#735d33;stop-opacity:1"
         offset="1" /></radialGradient><clipPath
       id="clipPath68"><path
         d="M 0,278 300,278 300,0 0,0 0,278 z"
         inkscape:connector-curvature="0"
         id="path70" /></clipPath><radialGradient
       cx="0"
       cy="0"
       r="1"
       fx="0"
       fy="0"
       id="radialGradient3032"
       xlink:href="#radialGradient56"
       gradientUnits="userSpaceOnUse"
       gradientTransform="matrix(-159.50339,30.393158,22.698257,119.12048,175,147)"
       spreadMethod="pad" /><radialGradient
       cx="0"
       cy="0"
       r="1"
       fx="0"
       fy="0"
       id="radialGradient3039"
       xlink:href="#radialGradient24"
       gradientUnits="userSpaceOnUse"
       gradientTransform="matrix(-159.82355,81.434906,63.733643,125.08319,219.66797,226.33545)"
       spreadMethod="pad" /><radialGradient
       cx="0"
       cy="0"
       r="1"
       fx="0"
       fy="0"
       id="radialGradient3044"
       xlink:href="#radialGradient24"
       gradientUnits="userSpaceOnUse"
       gradientTransform="matrix(-159.82355,81.434906,63.733643,125.08319,219.66797,226.33545)"
       spreadMethod="pad" /><radialGradient
       cx="0"
       cy="0"
       r="1"
       fx="0"
       fy="0"
       id="radialGradient3049"
       xlink:href="#radialGradient56"
       gradientUnits="userSpaceOnUse"
       gradientTransform="matrix(-159.50339,30.393158,22.698257,119.12048,175,147)"
       spreadMethod="pad" /><radialGradient
       cx="0"
       cy="0"
       r="1"
       fx="0"
       fy="0"
       id="radialGradient3055"
       xlink:href="#radialGradient56"
       gradientUnits="userSpaceOnUse"
       gradientTransform="matrix(-159.50339,30.393158,22.698257,119.12048,175,147)"
       spreadMethod="pad" /><radialGradient
       cx="0"
       cy="0"
       r="1"
       fx="0"
       fy="0"
       id="radialGradient3058"
       xlink:href="#radialGradient56"
       gradientUnits="userSpaceOnUse"
       gradientTransform="matrix(-159.50339,30.393158,22.698257,119.12048,175,147)"
       spreadMethod="pad" /><radialGradient
       cx="0"
       cy="0"
       r="1"
       fx="0"
       fy="0"
       id="radialGradient3060"
       xlink:href="#radialGradient24"
       gradientUnits="userSpaceOnUse"
       gradientTransform="matrix(-159.82355,81.434906,63.733643,125.08319,219.66797,226.33545)"
       spreadMethod="pad" /><radialGradient
       cx="0"
       cy="0"
       r="1"
       fx="0"
       fy="0"
       id="radialGradient3063"
       xlink:href="#radialGradient24"
       gradientUnits="userSpaceOnUse"
       gradientTransform="matrix(-159.82355,81.434906,63.733643,125.08319,219.66797,226.33545)"
       spreadMethod="pad" /></defs><g
     transform="matrix(2.0000029,0,0,-2.0000029,-7.7214524e-4,556.00081)"
     id="g10"><path
       d="m 230.098,273.043 c -1.805,-0.561 -3.105,-2.139 -3.31,-4.017 l 0,0 c -0.412,-3.786 -1.216,-7.324 -2.279,-10.192 l 0,0 c -13.43,8.392 -33.327,9.115 -39.692,9.115 l 0,0 c -1.703,0 -3.396,-0.041 -5.035,-0.126 l 0,0 c -33.162,-1.68 -60.175,-15.872 -78.118,-41.037 l 0,0 c -15.16,-21.261 -23.285,-49.634 -22.88,-79.89 l 0,0 c 0.025,-1.816 1.085,-3.459 2.73,-4.231 l 0,0 155.55,-72.908 c 0.65,-0.305 1.335,-0.451 2.011,-0.451 l 0,0 c 1.707,0 3.352,0.926 4.2,2.531 l 0,0 c 12.866,24.351 13.215,42.419 -0.764,61.398 l 0,0 c 9.107,-6.313 15.997,-13.167 20.97,-18.115 l 0,0 c 1.041,-1.034 1.998,-1.987 2.878,-2.839 l 0,0 c 0.583,-0.566 1.301,-0.971 2.088,-1.179 l 0,0 c 1.687,-0.445 3.489,-0.671 5.354,-0.671 l 0,0 c 6.577,0 13.217,2.739 17.33,7.15 l 0,0 c 2.951,3.165 4.366,6.908 4.092,10.826 l 0,0 c -0.058,0.809 -0.322,1.592 -0.767,2.269 l 0,0 c -1.358,2.068 -2.864,4.285 -4.46,6.636 l 0,0 c -9.806,14.436 -23.236,34.209 -24.565,53.283 l 0,0 c -1.433,20.569 -10.169,34.816 -18.508,46.524 l 0,0 c -0.791,15.238 -6.432,28.225 -11.82,34.487 l 0,0 c -0.916,1.065 -2.238,1.65 -3.598,1.65 l 0,0 c -0.469,0 -0.942,-0.069 -1.407,-0.213"
       inkscape:connector-curvature="0"
       id="path30"
       style="fill:url(#radialGradient3063);stroke:none" /><path
       d="m 231.5049,278 c -0.938,0 -1.886,-0.14 -2.813,-0.426 -3.612,-1.121 -6.213,-4.278 -6.622,-8.035 -0.141,-1.294 -0.332,-2.558 -0.565,-3.762 -13.899,6.309 -30.788,6.915 -36.688,6.915 -1.783,0 -3.557,-0.044 -5.276,-0.131 -34.661,-1.757 -62.928,-16.634 -81.742,-43.022 -15.74,-22.077 -24.178,-51.449 -23.76,-82.706 0.049,-3.633 2.169,-6.92 5.461,-8.463 l 155.548,-72.908 c 1.301,-0.609 2.673,-0.899 4.024,-0.899 3.416,0 6.704,1.85 8.399,5.058 9.463,17.909 12.257,32.083 8.988,45.761 1.327,-1.288 2.552,-2.506 3.675,-3.623 1.057,-1.051 2.029,-2.019 2.923,-2.884 1.167,-1.13 2.604,-1.941 4.176,-2.357 2.083,-0.553 4.292,-0.831 6.568,-0.831 7.85,0 15.82,3.319 20.801,8.659 3.817,4.092 5.718,9.204 5.354,14.393 -0.113,1.619 -0.64,3.182 -1.532,4.54 -1.386,2.11 -2.898,4.338 -4.502,6.697 -9.503,13.99 -22.517,33.15 -23.757,50.949 -1.407,20.209 -9.591,34.993 -18.59,47.828 -0.995,13.997 -5.914,27.858 -12.874,35.946 -1.833,2.13 -4.476,3.301 -7.196,3.301 m 0.001,-9.487 c 5.139,-5.973 10.289,-18.648 10.733,-33.005 7.989,-11.102 17.054,-25.082 18.457,-45.242 1.639,-23.52 19.816,-46.994 29.792,-62.192 0.518,-7.37 -8.471,-12.9 -16.687,-12.9 -1.422,0 -2.818,0.164 -4.141,0.514 -8.436,8.169 -24.243,25.861 -49.993,34.294 30.522,-25.904 35.933,-44.66 19.411,-75.93 L 83.5289,146.96 c -0.725,54.205 27.226,112.615 96.494,116.126 1.549,0.079 3.153,0.12 4.794,0.12 14.669,0 32.332,-3.244 41.342,-11.539 3.168,4.478 4.746,11.332 5.347,16.846"
       inkscape:connector-curvature="0"
       id="path42"
       style="fill:#000000;fill-opacity:1;fill-rule:nonzero;stroke:none" /><path
       d="M 73.871,229.858 C 43.916,226.829 18,201.688 17.635,176.153 l 0,0 C 9.354,170.55 4.179,158.708 4.794,146.065 l 0,0 c 0.724,-14.883 8.948,-29.105 20.305,-35.559 l 0,0 C 31.531,80.447 60.441,63.575 108.916,61.67 l 0,0 c 46.577,-1.832 69.466,-9.574 74.213,-25.107 l 0,0 c 2.254,-7.37 -1.331,-14.387 -11.985,-23.464 l 0,0 c -1.622,-1.383 -2.123,-3.673 -1.228,-5.606 l 0,0 c 0.787,-1.695 2.481,-2.749 4.303,-2.749 l 0,0 c 0.256,0 0.512,0.022 0.771,0.064 l 0,0 c 46.091,7.545 72.524,28.079 72.524,56.331 l 0,0 c 0,21.931 -10.251,51.272 -59.087,66.509 l 0,0 c -43.884,13.691 -76.364,30.491 -96.536,49.931 l 0,0 c -12.688,12.228 -18.184,31.563 -13.069,45.974 l 0,0 c 0.544,1.532 0.264,3.236 -0.74,4.514 l 0,0 c -0.904,1.153 -2.284,1.815 -3.732,1.815 l 0,0 c -0.159,0 -0.319,-0.008 -0.479,-0.024"
       inkscape:connector-curvature="0"
       id="path62"
       style="fill:url(#radialGradient3058);stroke:none" /><path
       d="m 74.3496,234.626 c -0.316,0 -0.636,-0.016 -0.956,-0.048 -15.824,-1.6 -31.536,-9.169 -43.108,-20.764 -10.313,-10.333 -16.426,-22.901 -17.292,-35.228 -8.443,-6.957 -13.583,-19.509 -12.939,-32.752 0.76,-15.633 9.113,-30.664 20.867,-38.329 3.965,-15.948 13.917,-28.394 29.641,-37.037 14.625,-8.041 34.195,-12.596 58.168,-13.538 43.649,-1.717 65.848,-8.628 69.86,-21.753 1.14,-3.728 0.78,-8.836 -10.525,-18.468 -3.243,-2.764 -4.246,-7.348 -2.454,-11.211 1.573,-3.391 4.96,-5.498 8.606,-5.498 0.51,0 1.024,0.041 1.539,0.125 22.545,3.692 40.653,10.424 53.816,20.01 14.842,10.806 22.687,24.985 22.687,41.004 0,23.522 -10.828,54.941 -62.419,71.037 -43.173,13.47 -75.02,29.894 -94.656,48.818 -11.413,10.999 -16.413,28.23 -11.891,40.973 1.087,3.064 0.531,6.471 -1.478,9.029 -1.809,2.305 -4.57,3.63 -7.466,3.63 m 0,-9.486 c -6.111,-17.218 1.095,-38.3 14.247,-50.975 23.572,-22.718 59.843,-39.01 98.416,-51.046 39.587,-12.35 55.756,-34.838 55.756,-61.98 0,-26.791 -27.242,-44.887 -68.547,-51.651 10.723,9.135 16.619,18.081 13.446,28.461 -5.799,18.974 -31.636,26.616 -78.565,28.461 -42.97,1.689 -74.347,15.548 -79.778,47.254 -10.475,4.835 -19.088,18.187 -19.791,32.632 -0.589,12.115 4.921,23.405 12.913,27.158 -1.558,23.763 23.079,48.77 51.903,51.686"
       inkscape:connector-curvature="0"
       id="path74"
       style="fill:#000000;fill-opacity:1;fill-rule:nonzero;stroke:none" /><path
       d="m 251.3857,117.3369 c -1.625,0 -3.193,0.883 -3.996,2.424 -6.581,12.647 -21.066,21.126 -35.073,29.326 -17.392,10.18 -35.374,20.707 -36.088,39.515 -0.628,16.584 14.21,23.179 14.843,23.452 2.279,0.984 4.928,-0.067 5.914,-2.349 0.981,-2.275 -0.061,-4.912 -2.327,-5.905 -0.435,-0.195 -9.828,-4.531 -9.436,-14.857 0.526,-13.876 14.944,-22.316 31.64,-32.089 15.109,-8.845 30.732,-17.99 38.511,-32.939 1.147,-2.204 0.29,-4.922 -1.915,-6.069 -0.663,-0.345 -1.374,-0.509 -2.073,-0.509"
       inkscape:connector-curvature="0"
       id="path78"
       style="fill:#000000;fill-opacity:1;fill-rule:nonzero;stroke:none" /></g></svg>