<?xml version="1.0" encoding="UTF-8" standalone="no"?>
<!-- Created with Inkscape (http://www.inkscape.org/) -->

<svg
   xmlns:dc="http://purl.org/dc/elements/1.1/"
   xmlns:cc="http://creativecommons.org/ns#"
   xmlns:rdf="http://www.w3.org/1999/02/22-rdf-syntax-ns#"
   xmlns:svg="http://www.w3.org/2000/svg"
   xmlns="http://www.w3.org/2000/svg"
   xmlns:xlink="http://www.w3.org/1999/xlink"
   xmlns:inkscape="http://www.inkscape.org/namespaces/inkscape"
   version="1.1"
   width="600"
   height="600"
   id="svg4242">
  <defs
     id="defs4244">
    <radialGradient
       cx="0"
       cy="0"
       r="1"
       fx="0"
       fy="0"
       id="radialGradient290"
       gradientUnits="userSpaceOnUse"
       gradientTransform="matrix(18.098633,0,0,-18.098633,482.26855,482.37891)"
       spreadMethod="pad">
      <stop
         id="stop292"
         style="stop-color:#d7bd74;stop-opacity:1"
         offset="0" />
      <stop
         id="stop294"
         style="stop-color:#b39a54;stop-opacity:1"
         offset="0.69101" />
      <stop
         id="stop296"
         style="stop-color:#8d742f;stop-opacity:1"
         offset="1" />
    </radialGradient>
    <radialGradient
       cx="0"
       cy="0"
       r="1"
       fx="0"
       fy="0"
       id="radialGradient2995"
       xlink:href="#radialGradient290"
       gradientUnits="userSpaceOnUse"
       gradientTransform="matrix(18.098633,0,0,-18.098633,482.26855,482.37891)"
       spreadMethod="pad" />
    <radialGradient
       cx="0"
       cy="0"
       r="1"
       fx="0"
       fy="0"
       id="radialGradient2998"
       xlink:href="#radialGradient290"
       gradientUnits="userSpaceOnUse"
       gradientTransform="matrix(264.25194,0,0,271.47977,299.81676,300.00128)"
       spreadMethod="pad" />
  </defs>
  <metadata
     id="metadata4247">
    <rdf:RDF>
      <cc:Work
         rdf:about="">
        <dc:format>image/svg+xml</dc:format>
        <dc:type
           rdf:resource="http://purl.org/dc/dcmitype/StillImage" />
        <dc:title />
      </cc:Work>
    </rdf:RDF>
  </metadata>
  <path
     d="m 227.85669,108.98951 c 25.43435,7.845 45.51025,42.36004 80.24521,105.5251 l 1.37247,2.34001 c 2.3945,-1.05001 4.78901,-1.815 7.30033,-2.34001 2.3945,-4.86 5.06642,-8.67 7.06671,-10.72501 l 2.56972,-2.925 c 3.59176,-3.81 7.12512,-8.73001 10.54167,-14.01002 l -6.20528,-4.335 -8.33697,-5.68501 c -10.95049,-7.62 -17.27258,-19.80001 -17.50619,-33.63003 l 0.35042,-4.86 0.62841,-4.27501 0.90524,-4.23001 c 4.21959,-13.71001 14.54225,-26.89501 29.59553,-31.29003 -12.03094,-2.28 -24.17869,-3.45 -36.38484,-3.45 -24.86492,0 -49.27721,4.74001 -72.14184,13.89002 m 145.88976,187.14018 c -1.43086,6.27001 -2.96393,11.77502 -4.39479,16.47002 -2.45291,8.38501 -4.3364,14.65502 -4.3364,19.92002 0,3.81 1.13885,7.96501 3.25595,12.30002 8.49758,16.59001 14.99487,32.58002 20.70373,47.46005 0.29201,0.7644 1.31406,4.22999 1.43086,4.635 l 0.1612,0.7656 0.0584,0.70439 0.62724,5.85001 0.11681,1.12441 -0.11681,1.10999 -0.21959,2.745 c 1.92729,-1.875 4.10278,-3.56999 6.49729,-4.97999 2.90553,-1.69501 8.04496,-6.27001 12.54197,-10.36502 -0.16003,-2.28 -0.73004,-6.915 -2.27771,-14.65501 -8.83339,-29.41503 -20.30951,-57.48006 -34.04873,-83.08508 m -206.4679,156.57015 c 36.61845,33.75004 83.38436,52.20005 132.71998,52.20005 35.24599,0 69.19252,-9.43501 99.35747,-27.48002 -4.73061,-2.74501 -8.26397,-6.21001 -10.83368,-9.37501 -2.0587,-2.52001 -3.48956,-5.20501 -4.4532,-8.14501 l -3.65017,-11.13001 c -0.80245,-2.4 -1.25566,-5.10001 -1.25566,-7.96501 0,-0.5244 0,-1.0056 0.0584,-1.53 -2.45291,3.105 -5.35844,6.15 -8.8918,8.97001 l -34.51596,32.58003 -12.83398,11.59501 c -0.57,0.5856 -1.64987,1.41 -2.55511,2.115 l -3.82537,2.52001 -1.08045,0.7044 -0.40882,-0.3 -12.20615,4.275 -2.2777,0.8256 -2.39451,-0.3 c -14.87807,-1.815 -14.87807,-1.815 -16.36734,-2.4 -15.79791,-6.73501 -26.51479,-23.37002 -26.8068,-41.47504 -4.278,-46.77005 -34.50136,-147.90015 -61.48337,-187.27519 -0.74522,0.8856 -1.53307,1.65 -2.39451,2.355 0.35042,2.685 0.45204,6.09001 0,8.73001 l -1.19725,6.735 -0.17521,1.05001 -0.45204,1.0056 c 0,0.048 -1.76668,4.44 -2.10249,5.565 l -0.35042,0.93 -0.56884,1.05001 c -21.44837,37.74003 -32.28205,67.56007 -33.08509,90.94509 12.89238,7.785 20.93734,22.56002 20.93734,39.37504 0,0.4644 -0.1752,3.405 -0.23361,3.75 -0.56884,7.15501 -2.90553,14.11502 -6.6725,20.10002 M 299.99971,600 c -90.68469,0 -176.68256,-43.95004 -231.902244,-118.00512 -1.255656,0.8256 -2.45291,1.635 -3.591762,2.58 l -0.685646,0.5256 -0.730033,0.4044 -6.511893,3.69001 -0.686815,0.42 -0.730033,0.2256 c -4.511603,1.71 -9.242216,2.64 -14.031232,2.64 -12.65877,0 -24.470702,-6.03 -32.223651,-16.63501 C 3.1391413,468.16547 0,458.44546 0,448.53045 0,438.93043 2.9201315,429.67543 8.395378,421.81542 l 0.7884355,-1.17 1.1388515,-0.93 9.753239,-8.20501 1.037231,-0.8844 1.255656,-0.5856 c 1.708277,-0.8244 3.299749,-1.69501 4.949623,-2.76 C 14.499037,372.94537 7.9871436,336.97534 7.9871436,300.0003 7.9871436,134.59514 138.94044,0 300.00029,0 c 161.01605,0 291.95475,134.59514 291.95475,300.0003 0,32.76003 -5.06643,64.92006 -15.22849,95.6851 3.94218,3.225 7.92816,6.735 11.69513,10.845 l 0.62841,0.75001 0.51044,0.8244 c 5.82566,9.09001 6.96451,10.96501 7.18352,12.94501 l 2.29231,8.385 c 0.62841,2.17501 0.96364,4.51501 0.96364,6.91502 0,2.76 -0.51161,5.565 -1.43086,8.265 l -5.06643,13.65002 -0.56884,1.515 -1.66448,2.235 c -8.03036,10.42501 -20.35332,16.47002 -33.75672,16.47002 -4.5116,0 -9.18381,-0.7044 -13.73922,-2.055 l -3.54796,-1.35001 c -0.90524,-0.3456 -1.70827,-0.7644 -2.51131,-1.11 C 482.80111,553.06495 394.51093,600 300.00088,600"
     inkscape:connector-curvature="0"
     id="path284"
     style="fill:#000000;fill-opacity:1;fill-rule:nonzero;stroke:none" />
  <path
     d="m 571.36636,424.45483 c -6.94991,-7.50001 -14.30865,-12.94502 -21.49217,-18.22502 -11.24251,-8.37001 -20.99574,-15.52502 -25.15693,-28.24503 -16.81996,-68.49007 -49.21882,-141.73514 -74.08374,-187.72519 -2.11709,-9.15001 -2.74492,-18.87003 -3.25594,-28.30503 0,-0.24 -0.62725,-9.25501 -0.62725,-10.20001 0,-0.87 0.23361,-4.62001 0.23361,-4.68 0,-8.50501 -2.39451,-14.35502 -6.96451,-17.98502 -7.81135,-6.16501 -17.7398,-2.415 -20.92274,-1.18441 -5.08103,1.87501 -10.90669,1.00561 -17.6814,0 0.278,0 -34.04873,-4.03499 -34.04873,-4.03499 0,0 -20.19271,-1.75501 -20.19271,-1.75501 -8.49758,0 -14.71746,7.50001 -16.93676,14.52002 -0.11681,0.48 -0.23362,0.94559 -0.29202,1.41 l -0.5116,3.345 c -0.0584,0.5244 -0.11681,1.05 -0.11681,1.575 0.11681,5.40001 2.51131,10.14001 6.6725,13.06502 l 8.38078,5.745 c -0.0584,-0.06 11.35931,7.92 14.54225,10.14001 4.3364,5.62501 6.33669,10.48501 6.33669,16.05002 l 0,0.24 c -1.02205,1.52999 -2.68652,4.155 -2.68652,4.155 -5.98627,9.61501 -11.62213,18.64502 -18.41143,25.66502 -0.35042,0.36001 -2.45291,2.82001 -2.45291,2.82001 -1.88349,1.995 -5.02263,5.325 -5.98627,11.25001 -0.0584,0.46441 -0.0584,0.99 -0.0584,1.455 0,5.52001 2.73032,10.66501 6.89151,15.76501 -4.61381,-4.92 -10.03066,-8.79 -15.11168,-10.02 -6.21988,-1.45501 -12.03095,0.4644 -15.68111,5.22 -0.62841,0.8256 -1.37246,2.16001 -1.70828,3.10501 -1.94189,5.62501 -3.59176,9.01501 -4.90582,11.25 -0.1168,-0.06 -0.29201,-0.06 -0.40882,-0.11999 -3.75237,-6.79501 -17.7836,-31.81504 -17.7836,-31.81504 -36.44324,-66.21006 -54.18304,-95.22009 -71.29501,-94.63509 -27.77045,3.285 -47.39373,1.81501 -76.65345,-1.05 -0.62724,-0.06 -1.64987,-0.06 -2.2777,0 -10.26426,1.17 -22.1346,15.58501 -22.1346,24.09003 l 0,1.455 c 0,4.695 3.35815,8.73 7.92816,9.375 l 1.43086,0.18001 c 21.33156,2.985 23.09824,10.545 23.09824,19.33502 0,0 -0.1168,1.99499 -0.17521,3.225 -5.59205,21.73502 -11.51991,33.63003 -17.05356,43.12504 -0.92043,1.47 -1.59147,3.975 -1.59147,5.68501 0,7.14 5.92786,12.88501 12.48356,16.93501 -1.70828,-0.36 -3.41656,-0.9456 -5.02263,-1.0056 -9.46122,-0.4644 -13.56401,5.34 -14.87807,7.80001 -0.29201,0.5256 -0.68565,1.575 -0.92042,2.1 -11.40312,36.85504 -24.57291,74.31008 -41.407468,117.66012 -0.686815,1.17 -3.358152,5.68501 -3.358152,5.68501 -11.242506,18.63002 -21.725778,36.15003 -42.604718,45.88504 -1.489267,0.7044 -3.372752,2.28 -4.336395,3.63001 -2.452911,3.57 -3.76697,7.725 -3.76697,12.12001 0,4.455 1.430865,8.79001 3.883775,12.19501 4.453201,5.97001 11.695127,8.20501 18.42603,5.625 0.90524,-0.3 2.102494,-0.99 2.847128,-1.59 20.87894,-16.57501 48.138367,-22.54502 83.26755,-18.21001 0.68565,0.06 1.64987,0.108 2.39451,0.06 7.92815,-0.76439 13.79762,-7.5 14.48385,-16.77002 0,-0.10799 0.1168,-1.635 0.1168,-1.635 0,-9.675 -5.24163,-17.34001 -13.05298,-19.33502 -0.46722,-0.11999 -0.92043,-0.24 -1.37247,-0.29999 -3.65016,-0.34561 -4.67221,-1.395 -5.47524,-2.86501 -0.17521,-1.995 -1.13885,-13.47001 -1.13885,-13.47001 0,-28.24503 11.91413,-63.06006 36.50164,-106.2901 0.51044,-0.88561 0.56884,-0.64561 0.73003,-1.65001 l 1.21186,-6.61501 c 0.0467,-0.35999 0.0467,-0.5244 0.0467,-0.6444 0,-0.18 -0.10512,-0.18 -0.16119,-0.88559 l -0.23244,-1.35001 c -0.11681,-0.69 -0.3364,-1.455 -0.56885,-2.1 -1.88348,-4.57501 -6.38048,-8.73001 -11.57832,-12.07501 8.55599,1.635 16.08993,-0.5856 20.64533,-6.15001 l 3.47496,-5.16 2.45291,-4.215 1.60607,-2.52001 2.2777,-4.275 c 0.17521,-0.30001 0.39364,-0.88561 0.51161,-1.23001 0,0 1.48927,-3.87 1.54767,-4.05 1.47467,0.5844 2.84713,1.11 2.84713,1.11 44.25459,21.63002 85.15103,175.14018 89.31222,223.42522 l 0,0.12 c 0,8.20501 4.57001,15.99002 11.69513,18.97502 0.0584,0 9.30062,0.6444 9.30062,0.6444 1.98569,0.18 1.25565,-0.108 2.90553,-1.23 l 3.53336,-2.4 12.71717,-11.47501 35.36279,-33.40504 c 8.73119,-6.39 10.71688,-15.70501 11.75353,-20.68501 0.16119,-0.7044 0.21959,-1.75501 0.21959,-2.7 0,-0.93 -0.0584,-1.875 -0.16119,-2.52001 l -0.1168,-0.3456 c -0.0584,-0.4644 -0.17521,-0.7644 -0.40882,-1.17 -5.30004,-14.07002 -11.46152,-29.23503 -19.55028,-44.94004 -4.00058,-8.20501 -6.00087,-16.11002 -6.00087,-23.91003 0,-9.13501 2.51131,-17.52002 5.43144,-27.24003 3.06614,-10.38001 6.20528,-21.04502 7.24193,-34.27504 0,-0.18 0,-0.42 0,-0.70559 0,-0.8244 -0.0584,-1.815 -0.17521,-2.52 -1.13885,-5.34001 -4.3948,-10.90502 -8.43918,-15.82503 0.84684,0.88561 1.25566,1.81501 2.2193,2.64001 0.11681,0.12 1.48927,1.35 1.48927,1.35 0.0584,0.06 9.51963,6.09001 9.51963,6.09001 1.37246,0.4644 7.12512,2.055 11.91413,0.6444 0.0584,0 0.11681,-0.06 0.17521,-0.06 -0.0584,0 -0.1168,0.06 -0.1168,0.06 1.13885,-0.36001 2.2339,-0.94561 3.25594,-1.695 1.13885,-0.82441 2.2193,-1.77 3.35815,-2.7 2.2339,0.3456 4.96423,1.41 7.98656,6.735 19.22907,31.63503 35.02698,68.08507 47.05792,108.40511 1.94189,9.72001 2.84713,16.93502 2.84713,22.50002 0,7.66502 -1.82508,10.60501 -3.18294,12.18001 l -3.19755,2.82001 c -6.33668,5.79 -12.83397,11.71501 -18.30922,15.00001 -2.1755,1.29 -4.21959,3.69001 -4.84742,6.15001 l -0.17521,0.7056 c 0.0584,-0.12 -1.13885,8.02501 -1.13885,8.02501 l 3.70857,11.25001 c 3.59176,4.455 9.06701,6.45001 16.30893,5.91001 1.82509,-0.1656 4.51161,-1.23001 5.92787,-2.40001 6.10307,-5.04 14.38165,-9.01501 25.21534,-12.24001 20.35331,-3.75 38.15151,-3.405 54.18304,-2.4 11.75352,1.815 26.35418,4.44 40.42922,10.95001 0.40881,0.18 0.80245,0.36 1.15286,0.4644 8.59979,2.58 16.87836,0.36 21.60898,-5.85001 0.0584,0 3.41655,-10.26 3.41655,-10.26 l -2.61352,-9.66002 c -0.40882,-1.52999 -0.46722,-1.0056 -1.54767,-2.115 M 63.310787,379.33238 c 0,0 1.941887,-3.045 2.803326,-4.51501 4.847418,-12.48001 9.242216,-24.31502 13.520209,-35.91003 -2.117096,-12.66001 -3.431155,-25.60503 -3.431155,-38.91004 0,-45.40504 13.009186,-87.72009 35.187583,-123.39012 -6.32208,-4.23001 -10.60008,-11.61002 -10.60008,-19.81502 l 0,-1.455 c 0,-16.29002 18.01722,-36.27004 34.32615,-38.20505 0,0 5.13943,-0.06 5.19783,-0.06 7.92816,0.80999 15.17009,1.45499 22.0178,1.995 38.03471,-30.58503 85.72045,-49.05005 137.66959,-49.05005 47.62735,0 91.66293,15.46501 127.98937,41.59504 9.24221,-0.4644 16.03152,2.76 20.35331,6.16501 4.74522,3.75 10.16206,10.42501 11.87034,21.97502 39.23196,41.41504 63.58586,97.90509 63.58586,160.24516 0,7.44 -0.39363,14.82002 -1.08045,22.09502 5.76726,17.04002 10.89209,34.39503 15.11168,51.43505 2.1755,6.51001 7.02292,11.14502 14.83427,17.11502 9.63643,-28.41003 14.99488,-58.89006 14.99488,-90.64509 0,-151.63515 -120.10501,-274.98028 -267.65926,-274.98028 -147.53964,0 -267.659248,123.34513 -267.659248,274.98028 0,35.04003 6.453491,68.44507 18.134017,99.3151 4.511603,-6.03001 8.555985,-12.76501 12.833978,-19.98002 m 444.122793,75.70507 c 3.82538,0.6456 7.81136,1.35001 11.92874,2.22001 -48.43038,71.08507 -128.734,117.72011 -219.36028,117.72011 -88.29017,0 -166.7103,-44.17504 -215.476498,-112.09511 13.301199,-3.69 28.748698,-4.44 46.663698,-2.28 -0.0584,0 5.35844,0.12 5.35844,0.12 1.02205,-0.12 2.0587,-0.4044 3.13915,-0.6456 40.72123,43.06504 97.47398,69.90007 160.31521,69.90007 64.62251,0 122.68933,-28.47003 163.57117,-73.59007 16.14833,-2.28001 30.63218,-2.11501 43.86037,-1.35001"
     inkscape:connector-curvature="0"
     id="path286"
     style="fill:#8d742f;fill-opacity:1;fill-rule:nonzero;stroke:none" />
  <path
     d="m 39.639617,299.99994 c 0,28.30503 4.336395,56.07005 12.950783,82.96508 l 0,0 c 1.430864,-2.4 2.963933,-4.92 4.555405,-7.605 l 0,0 2.175498,-3.28501 C 63.818306,360.3 68.052496,349.15499 72.096878,338.20498 l 0,0 c -2.117095,-13.53001 -3.255946,-26.01003 -3.255946,-38.20504 l 0,0 c 0,-42.88504 11.403113,-84.90009 33.085088,-121.87513 l 0,0 c -5.416843,-5.805 -8.439179,-13.65 -8.439179,-22.74001 l 0,0 c 0,-20.26503 20.645329,-43.29005 41.568069,-45.69006 l 0,0 5.94247,-0.06 c 6.83311,0.705 13.05299,1.23 19.03926,1.755 l 0,0 c 40.72123,-31.93503 89.09321,-48.87005 139.9619,-48.87005 l 0,0 c 46.6053,0 91.54612,14.35502 130.20866,41.55004 l 0,0 c 10.61468,0.105 18.13402,4.33501 22.58722,7.78501 l 0,0 c 5.19783,4.05001 11.75353,11.49001 14.20644,24.31502 l 0,0 c 41.34906,44.47504 64.09689,102.54011 64.09689,163.83017 l 0,0 c 0,6.67501 -0.27742,13.65001 -0.96365,21.15002 l 0,0 c 5.86947,17.64002 10.83369,34.57504 14.65906,49.92005 l 0,0 c 0.74464,2.295 2.00029,4.335 4.27799,6.69 l 0,0 c 7.47554,-25.26001 11.28631,-51.33005 11.28631,-77.76007 l 0,0 c 0,-147.48015 -116.74685,-267.48027 -260.35892,-267.48027 l 0,0 c -143.61207,0 -260.358923,120.00012 -260.358923,267.48027 m 297.488393,-160.72516 -0.51102,3.585 c 0,2.985 1.25566,5.44501 3.41655,6.90001 l 0,0 8.39538,5.745 -0.62783,-0.16499 c 2.1609,1.27499 6.04467,3.975 14.36705,9.84001 l 0,0 1.76668,1.17 0.68623,0.93 c 5.47525,7.03501 7.92816,13.48501 7.92816,20.68501 l 0,0 0,2.40001 -1.13885,1.89 -2.68653,4.15501 c -5.86946,9.43501 -11.97253,19.21502 -19.33127,26.89502 l 0,0 -2.51131,2.745 c -1.59147,1.77 -3.35815,3.70501 -3.92758,7.50001 l 0,0 c 0,3.06001 1.64988,6.63 5.18324,10.96501 l 0,0 -0.56943,0.52501 0.62783,0.58499 c 1.37246,0.645 2.51131,1.75501 3.25595,3.04501 l 0,0 0.51102,0.465 0.33581,0.48 8.55599,5.50501 c 1.03665,0.24 2.86173,0.58499 4.68681,0.58499 l 0,0 c 0.90524,0 1.70828,-0.06 3.41655,-0.82499 l 0,0 c 0.80304,-0.58501 1.59148,-1.23001 2.39451,-1.875 l 0,0 3.19755,-2.58001 3.13914,0.48 c 5.41684,0.81 9.69483,4.21501 13.05299,10.12501 l 0,0 c 19.50647,32.23503 35.5964,69.27007 47.96316,110.92511 l 0,0 c 2.11709,10.60501 3.02233,17.98502 3.02233,24.03002 l 0,0 c 0,7.84502 -1.59147,13.35002 -5.75266,17.74502 l 0,0 -3.08074,2.82 c -7.18352,6.61501 -13.69541,12.42002 -19.44807,15.81003 l 0,0 c -0.68623,0.47999 -1.37246,1.28999 -1.54767,1.70999 l 0,0 -0.0584,-0.3 c -0.16061,1.53001 -0.39422,3.51 -0.84684,6.33001 l 0,0 2.61352,8.02501 c 1.15345,0.99 3.31434,2.4 7.70914,2.4 l 0,0 1.76668,-0.12 c 0.45262,0 1.53307,-0.405 1.88349,-0.69 l 0,0 c 6.89151,-5.685 15.97312,-10.08001 28.45668,-13.71001 l 0,0 c 11.69512,-2.23501 23.60926,-3.28501 36.38484,-3.28501 l 0,0 c 6.7893,0 13.28659,0.285 20.19271,0.81001 l 0,0 c 13.63701,2.11499 28.17926,4.98 42.60471,11.61001 l 0,0 c 1.64988,0.525 3.31435,0.765 4.78902,0.765 l 0,0 c 3.43115,0 6.27828,-1.17 8.32237,-3.285 l 0,0 c 0.58403,-1.63501 1.54767,-4.63502 2.1755,-6.61501 l 0,0 -1.59147,-6.22501 -0.23361,-0.165 c -6.27828,-6.75001 -13.16979,-11.89502 -20.47012,-17.35501 l 0,0 c -11.75353,-8.67001 -22.87923,-16.87502 -28.00406,-32.46004 l 0,0 C 500.93279,311.83494 468.76754,239.23487 444.18003,193.88982 l 0,0 -0.51102,-0.88499 -0.23361,-1.05001 c -2.1025,-9.37501 -2.78873,-18.99002 -3.41656,-29.70003 l 0,0 -0.1752,-3.465 c -0.21901,-2.80501 -0.39422,-6.21001 -0.45262,-7.32001 l 0,0 0.23361,-4.335 c 0,-8.85001 -3.08074,-11.31002 -4.05899,-12.07501 l 0,0 c -1.64987,-1.35001 -3.59176,-1.93501 -5.98627,-1.93501 l 0,0 c -3.24134,0 -6.43889,1.17 -8.04496,1.815 l 0,0 c -2.78872,1.06501 -5.92786,1.53001 -9.40282,1.53001 l 0,0 c -3.65017,0 -7.53394,-0.525 -10.71688,-1.11001 l 0,0 c -0.62783,0 -0.62783,0 -34.67657,-3.99001 l 0,0 -19.62328,-1.75499 c -5.19783,0 -8.78959,5.565 -9.98685,9.66001 m -215.24289,17.52002 c 0,1.00499 0.68623,1.815 3.02234,2.115 l 0,0 c 20.87894,2.925 29.43492,10.72501 29.43492,27.12002 l 0,0 -0.46722,4.75501 c -5.75266,22.72502 -11.97254,35.10004 -17.842,45.12005 l 0,0 c -0.17521,0.40499 -0.45262,1.395 -0.51103,1.875 l 0,0 c 0,4.275 5.57746,8.37001 8.95021,10.42501 l 0,0 6.38048,4.05 5.25624,0.99001 c 1.41626,0.28499 2.73032,0.40499 4.04438,0.40499 l 0,0 c 2.90553,0 6.96452,-0.705 9.24222,-3.45 l 0,0 3.25595,-4.75501 2.49671,-4.335 1.31406,-2.16 2.45291,-4.635 1.66447,-4.27501 2.84713,-6.79501 6.6141,2.805 3.19754,1.35 c 48.64939,23.73003 89.42903,183.16519 93.47341,230.28024 l 0,0 c 0,4.92 2.56972,9.55501 6.33669,11.59501 l 0,0 c 1.88348,0.12 4.6138,0.36 6.32208,0.48 l 0,0 2.68652,-1.77 12.60037,-11.31001 36.04902,-33.97504 c 6.4973,-4.75501 7.98656,-11.89501 8.8334,-16.17002 l 0,0 -0.0584,-2.45999 c -5.30004,-13.71002 -11.22791,-28.54503 -19.38967,-44.25005 l 0,0 c -4.49701,-9.31501 -6.73091,-18.21002 -6.73091,-27.36003 l 0,0 c 0,-10.14001 2.80333,-19.39502 5.70886,-29.41503 l 0,0 c 2.96393,-9.96001 6.04467,-20.20502 6.96451,-33.69003 l 0,0 c -0.74463,-3.16501 -2.62812,-6.85501 -5.47524,-10.72502 l 0,0 -0.74464,-1.04999 c -0.40882,-0.465 -0.68623,-0.885 -0.97824,-1.35 l 0,0 -1.35786,-1.815 -0.17521,0.11999 c -3.94218,-4.17 -8.26397,-7.155 -11.46152,-7.92 l 0,0 c -0.86144,-0.165 -1.64987,-0.28501 -2.3945,-0.28501 l 0,0 c -2.45291,0 -4.57001,0.99001 -6.5557,3.81001 l 0,0 c -1.72288,5.04 -3.54796,9.13501 -5.48985,12.54001 l 0,0 -6.8331,11.01001 -6.16148,-11.25001 c -3.76697,-6.73501 -17.7398,-31.81504 -17.7982,-31.87503 l 0,0 c -30.16496,-54.78006 -50.9271,-90.7651 -64.11149,-90.7651 l 0,0 c -10.99429,1.29001 -20.98114,1.87501 -31.36221,1.87501 l 0,0 c -15.22849,0 -30.16496,-1.335 -47.56894,-2.985 l 0,0 c -6.73091,0.825 -15.68111,12.01501 -15.68111,18.10502 m 5.02263,109.05011 c -11.57833,37.20003 -24.80652,74.76006 -42.152102,119.23511 l 0,0 -3.474956,5.80501 c -11.242506,18.69002 -22.87923,38.08504 -45.802263,48.75005 l 0,0 c -0.335815,0.225 -1.138851,0.87 -1.372461,1.17 l 0,0 c -1.533069,2.28001 -2.394508,4.92 -2.394508,7.72501 l 0,0 c 0,2.82 0.861439,5.58 2.394508,7.62001 l 0,0 c 1.766679,2.4 4.277992,3.75 6.964513,3.75 l 0,0 c 1.080449,0 2.102495,-0.165 4.044382,-1.05 l 0,0 C 63.02987,444.61508 84.814051,437.64008 111.79607,437.64008 l 0,0 c 6.8331,0 14.25024,0.525 22.74782,1.47 l 0,0 c 4.3364,-0.42001 7.47554,-4.29001 7.98656,-10.90502 l 0,0 c 0,-6.15 -2.96393,-10.905 -7.81135,-12.13501 l 0,0 c -5.47525,-0.465 -8.8918,-2.565 -11.18411,-6.675 l 0,0 -0.73003,-1.41 -0.17521,-1.635 -1.13885,-14.11502 c 0,-29.41503 12.08935,-65.04006 37.46529,-109.98011 l 0,0 0.91984,-5.04 0,-0.06 -0.35042,-1.59 c -0.96364,-2.58 -4.21959,-5.745 -8.67279,-8.61 l 0,0 -5.69425,-3.69 -5.98627,-1.29001 -1.76668,-0.405 c -0.74463,-0.18 -1.43087,-0.42 -2.62812,-0.48 l 0,0 c -4.57001,0 -6.6141,2.17501 -7.86975,4.75501 m 340.20991,197.68519 c -43.64136,46.99505 -104.32169,73.95008 -167.11912,73.95008 l 0,0 c -61.48337,0 -119.14136,-24.61503 -162.82653,-69.31507 l 0,0 c -0.29201,0.06 -0.51102,0.06 -0.80304,0.06 l 0,0 c -2.1609,0 -4.33639,-0.06 -6.21988,-0.405 l 0,0 0.17521,0.225 c -6.32208,-0.765 -12.38136,-1.17 -18.01721,-1.17 l 0,0 c -5.19784,0 -10.10366,0.36 -14.834269,0.99 l 0,0 c 49.335619,62.58005 124.163989,99.61509 202.525719,99.61509 l 0,0 c 80.93144,0 157.24908,-39.01504 206.5263,-104.94011 l 0,0 c -4.96422,-0.285 -10.10366,-0.465 -15.4621,-0.465 l 0,0 c -8.38077,0 -16.19213,0.465 -23.94508,1.455"
     inkscape:connector-curvature="0"
     id="path298"
     style="fill:url(#radialGradient2998);fill-opacity:1;fill-rule:nonzero;stroke:none" />
</svg>
