<?xml version="1.0" encoding="UTF-8" standalone="no"?>
<!-- Created with Inkscape (http://www.inkscape.org/) -->

<svg
   xmlns:dc="http://purl.org/dc/elements/1.1/"
   xmlns:cc="http://creativecommons.org/ns#"
   xmlns:rdf="http://www.w3.org/1999/02/22-rdf-syntax-ns#"
   xmlns:svg="http://www.w3.org/2000/svg"
   xmlns="http://www.w3.org/2000/svg"
   xmlns:sodipodi="http://sodipodi.sourceforge.net/DTD/sodipodi-0.dtd"
   xmlns:inkscape="http://www.inkscape.org/namespaces/inkscape"
   version="1.1"
   width="600"
   height="487.85431"
   viewBox="0 0 600.00001 487.8543"
   id="Layer_1"
   xml:space="preserve"
   inkscape:version="0.91 r13725"
   sodipodi:docname="G0701 - From the Vault Annihilation- Common.svg"><sodipodi:namedview
     pagecolor="#889092"
     bordercolor="#666666"
     borderopacity="1"
     objecttolerance="10"
     gridtolerance="10"
     guidetolerance="10"
     inkscape:pageopacity="0"
     inkscape:pageshadow="2"
     inkscape:window-width="1015"
     inkscape:window-height="476"
     id="namedview3342"
     showgrid="false"
     inkscape:zoom="0.87218662"
     inkscape:cx="408.11035"
     inkscape:cy="174.54375"
     inkscape:window-x="2366"
     inkscape:window-y="443"
     inkscape:window-maximized="0"
     inkscape:current-layer="Layer_1" /><metadata
     id="metadata13"><rdf:RDF><cc:Work
         rdf:about=""><dc:format>image/svg+xml</dc:format><dc:type
           rdf:resource="http://purl.org/dc/dcmitype/StillImage" /><dc:title></dc:title></cc:Work></rdf:RDF></metadata><defs
     id="defs11" /><path
     style="fill:#000000;fill-opacity:1;stroke:#ffffff;stroke-width:0;stroke-miterlimit:4;stroke-dasharray:none;stroke-opacity:1"
     d="m 268.43164,53.478516 c -53.22454,1.284283 -102.87112,32.307531 -132.2177,75.746774 -36.683908,55.71083 -37.148254,133.19716 0.58779,188.67508 32.61763,48.43887 90.88354,79.67329 149.30456,76.04826 35.36006,-1.68791 70.29684,-14.53802 98.11637,-36.62441 3.98136,21.46886 6.34274,43.26175 9.38086,64.82031 9.21914,-25.19805 16.47978,-51.11727 27.04882,-75.81445 26.37523,8.66065 50.83983,21.97687 75.9961,33.51562 -14.49809,-23.93194 -31.39715,-46.58027 -44.84766,-71.02734 -0.80399,-6.85808 7.7677,-7.29625 11.96081,-9.94811 28.31943,-13.13899 57.21649,-24.95959 85.02357,-39.07923 -32.39467,-0.35728 -64.8486,1.80186 -97.17969,1.68945 -5.58801,-3.09735 -1.25169,-10.50391 -2.51248,-15.36515 0.56257,-32.99333 0.22097,-67.82169 -16.26123,-97.39422 C 405.83103,94.481594 348.50017,54.080943 286.96403,53.698109 280.87298,53.486043 274.60219,53.459874 268.43164,53.478516 Z"
     id="path8241"
     inkscape:connector-curvature="0" /><path
     style="fill:#ffffff;fill-opacity:1"
     d="m 387.805,398.72951 c -2.39718,-18.7543 -5.41617,-34.09871 -6.70887,-34.09871 -1.2927,0 -5.49938,2.2423 -9.34817,4.98289 -32.97229,23.47833 -90.77533,32.80126 -134.72338,21.72923 -51.8873,-13.07221 -92.24258,-46.68454 -115.10899,-95.87544 -10.84966,-23.34015 -14.36588,-37.03429 -16.16323,-62.9487 -3.43424,-49.51543 17.58433,-101.09316 55.44103,-136.047531 28.50318,-26.317946 59.46316,-40.542618 99.1416,-45.55096 49.14096,-6.20273 102.43536,12.174424 139.13718,47.977743 37.28342,36.370698 54.59255,81.295038 52.0074,134.980748 l -1.1501,23.88433 54.20546,0.65132 54.20548,0.6513 -51.07311,22.90017 c -28.09019,12.59508 -51.65448,23.84087 -52.36506,24.9906 -0.71059,1.14976 9.72528,19.03052 23.19083,39.73504 13.46554,20.70449 24.48279,38.13153 24.48279,38.72673 0,0.59519 -17.46,-7.66068 -38.79999,-18.34639 -21.33999,-10.68571 -39.66005,-19.42856 -40.71123,-19.42856 -1.05121,0 -7.2375,16.10695 -13.74734,35.79323 -18.47782,55.87834 -16.86824,54.75501 -21.9123,15.29296 z m -71.9055,-25.70427 c 8.55803,-2.01726 22.39594,-6.93021 30.75091,-10.91766 l 15.19087,-7.24994 0.83845,-18.77454 c 0.46114,-10.32602 0.55311,-19.22338 0.20434,-19.77193 -0.34873,-0.54855 -23.78319,7.88707 -52.07657,18.74578 -28.29338,10.85872 -51.73781,19.44783 -52.09872,19.08695 -0.36091,-0.36092 15.82984,-14.80282 35.97944,-32.0931 l 36.63567,-31.43689 -68.30759,-11.15558 c -37.56916,-6.13556 -68.82945,-11.67746 -69.46731,-12.31532 -0.63785,-0.63785 31.31944,-3.09099 71.01623,-5.4514 39.69679,-2.36041 72.3528,-4.46288 72.5689,-4.67217 0.21611,-0.20926 -17.58862,-20.58346 -39.56603,-45.27598 -46.36625,-52.09439 -61.28691,-69.498 -57.89822,-67.5331 1.33473,0.77393 24.81386,13.66521 52.17584,28.64728 27.36198,14.98207 53.35567,29.43895 57.76375,32.1264 4.40809,2.68745 8.44596,4.455 8.97306,3.92789 0.52712,-0.52711 -0.29274,-27.93444 -1.82191,-60.90519 l -2.78032,-59.946812 -9.99232,-4.696949 C 322.42221,73.225873 306.09433,69.952917 277.28501,69.992245 c -24.15424,0.03298 -30.5162,0.942711 -47.29898,6.763586 -25.2179,8.746479 -42.84634,19.637758 -60.07743,37.117289 -24.04886,24.39564 -35.57084,45.69324 -42.31009,78.20735 -16.49295,79.5718 33.77037,159.34676 114.02094,180.96724 16.82268,4.53224 55.00612,4.52069 74.28005,-0.0218 z m 91.31406,-22.58823 7.18471,-21.47417 25.00599,12.04005 c 13.75328,6.62201 25.45244,11.59357 25.9981,11.04788 0.54569,-0.54569 -4.48476,-9.13194 -11.17875,-19.08058 -6.694,-9.94865 -13.79862,-21.12763 -15.78803,-24.84218 l -3.61712,-6.75372 29.83184,-14.29069 29.83182,-14.2907 -55.51949,-0.19001 -55.51949,-0.19002 1.34299,9.10044 c 0.73864,5.00524 3.83281,27.39231 6.87595,49.74905 3.04311,22.35674 6.17058,40.64862 6.94987,40.64862 0.77931,0 4.65003,-9.66337 8.60161,-21.47414 z M 433.02391,233.5856 c 1.16563,-16.65193 -2.38934,-47.6498 -5.11292,-44.58265 -1.6458,1.85337 -24.43324,57.82099 -24.43324,60.00976 0,0.46359 6.55231,-1.45255 14.5607,-4.25809 12.26569,-4.29697 14.62765,-6.05739 14.98546,-11.16902 z m -17.55853,-82.86863 c -2.94435,-5.80999 -9.64021,-15.97391 -14.87968,-22.58649 -10.11183,-12.76179 -28.61124,-29.757718 -28.72241,-26.38807 -0.0364,1.10505 4.5465,24.643 10.18436,52.30654 l 10.25068,50.29736 14.26022,-21.53286 14.26019,-21.53285 -5.35336,-10.56363 z"
     id="path8243"
     inkscape:connector-curvature="0" /></svg>