<?xml version="1.0" encoding="UTF-8" standalone="no"?>
<!-- Created with Inkscape (http://www.inkscape.org/) -->

<svg
   xmlns:dc="http://purl.org/dc/elements/1.1/"
   xmlns:cc="http://creativecommons.org/ns#"
   xmlns:rdf="http://www.w3.org/1999/02/22-rdf-syntax-ns#"
   xmlns:svg="http://www.w3.org/2000/svg"
   xmlns="http://www.w3.org/2000/svg"
   xmlns:xlink="http://www.w3.org/1999/xlink"
   xmlns:inkscape="http://www.inkscape.org/namespaces/inkscape"
   version="1.1"
   width="600"
   height="710.92499"
   viewBox="0 0 599.99998 710.92499"
   id="Layer_1"
   xml:space="preserve"><metadata
   id="metadata48"><rdf:RDF><cc:Work
       rdf:about=""><dc:format>image/svg+xml</dc:format><dc:type
         rdf:resource="http://purl.org/dc/dcmitype/StillImage" /><dc:title /></cc:Work></rdf:RDF></metadata><defs
   id="defs46">
	
	<linearGradient
   x1="1.3818001"
   y1="25.883801"
   x2="40.7939"
   y2="25.883801"
   id="SVGID_2_"
   gradientUnits="userSpaceOnUse">
		<stop
   id="stop8"
   style="stop-color:#626e77;stop-opacity:1"
   offset="0" />
		<stop
   id="stop10"
   style="stop-color:#65717a;stop-opacity:1"
   offset="0.1079" />
		<stop
   id="stop12"
   style="stop-color:#6d7b84;stop-opacity:1"
   offset="0.1946" />
		<stop
   id="stop14"
   style="stop-color:#7b8b95;stop-opacity:1"
   offset="0.27379999" />
		<stop
   id="stop16"
   style="stop-color:#8ea2ad;stop-opacity:1"
   offset="0.34819999" />
		<stop
   id="stop18"
   style="stop-color:#a0b6c2;stop-opacity:1"
   offset="0.40000001" />
		<stop
   id="stop20"
   style="stop-color:#a4bbc8;stop-opacity:1"
   offset="0.43520001" />
		<stop
   id="stop22"
   style="stop-color:#b0c9d8;stop-opacity:1"
   offset="0.48109999" />
		<stop
   id="stop24"
   style="stop-color:#b7d1e1;stop-opacity:1"
   offset="0.5" />
		<stop
   id="stop26"
   style="stop-color:#b0c9d8;stop-opacity:1"
   offset="0.51889998" />
		<stop
   id="stop28"
   style="stop-color:#a4bbc8;stop-opacity:1"
   offset="0.56480002" />
		<stop
   id="stop30"
   style="stop-color:#a0b6c2;stop-opacity:1"
   offset="0.60000002" />
		<stop
   id="stop32"
   style="stop-color:#8ea2ad;stop-opacity:1"
   offset="0.65179998" />
		<stop
   id="stop34"
   style="stop-color:#7b8b95;stop-opacity:1"
   offset="0.72619998" />
		<stop
   id="stop36"
   style="stop-color:#6d7b84;stop-opacity:1"
   offset="0.80540001" />
		<stop
   id="stop38"
   style="stop-color:#65717a;stop-opacity:1"
   offset="0.89209998" />
		<stop
   id="stop40"
   style="stop-color:#626e77;stop-opacity:1"
   offset="1" />
	</linearGradient>
	
<linearGradient
   x1="1.3818001"
   y1="25.883801"
   x2="40.7939"
   y2="25.883801"
   id="linearGradient3022"
   xlink:href="#SVGID_2_"
   gradientUnits="userSpaceOnUse"
   gradientTransform="matrix(14.2185,0,0,14.2185,-0.00637599,0)" /></defs>
<path
   d="m 360.02026,373.50578 c 66.68477,1.8484 85.96505,-4.33665 103.72396,-18.04328 20.6737,-15.95316 20.8301,-41.60333 32.73099,-41.53224 11.84401,0.0569 19.73528,18.48405 26.24735,37.03919 6.51207,13.28008 24.12879,23.04819 24.38473,39.20041 0.29858,20.07652 -14.27538,25.79236 -23.44631,39.21462 -9.76811,14.24694 -11.43167,39.20041 -27.48436,39.10088 -18.96748,-0.11375 -4.00962,-38.5037 -54.27202,-55.65121 -31.36601,-10.70653 -78.44346,-0.48343 -105.94204,1.72044 -7.40784,22.22351 10.49325,42.30003 -10.80606,50.63207 10.19467,26.56016 27.78295,26.85875 43.73611,49.77897 -9.78233,11.03356 -15.44129,13.18055 -32.30444,10.42216 1.50717,75.15899 1.50717,152.93419 -39.51321,185.53721 -18.2139,-12.96727 -10.49325,-33.02958 -17.58828,-53.09188 -13.59289,-7.10925 -31.38023,-18.65467 -41.68864,-28.72137 20.0623,-19.45091 0.9242,-35.19079 -12.96728,-53.40469 8.95766,-14.81567 29.33277,-21.00072 33.65519,-31.47975 -4.63523,-6.48364 -19.86324,-11.01934 -21.00072,-30.25697 19.02435,-0.15641 37.92074,-34.38034 38.58901,-45.37124 0.61139,-10.19466 -10.77762,-4.4646 -12.76821,-13.43648 2.81526,-19.60731 9.29889,-23.94395 1.66356,-39.35681 -10.49325,-3.69681 -62.04953,-13.89147 -106.88046,1.9195 -40.8071,14.40334 -30.61243,51.52785 -45.21483,51.52785 -15.555043,0 -27.555457,-32.64568 -35.617347,-44.8025 -8.374696,-12.64024 -17.901091,-18.85373 -17.901091,-33.95378 0,-17.90109 17.332351,-19.76371 24.07192,-37.96339 9.256244,-25.01034 19.479348,-38.90182 28.394348,-38.90182 16.69252,0 4.12336,28.40857 43.83563,50.02069 17.58829,9.56905 41.44693,9.38421 82.11184,9.56905 C 80.328149,301.57438 180.05671,60.172692 0.07893501,125.00905 -2.6936725,83.334628 68.128676,50.14865 125.10221,83.633217 225.44216,142.59734 198.58341,264.848 266.47675,271.01883 259.43859,227.31116 271.894,80.689987 300.88552,0 c 32.50349,81.088106 35.31876,228.24958 31.40867,270.40743 75.88413,-4.63523 40.22413,-140.30816 154.61197,-194.48064 49.4235,-23.403651 116.22202,10.649657 112.9802,49.70788 -181.51337,-67.62319 -74.09261,173.79272 -239.8661,247.87111 z"
   inkscape:connector-curvature="0"
   id="path5"
   style="fill:#ffffff;fill-rule:evenodd" /><path
   d="m 298.19822,691.54518 c -1.05216,-3.44087 -1.49294,-7.77751 -2.03324,-13.64976 -0.65405,-7.35096 -1.40763,-15.66878 -4.47883,-24.39894 -1.09482,-3.08542 -3.31291,-5.64475 -6.2277,-7.16613 -8.84391,-4.62101 -20.57417,-11.84401 -29.92994,-19.067 11.06199,-20.41777 -3.93853,-39.20041 -13.91992,-51.34301 2.95745,-2.60198 6.44099,-5.03335 9.86764,-7.40784 7.57846,-5.28928 15.42708,-10.74918 18.96748,-19.33716 1.692,-4.12336 1.1517,-8.8439 -1.43607,-12.46962 -2.43136,-3.384 -5.54521,-5.80115 -8.55953,-8.1472 -2.87214,-2.23231 -5.16132,-4.08071 -6.82488,-6.19927 20.40354,-11.5312 34.6647,-41.53224 35.36141,-52.96391 0.3839,-6.42676 -1.43607,-14.67349 -11.61652,-19.23763 0.51187,-2.26074 1.05217,-4.32242 1.59247,-6.32723 2.58777,-9.65436 5.01913,-18.78264 -2.41714,-33.76894 -1.49294,-3.02854 -4.10915,-5.34616 -7.29409,-6.46942 -8.10455,-2.85792 -30.5129,-7.39362 -56.19151,-7.39362 -21.8254,0 -41.78817,3.12807 -59.30537,9.31312 -30.85414,10.89137 -38.40417,33.00114 -42.92565,46.21012 -0.27015,0.75359 -0.5403,1.57826 -0.83889,2.40293 -4.90538,-5.26084 -11.687607,-18.2139 -14.573962,-23.70224 -2.587767,-4.9196 -5.019131,-9.56905 -7.39362,-13.13789 -2.616204,-3.95275 -5.260845,-7.27987 -7.606898,-10.20889 -5.772711,-7.23721 -8.132982,-10.42216 -8.132982,-16.59298 0,-3.89587 1.350758,-5.57366 7.095032,-11.00512 5.104441,-4.83429 12.114162,-11.46011 16.194871,-22.46523 6.170829,-16.6783 11.659169,-24.96769 14.900989,-28.5081 0.27015,0.69671 0.52608,1.39342 0.75358,2.01903 4.08071,11.09043 10.91981,29.63136 38.21933,44.48969 19.93433,10.84871 44.29063,10.94824 84.62851,11.13308 0,0 3.66837,0.0142 3.68259,0.0142 6.09974,0 11.3748,-4.23711 12.66868,-10.19466 1.32233,-5.97177 -1.73465,-12.04307 -7.29409,-14.57397 -66.13024,-30.08634 -83.40572,-93.8421 -98.64795,-150.09048 -14.67349,-54.17249 -29.84463,-110.20759 -92.079005,-110.20759 -9.995605,0 -20.830102,1.45028 -32.759424,4.36507 0.710925,-0.88154 1.42185,-1.70622 2.118557,-2.44558 11.616514,-12.426966 31.892095,-20.147612 52.907038,-20.147612 15.398636,0 30.569774,4.123365 43.864074,11.94354 48.42821,28.465432 64.76527,72.841372 79.16861,111.984902 13.90569,37.77856 27.01515,73.45278 67.60896,77.13537 0.3839,0.0284 0.78202,0.0569 1.16592,0.0569 3.58306,0 7.02394,-1.47872 9.48374,-4.12336 2.72995,-2.92902 3.95274,-6.95285 3.31291,-10.90559 -5.43147,-33.76894 1.90528,-143.0239 21.95337,-224.453245 19.49356,79.609385 21.46993,189.049175 18.15702,224.694955 -0.34124,3.7679 0.95264,7.50737 3.59728,10.2231 2.44558,2.5309 5.81537,3.95275 9.31312,3.95275 0.25593,0 0.51186,-0.0142 0.78202,-0.0284 44.14844,-2.6873 57.48539,-40.09617 71.60436,-79.68048 14.95786,-41.97301 31.92053,-89.56233 87.7708,-116.022956 9.00031,-4.26555 19.03857,-6.426762 29.8162,-6.426762 21.48415,0 43.43751,8.787033 55.94979,22.365698 0.59718,0.65405 1.22279,1.35076 1.81997,2.10434 -12.55493,-3.24182 -23.87286,-4.83429 -34.18127,-4.83429 -60.15848,0 -73.76558,51.84065 -88.1547,106.72406 -15.05739,57.40009 -32.11959,122.44972 -102.94194,154.1001 -5.531,2.47402 -8.58798,8.43158 -7.40784,14.37491 1.16592,5.92911 6.29879,10.26576 12.35588,10.42216 7.77752,0.21328 15.05739,0.32702 21.64055,0.32702 53.29094,0 72.2442,-7.09503 90.34435,-21.05759 12.92462,-9.98139 19.10967,-22.60742 23.60271,-31.82101 0.82467,-1.67778 1.81997,-3.71103 2.70152,-5.34615 2.43136,2.78682 6.52629,9.71123 12.49806,26.71656 0.17062,0.48343 0.35546,0.95264 0.59718,1.42185 3.27025,6.69691 8.0761,12.02885 12.73977,17.17595 5.50256,6.09973 10.25154,11.3748 10.33685,16.50767 0.12797,8.10455 -3.0712,11.70183 -10.29419,19.03858 -3.48354,3.55462 -7.42206,7.55002 -10.91981,12.64024 -4.10915,6.01443 -6.88176,13.03837 -9.32734,19.25185 -1.49294,3.82478 -4.09493,10.40794 -6.15661,13.1379 -0.61139,-1.46451 -1.27966,-3.2987 -1.83418,-4.82008 -4.97648,-13.72085 -13.30852,-36.68373 -49.53726,-49.05382 -10.84871,-3.69681 -23.71646,-5.48834 -39.34259,-5.48834 -17.53141,0 -35.36141,2.24652 -51.10129,4.22289 -7.60689,0.95264 -14.78724,1.86263 -20.73057,2.34606 -5.18975,0.41233 -9.62592,3.88165 -11.27527,8.82968 -3.93852,11.84401 -2.53089,22.50789 -1.37919,31.11008 0.45499,3.54041 1.16591,8.87235 0.55452,10.27998 l 0,0 c -0.0142,0 -0.6114,0.55452 -2.40293,1.26544 -6.64004,2.60199 -9.93873,10.0667 -7.39362,16.72096 7.10925,18.52671 17.75891,27.00093 27.14312,34.49408 3.58306,2.8437 7.03815,5.61631 10.39372,8.94344 -0.93842,0.22749 -1.90528,0.24171 -3.04276,0.24171 -2.18965,0 -5.09022,-0.29859 -8.88656,-0.90998 -0.69671,-0.11375 -1.39341,-0.17062 -2.0759,-0.17062 -3.09964,0 -6.12818,1.10904 -8.50267,3.17072 -2.91479,2.51668 -4.54992,6.21349 -4.4646,10.0667 1.19435,58.85037 2.64464,130.86707 -25.39425,165.83036 z"
   inkscape:connector-curvature="0"
   id="path42"
   style="fill:url(#linearGradient3022);fill-rule:evenodd" />
</svg>