<?xml version="1.0" encoding="UTF-8" standalone="no"?>
<!-- Created with Inkscape (http://www.inkscape.org/) -->

<svg
   xmlns:dc="http://purl.org/dc/elements/1.1/"
   xmlns:cc="http://creativecommons.org/ns#"
   xmlns:rdf="http://www.w3.org/1999/02/22-rdf-syntax-ns#"
   xmlns:svg="http://www.w3.org/2000/svg"
   xmlns="http://www.w3.org/2000/svg"
   xmlns:xlink="http://www.w3.org/1999/xlink"
   xmlns:inkscape="http://www.inkscape.org/namespaces/inkscape"
   version="1.1"
   width="600"
   height="451.99985"
   id="svg2"
   xml:space="preserve"><metadata
     id="metadata8"><rdf:RDF><cc:Work
         rdf:about=""><dc:format>image/svg+xml</dc:format><dc:type
           rdf:resource="http://purl.org/dc/dcmitype/StillImage" /><dc:title /></cc:Work></rdf:RDF></metadata><defs
     id="defs6"><clipPath
       id="clipPath16"><path
         d="M 0,226 300,226 300,0 0,0 0,226 z"
         inkscape:connector-curvature="0"
         id="path18" /></clipPath><linearGradient
       x1="0"
       y1="0"
       x2="1"
       y2="0"
       id="linearGradient36"
       gradientUnits="userSpaceOnUse"
       gradientTransform="matrix(152.77832,0,0,-152.77832,10.84082,123.05859)"
       spreadMethod="pad"><stop
         id="stop38"
         style="stop-color:#bf331c;stop-opacity:1"
         offset="0" /><stop
         id="stop40"
         style="stop-color:#f6971d;stop-opacity:1"
         offset="0.630005" /><stop
         id="stop42"
         style="stop-color:#bf331c;stop-opacity:1"
         offset="1" /></linearGradient><clipPath
       id="clipPath50"><path
         d="M 0,226 300,226 300,0 0,0 0,226 z"
         inkscape:connector-curvature="0"
         id="path52" /></clipPath><linearGradient
       x1="0"
       y1="0"
       x2="1"
       y2="0"
       id="linearGradient70"
       gradientUnits="userSpaceOnUse"
       gradientTransform="matrix(238.74805,0,0,-238.74805,50.269531,107.14453)"
       spreadMethod="pad"><stop
         id="stop72"
         style="stop-color:#bf331c;stop-opacity:1"
         offset="0" /><stop
         id="stop74"
         style="stop-color:#f6971d;stop-opacity:1"
         offset="0.630005" /><stop
         id="stop76"
         style="stop-color:#bf331c;stop-opacity:1"
         offset="1" /></linearGradient><clipPath
       id="clipPath84"><path
         d="M 0,226 300,226 300,0 0,0 0,226 z"
         inkscape:connector-curvature="0"
         id="path86" /></clipPath><linearGradient
       x1="0"
       y1="0"
       x2="1"
       y2="0"
       id="linearGradient3086"
       xlink:href="#linearGradient70"
       gradientUnits="userSpaceOnUse"
       gradientTransform="matrix(238.74805,0,0,-238.74805,50.269531,107.14453)"
       spreadMethod="pad" /><linearGradient
       x1="0"
       y1="0"
       x2="1"
       y2="0"
       id="linearGradient3093"
       xlink:href="#linearGradient36"
       gradientUnits="userSpaceOnUse"
       gradientTransform="matrix(152.77832,0,0,-152.77832,10.84082,123.05859)"
       spreadMethod="pad" /><linearGradient
       x1="0"
       y1="0"
       x2="1"
       y2="0"
       id="linearGradient3101"
       xlink:href="#linearGradient36"
       gradientUnits="userSpaceOnUse"
       gradientTransform="matrix(152.77832,0,0,-152.77832,10.84082,123.05859)"
       spreadMethod="pad" /><linearGradient
       x1="0"
       y1="0"
       x2="1"
       y2="0"
       id="linearGradient3106"
       xlink:href="#linearGradient70"
       gradientUnits="userSpaceOnUse"
       gradientTransform="matrix(238.74805,0,0,-238.74805,50.269531,107.14453)"
       spreadMethod="pad" /><linearGradient
       x1="0"
       y1="0"
       x2="1"
       y2="0"
       id="linearGradient3111"
       xlink:href="#linearGradient70"
       gradientUnits="userSpaceOnUse"
       gradientTransform="matrix(238.74805,0,0,-238.74805,50.269531,107.14453)"
       spreadMethod="pad" /><linearGradient
       x1="0"
       y1="0"
       x2="1"
       y2="0"
       id="linearGradient3114"
       xlink:href="#linearGradient70"
       gradientUnits="userSpaceOnUse"
       gradientTransform="matrix(238.74805,0,0,-238.74805,50.269531,107.14453)"
       spreadMethod="pad" /><linearGradient
       x1="0"
       y1="0"
       x2="1"
       y2="0"
       id="linearGradient3116"
       xlink:href="#linearGradient36"
       gradientUnits="userSpaceOnUse"
       gradientTransform="matrix(152.77832,0,0,-152.77832,10.84082,123.05859)"
       spreadMethod="pad" /><linearGradient
       x1="0"
       y1="0"
       x2="1"
       y2="0"
       id="linearGradient3119"
       xlink:href="#linearGradient36"
       gradientUnits="userSpaceOnUse"
       gradientTransform="matrix(152.77832,0,0,-152.77832,10.84082,123.05859)"
       spreadMethod="pad" /><linearGradient
       x1="0"
       y1="0"
       x2="1"
       y2="0"
       id="linearGradient3012"
       xlink:href="#linearGradient70"
       gradientUnits="userSpaceOnUse"
       gradientTransform="matrix(477.49593,0,0,477.49593,100.53863,237.71146)"
       spreadMethod="pad" /><linearGradient
       x1="0"
       y1="0"
       x2="1"
       y2="0"
       id="linearGradient3016"
       xlink:href="#linearGradient36"
       gradientUnits="userSpaceOnUse"
       gradientTransform="matrix(305.55653,0,0,305.55653,21.681232,205.88335)"
       spreadMethod="pad" /></defs><path
     d="m 251.73391,111.35596 c 37.13999,0 70.92798,14.31799 96.19197,37.71199 3.984,4.13399 7.222,9.21999 9.32199,15.08599 3.626,10.164 3.148,20.71399 -0.53799,29.58199 -20.702,-36.58799 -59.94398,-61.29798 -104.97597,-61.29798 -66.58597,0 -120.56596,53.98598 -120.56596,120.58796 0,27.96599 9.542,53.68798 25.518,74.14397 -6.42,3.048 -12.602,6.576 -18.502,10.554 -17.64399,-23.62999 -28.09199,-52.94198 -28.09199,-84.69797 0,-78.24197 63.41598,-141.66995 141.64195,-141.66995 M 253.79591,-1.7997899e-6 C 113.62796,-1.7997899e-6 0,113.64996 0,253.84591 0,328.92788 32.597989,401.12186 84.39797,451.99984 l 515.33382,0 C 608.78979,72.121973 386.28986,-1.7997899e-6 253.79591,-1.7997899e-6"
     inkscape:connector-curvature="0"
     id="path22"
     style="fill:#ffffff;fill-opacity:1;fill-rule:nonzero;stroke:none" /><path
     d="m 21.679592,253.84651 c 0,50.90398 16.393995,97.96997 44.167985,136.23395 l 0,0 c 9.841997,-22.89999 24.737991,-43.09998 43.257983,-59.25198 l 0,0 C 97.231566,308.18649 90.479568,282.4325 90.479568,255.09051 l 0,0 c 0,-90.21397 73.121972,-163.349944 163.319942,-163.349944 l 0,0 c 25.70799,0 50.01798,5.961998 71.65198,16.543994 l 0,0 c 1.152,-6.748 1.786,-13.693995 1.786,-20.801992 l 0,0 c 0,-21.309993 -5.436,-41.249986 -14.878,-58.33798 l 0,0 C 293.6515,24.28059 274.0255,21.686591 253.79751,21.686591 l 0,0 c -128.19395,0 -232.117918,103.941959 -232.117918,232.159919"
     inkscape:connector-curvature="0"
     id="path44"
     style="fill:url(#linearGradient3016);stroke:none" /><path
     d="m 253.80031,91.741766 c 25.70799,0 50.01798,5.959998 71.65198,16.543994 1.152,-6.75 1.786,-13.695995 1.786,-20.803992 0,-21.309993 -5.436,-41.249986 -14.88,-58.33598 -18.70599,-4.863998 -38.33199,-7.457997 -58.55998,-7.457997 -128.19595,0 -232.117918,103.939959 -232.117918,232.157919 0,50.90398 16.393995,97.97197 44.165985,136.23395 9.841997,-22.89999 24.739991,-43.09998 43.257983,-59.25198 -11.871994,-22.64199 -18.623992,-48.39398 -18.623992,-75.73597 0,-90.21397 73.119972,-163.349944 163.319942,-163.349944 z"
     inkscape:connector-curvature="0"
     id="path56"
     style="fill:none;stroke:#ffffff;stroke-width:13.99999523;stroke-linecap:butt;stroke-linejoin:miter;stroke-miterlimit:4;stroke-opacity:1;stroke-dasharray:none" /><path
     d="m 378.96147,87.482568 c 0,18.975992 -4.322,36.855982 -11.934,52.613982 l 0,0 c 3.738,4.976 6.862,10.6 9.178,16.78999 l 0,0 c 11.97399,32.03199 -2.118,66.90598 -31.47599,77.95798 l 0,0 c -7.774,-45.82399 -47.62998,-80.72998 -95.65997,-80.72998 l 0,0 c -53.59998,0 -97.05396,43.46199 -97.05396,97.07197 l 0,0 c 0,36.86399 20.54399,68.92798 50.80398,85.36997 l 0,0 c -50.18198,6.098 -91.70797,43.66599 -102.27997,93.76397 l 0,0 477.49584,0 C 575.6834,216.97852 510.25542,99.338563 371.38547,45.104582 l 0,0 c 4.872,13.113996 7.576,27.401991 7.576,42.377986"
     inkscape:connector-curvature="0"
     id="path78"
     style="fill:url(#linearGradient3012);stroke:none" /><path
     d="m 371.38627,45.104982 c 4.872,13.111996 7.574,27.401991 7.574,42.375986 0,18.977992 -4.322,36.857982 -11.932,52.615982 3.736,4.976 6.862,10.6 9.176,16.78999 11.97599,32.02999 -2.116,66.90598 -31.47399,77.95798 -7.774,-45.82399 -47.62998,-80.72998 -95.65997,-80.72998 -53.60198,0 -97.05596,43.45999 -97.05596,97.07197 0,36.86399 20.54599,68.92598 50.80598,85.36797 -50.18198,6.1 -91.70997,43.66599 -102.28197,93.76397 l 477.49584,0 C 575.6842,216.97892 510.25622,99.338963 371.38627,45.104982 z"
     inkscape:connector-curvature="0"
     id="path90"
     style="fill:none;stroke:#ffffff;stroke-width:13.99999523;stroke-linecap:butt;stroke-linejoin:miter;stroke-miterlimit:4;stroke-opacity:1;stroke-dasharray:none" /></svg>