<?xml version="1.0" encoding="UTF-8" standalone="no"?>
<!-- Created with Inkscape (http://www.inkscape.org/) -->

<svg
   xmlns:dc="http://purl.org/dc/elements/1.1/"
   xmlns:cc="http://creativecommons.org/ns#"
   xmlns:rdf="http://www.w3.org/1999/02/22-rdf-syntax-ns#"
   xmlns:svg="http://www.w3.org/2000/svg"
   xmlns="http://www.w3.org/2000/svg"
   xmlns:xlink="http://www.w3.org/1999/xlink"
   xmlns:inkscape="http://www.inkscape.org/namespaces/inkscape"
   version="1.1"
   width="600"
   height="427.2493"
   id="svg5935">
  <defs
     id="defs5937">
    <linearGradient
       x1="0"
       y1="0"
       x2="1"
       y2="0"
       id="linearGradient642"
       gradientUnits="userSpaceOnUse"
       gradientTransform="matrix(42.023926,0,0,-42.023926,145.57422,142.95312)"
       spreadMethod="pad">
      <stop
         id="stop644"
         style="stop-color:#8d742f;stop-opacity:1"
         offset="0" />
      <stop
         id="stop646"
         style="stop-color:#b39a54;stop-opacity:1"
         offset="0.30000299" />
      <stop
         id="stop648"
         style="stop-color:#d7bd74;stop-opacity:1"
         offset="0.5" />
      <stop
         id="stop650"
         style="stop-color:#b39a54;stop-opacity:1"
         offset="0.69999701" />
      <stop
         id="stop652"
         style="stop-color:#8d742f;stop-opacity:1"
         offset="1" />
    </linearGradient>
    <linearGradient
       x1="0"
       y1="0"
       x2="1"
       y2="0"
       id="linearGradient2995"
       xlink:href="#linearGradient642"
       gradientUnits="userSpaceOnUse"
       gradientTransform="matrix(42.023926,0,0,-42.023926,145.57422,142.95312)"
       spreadMethod="pad" />
    <linearGradient
       x1="0"
       y1="0"
       x2="1"
       y2="0"
       id="linearGradient2998"
       xlink:href="#linearGradient642"
       gradientUnits="userSpaceOnUse"
       gradientTransform="matrix(561.08417,0,0,561.08417,19.44732,213.67646)"
       spreadMethod="pad" />
  </defs>
  <metadata
     id="metadata5940">
    <rdf:RDF>
      <cc:Work
         rdf:about="">
        <dc:format>image/svg+xml</dc:format>
        <dc:type
           rdf:resource="http://purl.org/dc/dcmitype/StillImage" />
        <dc:title />
      </cc:Work>
    </rdf:RDF>
  </metadata>
  <path
     d="m 475.27933,61.23017 c -5.90138,0 -10.69458,4.7932 -10.69458,10.69458 0,5.88803 4.7932,10.68124 10.69458,10.68124 5.88803,0 10.69459,-4.79321 10.69459,-10.68124 0,-5.90138 -4.80656,-10.69458 -10.69459,-10.69458 m -46.42331,45.06145 c -5.88803,0 -10.68123,4.7398 -10.68123,10.69458 0,5.83463 4.7932,10.68124 10.68123,10.68124 5.90139,0 10.69459,-4.84661 10.69459,-10.68124 0,-5.95478 -4.7932,-10.69458 -10.69459,-10.69458 m 92.83327,1.34851 c -5.88803,0 -10.68124,4.80655 -10.68124,10.69458 0,5.90138 4.79321,10.69458 10.68124,10.69458 5.90138,0 10.69458,-4.7932 10.69458,-10.69458 0,-5.88803 -4.7932,-10.69458 -10.69458,-10.69458 M 121.71718,80.99045 c -19.81369,0 -35.982398,16.16872 -35.982398,35.99575 0,19.81369 16.168708,35.929 35.982398,35.929 19.82704,0 35.94235,-16.11531 35.94235,-35.929 0,-19.82703 -16.11531,-35.99575 -35.94235,-35.99575 m 353.56215,73.07298 c -5.90138,0 -10.69458,4.79321 -10.69458,10.69459 0,5.88803 4.7932,10.69458 10.69458,10.69458 5.88803,0 10.69459,-4.80655 10.69459,-10.69458 0,-5.90138 -4.80656,-10.69459 -10.69459,-10.69459 m -92.83326,29.30664 c -21.33576,0 -38.70612,17.37035 -38.70612,38.75952 0,21.269 17.37036,38.63936 38.70612,38.63936 21.32241,0 38.69276,-17.37036 38.69276,-38.63936 0,-21.38917 -17.37035,-38.75952 -38.69276,-38.75952 m -174.71826,-8.1845 c -26.59627,0 -48.25247,21.64285 -48.25247,48.23912 0,26.64967 21.6562,48.25247 48.25247,48.25247 26.59626,0 48.23911,-21.6028 48.23911,-48.25247 0,-26.59627 -21.64285,-48.23912 -48.23911,-48.23912 m 328.8885,252.06374 c -37.39767,0 -100.56381,-44.38052 -137.58763,-85.52997 -0.16022,-0.21363 -25.76847,-26.34259 -98.46761,-26.34259 -72.91277,0 -99.61585,26.34259 -99.88288,26.59627 -36.91701,41.09604 -101.071157,85.27629 -137.32059,85.27629 -3.444698,0 -6.782583,-0.36103 -9.746625,-1.14823 C -9.7020314,409.71874 -1.2638576,320.1299 2.7549562,277.04448 9.5375389,205.01291 23.983906,102.2194 70.927924,40.68215 92.30374,12.5638 119.95478,0 160.4233,0 c 27.53087,0 58.41299,4.01882 79.94902,32.49765 l 119.22926,0 C 381.13762,4.01882 412.01973,0 439.60401,0 c 40.46852,0 68.06616,12.5638 89.49538,40.68215 46.94402,61.59066 61.33698,164.38417 68.11956,236.36233 4.05887,43.08542 12.5104,132.67426 -50.90942,149.0566 -2.92399,0.7872 -6.20847,1.14823 -9.69322,1.14823"
     inkscape:connector-curvature="0"
     id="path638"
     style="fill:#000000;fill-opacity:1;fill-rule:nonzero;stroke:none" />
  <path
     d="m 372.95312,47.03748 -3.23107,4.80656 -5.79457,0 -127.88106,0 -5.79457,0 -3.23107,-4.80656 C 213.50902,27.11698 194.84357,19.34639 160.4233,19.34639 l 0,0 c -34.79412,0 -56.33015,9.59975 -74.167808,33.07176 l 0,0 C 42.342275,109.99 28.576836,209.24535 22.007878,278.87364 l 0,0 c -5.687756,60.38902 -5.167046,117.81399 36.449706,128.50858 l 0,0 c 1.415264,0.41389 3.084206,0.57411 4.900016,0.57411 l 0,0 c 27.223792,0 85.95721,-37.7181 123.19466,-79.12123 l 0,0 0.10681,-0.10681 0.0534,-0.10681 c 1.24169,-1.34851 31.80337,-32.53771 113.84859,-32.53771 l 0,0 c 82.08527,0 111.55212,31.28266 112.80717,32.64452 l 0,0 c 37.29085,41.46989 96.02428,79.22804 123.24807,79.22804 l 0,0 c 1.81581,0 3.48475,-0.16022 4.90002,-0.57411 l 0,0 c 41.67015,-10.69459 42.13746,-68.11956 36.4497,-128.50858 l 0,0 C 573.74694,234.22608 566.60386,177.37522 550.43514,127.14673 l 0,0 c -3.80518,12.31012 -15.28751,21.22895 -28.74586,21.22895 l 0,0 c -16.58262,0 -30.04097,-13.49841 -30.04097,-30.04097 l 0,0 c 0,-16.58261 13.45835,-30.04097 30.04097,-30.04097 l 0,0 c 5.68775,0 11.01502,1.61554 15.50114,4.3259 l 0,0 C 530.51465,77.86619 522.74405,64.24762 513.71841,52.41815 l 0,0 C 495.82734,28.94614 474.38477,19.34639 439.604,19.34639 l 0,0 c -34.47367,0 -53.15248,7.77059 -66.65089,27.69109 m 72.28524,24.88727 c 0,-16.54255 13.45836,-30.04096 30.04097,-30.04096 l 0,0 c 16.58262,0 30.04097,13.49841 30.04097,30.04096 l 0,0 c 0,16.58262 -13.45835,30.04097 -30.04097,30.04097 l 0,0 c -16.58261,0 -30.04097,-13.45835 -30.04097,-30.04097 M 66.441796,116.9862 c 0,-30.50827 24.767108,-55.28873 55.275374,-55.28873 l 0,0 c 30.46822,0 55.28873,24.78046 55.28873,55.28873 l 0,0 c 0,30.50828 -24.82051,55.27538 -55.28873,55.27538 l 0,0 c -30.508266,0 -55.275374,-24.7671 -55.275374,-55.27538 m 332.373254,0 c 0,-16.59596 13.51176,-30.04096 30.04096,-30.04096 l 0,0 c 16.58262,0 30.04097,13.445 30.04097,30.04096 l 0,0 c 0,16.52921 -13.45835,30.04097 -30.04097,30.04097 l 0,0 c -16.5292,0 -30.04096,-13.51176 -30.04096,-30.04097 m 46.4233,47.77182 c 0,-16.52921 13.45836,-30.04097 30.04097,-30.04097 l 0,0 c 16.58262,0 30.04097,13.51176 30.04097,30.04097 l 0,0 c 0,16.52921 -13.45835,30.04096 -30.04097,30.04096 l 0,0 c -16.58261,0 -30.04097,-13.51175 -30.04097,-30.04096 m -305.10941,58.66667 c 0,-37.23745 30.308,-67.5321 67.59886,-67.5321 l 0,0 c 37.23744,0 67.53209,30.29465 67.53209,67.5321 l 0,0 c 0,37.29085 -30.29465,67.59885 -67.53209,67.59885 l 0,0 c -37.29086,0 -67.59886,-30.308 -67.59886,-67.59885 m 184.31803,-1.34851 c 0,-31.97694 26.02215,-57.99909 57.99909,-57.99909 l 0,0 c 31.96359,0 57.98574,26.02215 57.98574,57.99909 l 0,0 c 0,32.017 -26.02215,58.03915 -57.98574,58.03915 l 0,0 c -31.97694,0 -57.99909,-26.02215 -57.99909,-58.03915"
     inkscape:connector-curvature="0"
     id="path654"
     style="fill:url(#linearGradient2998);fill-opacity:1;fill-rule:nonzero;stroke:none" />
</svg>
