<?xml version="1.0" encoding="UTF-8" standalone="no"?>
<!-- Created with Inkscape (http://www.inkscape.org/) -->

<svg
   xmlns:dc="http://purl.org/dc/elements/1.1/"
   xmlns:cc="http://creativecommons.org/ns#"
   xmlns:rdf="http://www.w3.org/1999/02/22-rdf-syntax-ns#"
   xmlns:svg="http://www.w3.org/2000/svg"
   xmlns="http://www.w3.org/2000/svg"
   xmlns:xlink="http://www.w3.org/1999/xlink"
   xmlns:inkscape="http://www.inkscape.org/namespaces/inkscape"
   version="1.1"
   width="600"
   height="427.24835"
   id="svg5866">
  <defs
     id="defs5868">
    <linearGradient
       x1="0"
       y1="0"
       x2="1"
       y2="0"
       id="linearGradient624"
       gradientUnits="userSpaceOnUse"
       gradientTransform="matrix(42.024414,0,0,-42.024414,78.574219,142.95312)"
       spreadMethod="pad">
      <stop
         id="stop626"
         style="stop-color:#626e77;stop-opacity:1"
         offset="0" />
      <stop
         id="stop628"
         style="stop-color:#a0b6c2;stop-opacity:1"
         offset="0.30000299" />
      <stop
         id="stop630"
         style="stop-color:#b7d1e1;stop-opacity:1"
         offset="0.5" />
      <stop
         id="stop632"
         style="stop-color:#a0b6c2;stop-opacity:1"
         offset="0.69999701" />
      <stop
         id="stop634"
         style="stop-color:#626e77;stop-opacity:1"
         offset="1" />
    </linearGradient>
    <linearGradient
       x1="0"
       y1="0"
       x2="1"
       y2="0"
       id="linearGradient2995"
       xlink:href="#linearGradient624"
       gradientUnits="userSpaceOnUse"
       gradientTransform="matrix(42.024414,0,0,-42.024414,78.574219,142.95312)"
       spreadMethod="pad" />
    <linearGradient
       x1="0"
       y1="0"
       x2="1"
       y2="0"
       id="linearGradient2998"
       xlink:href="#linearGradient624"
       gradientUnits="userSpaceOnUse"
       gradientTransform="matrix(561.08944,0,0,561.08944,19.447262,213.67599)"
       spreadMethod="pad" />
  </defs>
  <metadata
     id="metadata5871">
    <rdf:RDF>
      <cc:Work
         rdf:about="">
        <dc:format>image/svg+xml</dc:format>
        <dc:type
           rdf:resource="http://purl.org/dc/dcmitype/StillImage" />
        <dc:title />
      </cc:Work>
    </rdf:RDF>
  </metadata>
  <path
     d="m 475.27824,61.23003 c -5.90137,0 -10.69456,4.7932 -10.69456,10.69456 0,5.88802 4.79319,10.68121 10.69456,10.68121 5.88801,0 10.69456,-4.79319 10.69456,-10.68121 0,-5.90136 -4.80655,-10.69456 -10.69456,-10.69456 m -46.42321,45.06135 c -5.88801,0 -10.68121,4.73979 -10.68121,10.69456 0,5.83462 4.7932,10.68121 10.68121,10.68121 5.90137,0 10.69456,-4.84659 10.69456,-10.68121 0,-5.95477 -4.79319,-10.69456 -10.69456,-10.69456 m 92.83306,1.34851 c -5.88802,0 -10.68121,4.80654 -10.68121,10.69456 0,5.90137 4.79319,10.69456 10.68121,10.69456 5.90137,0 10.69456,-4.79319 10.69456,-10.69456 0,-5.88802 -4.79319,-10.69456 -10.69456,-10.69456 M 121.71687,80.99027 c -19.81364,0 -35.982278,16.16868 -35.982278,35.99567 0,19.81365 16.168638,35.92892 35.982278,35.92892 19.827,0 35.94227,-16.11527 35.94227,-35.92892 0,-19.82699 -16.11527,-35.99567 -35.94227,-35.99567 m 353.56137,73.07282 c -5.90137,0 -10.69456,4.79319 -10.69456,10.69456 0,5.88802 4.79319,10.69456 10.69456,10.69456 5.88801,0 10.69456,-4.80654 10.69456,-10.69456 0,-5.90137 -4.80655,-10.69456 -10.69456,-10.69456 m -92.83306,29.30657 c -21.33571,0 -38.70603,17.37031 -38.70603,38.75943 0,21.26896 17.37032,38.63928 38.70603,38.63928 21.32236,0 38.69268,-17.37032 38.69268,-38.63928 0,-21.38912 -17.37032,-38.75943 -38.69268,-38.75943 m -174.71787,-8.18448 c -26.59621,0 -48.25237,21.6428 -48.25237,48.23901 0,26.64962 21.65616,48.25236 48.25237,48.25236 26.59621,0 48.23901,-21.60274 48.23901,-48.25236 0,-26.59621 -21.6428,-48.23901 -48.23901,-48.23901 m 328.88777,252.06318 c -37.45099,0 -100.56358,-44.38042 -137.58732,-85.52978 -0.16022,-0.21362 -25.76842,-26.34253 -98.4674,-26.34253 -72.9126,0 -99.61562,26.34253 -99.88265,26.59621 -36.91693,41.09595 -101.070941,85.2761 -137.320251,85.2761 -3.44469,0 -6.782568,-0.35996 -9.746603,-1.14823 C -9.7020098,409.71783 -1.2638548,320.12919 2.75495,277.04386 9.5375177,205.01246 23.983853,102.21917 70.87436,40.68206 92.303492,12.56378 119.95447,0 160.4229,0 c 27.58422,0 58.41286,4.01881 79.94885,32.49758 l 119.22899,0 C 381.13673,4.01881 412.01878,0 439.603,0 c 40.46843,0 68.066,12.56378 89.49518,40.68206 46.94391,61.59052 61.33684,164.3838 68.11941,236.3618 4.05886,43.08533 12.51036,132.67397 -50.85591,149.05627 -2.97738,0.78827 -6.26186,1.14823 -9.7466,1.14823"
     inkscape:connector-curvature="0"
     id="path620"
     style="fill:#000000;fill-opacity:1;fill-rule:nonzero;stroke:none" />
  <path
     d="m 372.9523,47.03738 -3.23107,4.80654 -5.79455,0 -127.88078,0 -5.79455,0 -3.23107,-4.80654 C 213.50855,27.11692 194.84314,19.34634 160.36954,19.34634 l 0,0 c -34.79404,0 -56.22321,9.59974 -74.114239,33.0717 l 0,0 C 42.342181,109.98975 28.576773,209.24489 22.007829,278.87302 l 0,0 c -5.687744,60.38888 -5.167035,117.81373 36.449625,128.50829 l 0,0 c 1.415261,0.4139 3.0842,0.57412 4.900005,0.57412 l 0,0 c 27.223731,0 85.957031,-37.71802 123.194391,-79.12106 l 0,0 0.0534,-0.10681 0.10681,-0.10681 c 1.24169,-1.34851 31.8033,-32.53763 113.84834,-32.53763 l 0,0 c 82.13849,0 111.55187,31.28258 112.80691,32.64444 l 0,0 c 37.29077,41.46979 96.02407,79.22787 123.2478,79.22787 l 0,0 c 1.81581,0 3.48475,-0.16022 4.90001,-0.57412 l 0,0 c 41.67007,-10.69456 42.13738,-68.11941 36.44963,-128.50829 l 0,0 C 573.79908,234.22556 566.60262,177.37483 550.43394,127.14644 l 0,0 c -3.80518,12.3101 -15.23408,21.22891 -28.74581,21.22891 l 0,0 c -16.58257,0 -30.0409,-13.49838 -30.0409,-30.0409 l 0,0 c 0,-16.58258 13.45833,-30.0409 30.0409,-30.0409 l 0,0 c 5.68775,0 10.96159,1.61553 15.50111,4.32589 l 0,0 C 530.51348,77.86602 522.7429,64.24748 513.71728,52.41804 l 0,0 C 495.87966,28.94608 474.38373,19.34634 439.60304,19.34634 l 0,0 c -34.4736,0 -53.15236,7.77058 -66.65074,27.69104 m 72.28508,24.88721 c 0,-16.54252 13.45832,-30.0409 30.0409,-30.0409 l 0,0 c 16.58258,0 30.0409,13.49838 30.0409,30.0409 l 0,0 c 0,16.58258 -13.45832,30.0409 -30.0409,30.0409 l 0,0 c -16.58258,0 -30.0409,-13.45832 -30.0409,-30.0409 M 66.441658,116.98594 c 0,-30.5082 24.767053,-55.2886 55.275252,-55.2886 l 0,0 c 30.46815,0 55.28861,24.7804 55.28861,55.2886 l 0,0 c 0,30.50821 -24.82046,55.27526 -55.28861,55.27526 l 0,0 c -30.508199,0 -55.275252,-24.76705 -55.275252,-55.27526 m 332.372522,0 c 0,-16.59592 13.51172,-30.0409 30.0409,-30.0409 l 0,0 c 16.58257,0 30.0409,13.44498 30.0409,30.0409 l 0,0 c 0,16.52918 -13.45833,30.0409 -30.0409,30.0409 l 0,0 c -16.52918,0 -30.0409,-13.51172 -30.0409,-30.0409 m 46.4232,47.77171 c 0,-16.52917 13.45832,-30.0409 30.0409,-30.0409 l 0,0 c 16.58258,0 30.0409,13.51173 30.0409,30.0409 l 0,0 c 0,16.52917 -13.45832,30.0409 -30.0409,30.0409 l 0,0 c -16.58258,0 -30.0409,-13.51173 -30.0409,-30.0409 m -305.10873,58.66654 c 0,-37.23736 30.30793,-67.53194 67.5987,-67.53194 l 0,0 c 37.23736,0 67.53194,30.29458 67.53194,67.53194 l 0,0 c 0,37.29077 -30.29458,67.5987 -67.53194,67.5987 l 0,0 c -37.29077,0 -67.5987,-30.30793 -67.5987,-67.5987 m 184.31761,-1.3485 c 0,-31.97687 26.02209,-57.99897 57.99896,-57.99897 l 0,0 c 32.01693,0 58.03902,26.0221 58.03902,57.99897 l 0,0 c 0,32.01692 -26.02209,58.03902 -58.03902,58.03902 l 0,0 c -31.97687,0 -57.99896,-26.0221 -57.99896,-58.03902"
     inkscape:connector-curvature="0"
     id="path636"
     style="fill:url(#linearGradient2998);fill-opacity:1;fill-rule:nonzero;stroke:none" />
</svg>
