<?xml version="1.0" encoding="UTF-8" standalone="no"?>
<!-- Created with Inkscape (http://www.inkscape.org/) -->

<svg
   xmlns:dc="http://purl.org/dc/elements/1.1/"
   xmlns:cc="http://creativecommons.org/ns#"
   xmlns:rdf="http://www.w3.org/1999/02/22-rdf-syntax-ns#"
   xmlns:svg="http://www.w3.org/2000/svg"
   xmlns="http://www.w3.org/2000/svg"
   xmlns:xlink="http://www.w3.org/1999/xlink"
   xmlns:inkscape="http://www.inkscape.org/namespaces/inkscape"
   version="1.1"
   width="600"
   height="648.78894"
   id="svg6330">
  <defs
     id="defs6332">
    <linearGradient
       x1="0"
       y1="0"
       x2="1"
       y2="0"
       id="linearGradient730"
       gradientUnits="userSpaceOnUse"
       gradientTransform="matrix(33.133789,0,0,-33.133789,149.86719,34.720703)"
       spreadMethod="pad">
      <stop
         id="stop732"
         style="stop-color:#8d742f;stop-opacity:1"
         offset="0" />
      <stop
         id="stop734"
         style="stop-color:#b39a54;stop-opacity:1"
         offset="0.39999399" />
      <stop
         id="stop736"
         style="stop-color:#d7bd74;stop-opacity:1"
         offset="0.5" />
      <stop
         id="stop738"
         style="stop-color:#b39a54;stop-opacity:1"
         offset="0.60000598" />
      <stop
         id="stop740"
         style="stop-color:#8d742f;stop-opacity:1"
         offset="1" />
    </linearGradient>
    <linearGradient
       x1="0"
       y1="0"
       x2="1"
       y2="0"
       id="linearGradient2993"
       xlink:href="#linearGradient730"
       gradientUnits="userSpaceOnUse"
       gradientTransform="matrix(41.417236,0,0,41.417236,354.29149,532.5213)"
       spreadMethod="pad" />
    <linearGradient
       x1="0"
       y1="0"
       x2="1"
       y2="0"
       id="linearGradient2994"
       xlink:href="#linearGradient730"
       gradientUnits="userSpaceOnUse"
       gradientTransform="matrix(537.4209,0,0,537.4209,31.290976,326.4592)"
       spreadMethod="pad" />
  </defs>
  <metadata
     id="metadata6335">
    <rdf:RDF>
      <cc:Work
         rdf:about="">
        <dc:format>image/svg+xml</dc:format>
        <dc:type
           rdf:resource="http://purl.org/dc/dcmitype/StillImage" />
        <dc:title />
      </cc:Work>
    </rdf:RDF>
  </metadata>
  <path
     d="m 600.00004,648.78897 -600.00002548,0 0,-145.34494 15.00324448,-7.98011 0,-294.17713 153.649441,-73.66998 0,-57.985515 L 300.00003,2.063822e-5 431.33113,69.631295 l 0,57.985515 153.64944,73.66998 0,294.17713 15.01947,7.98011 0,145.34494 z"
     inkscape:connector-curvature="0"
     id="path726"
     style="fill:#ffffff;fill-opacity:1;fill-rule:nonzero;stroke:none" />
  <path
     d="m 200.02165,88.446174 0,301.281366 99.97838,-53.03849 99.97837,53.03849 0,-301.281366 -99.97837,-52.957398 -99.97838,52.957398 z M 435.5807,407.7801 l 118.0958,56.63927 0,-243.42561 -118.0958,-56.5744 0,243.36074 z M 46.372205,220.99376 l 0,243.42561 118.030925,-56.63927 0,-243.36074 -118.030925,56.5744 z m -15.084343,301.28137 0,95.16111 537.408108,0 0,-95.16111 L 300.00003,379.52534 31.287862,522.27513 z"
     inkscape:connector-curvature="0"
     id="path742"
     style="fill:url(#linearGradient2994);fill-opacity:1;fill-rule:nonzero;stroke:none" />
</svg>
